<?xml version="1.0" encoding="utf-8" standalone="no"?>
<!DOCTYPE svg PUBLIC "-//W3C//DTD SVG 1.1//EN"
  "http://www.w3.org/Graphics/SVG/1.1/DTD/svg11.dtd">
<svg xmlns:xlink="http://www.w3.org/1999/xlink" width="977.663938pt" height="503.394375pt" viewBox="0 0 977.663938 503.394375" xmlns="http://www.w3.org/2000/svg" version="1.1">
 <metadata>
  <rdf:RDF xmlns:dc="http://purl.org/dc/elements/1.1/" xmlns:cc="http://creativecommons.org/ns#" xmlns:rdf="http://www.w3.org/1999/02/22-rdf-syntax-ns#">
   <cc:Work>
    <dc:type rdf:resource="http://purl.org/dc/dcmitype/StillImage"/>
    <dc:date>2025-04-11T18:15:26.867859</dc:date>
    <dc:format>image/svg+xml</dc:format>
    <dc:creator>
     <cc:Agent>
      <dc:title>Matplotlib v3.9.4, https://matplotlib.org/</dc:title>
     </cc:Agent>
    </dc:creator>
   </cc:Work>
  </rdf:RDF>
 </metadata>
 <defs>
  <style type="text/css">*{stroke-linejoin: round; stroke-linecap: butt}</style>
 </defs>
 <g id="figure_1">
  <g id="patch_1">
   <path d="M 0 503.394375 
L 977.663938 503.394375 
L 977.663938 0 
L 0 0 
z
" style="fill: #ffffff"/>
  </g>
  <g id="axes_1">
   <g id="patch_2">
    <path d="M 40.603125 465.838125 
L 847.003125 465.838125 
L 847.003125 22.318125 
L 40.603125 22.318125 
z
" style="fill: #ffffff"/>
   </g>
   <g id="matplotlib.axis_1">
    <g id="xtick_1">
     <g id="line2d_1">
      <path d="M 62.327163 465.838125 
L 62.327163 22.318125 
" clip-path="url(#pe137ad1ad1)" style="fill: none; stroke: #b0b0b0; stroke-width: 0.8; stroke-linecap: square"/>
     </g>
     <g id="line2d_2">
      <defs>
       <path id="mee1c846030" d="M 0 0 
L 0 3.5 
" style="stroke: #000000; stroke-width: 0.8"/>
      </defs>
      <g>
       <use xlink:href="#mee1c846030" x="62.327163" y="465.838125" style="stroke: #000000; stroke-width: 0.8"/>
      </g>
     </g>
     <g id="text_1">
      <!-- 0 -->
      <g transform="translate(59.145913 480.436562) scale(0.1 -0.1)">
       <defs>
        <path id="DejaVuSans-30" d="M 2034 4250 
Q 1547 4250 1301 3770 
Q 1056 3291 1056 2328 
Q 1056 1369 1301 889 
Q 1547 409 2034 409 
Q 2525 409 2770 889 
Q 3016 1369 3016 2328 
Q 3016 3291 2770 3770 
Q 2525 4250 2034 4250 
z
M 2034 4750 
Q 2819 4750 3233 4129 
Q 3647 3509 3647 2328 
Q 3647 1150 3233 529 
Q 2819 -91 2034 -91 
Q 1250 -91 836 529 
Q 422 1150 422 2328 
Q 422 3509 836 4129 
Q 1250 4750 2034 4750 
z
" transform="scale(0.015625)"/>
       </defs>
       <use xlink:href="#DejaVuSans-30"/>
      </g>
     </g>
    </g>
    <g id="xtick_2">
     <g id="line2d_3">
      <path d="M 211.931446 465.838125 
L 211.931446 22.318125 
" clip-path="url(#pe137ad1ad1)" style="fill: none; stroke: #b0b0b0; stroke-width: 0.8; stroke-linecap: square"/>
     </g>
     <g id="line2d_4">
      <g>
       <use xlink:href="#mee1c846030" x="211.931446" y="465.838125" style="stroke: #000000; stroke-width: 0.8"/>
      </g>
     </g>
     <g id="text_2">
      <!-- 5000 -->
      <g transform="translate(199.206446 480.436562) scale(0.1 -0.1)">
       <defs>
        <path id="DejaVuSans-35" d="M 691 4666 
L 3169 4666 
L 3169 4134 
L 1269 4134 
L 1269 2991 
Q 1406 3038 1543 3061 
Q 1681 3084 1819 3084 
Q 2600 3084 3056 2656 
Q 3513 2228 3513 1497 
Q 3513 744 3044 326 
Q 2575 -91 1722 -91 
Q 1428 -91 1123 -41 
Q 819 9 494 109 
L 494 744 
Q 775 591 1075 516 
Q 1375 441 1709 441 
Q 2250 441 2565 725 
Q 2881 1009 2881 1497 
Q 2881 1984 2565 2268 
Q 2250 2553 1709 2553 
Q 1456 2553 1204 2497 
Q 953 2441 691 2322 
L 691 4666 
z
" transform="scale(0.015625)"/>
       </defs>
       <use xlink:href="#DejaVuSans-35"/>
       <use xlink:href="#DejaVuSans-30" x="63.623047"/>
       <use xlink:href="#DejaVuSans-30" x="127.246094"/>
       <use xlink:href="#DejaVuSans-30" x="190.869141"/>
      </g>
     </g>
    </g>
    <g id="xtick_3">
     <g id="line2d_5">
      <path d="M 361.53573 465.838125 
L 361.53573 22.318125 
" clip-path="url(#pe137ad1ad1)" style="fill: none; stroke: #b0b0b0; stroke-width: 0.8; stroke-linecap: square"/>
     </g>
     <g id="line2d_6">
      <g>
       <use xlink:href="#mee1c846030" x="361.53573" y="465.838125" style="stroke: #000000; stroke-width: 0.8"/>
      </g>
     </g>
     <g id="text_3">
      <!-- 10000 -->
      <g transform="translate(345.62948 480.436562) scale(0.1 -0.1)">
       <defs>
        <path id="DejaVuSans-31" d="M 794 531 
L 1825 531 
L 1825 4091 
L 703 3866 
L 703 4441 
L 1819 4666 
L 2450 4666 
L 2450 531 
L 3481 531 
L 3481 0 
L 794 0 
L 794 531 
z
" transform="scale(0.015625)"/>
       </defs>
       <use xlink:href="#DejaVuSans-31"/>
       <use xlink:href="#DejaVuSans-30" x="63.623047"/>
       <use xlink:href="#DejaVuSans-30" x="127.246094"/>
       <use xlink:href="#DejaVuSans-30" x="190.869141"/>
       <use xlink:href="#DejaVuSans-30" x="254.492188"/>
      </g>
     </g>
    </g>
    <g id="xtick_4">
     <g id="line2d_7">
      <path d="M 511.140013 465.838125 
L 511.140013 22.318125 
" clip-path="url(#pe137ad1ad1)" style="fill: none; stroke: #b0b0b0; stroke-width: 0.8; stroke-linecap: square"/>
     </g>
     <g id="line2d_8">
      <g>
       <use xlink:href="#mee1c846030" x="511.140013" y="465.838125" style="stroke: #000000; stroke-width: 0.8"/>
      </g>
     </g>
     <g id="text_4">
      <!-- 15000 -->
      <g transform="translate(495.233763 480.436562) scale(0.1 -0.1)">
       <use xlink:href="#DejaVuSans-31"/>
       <use xlink:href="#DejaVuSans-35" x="63.623047"/>
       <use xlink:href="#DejaVuSans-30" x="127.246094"/>
       <use xlink:href="#DejaVuSans-30" x="190.869141"/>
       <use xlink:href="#DejaVuSans-30" x="254.492188"/>
      </g>
     </g>
    </g>
    <g id="xtick_5">
     <g id="line2d_9">
      <path d="M 660.744296 465.838125 
L 660.744296 22.318125 
" clip-path="url(#pe137ad1ad1)" style="fill: none; stroke: #b0b0b0; stroke-width: 0.8; stroke-linecap: square"/>
     </g>
     <g id="line2d_10">
      <g>
       <use xlink:href="#mee1c846030" x="660.744296" y="465.838125" style="stroke: #000000; stroke-width: 0.8"/>
      </g>
     </g>
     <g id="text_5">
      <!-- 20000 -->
      <g transform="translate(644.838046 480.436562) scale(0.1 -0.1)">
       <defs>
        <path id="DejaVuSans-32" d="M 1228 531 
L 3431 531 
L 3431 0 
L 469 0 
L 469 531 
Q 828 903 1448 1529 
Q 2069 2156 2228 2338 
Q 2531 2678 2651 2914 
Q 2772 3150 2772 3378 
Q 2772 3750 2511 3984 
Q 2250 4219 1831 4219 
Q 1534 4219 1204 4116 
Q 875 4013 500 3803 
L 500 4441 
Q 881 4594 1212 4672 
Q 1544 4750 1819 4750 
Q 2544 4750 2975 4387 
Q 3406 4025 3406 3419 
Q 3406 3131 3298 2873 
Q 3191 2616 2906 2266 
Q 2828 2175 2409 1742 
Q 1991 1309 1228 531 
z
" transform="scale(0.015625)"/>
       </defs>
       <use xlink:href="#DejaVuSans-32"/>
       <use xlink:href="#DejaVuSans-30" x="63.623047"/>
       <use xlink:href="#DejaVuSans-30" x="127.246094"/>
       <use xlink:href="#DejaVuSans-30" x="190.869141"/>
       <use xlink:href="#DejaVuSans-30" x="254.492188"/>
      </g>
     </g>
    </g>
    <g id="xtick_6">
     <g id="line2d_11">
      <path d="M 810.34858 465.838125 
L 810.34858 22.318125 
" clip-path="url(#pe137ad1ad1)" style="fill: none; stroke: #b0b0b0; stroke-width: 0.8; stroke-linecap: square"/>
     </g>
     <g id="line2d_12">
      <g>
       <use xlink:href="#mee1c846030" x="810.34858" y="465.838125" style="stroke: #000000; stroke-width: 0.8"/>
      </g>
     </g>
     <g id="text_6">
      <!-- 25000 -->
      <g transform="translate(794.44233 480.436562) scale(0.1 -0.1)">
       <use xlink:href="#DejaVuSans-32"/>
       <use xlink:href="#DejaVuSans-35" x="63.623047"/>
       <use xlink:href="#DejaVuSans-30" x="127.246094"/>
       <use xlink:href="#DejaVuSans-30" x="190.869141"/>
       <use xlink:href="#DejaVuSans-30" x="254.492188"/>
      </g>
     </g>
    </g>
    <g id="text_7">
     <!-- Iteration -->
     <g transform="translate(422.594531 494.114687) scale(0.1 -0.1)">
      <defs>
       <path id="DejaVuSans-49" d="M 628 4666 
L 1259 4666 
L 1259 0 
L 628 0 
L 628 4666 
z
" transform="scale(0.015625)"/>
       <path id="DejaVuSans-74" d="M 1172 4494 
L 1172 3500 
L 2356 3500 
L 2356 3053 
L 1172 3053 
L 1172 1153 
Q 1172 725 1289 603 
Q 1406 481 1766 481 
L 2356 481 
L 2356 0 
L 1766 0 
Q 1100 0 847 248 
Q 594 497 594 1153 
L 594 3053 
L 172 3053 
L 172 3500 
L 594 3500 
L 594 4494 
L 1172 4494 
z
" transform="scale(0.015625)"/>
       <path id="DejaVuSans-65" d="M 3597 1894 
L 3597 1613 
L 953 1613 
Q 991 1019 1311 708 
Q 1631 397 2203 397 
Q 2534 397 2845 478 
Q 3156 559 3463 722 
L 3463 178 
Q 3153 47 2828 -22 
Q 2503 -91 2169 -91 
Q 1331 -91 842 396 
Q 353 884 353 1716 
Q 353 2575 817 3079 
Q 1281 3584 2069 3584 
Q 2775 3584 3186 3129 
Q 3597 2675 3597 1894 
z
M 3022 2063 
Q 3016 2534 2758 2815 
Q 2500 3097 2075 3097 
Q 1594 3097 1305 2825 
Q 1016 2553 972 2059 
L 3022 2063 
z
" transform="scale(0.015625)"/>
       <path id="DejaVuSans-72" d="M 2631 2963 
Q 2534 3019 2420 3045 
Q 2306 3072 2169 3072 
Q 1681 3072 1420 2755 
Q 1159 2438 1159 1844 
L 1159 0 
L 581 0 
L 581 3500 
L 1159 3500 
L 1159 2956 
Q 1341 3275 1631 3429 
Q 1922 3584 2338 3584 
Q 2397 3584 2469 3576 
Q 2541 3569 2628 3553 
L 2631 2963 
z
" transform="scale(0.015625)"/>
       <path id="DejaVuSans-61" d="M 2194 1759 
Q 1497 1759 1228 1600 
Q 959 1441 959 1056 
Q 959 750 1161 570 
Q 1363 391 1709 391 
Q 2188 391 2477 730 
Q 2766 1069 2766 1631 
L 2766 1759 
L 2194 1759 
z
M 3341 1997 
L 3341 0 
L 2766 0 
L 2766 531 
Q 2569 213 2275 61 
Q 1981 -91 1556 -91 
Q 1019 -91 701 211 
Q 384 513 384 1019 
Q 384 1609 779 1909 
Q 1175 2209 1959 2209 
L 2766 2209 
L 2766 2266 
Q 2766 2663 2505 2880 
Q 2244 3097 1772 3097 
Q 1472 3097 1187 3025 
Q 903 2953 641 2809 
L 641 3341 
Q 956 3463 1253 3523 
Q 1550 3584 1831 3584 
Q 2591 3584 2966 3190 
Q 3341 2797 3341 1997 
z
" transform="scale(0.015625)"/>
       <path id="DejaVuSans-69" d="M 603 3500 
L 1178 3500 
L 1178 0 
L 603 0 
L 603 3500 
z
M 603 4863 
L 1178 4863 
L 1178 4134 
L 603 4134 
L 603 4863 
z
" transform="scale(0.015625)"/>
       <path id="DejaVuSans-6f" d="M 1959 3097 
Q 1497 3097 1228 2736 
Q 959 2375 959 1747 
Q 959 1119 1226 758 
Q 1494 397 1959 397 
Q 2419 397 2687 759 
Q 2956 1122 2956 1747 
Q 2956 2369 2687 2733 
Q 2419 3097 1959 3097 
z
M 1959 3584 
Q 2709 3584 3137 3096 
Q 3566 2609 3566 1747 
Q 3566 888 3137 398 
Q 2709 -91 1959 -91 
Q 1206 -91 779 398 
Q 353 888 353 1747 
Q 353 2609 779 3096 
Q 1206 3584 1959 3584 
z
" transform="scale(0.015625)"/>
       <path id="DejaVuSans-6e" d="M 3513 2113 
L 3513 0 
L 2938 0 
L 2938 2094 
Q 2938 2591 2744 2837 
Q 2550 3084 2163 3084 
Q 1697 3084 1428 2787 
Q 1159 2491 1159 1978 
L 1159 0 
L 581 0 
L 581 3500 
L 1159 3500 
L 1159 2956 
Q 1366 3272 1645 3428 
Q 1925 3584 2291 3584 
Q 2894 3584 3203 3211 
Q 3513 2838 3513 2113 
z
" transform="scale(0.015625)"/>
      </defs>
      <use xlink:href="#DejaVuSans-49"/>
      <use xlink:href="#DejaVuSans-74" x="29.492188"/>
      <use xlink:href="#DejaVuSans-65" x="68.701172"/>
      <use xlink:href="#DejaVuSans-72" x="130.224609"/>
      <use xlink:href="#DejaVuSans-61" x="171.337891"/>
      <use xlink:href="#DejaVuSans-74" x="232.617188"/>
      <use xlink:href="#DejaVuSans-69" x="271.826172"/>
      <use xlink:href="#DejaVuSans-6f" x="299.609375"/>
      <use xlink:href="#DejaVuSans-6e" x="360.791016"/>
     </g>
    </g>
   </g>
   <g id="matplotlib.axis_2">
    <g id="ytick_1">
     <g id="line2d_13">
      <path d="M 40.603125 418.340779 
L 847.003125 418.340779 
" clip-path="url(#pe137ad1ad1)" style="fill: none; stroke: #b0b0b0; stroke-width: 0.8; stroke-linecap: square"/>
     </g>
     <g id="line2d_14">
      <defs>
       <path id="m5a8e3fac08" d="M 0 0 
L -3.5 0 
" style="stroke: #000000; stroke-width: 0.8"/>
      </defs>
      <g>
       <use xlink:href="#m5a8e3fac08" x="40.603125" y="418.340779" style="stroke: #000000; stroke-width: 0.8"/>
      </g>
     </g>
     <g id="text_8">
      <!-- 20 -->
      <g transform="translate(20.878125 422.139998) scale(0.1 -0.1)">
       <use xlink:href="#DejaVuSans-32"/>
       <use xlink:href="#DejaVuSans-30" x="63.623047"/>
      </g>
     </g>
    </g>
    <g id="ytick_2">
     <g id="line2d_15">
      <path d="M 40.603125 362.845892 
L 847.003125 362.845892 
" clip-path="url(#pe137ad1ad1)" style="fill: none; stroke: #b0b0b0; stroke-width: 0.8; stroke-linecap: square"/>
     </g>
     <g id="line2d_16">
      <g>
       <use xlink:href="#m5a8e3fac08" x="40.603125" y="362.845892" style="stroke: #000000; stroke-width: 0.8"/>
      </g>
     </g>
     <g id="text_9">
      <!-- 30 -->
      <g transform="translate(20.878125 366.645111) scale(0.1 -0.1)">
       <defs>
        <path id="DejaVuSans-33" d="M 2597 2516 
Q 3050 2419 3304 2112 
Q 3559 1806 3559 1356 
Q 3559 666 3084 287 
Q 2609 -91 1734 -91 
Q 1441 -91 1130 -33 
Q 819 25 488 141 
L 488 750 
Q 750 597 1062 519 
Q 1375 441 1716 441 
Q 2309 441 2620 675 
Q 2931 909 2931 1356 
Q 2931 1769 2642 2001 
Q 2353 2234 1838 2234 
L 1294 2234 
L 1294 2753 
L 1863 2753 
Q 2328 2753 2575 2939 
Q 2822 3125 2822 3475 
Q 2822 3834 2567 4026 
Q 2313 4219 1838 4219 
Q 1578 4219 1281 4162 
Q 984 4106 628 3988 
L 628 4550 
Q 988 4650 1302 4700 
Q 1616 4750 1894 4750 
Q 2613 4750 3031 4423 
Q 3450 4097 3450 3541 
Q 3450 3153 3228 2886 
Q 3006 2619 2597 2516 
z
" transform="scale(0.015625)"/>
       </defs>
       <use xlink:href="#DejaVuSans-33"/>
       <use xlink:href="#DejaVuSans-30" x="63.623047"/>
      </g>
     </g>
    </g>
    <g id="ytick_3">
     <g id="line2d_17">
      <path d="M 40.603125 307.351005 
L 847.003125 307.351005 
" clip-path="url(#pe137ad1ad1)" style="fill: none; stroke: #b0b0b0; stroke-width: 0.8; stroke-linecap: square"/>
     </g>
     <g id="line2d_18">
      <g>
       <use xlink:href="#m5a8e3fac08" x="40.603125" y="307.351005" style="stroke: #000000; stroke-width: 0.8"/>
      </g>
     </g>
     <g id="text_10">
      <!-- 40 -->
      <g transform="translate(20.878125 311.150224) scale(0.1 -0.1)">
       <defs>
        <path id="DejaVuSans-34" d="M 2419 4116 
L 825 1625 
L 2419 1625 
L 2419 4116 
z
M 2253 4666 
L 3047 4666 
L 3047 1625 
L 3713 1625 
L 3713 1100 
L 3047 1100 
L 3047 0 
L 2419 0 
L 2419 1100 
L 313 1100 
L 313 1709 
L 2253 4666 
z
" transform="scale(0.015625)"/>
       </defs>
       <use xlink:href="#DejaVuSans-34"/>
       <use xlink:href="#DejaVuSans-30" x="63.623047"/>
      </g>
     </g>
    </g>
    <g id="ytick_4">
     <g id="line2d_19">
      <path d="M 40.603125 251.856118 
L 847.003125 251.856118 
" clip-path="url(#pe137ad1ad1)" style="fill: none; stroke: #b0b0b0; stroke-width: 0.8; stroke-linecap: square"/>
     </g>
     <g id="line2d_20">
      <g>
       <use xlink:href="#m5a8e3fac08" x="40.603125" y="251.856118" style="stroke: #000000; stroke-width: 0.8"/>
      </g>
     </g>
     <g id="text_11">
      <!-- 50 -->
      <g transform="translate(20.878125 255.655337) scale(0.1 -0.1)">
       <use xlink:href="#DejaVuSans-35"/>
       <use xlink:href="#DejaVuSans-30" x="63.623047"/>
      </g>
     </g>
    </g>
    <g id="ytick_5">
     <g id="line2d_21">
      <path d="M 40.603125 196.361231 
L 847.003125 196.361231 
" clip-path="url(#pe137ad1ad1)" style="fill: none; stroke: #b0b0b0; stroke-width: 0.8; stroke-linecap: square"/>
     </g>
     <g id="line2d_22">
      <g>
       <use xlink:href="#m5a8e3fac08" x="40.603125" y="196.361231" style="stroke: #000000; stroke-width: 0.8"/>
      </g>
     </g>
     <g id="text_12">
      <!-- 60 -->
      <g transform="translate(20.878125 200.16045) scale(0.1 -0.1)">
       <defs>
        <path id="DejaVuSans-36" d="M 2113 2584 
Q 1688 2584 1439 2293 
Q 1191 2003 1191 1497 
Q 1191 994 1439 701 
Q 1688 409 2113 409 
Q 2538 409 2786 701 
Q 3034 994 3034 1497 
Q 3034 2003 2786 2293 
Q 2538 2584 2113 2584 
z
M 3366 4563 
L 3366 3988 
Q 3128 4100 2886 4159 
Q 2644 4219 2406 4219 
Q 1781 4219 1451 3797 
Q 1122 3375 1075 2522 
Q 1259 2794 1537 2939 
Q 1816 3084 2150 3084 
Q 2853 3084 3261 2657 
Q 3669 2231 3669 1497 
Q 3669 778 3244 343 
Q 2819 -91 2113 -91 
Q 1303 -91 875 529 
Q 447 1150 447 2328 
Q 447 3434 972 4092 
Q 1497 4750 2381 4750 
Q 2619 4750 2861 4703 
Q 3103 4656 3366 4563 
z
" transform="scale(0.015625)"/>
       </defs>
       <use xlink:href="#DejaVuSans-36"/>
       <use xlink:href="#DejaVuSans-30" x="63.623047"/>
      </g>
     </g>
    </g>
    <g id="ytick_6">
     <g id="line2d_23">
      <path d="M 40.603125 140.866344 
L 847.003125 140.866344 
" clip-path="url(#pe137ad1ad1)" style="fill: none; stroke: #b0b0b0; stroke-width: 0.8; stroke-linecap: square"/>
     </g>
     <g id="line2d_24">
      <g>
       <use xlink:href="#m5a8e3fac08" x="40.603125" y="140.866344" style="stroke: #000000; stroke-width: 0.8"/>
      </g>
     </g>
     <g id="text_13">
      <!-- 70 -->
      <g transform="translate(20.878125 144.665563) scale(0.1 -0.1)">
       <defs>
        <path id="DejaVuSans-37" d="M 525 4666 
L 3525 4666 
L 3525 4397 
L 1831 0 
L 1172 0 
L 2766 4134 
L 525 4134 
L 525 4666 
z
" transform="scale(0.015625)"/>
       </defs>
       <use xlink:href="#DejaVuSans-37"/>
       <use xlink:href="#DejaVuSans-30" x="63.623047"/>
      </g>
     </g>
    </g>
    <g id="ytick_7">
     <g id="line2d_25">
      <path d="M 40.603125 85.371457 
L 847.003125 85.371457 
" clip-path="url(#pe137ad1ad1)" style="fill: none; stroke: #b0b0b0; stroke-width: 0.8; stroke-linecap: square"/>
     </g>
     <g id="line2d_26">
      <g>
       <use xlink:href="#m5a8e3fac08" x="40.603125" y="85.371457" style="stroke: #000000; stroke-width: 0.8"/>
      </g>
     </g>
     <g id="text_14">
      <!-- 80 -->
      <g transform="translate(20.878125 89.170676) scale(0.1 -0.1)">
       <defs>
        <path id="DejaVuSans-38" d="M 2034 2216 
Q 1584 2216 1326 1975 
Q 1069 1734 1069 1313 
Q 1069 891 1326 650 
Q 1584 409 2034 409 
Q 2484 409 2743 651 
Q 3003 894 3003 1313 
Q 3003 1734 2745 1975 
Q 2488 2216 2034 2216 
z
M 1403 2484 
Q 997 2584 770 2862 
Q 544 3141 544 3541 
Q 544 4100 942 4425 
Q 1341 4750 2034 4750 
Q 2731 4750 3128 4425 
Q 3525 4100 3525 3541 
Q 3525 3141 3298 2862 
Q 3072 2584 2669 2484 
Q 3125 2378 3379 2068 
Q 3634 1759 3634 1313 
Q 3634 634 3220 271 
Q 2806 -91 2034 -91 
Q 1263 -91 848 271 
Q 434 634 434 1313 
Q 434 1759 690 2068 
Q 947 2378 1403 2484 
z
M 1172 3481 
Q 1172 3119 1398 2916 
Q 1625 2713 2034 2713 
Q 2441 2713 2670 2916 
Q 2900 3119 2900 3481 
Q 2900 3844 2670 4047 
Q 2441 4250 2034 4250 
Q 1625 4250 1398 4047 
Q 1172 3844 1172 3481 
z
" transform="scale(0.015625)"/>
       </defs>
       <use xlink:href="#DejaVuSans-38"/>
       <use xlink:href="#DejaVuSans-30" x="63.623047"/>
      </g>
     </g>
    </g>
    <g id="ytick_8">
     <g id="line2d_27">
      <path d="M 40.603125 29.87657 
L 847.003125 29.87657 
" clip-path="url(#pe137ad1ad1)" style="fill: none; stroke: #b0b0b0; stroke-width: 0.8; stroke-linecap: square"/>
     </g>
     <g id="line2d_28">
      <g>
       <use xlink:href="#m5a8e3fac08" x="40.603125" y="29.87657" style="stroke: #000000; stroke-width: 0.8"/>
      </g>
     </g>
     <g id="text_15">
      <!-- 90 -->
      <g transform="translate(20.878125 33.675789) scale(0.1 -0.1)">
       <defs>
        <path id="DejaVuSans-39" d="M 703 97 
L 703 672 
Q 941 559 1184 500 
Q 1428 441 1663 441 
Q 2288 441 2617 861 
Q 2947 1281 2994 2138 
Q 2813 1869 2534 1725 
Q 2256 1581 1919 1581 
Q 1219 1581 811 2004 
Q 403 2428 403 3163 
Q 403 3881 828 4315 
Q 1253 4750 1959 4750 
Q 2769 4750 3195 4129 
Q 3622 3509 3622 2328 
Q 3622 1225 3098 567 
Q 2575 -91 1691 -91 
Q 1453 -91 1209 -44 
Q 966 3 703 97 
z
M 1959 2075 
Q 2384 2075 2632 2365 
Q 2881 2656 2881 3163 
Q 2881 3666 2632 3958 
Q 2384 4250 1959 4250 
Q 1534 4250 1286 3958 
Q 1038 3666 1038 3163 
Q 1038 2656 1286 2365 
Q 1534 2075 1959 2075 
z
" transform="scale(0.015625)"/>
       </defs>
       <use xlink:href="#DejaVuSans-39"/>
       <use xlink:href="#DejaVuSans-30" x="63.623047"/>
      </g>
     </g>
    </g>
    <g id="text_16">
     <!-- Average Precision (AP) -->
     <g transform="translate(14.798438 300.432812) rotate(-90) scale(0.1 -0.1)">
      <defs>
       <path id="DejaVuSans-41" d="M 2188 4044 
L 1331 1722 
L 3047 1722 
L 2188 4044 
z
M 1831 4666 
L 2547 4666 
L 4325 0 
L 3669 0 
L 3244 1197 
L 1141 1197 
L 716 0 
L 50 0 
L 1831 4666 
z
" transform="scale(0.015625)"/>
       <path id="DejaVuSans-76" d="M 191 3500 
L 800 3500 
L 1894 563 
L 2988 3500 
L 3597 3500 
L 2284 0 
L 1503 0 
L 191 3500 
z
" transform="scale(0.015625)"/>
       <path id="DejaVuSans-67" d="M 2906 1791 
Q 2906 2416 2648 2759 
Q 2391 3103 1925 3103 
Q 1463 3103 1205 2759 
Q 947 2416 947 1791 
Q 947 1169 1205 825 
Q 1463 481 1925 481 
Q 2391 481 2648 825 
Q 2906 1169 2906 1791 
z
M 3481 434 
Q 3481 -459 3084 -895 
Q 2688 -1331 1869 -1331 
Q 1566 -1331 1297 -1286 
Q 1028 -1241 775 -1147 
L 775 -588 
Q 1028 -725 1275 -790 
Q 1522 -856 1778 -856 
Q 2344 -856 2625 -561 
Q 2906 -266 2906 331 
L 2906 616 
Q 2728 306 2450 153 
Q 2172 0 1784 0 
Q 1141 0 747 490 
Q 353 981 353 1791 
Q 353 2603 747 3093 
Q 1141 3584 1784 3584 
Q 2172 3584 2450 3431 
Q 2728 3278 2906 2969 
L 2906 3500 
L 3481 3500 
L 3481 434 
z
" transform="scale(0.015625)"/>
       <path id="DejaVuSans-20" transform="scale(0.015625)"/>
       <path id="DejaVuSans-50" d="M 1259 4147 
L 1259 2394 
L 2053 2394 
Q 2494 2394 2734 2622 
Q 2975 2850 2975 3272 
Q 2975 3691 2734 3919 
Q 2494 4147 2053 4147 
L 1259 4147 
z
M 628 4666 
L 2053 4666 
Q 2838 4666 3239 4311 
Q 3641 3956 3641 3272 
Q 3641 2581 3239 2228 
Q 2838 1875 2053 1875 
L 1259 1875 
L 1259 0 
L 628 0 
L 628 4666 
z
" transform="scale(0.015625)"/>
       <path id="DejaVuSans-63" d="M 3122 3366 
L 3122 2828 
Q 2878 2963 2633 3030 
Q 2388 3097 2138 3097 
Q 1578 3097 1268 2742 
Q 959 2388 959 1747 
Q 959 1106 1268 751 
Q 1578 397 2138 397 
Q 2388 397 2633 464 
Q 2878 531 3122 666 
L 3122 134 
Q 2881 22 2623 -34 
Q 2366 -91 2075 -91 
Q 1284 -91 818 406 
Q 353 903 353 1747 
Q 353 2603 823 3093 
Q 1294 3584 2113 3584 
Q 2378 3584 2631 3529 
Q 2884 3475 3122 3366 
z
" transform="scale(0.015625)"/>
       <path id="DejaVuSans-73" d="M 2834 3397 
L 2834 2853 
Q 2591 2978 2328 3040 
Q 2066 3103 1784 3103 
Q 1356 3103 1142 2972 
Q 928 2841 928 2578 
Q 928 2378 1081 2264 
Q 1234 2150 1697 2047 
L 1894 2003 
Q 2506 1872 2764 1633 
Q 3022 1394 3022 966 
Q 3022 478 2636 193 
Q 2250 -91 1575 -91 
Q 1294 -91 989 -36 
Q 684 19 347 128 
L 347 722 
Q 666 556 975 473 
Q 1284 391 1588 391 
Q 1994 391 2212 530 
Q 2431 669 2431 922 
Q 2431 1156 2273 1281 
Q 2116 1406 1581 1522 
L 1381 1569 
Q 847 1681 609 1914 
Q 372 2147 372 2553 
Q 372 3047 722 3315 
Q 1072 3584 1716 3584 
Q 2034 3584 2315 3537 
Q 2597 3491 2834 3397 
z
" transform="scale(0.015625)"/>
       <path id="DejaVuSans-28" d="M 1984 4856 
Q 1566 4138 1362 3434 
Q 1159 2731 1159 2009 
Q 1159 1288 1364 580 
Q 1569 -128 1984 -844 
L 1484 -844 
Q 1016 -109 783 600 
Q 550 1309 550 2009 
Q 550 2706 781 3412 
Q 1013 4119 1484 4856 
L 1984 4856 
z
" transform="scale(0.015625)"/>
       <path id="DejaVuSans-29" d="M 513 4856 
L 1013 4856 
Q 1481 4119 1714 3412 
Q 1947 2706 1947 2009 
Q 1947 1309 1714 600 
Q 1481 -109 1013 -844 
L 513 -844 
Q 928 -128 1133 580 
Q 1338 1288 1338 2009 
Q 1338 2731 1133 3434 
Q 928 4138 513 4856 
z
" transform="scale(0.015625)"/>
      </defs>
      <use xlink:href="#DejaVuSans-41"/>
      <use xlink:href="#DejaVuSans-76" x="62.533203"/>
      <use xlink:href="#DejaVuSans-65" x="121.712891"/>
      <use xlink:href="#DejaVuSans-72" x="183.236328"/>
      <use xlink:href="#DejaVuSans-61" x="224.349609"/>
      <use xlink:href="#DejaVuSans-67" x="285.628906"/>
      <use xlink:href="#DejaVuSans-65" x="349.105469"/>
      <use xlink:href="#DejaVuSans-20" x="410.628906"/>
      <use xlink:href="#DejaVuSans-50" x="442.416016"/>
      <use xlink:href="#DejaVuSans-72" x="500.96875"/>
      <use xlink:href="#DejaVuSans-65" x="539.832031"/>
      <use xlink:href="#DejaVuSans-63" x="601.355469"/>
      <use xlink:href="#DejaVuSans-69" x="656.335938"/>
      <use xlink:href="#DejaVuSans-73" x="684.119141"/>
      <use xlink:href="#DejaVuSans-69" x="736.21875"/>
      <use xlink:href="#DejaVuSans-6f" x="764.001953"/>
      <use xlink:href="#DejaVuSans-6e" x="825.183594"/>
      <use xlink:href="#DejaVuSans-20" x="888.5625"/>
      <use xlink:href="#DejaVuSans-28" x="920.349609"/>
      <use xlink:href="#DejaVuSans-41" x="959.363281"/>
      <use xlink:href="#DejaVuSans-50" x="1027.771484"/>
      <use xlink:href="#DejaVuSans-29" x="1088.074219"/>
     </g>
    </g>
   </g>
   <g id="line2d_29">
    <path d="M 77.25767 316.665257 
L 92.218099 246.940871 
L 107.178527 243.873923 
L 122.138955 227.572808 
L 137.099384 230.462016 
L 152.059812 201.781056 
L 167.02024 199.547704 
L 181.980669 203.111228 
L 196.941097 190.634976 
L 211.901525 193.612018 
L 226.861954 202.125909 
L 241.822382 187.26907 
L 256.78281 193.905979 
L 271.743239 187.532166 
L 286.703667 196.163444 
L 301.664095 192.555675 
L 316.624524 181.29439 
L 331.584952 178.948351 
L 346.54538 187.726186 
L 361.505809 191.669641 
L 376.466237 186.055268 
L 391.426665 186.451203 
L 406.387094 183.987991 
L 421.347522 178.238576 
L 436.30795 176.872035 
L 451.268379 189.016855 
L 466.228807 194.923539 
L 481.189235 187.48337 
L 496.149664 193.477866 
L 511.110092 187.03305 
L 526.07052 180.196237 
L 541.030949 177.978889 
L 555.991377 179.369415 
L 570.951805 177.490781 
L 585.912234 175.034978 
L 600.872662 177.201053 
L 615.83309 178.958852 
L 630.793519 179.093787 
L 645.753947 176.837275 
L 660.714375 177.600905 
L 675.674804 179.350807 
L 690.635232 175.49311 
L 705.59566 179.774454 
L 720.556089 180.001455 
L 735.516517 177.492834 
L 750.476945 176.0866 
L 765.437374 177.312384 
L 780.397802 179.338571 
L 795.35823 177.77149 
L 810.34858 179.549505 
" clip-path="url(#pe137ad1ad1)" style="fill: none; stroke: #1f77b4; stroke-width: 1.5; stroke-linecap: square"/>
   </g>
   <g id="line2d_30">
    <path d="M 77.25767 214.370925 
L 92.218099 123.498196 
L 107.178527 100.133837 
L 122.138955 89.139777 
L 137.099384 74.222562 
L 152.059812 58.390693 
L 167.02024 60.945866 
L 181.980669 55.101188 
L 196.941097 53.377515 
L 211.901525 48.402909 
L 226.861954 48.014658 
L 241.822382 45.876823 
L 256.78281 49.961967 
L 271.743239 48.075457 
L 286.703667 51.021167 
L 301.664095 49.397161 
L 316.624524 44.666979 
L 331.584952 43.886878 
L 346.54538 52.879055 
L 361.505809 50.955499 
L 376.466237 51.40438 
L 391.426665 51.161183 
L 406.387094 49.021527 
L 421.347522 49.940458 
L 436.30795 45.870768 
L 451.268379 50.689905 
L 466.228807 53.825464 
L 481.189235 45.444539 
L 496.149664 49.941432 
L 511.110092 46.098257 
L 526.07052 44.553213 
L 541.030949 43.487874 
L 555.991377 45.093758 
L 570.951805 45.731938 
L 585.912234 43.675733 
L 600.872662 45.821104 
L 615.83309 44.486444 
L 630.793519 46.263803 
L 645.753947 43.158601 
L 660.714375 42.478125 
L 675.674804 45.583623 
L 690.635232 43.586693 
L 705.59566 45.166159 
L 720.556089 47.861263 
L 735.516517 46.039405 
L 750.476945 44.094637 
L 765.437374 45.834483 
L 780.397802 48.147518 
L 795.35823 46.200845 
L 810.34858 46.202496 
" clip-path="url(#pe137ad1ad1)" style="fill: none; stroke: #ff7f0e; stroke-width: 1.5; stroke-linecap: square"/>
   </g>
   <g id="line2d_31">
    <path d="M 77.25767 289.132875 
L 92.218099 189.478035 
L 107.178527 209.488788 
L 122.138955 184.054866 
L 137.099384 178.275793 
L 152.059812 143.64075 
L 167.02024 144.459972 
L 181.980669 161.471582 
L 196.941097 119.341202 
L 211.901525 135.518263 
L 226.861954 155.83661 
L 241.822382 117.790697 
L 256.78281 138.255029 
L 271.743239 132.165038 
L 286.703667 141.235881 
L 301.664095 137.76237 
L 316.624524 129.88452 
L 331.584952 113.906961 
L 346.54538 132.108219 
L 361.505809 125.593226 
L 376.466237 143.066969 
L 391.426665 125.912718 
L 406.387094 117.68993 
L 421.347522 113.918689 
L 436.30795 111.739615 
L 451.268379 153.53217 
L 466.228807 147.680294 
L 481.189235 135.637364 
L 496.149664 151.862522 
L 511.110092 131.393744 
L 526.07052 119.8646 
L 541.030949 113.005559 
L 555.991377 123.199493 
L 570.951805 116.096916 
L 585.912234 109.012926 
L 600.872662 117.518413 
L 615.83309 117.667575 
L 630.793519 119.207326 
L 645.753947 115.888014 
L 660.714375 124.375084 
L 675.674804 130.101212 
L 690.635232 127.149786 
L 705.59566 122.538408 
L 720.556089 128.551638 
L 735.516517 119.560181 
L 750.476945 125.008606 
L 765.437374 117.632772 
L 780.397802 131.814257 
L 795.35823 122.836561 
L 810.34858 132.724001 
" clip-path="url(#pe137ad1ad1)" style="fill: none; stroke: #2ca02c; stroke-width: 1.5; stroke-linecap: square"/>
   </g>
   <g id="line2d_32">
    <path d="M 77.25767 362.807152 
L 92.218099 268.296889 
L 107.178527 272.51102 
L 122.138955 255.009121 
L 137.099384 247.324169 
L 152.059812 236.328499 
L 167.02024 224.570532 
L 181.980669 241.923629 
L 196.941097 226.191554 
L 211.901525 217.422505 
L 226.861954 228.649198 
L 241.822382 224.934332 
L 256.78281 229.610595 
L 271.743239 220.276317 
L 286.703667 223.96307 
L 301.664095 221.231216 
L 316.624524 215.798647 
L 331.584952 208.316647 
L 346.54538 215.836223 
L 361.505809 218.012904 
L 376.466237 216.172502 
L 391.426665 219.642711 
L 406.387094 215.959853 
L 421.347522 206.691371 
L 436.30795 209.355101 
L 451.268379 217.831099 
L 466.228807 223.307532 
L 481.189235 219.126786 
L 496.149664 220.359514 
L 511.110092 220.080541 
L 526.07052 210.431831 
L 541.030949 206.895276 
L 555.991377 208.032889 
L 570.951805 208.21389 
L 585.912234 203.071006 
L 600.872662 207.72756 
L 615.83309 209.76721 
L 630.793519 208.514096 
L 645.753947 205.291106 
L 660.714375 204.302188 
L 675.674804 208.827406 
L 690.635232 202.992699 
L 705.59566 208.158044 
L 720.556089 208.068391 
L 735.516517 207.23778 
L 750.476945 205.048396 
L 765.437374 206.796774 
L 780.397802 208.270243 
L 795.35823 206.229449 
L 810.34858 209.20937 
" clip-path="url(#pe137ad1ad1)" style="fill: none; stroke: #d62728; stroke-width: 1.5; stroke-linecap: square"/>
   </g>
   <g id="line2d_33">
    <path d="M 77.25767 226.726214 
L 92.218099 201.590212 
L 107.178527 198.471525 
L 122.138955 173.880239 
L 137.099384 196.212218 
L 152.059812 147.365672 
L 167.02024 165.637932 
L 181.980669 149.29579 
L 196.941097 141.816564 
L 211.901525 161.082992 
L 226.861954 167.192714 
L 241.822382 141.601438 
L 256.78281 145.842475 
L 271.743239 146.044306 
L 286.703667 161.958229 
L 301.664095 156.610995 
L 316.624524 138.476929 
L 331.584952 140.971896 
L 346.54538 150.878855 
L 361.505809 159.670386 
L 376.466237 146.564655 
L 391.426665 142.735833 
L 406.387094 140.268895 
L 421.347522 142.011663 
L 436.30795 137.465784 
L 451.268379 153.633276 
L 466.228807 153.858351 
L 481.189235 150.275436 
L 496.149664 155.979336 
L 511.110092 146.020639 
L 526.07052 141.489663 
L 541.030949 140.661634 
L 555.991377 143.636347 
L 570.951805 138.750822 
L 585.912234 138.724572 
L 600.872662 138.01124 
L 615.83309 137.793532 
L 630.793519 141.853738 
L 645.753947 138.836051 
L 660.714375 142.450848 
L 675.674804 139.707985 
L 690.635232 141.361036 
L 705.59566 141.780745 
L 720.556089 142.928477 
L 735.516517 139.632833 
L 750.476945 138.197787 
L 765.437374 138.724699 
L 780.397802 139.914008 
L 795.35823 141.139305 
L 810.34858 139.798845 
" clip-path="url(#pe137ad1ad1)" style="fill: none; stroke: #9467bd; stroke-width: 1.5; stroke-linecap: square"/>
   </g>
   <g id="line2d_34">
    <path d="M 77.25767 385.946149 
L 92.218099 301.337309 
L 107.178527 272.58596 
L 122.138955 256.381654 
L 137.099384 253.454975 
L 152.059812 238.905667 
L 167.02024 242.852319 
L 181.980669 266.140933 
L 196.941097 229.074708 
L 211.901525 227.976703 
L 226.861954 235.903731 
L 241.822382 249.299104 
L 256.78281 265.145156 
L 271.743239 235.734183 
L 286.703667 245.902819 
L 301.664095 239.582502 
L 316.624524 258.112397 
L 331.584952 224.557915 
L 346.54538 223.602107 
L 361.505809 254.137441 
L 376.466237 232.982196 
L 391.426665 252.72873 
L 406.387094 256.597626 
L 421.347522 226.946949 
L 436.30795 241.226789 
L 451.268379 254.71715 
L 466.228807 253.799172 
L 481.189235 244.617569 
L 496.149664 250.294605 
L 511.110092 246.643692 
L 526.07052 235.280349 
L 541.030949 235.416575 
L 555.991377 240.095167 
L 570.951805 235.015707 
L 585.912234 228.52525 
L 600.872662 236.250679 
L 615.83309 238.269562 
L 630.793519 237.691886 
L 645.753947 222.901541 
L 660.714375 233.138385 
L 675.674804 237.596983 
L 690.635232 228.962276 
L 705.59566 238.334469 
L 720.556089 238.846329 
L 735.516517 232.149426 
L 750.476945 228.685822 
L 765.437374 228.002953 
L 780.397802 234.333665 
L 795.35823 228.402572 
L 810.34858 227.273088 
" clip-path="url(#pe137ad1ad1)" style="fill: none; stroke: #8c564b; stroke-width: 1.5; stroke-linecap: square"/>
   </g>
   <g id="line2d_35">
    <path d="M 77.25767 134.054215 
L 92.218099 106.57245 
L 107.178527 105.609995 
L 122.138955 86.314649 
L 137.099384 114.99093 
L 152.059812 82.046726 
L 167.02024 104.776335 
L 181.980669 91.951864 
L 196.941097 98.247794 
L 211.901525 115.401028 
L 226.861954 115.584823 
L 241.822382 76.415692 
L 256.78281 104.875578 
L 271.743239 104.525687 
L 286.703667 103.543374 
L 301.664095 99.908804 
L 316.624524 95.863078 
L 331.584952 93.567021 
L 346.54538 96.145947 
L 361.505809 102.854049 
L 376.466237 105.583956 
L 391.426665 98.377055 
L 406.387094 95.80736 
L 421.347522 101.434795 
L 436.30795 97.902136 
L 451.268379 107.752953 
L 466.228807 110.036096 
L 481.189235 102.336198 
L 496.149664 112.344474 
L 511.110092 106.2168 
L 526.07052 101.979744 
L 541.030949 97.444449 
L 555.991377 96.229736 
L 570.951805 93.282925 
L 585.912234 95.706931 
L 600.872662 90.816749 
L 615.83309 96.012282 
L 630.793519 97.578791 
L 645.753947 93.996765 
L 660.714375 97.922628 
L 675.674804 93.991769 
L 690.635232 93.224963 
L 705.59566 95.954277 
L 720.556089 96.523189 
L 735.516517 92.980962 
L 750.476945 93.340422 
L 765.437374 91.494177 
L 780.397802 94.006206 
L 795.35823 95.996024 
L 810.34858 92.961655 
" clip-path="url(#pe137ad1ad1)" style="fill: none; stroke: #e377c2; stroke-width: 1.5; stroke-linecap: square"/>
   </g>
   <g id="line2d_36">
    <path d="M 77.25767 237.785879 
L 92.218099 212.652566 
L 107.178527 222.951692 
L 122.138955 200.273419 
L 137.099384 216.736715 
L 152.059812 192.101375 
L 167.02024 198.39307 
L 181.980669 195.969911 
L 196.941097 195.82075 
L 211.901525 203.055107 
L 226.861954 209.114551 
L 241.822382 202.142866 
L 256.78281 199.031017 
L 271.743239 198.412165 
L 286.703667 218.780091 
L 301.664095 205.42168 
L 316.624524 185.837411 
L 331.584952 186.476374 
L 346.54538 210.657266 
L 361.505809 210.192487 
L 376.466237 196.117696 
L 391.426665 193.402608 
L 406.387094 194.449826 
L 421.347522 190.65875 
L 436.30795 198.808588 
L 451.268379 212.340081 
L 466.228807 192.86943 
L 481.189235 210.628306 
L 496.149664 200.492334 
L 511.110092 202.443835 
L 526.07052 188.312521 
L 541.030949 189.170547 
L 555.991377 192.994479 
L 570.951805 188.038057 
L 585.912234 182.804271 
L 600.872662 187.80752 
L 615.83309 186.936051 
L 630.793519 192.008906 
L 645.753947 187.231981 
L 660.714375 189.725953 
L 675.674804 186.016358 
L 690.635232 188.03776 
L 705.59566 187.533966 
L 720.556089 190.659004 
L 735.516517 191.21966 
L 750.476945 184.514882 
L 765.437374 187.095035 
L 780.397802 186.299163 
L 795.35823 188.704307 
L 810.34858 189.350764 
" clip-path="url(#pe137ad1ad1)" style="fill: none; stroke: #7f7f7f; stroke-width: 1.5; stroke-linecap: square"/>
   </g>
   <g id="line2d_37">
    <path d="M 77.25767 445.678125 
L 92.218099 246.096013 
L 107.178527 254.434155 
L 122.138955 249.190503 
L 137.099384 216.550634 
L 152.059812 188.620962 
L 167.02024 151.272694 
L 181.980669 180.705599 
L 196.941097 172.028024 
L 211.901525 170.77275 
L 226.861954 175.515105 
L 241.822382 162.053619 
L 256.78281 173.35193 
L 271.743239 147.662893 
L 286.703667 158.4091 
L 301.664095 139.401153 
L 316.624524 136.000338 
L 331.584952 162.91391 
L 346.54538 168.657482 
L 361.505809 137.849589 
L 376.466237 155.937081 
L 391.426665 147.449376 
L 406.387094 138.400338 
L 421.347522 143.567249 
L 436.30795 131.771198 
L 451.268379 160.027856 
L 466.228807 170.750903 
L 481.189235 133.828885 
L 496.149664 170.49111 
L 511.110092 158.424342 
L 526.07052 145.704026 
L 541.030949 145.704026 
L 555.991377 139.523217 
L 570.951805 139.898088 
L 585.912234 137.510113 
L 600.872662 146.91243 
L 615.83309 144.314156 
L 630.793519 141.844889 
L 645.753947 147.160072 
L 660.714375 135.165154 
L 675.674804 144.232907 
L 690.635232 127.632496 
L 705.59566 144.772054 
L 720.556089 139.898088 
L 735.516517 141.844889 
L 750.476945 138.778851 
L 765.437374 148.243914 
L 780.397802 144.687376 
L 795.35823 144.232907 
L 810.34858 151.3575 
" clip-path="url(#pe137ad1ad1)" style="fill: none; stroke: #bcbd22; stroke-width: 1.5; stroke-linecap: square"/>
   </g>
   <g id="line2d_38">
    <path d="M 77.25767 349.358347 
L 92.218099 310.285432 
L 107.178527 298.747016 
L 122.138955 260.153847 
L 137.099384 288.562608 
L 152.059812 210.868031 
L 167.02024 218.051983 
L 181.980669 209.000023 
L 196.941097 181.049119 
L 211.901525 185.140275 
L 226.861954 211.514191 
L 241.822382 179.464255 
L 256.78281 153.87135 
L 271.743239 174.700667 
L 286.703667 185.915083 
L 301.664095 203.419712 
L 316.624524 171.106341 
L 331.584952 168.235995 
L 346.54538 166.130719 
L 361.505809 185.292315 
L 376.466237 168.361234 
L 391.426665 161.998366 
L 406.387094 160.735641 
L 421.347522 158.427052 
L 436.30795 141.149509 
L 451.268379 161.270089 
L 466.228807 178.530633 
L 481.189235 169.381398 
L 496.149664 169.622393 
L 511.110092 153.717065 
L 526.07052 154.330646 
L 541.030949 155.484559 
L 555.991377 160.195646 
L 570.951805 158.164675 
L 585.912234 157.452021 
L 600.872662 155.689905 
L 615.83309 155.962569 
L 630.793519 156.999076 
L 645.753947 157.130031 
L 660.714375 159.994323 
L 675.674804 160.611629 
L 690.635232 163.652222 
L 705.59566 166.124876 
L 720.556089 165.830957 
L 735.516517 156.429317 
L 750.476945 160.046909 
L 765.437374 160.934635 
L 780.397802 162.512153 
L 795.35823 160.965797 
L 810.34858 161.908565 
" clip-path="url(#pe137ad1ad1)" style="fill: none; stroke: #17becf; stroke-width: 1.5; stroke-linecap: square"/>
   </g>
   <g id="line2d_39">
    <path d="M 77.25767 347.168879 
L 92.218099 304.701458 
L 107.178527 308.914699 
L 122.138955 313.122817 
L 137.099384 292.476299 
L 152.059812 298.143533 
L 167.02024 281.939883 
L 181.980669 274.899037 
L 196.941097 267.589422 
L 211.901525 259.326327 
L 226.861954 265.122992 
L 241.822382 254.238844 
L 256.78281 267.160822 
L 271.743239 264.157424 
L 286.703667 264.430174 
L 301.664095 267.600239 
L 316.624524 240.846773 
L 331.584952 237.938872 
L 346.54538 261.163574 
L 361.505809 259.691947 
L 376.466237 257.349508 
L 391.426665 264.751063 
L 406.387094 257.937176 
L 421.347522 248.396685 
L 436.30795 250.373949 
L 451.268379 237.993066 
L 466.228807 263.555064 
L 481.189235 264.107866 
L 496.149664 257.622342 
L 511.110092 254.752546 
L 526.07052 255.570159 
L 541.030949 244.65324 
L 555.991377 247.178183 
L 570.951805 250.545147 
L 585.912234 248.21126 
L 600.872662 245.729017 
L 615.83309 252.258489 
L 630.793519 248.439194 
L 645.753947 252.603173 
L 660.714375 249.658924 
L 675.674804 253.655218 
L 690.635232 251.448984 
L 705.59566 245.927101 
L 720.556089 248.251186 
L 735.516517 250.332795 
L 750.476945 251.1528 
L 765.437374 248.103528 
L 780.397802 254.192884 
L 795.35823 248.327312 
L 810.34858 254.445438 
" clip-path="url(#pe137ad1ad1)" style="fill: none; stroke: #1f77b4; stroke-width: 1.5; stroke-linecap: square"/>
   </g>
   <g id="patch_3">
    <path d="M 40.603125 465.838125 
L 40.603125 22.318125 
" style="fill: none; stroke: #000000; stroke-width: 0.8; stroke-linejoin: miter; stroke-linecap: square"/>
   </g>
   <g id="patch_4">
    <path d="M 847.003125 465.838125 
L 847.003125 22.318125 
" style="fill: none; stroke: #000000; stroke-width: 0.8; stroke-linejoin: miter; stroke-linecap: square"/>
   </g>
   <g id="patch_5">
    <path d="M 40.603125 465.838125 
L 847.003125 465.838125 
" style="fill: none; stroke: #000000; stroke-width: 0.8; stroke-linejoin: miter; stroke-linecap: square"/>
   </g>
   <g id="patch_6">
    <path d="M 40.603125 22.318125 
L 847.003125 22.318125 
" style="fill: none; stroke: #000000; stroke-width: 0.8; stroke-linejoin: miter; stroke-linecap: square"/>
   </g>
   <g id="text_17">
    <!-- Validation Metrics and Per-Class AP over Iterations -->
    <g transform="translate(292.860938 16.318125) scale(0.12 -0.12)">
     <defs>
      <path id="DejaVuSans-56" d="M 1831 0 
L 50 4666 
L 709 4666 
L 2188 738 
L 3669 4666 
L 4325 4666 
L 2547 0 
L 1831 0 
z
" transform="scale(0.015625)"/>
      <path id="DejaVuSans-6c" d="M 603 4863 
L 1178 4863 
L 1178 0 
L 603 0 
L 603 4863 
z
" transform="scale(0.015625)"/>
      <path id="DejaVuSans-64" d="M 2906 2969 
L 2906 4863 
L 3481 4863 
L 3481 0 
L 2906 0 
L 2906 525 
Q 2725 213 2448 61 
Q 2172 -91 1784 -91 
Q 1150 -91 751 415 
Q 353 922 353 1747 
Q 353 2572 751 3078 
Q 1150 3584 1784 3584 
Q 2172 3584 2448 3432 
Q 2725 3281 2906 2969 
z
M 947 1747 
Q 947 1113 1208 752 
Q 1469 391 1925 391 
Q 2381 391 2643 752 
Q 2906 1113 2906 1747 
Q 2906 2381 2643 2742 
Q 2381 3103 1925 3103 
Q 1469 3103 1208 2742 
Q 947 2381 947 1747 
z
" transform="scale(0.015625)"/>
      <path id="DejaVuSans-4d" d="M 628 4666 
L 1569 4666 
L 2759 1491 
L 3956 4666 
L 4897 4666 
L 4897 0 
L 4281 0 
L 4281 4097 
L 3078 897 
L 2444 897 
L 1241 4097 
L 1241 0 
L 628 0 
L 628 4666 
z
" transform="scale(0.015625)"/>
      <path id="DejaVuSans-2d" d="M 313 2009 
L 1997 2009 
L 1997 1497 
L 313 1497 
L 313 2009 
z
" transform="scale(0.015625)"/>
      <path id="DejaVuSans-43" d="M 4122 4306 
L 4122 3641 
Q 3803 3938 3442 4084 
Q 3081 4231 2675 4231 
Q 1875 4231 1450 3742 
Q 1025 3253 1025 2328 
Q 1025 1406 1450 917 
Q 1875 428 2675 428 
Q 3081 428 3442 575 
Q 3803 722 4122 1019 
L 4122 359 
Q 3791 134 3420 21 
Q 3050 -91 2638 -91 
Q 1578 -91 968 557 
Q 359 1206 359 2328 
Q 359 3453 968 4101 
Q 1578 4750 2638 4750 
Q 3056 4750 3426 4639 
Q 3797 4528 4122 4306 
z
" transform="scale(0.015625)"/>
     </defs>
     <use xlink:href="#DejaVuSans-56"/>
     <use xlink:href="#DejaVuSans-61" x="60.658203"/>
     <use xlink:href="#DejaVuSans-6c" x="121.9375"/>
     <use xlink:href="#DejaVuSans-69" x="149.720703"/>
     <use xlink:href="#DejaVuSans-64" x="177.503906"/>
     <use xlink:href="#DejaVuSans-61" x="240.980469"/>
     <use xlink:href="#DejaVuSans-74" x="302.259766"/>
     <use xlink:href="#DejaVuSans-69" x="341.46875"/>
     <use xlink:href="#DejaVuSans-6f" x="369.251953"/>
     <use xlink:href="#DejaVuSans-6e" x="430.433594"/>
     <use xlink:href="#DejaVuSans-20" x="493.8125"/>
     <use xlink:href="#DejaVuSans-4d" x="525.599609"/>
     <use xlink:href="#DejaVuSans-65" x="611.878906"/>
     <use xlink:href="#DejaVuSans-74" x="673.402344"/>
     <use xlink:href="#DejaVuSans-72" x="712.611328"/>
     <use xlink:href="#DejaVuSans-69" x="753.724609"/>
     <use xlink:href="#DejaVuSans-63" x="781.507812"/>
     <use xlink:href="#DejaVuSans-73" x="836.488281"/>
     <use xlink:href="#DejaVuSans-20" x="888.587891"/>
     <use xlink:href="#DejaVuSans-61" x="920.375"/>
     <use xlink:href="#DejaVuSans-6e" x="981.654297"/>
     <use xlink:href="#DejaVuSans-64" x="1045.033203"/>
     <use xlink:href="#DejaVuSans-20" x="1108.509766"/>
     <use xlink:href="#DejaVuSans-50" x="1140.296875"/>
     <use xlink:href="#DejaVuSans-65" x="1196.974609"/>
     <use xlink:href="#DejaVuSans-72" x="1258.498047"/>
     <use xlink:href="#DejaVuSans-2d" x="1293.236328"/>
     <use xlink:href="#DejaVuSans-43" x="1329.320312"/>
     <use xlink:href="#DejaVuSans-6c" x="1399.144531"/>
     <use xlink:href="#DejaVuSans-61" x="1426.927734"/>
     <use xlink:href="#DejaVuSans-73" x="1488.207031"/>
     <use xlink:href="#DejaVuSans-73" x="1540.306641"/>
     <use xlink:href="#DejaVuSans-20" x="1592.40625"/>
     <use xlink:href="#DejaVuSans-41" x="1624.193359"/>
     <use xlink:href="#DejaVuSans-50" x="1692.601562"/>
     <use xlink:href="#DejaVuSans-20" x="1752.904297"/>
     <use xlink:href="#DejaVuSans-6f" x="1784.691406"/>
     <use xlink:href="#DejaVuSans-76" x="1845.873047"/>
     <use xlink:href="#DejaVuSans-65" x="1905.052734"/>
     <use xlink:href="#DejaVuSans-72" x="1966.576172"/>
     <use xlink:href="#DejaVuSans-20" x="2007.689453"/>
     <use xlink:href="#DejaVuSans-49" x="2039.476562"/>
     <use xlink:href="#DejaVuSans-74" x="2068.96875"/>
     <use xlink:href="#DejaVuSans-65" x="2108.177734"/>
     <use xlink:href="#DejaVuSans-72" x="2169.701172"/>
     <use xlink:href="#DejaVuSans-61" x="2210.814453"/>
     <use xlink:href="#DejaVuSans-74" x="2272.09375"/>
     <use xlink:href="#DejaVuSans-69" x="2311.302734"/>
     <use xlink:href="#DejaVuSans-6f" x="2339.085938"/>
     <use xlink:href="#DejaVuSans-6e" x="2400.267578"/>
     <use xlink:href="#DejaVuSans-73" x="2463.646484"/>
    </g>
   </g>
   <g id="legend_1">
    <g id="patch_7">
     <path d="M 870.131125 191.7775 
L 968.463938 191.7775 
Q 970.463938 191.7775 970.463938 189.7775 
L 970.463938 29.318125 
Q 970.463938 27.318125 968.463938 27.318125 
L 870.131125 27.318125 
Q 868.131125 27.318125 868.131125 29.318125 
L 868.131125 189.7775 
Q 868.131125 191.7775 870.131125 191.7775 
z
" style="fill: #ffffff; opacity: 0.8; stroke: #cccccc; stroke-linejoin: miter"/>
    </g>
    <g id="line2d_40">
     <path d="M 872.131125 35.416562 
L 882.131125 35.416562 
L 892.131125 35.416562 
" style="fill: none; stroke: #1f77b4; stroke-width: 1.5; stroke-linecap: square"/>
    </g>
    <g id="text_18">
     <!-- mAP -->
     <g transform="translate(900.131125 38.916562) scale(0.1 -0.1)">
      <defs>
       <path id="DejaVuSans-6d" d="M 3328 2828 
Q 3544 3216 3844 3400 
Q 4144 3584 4550 3584 
Q 5097 3584 5394 3201 
Q 5691 2819 5691 2113 
L 5691 0 
L 5113 0 
L 5113 2094 
Q 5113 2597 4934 2840 
Q 4756 3084 4391 3084 
Q 3944 3084 3684 2787 
Q 3425 2491 3425 1978 
L 3425 0 
L 2847 0 
L 2847 2094 
Q 2847 2600 2669 2842 
Q 2491 3084 2119 3084 
Q 1678 3084 1418 2786 
Q 1159 2488 1159 1978 
L 1159 0 
L 581 0 
L 581 3500 
L 1159 3500 
L 1159 2956 
Q 1356 3278 1631 3431 
Q 1906 3584 2284 3584 
Q 2666 3584 2933 3390 
Q 3200 3197 3328 2828 
z
" transform="scale(0.015625)"/>
      </defs>
      <use xlink:href="#DejaVuSans-6d"/>
      <use xlink:href="#DejaVuSans-41" x="97.412109"/>
      <use xlink:href="#DejaVuSans-50" x="165.820312"/>
     </g>
    </g>
    <g id="line2d_41">
     <path d="M 872.131125 50.094687 
L 882.131125 50.094687 
L 892.131125 50.094687 
" style="fill: none; stroke: #ff7f0e; stroke-width: 1.5; stroke-linecap: square"/>
    </g>
    <g id="text_19">
     <!-- AP50 -->
     <g transform="translate(900.131125 53.594687) scale(0.1 -0.1)">
      <use xlink:href="#DejaVuSans-41"/>
      <use xlink:href="#DejaVuSans-50" x="68.408203"/>
      <use xlink:href="#DejaVuSans-35" x="128.710938"/>
      <use xlink:href="#DejaVuSans-30" x="192.333984"/>
     </g>
    </g>
    <g id="line2d_42">
     <path d="M 872.131125 64.772812 
L 882.131125 64.772812 
L 892.131125 64.772812 
" style="fill: none; stroke: #2ca02c; stroke-width: 1.5; stroke-linecap: square"/>
    </g>
    <g id="text_20">
     <!-- AP75 -->
     <g transform="translate(900.131125 68.272812) scale(0.1 -0.1)">
      <use xlink:href="#DejaVuSans-41"/>
      <use xlink:href="#DejaVuSans-50" x="68.408203"/>
      <use xlink:href="#DejaVuSans-37" x="128.710938"/>
      <use xlink:href="#DejaVuSans-35" x="192.333984"/>
     </g>
    </g>
    <g id="line2d_43">
     <path d="M 872.131125 79.450937 
L 882.131125 79.450937 
L 892.131125 79.450937 
" style="fill: none; stroke: #d62728; stroke-width: 1.5; stroke-linecap: square"/>
    </g>
    <g id="text_21">
     <!-- bbox/APs -->
     <g transform="translate(900.131125 82.950937) scale(0.1 -0.1)">
      <defs>
       <path id="DejaVuSans-62" d="M 3116 1747 
Q 3116 2381 2855 2742 
Q 2594 3103 2138 3103 
Q 1681 3103 1420 2742 
Q 1159 2381 1159 1747 
Q 1159 1113 1420 752 
Q 1681 391 2138 391 
Q 2594 391 2855 752 
Q 3116 1113 3116 1747 
z
M 1159 2969 
Q 1341 3281 1617 3432 
Q 1894 3584 2278 3584 
Q 2916 3584 3314 3078 
Q 3713 2572 3713 1747 
Q 3713 922 3314 415 
Q 2916 -91 2278 -91 
Q 1894 -91 1617 61 
Q 1341 213 1159 525 
L 1159 0 
L 581 0 
L 581 4863 
L 1159 4863 
L 1159 2969 
z
" transform="scale(0.015625)"/>
       <path id="DejaVuSans-78" d="M 3513 3500 
L 2247 1797 
L 3578 0 
L 2900 0 
L 1881 1375 
L 863 0 
L 184 0 
L 1544 1831 
L 300 3500 
L 978 3500 
L 1906 2253 
L 2834 3500 
L 3513 3500 
z
" transform="scale(0.015625)"/>
       <path id="DejaVuSans-2f" d="M 1625 4666 
L 2156 4666 
L 531 -594 
L 0 -594 
L 1625 4666 
z
" transform="scale(0.015625)"/>
      </defs>
      <use xlink:href="#DejaVuSans-62"/>
      <use xlink:href="#DejaVuSans-62" x="63.476562"/>
      <use xlink:href="#DejaVuSans-6f" x="126.953125"/>
      <use xlink:href="#DejaVuSans-78" x="185.009766"/>
      <use xlink:href="#DejaVuSans-2f" x="244.189453"/>
      <use xlink:href="#DejaVuSans-41" x="277.880859"/>
      <use xlink:href="#DejaVuSans-50" x="346.289062"/>
      <use xlink:href="#DejaVuSans-73" x="404.841797"/>
     </g>
    </g>
    <g id="line2d_44">
     <path d="M 872.131125 94.129062 
L 882.131125 94.129062 
L 892.131125 94.129062 
" style="fill: none; stroke: #9467bd; stroke-width: 1.5; stroke-linecap: square"/>
    </g>
    <g id="text_22">
     <!-- bbox/APm -->
     <g transform="translate(900.131125 97.629062) scale(0.1 -0.1)">
      <use xlink:href="#DejaVuSans-62"/>
      <use xlink:href="#DejaVuSans-62" x="63.476562"/>
      <use xlink:href="#DejaVuSans-6f" x="126.953125"/>
      <use xlink:href="#DejaVuSans-78" x="185.009766"/>
      <use xlink:href="#DejaVuSans-2f" x="244.189453"/>
      <use xlink:href="#DejaVuSans-41" x="277.880859"/>
      <use xlink:href="#DejaVuSans-50" x="346.289062"/>
      <use xlink:href="#DejaVuSans-6d" x="406.591797"/>
     </g>
    </g>
    <g id="line2d_45">
     <path d="M 872.131125 108.807187 
L 882.131125 108.807187 
L 892.131125 108.807187 
" style="fill: none; stroke: #8c564b; stroke-width: 1.5; stroke-linecap: square"/>
    </g>
    <g id="text_23">
     <!-- AP (Gas) -->
     <g transform="translate(900.131125 112.307187) scale(0.1 -0.1)">
      <defs>
       <path id="DejaVuSans-47" d="M 3809 666 
L 3809 1919 
L 2778 1919 
L 2778 2438 
L 4434 2438 
L 4434 434 
Q 4069 175 3628 42 
Q 3188 -91 2688 -91 
Q 1594 -91 976 548 
Q 359 1188 359 2328 
Q 359 3472 976 4111 
Q 1594 4750 2688 4750 
Q 3144 4750 3555 4637 
Q 3966 4525 4313 4306 
L 4313 3634 
Q 3963 3931 3569 4081 
Q 3175 4231 2741 4231 
Q 1884 4231 1454 3753 
Q 1025 3275 1025 2328 
Q 1025 1384 1454 906 
Q 1884 428 2741 428 
Q 3075 428 3337 486 
Q 3600 544 3809 666 
z
" transform="scale(0.015625)"/>
      </defs>
      <use xlink:href="#DejaVuSans-41"/>
      <use xlink:href="#DejaVuSans-50" x="68.408203"/>
      <use xlink:href="#DejaVuSans-20" x="128.710938"/>
      <use xlink:href="#DejaVuSans-28" x="160.498047"/>
      <use xlink:href="#DejaVuSans-47" x="199.511719"/>
      <use xlink:href="#DejaVuSans-61" x="277.001953"/>
      <use xlink:href="#DejaVuSans-73" x="338.28125"/>
      <use xlink:href="#DejaVuSans-29" x="390.380859"/>
     </g>
    </g>
    <g id="line2d_46">
     <path d="M 872.131125 123.485312 
L 882.131125 123.485312 
L 892.131125 123.485312 
" style="fill: none; stroke: #e377c2; stroke-width: 1.5; stroke-linecap: square"/>
    </g>
    <g id="text_24">
     <!-- AP (Manhole) -->
     <g transform="translate(900.131125 126.985312) scale(0.1 -0.1)">
      <defs>
       <path id="DejaVuSans-68" d="M 3513 2113 
L 3513 0 
L 2938 0 
L 2938 2094 
Q 2938 2591 2744 2837 
Q 2550 3084 2163 3084 
Q 1697 3084 1428 2787 
Q 1159 2491 1159 1978 
L 1159 0 
L 581 0 
L 581 4863 
L 1159 4863 
L 1159 2956 
Q 1366 3272 1645 3428 
Q 1925 3584 2291 3584 
Q 2894 3584 3203 3211 
Q 3513 2838 3513 2113 
z
" transform="scale(0.015625)"/>
      </defs>
      <use xlink:href="#DejaVuSans-41"/>
      <use xlink:href="#DejaVuSans-50" x="68.408203"/>
      <use xlink:href="#DejaVuSans-20" x="128.710938"/>
      <use xlink:href="#DejaVuSans-28" x="160.498047"/>
      <use xlink:href="#DejaVuSans-4d" x="199.511719"/>
      <use xlink:href="#DejaVuSans-61" x="285.791016"/>
      <use xlink:href="#DejaVuSans-6e" x="347.070312"/>
      <use xlink:href="#DejaVuSans-68" x="410.449219"/>
      <use xlink:href="#DejaVuSans-6f" x="473.828125"/>
      <use xlink:href="#DejaVuSans-6c" x="535.009766"/>
      <use xlink:href="#DejaVuSans-65" x="562.792969"/>
      <use xlink:href="#DejaVuSans-29" x="624.316406"/>
     </g>
    </g>
    <g id="line2d_47">
     <path d="M 872.131125 138.163437 
L 882.131125 138.163437 
L 892.131125 138.163437 
" style="fill: none; stroke: #7f7f7f; stroke-width: 1.5; stroke-linecap: square"/>
    </g>
    <g id="text_25">
     <!-- AP (Sink) -->
     <g transform="translate(900.131125 141.663437) scale(0.1 -0.1)">
      <defs>
       <path id="DejaVuSans-53" d="M 3425 4513 
L 3425 3897 
Q 3066 4069 2747 4153 
Q 2428 4238 2131 4238 
Q 1616 4238 1336 4038 
Q 1056 3838 1056 3469 
Q 1056 3159 1242 3001 
Q 1428 2844 1947 2747 
L 2328 2669 
Q 3034 2534 3370 2195 
Q 3706 1856 3706 1288 
Q 3706 609 3251 259 
Q 2797 -91 1919 -91 
Q 1588 -91 1214 -16 
Q 841 59 441 206 
L 441 856 
Q 825 641 1194 531 
Q 1563 422 1919 422 
Q 2459 422 2753 634 
Q 3047 847 3047 1241 
Q 3047 1584 2836 1778 
Q 2625 1972 2144 2069 
L 1759 2144 
Q 1053 2284 737 2584 
Q 422 2884 422 3419 
Q 422 4038 858 4394 
Q 1294 4750 2059 4750 
Q 2388 4750 2728 4690 
Q 3069 4631 3425 4513 
z
" transform="scale(0.015625)"/>
       <path id="DejaVuSans-6b" d="M 581 4863 
L 1159 4863 
L 1159 1991 
L 2875 3500 
L 3609 3500 
L 1753 1863 
L 3688 0 
L 2938 0 
L 1159 1709 
L 1159 0 
L 581 0 
L 581 4863 
z
" transform="scale(0.015625)"/>
      </defs>
      <use xlink:href="#DejaVuSans-41"/>
      <use xlink:href="#DejaVuSans-50" x="68.408203"/>
      <use xlink:href="#DejaVuSans-20" x="128.710938"/>
      <use xlink:href="#DejaVuSans-28" x="160.498047"/>
      <use xlink:href="#DejaVuSans-53" x="199.511719"/>
      <use xlink:href="#DejaVuSans-69" x="262.988281"/>
      <use xlink:href="#DejaVuSans-6e" x="290.771484"/>
      <use xlink:href="#DejaVuSans-6b" x="354.150391"/>
      <use xlink:href="#DejaVuSans-29" x="412.060547"/>
     </g>
    </g>
    <g id="line2d_48">
     <path d="M 872.131125 152.841562 
L 882.131125 152.841562 
L 892.131125 152.841562 
" style="fill: none; stroke: #bcbd22; stroke-width: 1.5; stroke-linecap: square"/>
    </g>
    <g id="text_26">
     <!-- AP(Hydrant) -->
     <g transform="translate(900.131125 156.341562) scale(0.1 -0.1)">
      <defs>
       <path id="DejaVuSans-48" d="M 628 4666 
L 1259 4666 
L 1259 2753 
L 3553 2753 
L 3553 4666 
L 4184 4666 
L 4184 0 
L 3553 0 
L 3553 2222 
L 1259 2222 
L 1259 0 
L 628 0 
L 628 4666 
z
" transform="scale(0.015625)"/>
       <path id="DejaVuSans-79" d="M 2059 -325 
Q 1816 -950 1584 -1140 
Q 1353 -1331 966 -1331 
L 506 -1331 
L 506 -850 
L 844 -850 
Q 1081 -850 1212 -737 
Q 1344 -625 1503 -206 
L 1606 56 
L 191 3500 
L 800 3500 
L 1894 763 
L 2988 3500 
L 3597 3500 
L 2059 -325 
z
" transform="scale(0.015625)"/>
      </defs>
      <use xlink:href="#DejaVuSans-41"/>
      <use xlink:href="#DejaVuSans-50" x="68.408203"/>
      <use xlink:href="#DejaVuSans-28" x="128.710938"/>
      <use xlink:href="#DejaVuSans-48" x="167.724609"/>
      <use xlink:href="#DejaVuSans-79" x="242.919922"/>
      <use xlink:href="#DejaVuSans-64" x="302.099609"/>
      <use xlink:href="#DejaVuSans-72" x="365.576172"/>
      <use xlink:href="#DejaVuSans-61" x="406.689453"/>
      <use xlink:href="#DejaVuSans-6e" x="467.96875"/>
      <use xlink:href="#DejaVuSans-74" x="531.347656"/>
      <use xlink:href="#DejaVuSans-29" x="570.556641"/>
     </g>
    </g>
    <g id="line2d_49">
     <path d="M 872.131125 167.519687 
L 882.131125 167.519687 
L 892.131125 167.519687 
" style="fill: none; stroke: #17becf; stroke-width: 1.5; stroke-linecap: square"/>
    </g>
    <g id="text_27">
     <!-- AP(Utility) -->
     <g transform="translate(900.131125 171.019687) scale(0.1 -0.1)">
      <defs>
       <path id="DejaVuSans-55" d="M 556 4666 
L 1191 4666 
L 1191 1831 
Q 1191 1081 1462 751 
Q 1734 422 2344 422 
Q 2950 422 3222 751 
Q 3494 1081 3494 1831 
L 3494 4666 
L 4128 4666 
L 4128 1753 
Q 4128 841 3676 375 
Q 3225 -91 2344 -91 
Q 1459 -91 1007 375 
Q 556 841 556 1753 
L 556 4666 
z
" transform="scale(0.015625)"/>
      </defs>
      <use xlink:href="#DejaVuSans-41"/>
      <use xlink:href="#DejaVuSans-50" x="68.408203"/>
      <use xlink:href="#DejaVuSans-28" x="128.710938"/>
      <use xlink:href="#DejaVuSans-55" x="167.724609"/>
      <use xlink:href="#DejaVuSans-74" x="240.917969"/>
      <use xlink:href="#DejaVuSans-69" x="280.126953"/>
      <use xlink:href="#DejaVuSans-6c" x="307.910156"/>
      <use xlink:href="#DejaVuSans-69" x="335.693359"/>
      <use xlink:href="#DejaVuSans-74" x="363.476562"/>
      <use xlink:href="#DejaVuSans-79" x="402.685547"/>
      <use xlink:href="#DejaVuSans-29" x="461.865234"/>
     </g>
    </g>
    <g id="line2d_50">
     <path d="M 872.131125 182.197812 
L 882.131125 182.197812 
L 892.131125 182.197812 
" style="fill: none; stroke: #1f77b4; stroke-width: 1.5; stroke-linecap: square"/>
    </g>
    <g id="text_28">
     <!-- AP(Water) -->
     <g transform="translate(900.131125 185.697812) scale(0.1 -0.1)">
      <defs>
       <path id="DejaVuSans-57" d="M 213 4666 
L 850 4666 
L 1831 722 
L 2809 4666 
L 3519 4666 
L 4500 722 
L 5478 4666 
L 6119 4666 
L 4947 0 
L 4153 0 
L 3169 4050 
L 2175 0 
L 1381 0 
L 213 4666 
z
" transform="scale(0.015625)"/>
      </defs>
      <use xlink:href="#DejaVuSans-41"/>
      <use xlink:href="#DejaVuSans-50" x="68.408203"/>
      <use xlink:href="#DejaVuSans-28" x="128.710938"/>
      <use xlink:href="#DejaVuSans-57" x="167.724609"/>
      <use xlink:href="#DejaVuSans-61" x="260.226562"/>
      <use xlink:href="#DejaVuSans-74" x="321.505859"/>
      <use xlink:href="#DejaVuSans-65" x="360.714844"/>
      <use xlink:href="#DejaVuSans-72" x="422.238281"/>
      <use xlink:href="#DejaVuSans-29" x="463.351562"/>
     </g>
    </g>
   </g>
  </g>
 </g>
 <defs>
  <clipPath id="pe137ad1ad1">
   <rect x="40.603125" y="22.318125" width="806.4" height="443.52"/>
  </clipPath>
 </defs>
</svg>
