<?xml version="1.0" encoding="utf-8" standalone="no"?>
<!DOCTYPE svg PUBLIC "-//W3C//DTD SVG 1.1//EN"
  "http://www.w3.org/Graphics/SVG/1.1/DTD/svg11.dtd">
<svg xmlns:xlink="http://www.w3.org/1999/xlink" width="1061.13425pt" height="503.394375pt" viewBox="0 0 1061.13425 503.394375" xmlns="http://www.w3.org/2000/svg" version="1.1">
 <metadata>
  <rdf:RDF xmlns:dc="http://purl.org/dc/elements/1.1/" xmlns:cc="http://creativecommons.org/ns#" xmlns:rdf="http://www.w3.org/1999/02/22-rdf-syntax-ns#">
   <cc:Work>
    <dc:type rdf:resource="http://purl.org/dc/dcmitype/StillImage"/>
    <dc:date>2025-04-14T10:21:59.235253</dc:date>
    <dc:format>image/svg+xml</dc:format>
    <dc:creator>
     <cc:Agent>
      <dc:title>Matplotlib v3.9.4, https://matplotlib.org/</dc:title>
     </cc:Agent>
    </dc:creator>
   </cc:Work>
  </rdf:RDF>
 </metadata>
 <defs>
  <style type="text/css">*{stroke-linejoin: round; stroke-linecap: butt}</style>
 </defs>
 <g id="figure_1">
  <g id="patch_1">
   <path d="M 0 503.394375 
L 1061.13425 503.394375 
L 1061.13425 0 
L 0 0 
z
" style="fill: #ffffff"/>
  </g>
  <g id="axes_1">
   <g id="patch_2">
    <path d="M 43.78125 465.838125 
L 850.18125 465.838125 
L 850.18125 22.318125 
L 43.78125 22.318125 
z
" style="fill: #ffffff"/>
   </g>
   <g id="matplotlib.axis_1">
    <g id="xtick_1">
     <g id="line2d_1">
      <path d="M 74.275368 465.838125 
L 74.275368 22.318125 
" clip-path="url(#p91ddb42ff4)" style="fill: none; stroke: #b0b0b0; stroke-width: 0.8; stroke-linecap: square"/>
     </g>
     <g id="line2d_2">
      <defs>
       <path id="mf6870b53a7" d="M 0 0 
L 0 3.5 
" style="stroke: #000000; stroke-width: 0.8"/>
      </defs>
      <g>
       <use xlink:href="#mf6870b53a7" x="74.275368" y="465.838125" style="stroke: #000000; stroke-width: 0.8"/>
      </g>
     </g>
     <g id="text_1">
      <!-- 0 -->
      <g transform="translate(71.094118 480.436562) scale(0.1 -0.1)">
       <defs>
        <path id="DejaVuSans-30" d="M 2034 4250 
Q 1547 4250 1301 3770 
Q 1056 3291 1056 2328 
Q 1056 1369 1301 889 
Q 1547 409 2034 409 
Q 2525 409 2770 889 
Q 3016 1369 3016 2328 
Q 3016 3291 2770 3770 
Q 2525 4250 2034 4250 
z
M 2034 4750 
Q 2819 4750 3233 4129 
Q 3647 3509 3647 2328 
Q 3647 1150 3233 529 
Q 2819 -91 2034 -91 
Q 1250 -91 836 529 
Q 422 1150 422 2328 
Q 422 3509 836 4129 
Q 1250 4750 2034 4750 
z
" transform="scale(0.015625)"/>
       </defs>
       <use xlink:href="#DejaVuSans-30"/>
      </g>
     </g>
    </g>
    <g id="xtick_2">
     <g id="line2d_3">
      <path d="M 197.483924 465.838125 
L 197.483924 22.318125 
" clip-path="url(#p91ddb42ff4)" style="fill: none; stroke: #b0b0b0; stroke-width: 0.8; stroke-linecap: square"/>
     </g>
     <g id="line2d_4">
      <g>
       <use xlink:href="#mf6870b53a7" x="197.483924" y="465.838125" style="stroke: #000000; stroke-width: 0.8"/>
      </g>
     </g>
     <g id="text_2">
      <!-- 20 -->
      <g transform="translate(191.121424 480.436562) scale(0.1 -0.1)">
       <defs>
        <path id="DejaVuSans-32" d="M 1228 531 
L 3431 531 
L 3431 0 
L 469 0 
L 469 531 
Q 828 903 1448 1529 
Q 2069 2156 2228 2338 
Q 2531 2678 2651 2914 
Q 2772 3150 2772 3378 
Q 2772 3750 2511 3984 
Q 2250 4219 1831 4219 
Q 1534 4219 1204 4116 
Q 875 4013 500 3803 
L 500 4441 
Q 881 4594 1212 4672 
Q 1544 4750 1819 4750 
Q 2544 4750 2975 4387 
Q 3406 4025 3406 3419 
Q 3406 3131 3298 2873 
Q 3191 2616 2906 2266 
Q 2828 2175 2409 1742 
Q 1991 1309 1228 531 
z
" transform="scale(0.015625)"/>
       </defs>
       <use xlink:href="#DejaVuSans-32"/>
       <use xlink:href="#DejaVuSans-30" x="63.623047"/>
      </g>
     </g>
    </g>
    <g id="xtick_3">
     <g id="line2d_5">
      <path d="M 320.69248 465.838125 
L 320.69248 22.318125 
" clip-path="url(#p91ddb42ff4)" style="fill: none; stroke: #b0b0b0; stroke-width: 0.8; stroke-linecap: square"/>
     </g>
     <g id="line2d_6">
      <g>
       <use xlink:href="#mf6870b53a7" x="320.69248" y="465.838125" style="stroke: #000000; stroke-width: 0.8"/>
      </g>
     </g>
     <g id="text_3">
      <!-- 40 -->
      <g transform="translate(314.32998 480.436562) scale(0.1 -0.1)">
       <defs>
        <path id="DejaVuSans-34" d="M 2419 4116 
L 825 1625 
L 2419 1625 
L 2419 4116 
z
M 2253 4666 
L 3047 4666 
L 3047 1625 
L 3713 1625 
L 3713 1100 
L 3047 1100 
L 3047 0 
L 2419 0 
L 2419 1100 
L 313 1100 
L 313 1709 
L 2253 4666 
z
" transform="scale(0.015625)"/>
       </defs>
       <use xlink:href="#DejaVuSans-34"/>
       <use xlink:href="#DejaVuSans-30" x="63.623047"/>
      </g>
     </g>
    </g>
    <g id="xtick_4">
     <g id="line2d_7">
      <path d="M 443.901036 465.838125 
L 443.901036 22.318125 
" clip-path="url(#p91ddb42ff4)" style="fill: none; stroke: #b0b0b0; stroke-width: 0.8; stroke-linecap: square"/>
     </g>
     <g id="line2d_8">
      <g>
       <use xlink:href="#mf6870b53a7" x="443.901036" y="465.838125" style="stroke: #000000; stroke-width: 0.8"/>
      </g>
     </g>
     <g id="text_4">
      <!-- 60 -->
      <g transform="translate(437.538536 480.436562) scale(0.1 -0.1)">
       <defs>
        <path id="DejaVuSans-36" d="M 2113 2584 
Q 1688 2584 1439 2293 
Q 1191 2003 1191 1497 
Q 1191 994 1439 701 
Q 1688 409 2113 409 
Q 2538 409 2786 701 
Q 3034 994 3034 1497 
Q 3034 2003 2786 2293 
Q 2538 2584 2113 2584 
z
M 3366 4563 
L 3366 3988 
Q 3128 4100 2886 4159 
Q 2644 4219 2406 4219 
Q 1781 4219 1451 3797 
Q 1122 3375 1075 2522 
Q 1259 2794 1537 2939 
Q 1816 3084 2150 3084 
Q 2853 3084 3261 2657 
Q 3669 2231 3669 1497 
Q 3669 778 3244 343 
Q 2819 -91 2113 -91 
Q 1303 -91 875 529 
Q 447 1150 447 2328 
Q 447 3434 972 4092 
Q 1497 4750 2381 4750 
Q 2619 4750 2861 4703 
Q 3103 4656 3366 4563 
z
" transform="scale(0.015625)"/>
       </defs>
       <use xlink:href="#DejaVuSans-36"/>
       <use xlink:href="#DejaVuSans-30" x="63.623047"/>
      </g>
     </g>
    </g>
    <g id="xtick_5">
     <g id="line2d_9">
      <path d="M 567.109592 465.838125 
L 567.109592 22.318125 
" clip-path="url(#p91ddb42ff4)" style="fill: none; stroke: #b0b0b0; stroke-width: 0.8; stroke-linecap: square"/>
     </g>
     <g id="line2d_10">
      <g>
       <use xlink:href="#mf6870b53a7" x="567.109592" y="465.838125" style="stroke: #000000; stroke-width: 0.8"/>
      </g>
     </g>
     <g id="text_5">
      <!-- 80 -->
      <g transform="translate(560.747092 480.436562) scale(0.1 -0.1)">
       <defs>
        <path id="DejaVuSans-38" d="M 2034 2216 
Q 1584 2216 1326 1975 
Q 1069 1734 1069 1313 
Q 1069 891 1326 650 
Q 1584 409 2034 409 
Q 2484 409 2743 651 
Q 3003 894 3003 1313 
Q 3003 1734 2745 1975 
Q 2488 2216 2034 2216 
z
M 1403 2484 
Q 997 2584 770 2862 
Q 544 3141 544 3541 
Q 544 4100 942 4425 
Q 1341 4750 2034 4750 
Q 2731 4750 3128 4425 
Q 3525 4100 3525 3541 
Q 3525 3141 3298 2862 
Q 3072 2584 2669 2484 
Q 3125 2378 3379 2068 
Q 3634 1759 3634 1313 
Q 3634 634 3220 271 
Q 2806 -91 2034 -91 
Q 1263 -91 848 271 
Q 434 634 434 1313 
Q 434 1759 690 2068 
Q 947 2378 1403 2484 
z
M 1172 3481 
Q 1172 3119 1398 2916 
Q 1625 2713 2034 2713 
Q 2441 2713 2670 2916 
Q 2900 3119 2900 3481 
Q 2900 3844 2670 4047 
Q 2441 4250 2034 4250 
Q 1625 4250 1398 4047 
Q 1172 3844 1172 3481 
z
" transform="scale(0.015625)"/>
       </defs>
       <use xlink:href="#DejaVuSans-38"/>
       <use xlink:href="#DejaVuSans-30" x="63.623047"/>
      </g>
     </g>
    </g>
    <g id="xtick_6">
     <g id="line2d_11">
      <path d="M 690.318148 465.838125 
L 690.318148 22.318125 
" clip-path="url(#p91ddb42ff4)" style="fill: none; stroke: #b0b0b0; stroke-width: 0.8; stroke-linecap: square"/>
     </g>
     <g id="line2d_12">
      <g>
       <use xlink:href="#mf6870b53a7" x="690.318148" y="465.838125" style="stroke: #000000; stroke-width: 0.8"/>
      </g>
     </g>
     <g id="text_6">
      <!-- 100 -->
      <g transform="translate(680.774398 480.436562) scale(0.1 -0.1)">
       <defs>
        <path id="DejaVuSans-31" d="M 794 531 
L 1825 531 
L 1825 4091 
L 703 3866 
L 703 4441 
L 1819 4666 
L 2450 4666 
L 2450 531 
L 3481 531 
L 3481 0 
L 794 0 
L 794 531 
z
" transform="scale(0.015625)"/>
       </defs>
       <use xlink:href="#DejaVuSans-31"/>
       <use xlink:href="#DejaVuSans-30" x="63.623047"/>
       <use xlink:href="#DejaVuSans-30" x="127.246094"/>
      </g>
     </g>
    </g>
    <g id="xtick_7">
     <g id="line2d_13">
      <path d="M 813.526705 465.838125 
L 813.526705 22.318125 
" clip-path="url(#p91ddb42ff4)" style="fill: none; stroke: #b0b0b0; stroke-width: 0.8; stroke-linecap: square"/>
     </g>
     <g id="line2d_14">
      <g>
       <use xlink:href="#mf6870b53a7" x="813.526705" y="465.838125" style="stroke: #000000; stroke-width: 0.8"/>
      </g>
     </g>
     <g id="text_7">
      <!-- 120 -->
      <g transform="translate(803.982955 480.436562) scale(0.1 -0.1)">
       <use xlink:href="#DejaVuSans-31"/>
       <use xlink:href="#DejaVuSans-32" x="63.623047"/>
       <use xlink:href="#DejaVuSans-30" x="127.246094"/>
      </g>
     </g>
    </g>
    <g id="text_8">
     <!-- Epoch -->
     <g transform="translate(431.670312 494.114687) scale(0.1 -0.1)">
      <defs>
       <path id="DejaVuSans-45" d="M 628 4666 
L 3578 4666 
L 3578 4134 
L 1259 4134 
L 1259 2753 
L 3481 2753 
L 3481 2222 
L 1259 2222 
L 1259 531 
L 3634 531 
L 3634 0 
L 628 0 
L 628 4666 
z
" transform="scale(0.015625)"/>
       <path id="DejaVuSans-70" d="M 1159 525 
L 1159 -1331 
L 581 -1331 
L 581 3500 
L 1159 3500 
L 1159 2969 
Q 1341 3281 1617 3432 
Q 1894 3584 2278 3584 
Q 2916 3584 3314 3078 
Q 3713 2572 3713 1747 
Q 3713 922 3314 415 
Q 2916 -91 2278 -91 
Q 1894 -91 1617 61 
Q 1341 213 1159 525 
z
M 3116 1747 
Q 3116 2381 2855 2742 
Q 2594 3103 2138 3103 
Q 1681 3103 1420 2742 
Q 1159 2381 1159 1747 
Q 1159 1113 1420 752 
Q 1681 391 2138 391 
Q 2594 391 2855 752 
Q 3116 1113 3116 1747 
z
" transform="scale(0.015625)"/>
       <path id="DejaVuSans-6f" d="M 1959 3097 
Q 1497 3097 1228 2736 
Q 959 2375 959 1747 
Q 959 1119 1226 758 
Q 1494 397 1959 397 
Q 2419 397 2687 759 
Q 2956 1122 2956 1747 
Q 2956 2369 2687 2733 
Q 2419 3097 1959 3097 
z
M 1959 3584 
Q 2709 3584 3137 3096 
Q 3566 2609 3566 1747 
Q 3566 888 3137 398 
Q 2709 -91 1959 -91 
Q 1206 -91 779 398 
Q 353 888 353 1747 
Q 353 2609 779 3096 
Q 1206 3584 1959 3584 
z
" transform="scale(0.015625)"/>
       <path id="DejaVuSans-63" d="M 3122 3366 
L 3122 2828 
Q 2878 2963 2633 3030 
Q 2388 3097 2138 3097 
Q 1578 3097 1268 2742 
Q 959 2388 959 1747 
Q 959 1106 1268 751 
Q 1578 397 2138 397 
Q 2388 397 2633 464 
Q 2878 531 3122 666 
L 3122 134 
Q 2881 22 2623 -34 
Q 2366 -91 2075 -91 
Q 1284 -91 818 406 
Q 353 903 353 1747 
Q 353 2603 823 3093 
Q 1294 3584 2113 3584 
Q 2378 3584 2631 3529 
Q 2884 3475 3122 3366 
z
" transform="scale(0.015625)"/>
       <path id="DejaVuSans-68" d="M 3513 2113 
L 3513 0 
L 2938 0 
L 2938 2094 
Q 2938 2591 2744 2837 
Q 2550 3084 2163 3084 
Q 1697 3084 1428 2787 
Q 1159 2491 1159 1978 
L 1159 0 
L 581 0 
L 581 4863 
L 1159 4863 
L 1159 2956 
Q 1366 3272 1645 3428 
Q 1925 3584 2291 3584 
Q 2894 3584 3203 3211 
Q 3513 2838 3513 2113 
z
" transform="scale(0.015625)"/>
      </defs>
      <use xlink:href="#DejaVuSans-45"/>
      <use xlink:href="#DejaVuSans-70" x="63.183594"/>
      <use xlink:href="#DejaVuSans-6f" x="126.660156"/>
      <use xlink:href="#DejaVuSans-63" x="187.841797"/>
      <use xlink:href="#DejaVuSans-68" x="242.822266"/>
     </g>
    </g>
   </g>
   <g id="matplotlib.axis_2">
    <g id="ytick_1">
     <g id="line2d_15">
      <path d="M 43.78125 465.838125 
L 850.18125 465.838125 
" clip-path="url(#p91ddb42ff4)" style="fill: none; stroke: #b0b0b0; stroke-width: 0.8; stroke-linecap: square"/>
     </g>
     <g id="line2d_16">
      <defs>
       <path id="m32b655a6f6" d="M 0 0 
L -3.5 0 
" style="stroke: #000000; stroke-width: 0.8"/>
      </defs>
      <g>
       <use xlink:href="#m32b655a6f6" x="43.78125" y="465.838125" style="stroke: #000000; stroke-width: 0.8"/>
      </g>
     </g>
     <g id="text_9">
      <!-- 0.0 -->
      <g transform="translate(20.878125 469.637344) scale(0.1 -0.1)">
       <defs>
        <path id="DejaVuSans-2e" d="M 684 794 
L 1344 794 
L 1344 0 
L 684 0 
L 684 794 
z
" transform="scale(0.015625)"/>
       </defs>
       <use xlink:href="#DejaVuSans-30"/>
       <use xlink:href="#DejaVuSans-2e" x="63.623047"/>
       <use xlink:href="#DejaVuSans-30" x="95.410156"/>
      </g>
     </g>
    </g>
    <g id="ytick_2">
     <g id="line2d_17">
      <path d="M 43.78125 377.134125 
L 850.18125 377.134125 
" clip-path="url(#p91ddb42ff4)" style="fill: none; stroke: #b0b0b0; stroke-width: 0.8; stroke-linecap: square"/>
     </g>
     <g id="line2d_18">
      <g>
       <use xlink:href="#m32b655a6f6" x="43.78125" y="377.134125" style="stroke: #000000; stroke-width: 0.8"/>
      </g>
     </g>
     <g id="text_10">
      <!-- 0.2 -->
      <g transform="translate(20.878125 380.933344) scale(0.1 -0.1)">
       <use xlink:href="#DejaVuSans-30"/>
       <use xlink:href="#DejaVuSans-2e" x="63.623047"/>
       <use xlink:href="#DejaVuSans-32" x="95.410156"/>
      </g>
     </g>
    </g>
    <g id="ytick_3">
     <g id="line2d_19">
      <path d="M 43.78125 288.430125 
L 850.18125 288.430125 
" clip-path="url(#p91ddb42ff4)" style="fill: none; stroke: #b0b0b0; stroke-width: 0.8; stroke-linecap: square"/>
     </g>
     <g id="line2d_20">
      <g>
       <use xlink:href="#m32b655a6f6" x="43.78125" y="288.430125" style="stroke: #000000; stroke-width: 0.8"/>
      </g>
     </g>
     <g id="text_11">
      <!-- 0.4 -->
      <g transform="translate(20.878125 292.229344) scale(0.1 -0.1)">
       <use xlink:href="#DejaVuSans-30"/>
       <use xlink:href="#DejaVuSans-2e" x="63.623047"/>
       <use xlink:href="#DejaVuSans-34" x="95.410156"/>
      </g>
     </g>
    </g>
    <g id="ytick_4">
     <g id="line2d_21">
      <path d="M 43.78125 199.726125 
L 850.18125 199.726125 
" clip-path="url(#p91ddb42ff4)" style="fill: none; stroke: #b0b0b0; stroke-width: 0.8; stroke-linecap: square"/>
     </g>
     <g id="line2d_22">
      <g>
       <use xlink:href="#m32b655a6f6" x="43.78125" y="199.726125" style="stroke: #000000; stroke-width: 0.8"/>
      </g>
     </g>
     <g id="text_12">
      <!-- 0.6 -->
      <g transform="translate(20.878125 203.525344) scale(0.1 -0.1)">
       <use xlink:href="#DejaVuSans-30"/>
       <use xlink:href="#DejaVuSans-2e" x="63.623047"/>
       <use xlink:href="#DejaVuSans-36" x="95.410156"/>
      </g>
     </g>
    </g>
    <g id="ytick_5">
     <g id="line2d_23">
      <path d="M 43.78125 111.022125 
L 850.18125 111.022125 
" clip-path="url(#p91ddb42ff4)" style="fill: none; stroke: #b0b0b0; stroke-width: 0.8; stroke-linecap: square"/>
     </g>
     <g id="line2d_24">
      <g>
       <use xlink:href="#m32b655a6f6" x="43.78125" y="111.022125" style="stroke: #000000; stroke-width: 0.8"/>
      </g>
     </g>
     <g id="text_13">
      <!-- 0.8 -->
      <g transform="translate(20.878125 114.821344) scale(0.1 -0.1)">
       <use xlink:href="#DejaVuSans-30"/>
       <use xlink:href="#DejaVuSans-2e" x="63.623047"/>
       <use xlink:href="#DejaVuSans-38" x="95.410156"/>
      </g>
     </g>
    </g>
    <g id="ytick_6">
     <g id="line2d_25">
      <path d="M 43.78125 22.318125 
L 850.18125 22.318125 
" clip-path="url(#p91ddb42ff4)" style="fill: none; stroke: #b0b0b0; stroke-width: 0.8; stroke-linecap: square"/>
     </g>
     <g id="line2d_26">
      <g>
       <use xlink:href="#m32b655a6f6" x="43.78125" y="22.318125" style="stroke: #000000; stroke-width: 0.8"/>
      </g>
     </g>
     <g id="text_14">
      <!-- 1.0 -->
      <g transform="translate(20.878125 26.117344) scale(0.1 -0.1)">
       <use xlink:href="#DejaVuSans-31"/>
       <use xlink:href="#DejaVuSans-2e" x="63.623047"/>
       <use xlink:href="#DejaVuSans-30" x="95.410156"/>
      </g>
     </g>
    </g>
    <g id="text_15">
     <!-- Loss -->
     <g transform="translate(14.798437 255.045312) rotate(-90) scale(0.1 -0.1)">
      <defs>
       <path id="DejaVuSans-4c" d="M 628 4666 
L 1259 4666 
L 1259 531 
L 3531 531 
L 3531 0 
L 628 0 
L 628 4666 
z
" transform="scale(0.015625)"/>
       <path id="DejaVuSans-73" d="M 2834 3397 
L 2834 2853 
Q 2591 2978 2328 3040 
Q 2066 3103 1784 3103 
Q 1356 3103 1142 2972 
Q 928 2841 928 2578 
Q 928 2378 1081 2264 
Q 1234 2150 1697 2047 
L 1894 2003 
Q 2506 1872 2764 1633 
Q 3022 1394 3022 966 
Q 3022 478 2636 193 
Q 2250 -91 1575 -91 
Q 1294 -91 989 -36 
Q 684 19 347 128 
L 347 722 
Q 666 556 975 473 
Q 1284 391 1588 391 
Q 1994 391 2212 530 
Q 2431 669 2431 922 
Q 2431 1156 2273 1281 
Q 2116 1406 1581 1522 
L 1381 1569 
Q 847 1681 609 1914 
Q 372 2147 372 2553 
Q 372 3047 722 3315 
Q 1072 3584 1716 3584 
Q 2034 3584 2315 3537 
Q 2597 3491 2834 3397 
z
" transform="scale(0.015625)"/>
      </defs>
      <use xlink:href="#DejaVuSans-4c"/>
      <use xlink:href="#DejaVuSans-6f" x="53.962891"/>
      <use xlink:href="#DejaVuSans-73" x="115.144531"/>
      <use xlink:href="#DejaVuSans-73" x="167.244141"/>
     </g>
    </g>
   </g>
   <g id="line2d_27">
    <path d="M 80.435795 60.163691 
L 86.596223 251.320808 
L 92.756651 334.534024 
L 98.917079 388.355178 
L 105.077507 399.026274 
L 111.237934 405.750035 
L 117.398362 406.628207 
L 123.55879 406.490714 
L 129.719218 411.054534 
L 135.879646 410.336034 
L 142.040074 409.435688 
L 148.200501 410.633189 
L 154.360929 410.633189 
L 160.521357 413.613647 
L 166.681785 413.281004 
L 172.842213 414.82002 
L 179.00264 416.155014 
L 185.163068 414.522861 
L 191.323496 414.407545 
L 197.483924 416.341294 
L 203.644352 418.177466 
L 209.804779 417.232768 
L 215.965207 418.221819 
L 222.125635 420.399502 
L 228.286063 421.144616 
L 234.446491 418.434707 
L 240.606918 423.282381 
L 246.767346 422.763462 
L 252.927774 423.623893 
L 259.088202 421.264364 
L 265.24863 420.940594 
L 271.409057 422.927566 
L 277.569485 421.459513 
L 283.729913 423.136019 
L 289.890341 423.925486 
L 296.050769 424.26256 
L 302.211197 424.426663 
L 308.371624 422.559443 
L 314.532052 422.506221 
L 320.69248 425.956807 
L 326.852908 423.526318 
L 333.013336 423.898875 
L 339.173763 423.983143 
L 345.334191 425.225 
L 351.494619 424.648424 
L 357.655047 425.823752 
L 363.815475 426.892633 
L 369.975902 424.932276 
L 376.13633 428.582446 
L 382.296758 427.491385 
L 388.457186 428.391731 
L 394.617614 428.866297 
L 400.778041 425.854798 
L 406.938469 427.615571 
L 413.098897 428.001435 
L 419.259325 429.846476 
L 425.419753 430.258951 
L 431.58018 429.948485 
L 437.740608 429.278772 
L 443.901036 428.888474 
L 450.061464 431.46089 
L 456.221892 429.806561 
L 462.38232 432.68944 
L 468.542747 431.354446 
L 474.703175 431.208084 
L 480.863603 431.558465 
L 487.024031 429.123538 
L 493.184459 432.347929 
L 499.344886 430.844396 
L 505.505314 431.908846 
L 511.665742 431.46089 
L 517.82617 432.010855 
L 523.986598 432.906766 
L 530.147025 432.072946 
L 536.307453 434.139751 
L 542.467881 432.418892 
L 548.628309 433.855899 
L 554.788737 434.051045 
L 560.949164 431.917715 
L 567.109592 435.013485 
L 573.27002 434.543353 
L 579.430448 433.554306 
L 585.590876 434.476824 
L 591.751303 435.097753 
L 597.911731 433.33698 
L 604.072159 435.284033 
L 610.232587 434.272806 
L 616.393015 433.980085 
L 622.553443 434.170796 
L 628.71387 435.847302 
L 634.874298 434.964698 
L 641.034726 433.78937 
L 647.195154 435.097753 
L 653.355582 436.122284 
L 659.516009 435.705378 
L 665.676437 435.621107 
L 671.836865 435.319513 
L 677.997293 436.086804 
L 684.157721 436.131157 
L 690.318148 438.676961 
L 696.478576 437.412929 
L 702.639004 437.333096 
L 708.799432 436.397267 
L 714.95986 437.674604 
L 721.120287 436.525887 
L 727.280715 438.827757 
L 733.441143 438.366496 
L 739.601571 436.973843 
L 745.761999 436.92949 
L 751.922426 436.206555 
L 758.082854 438.761228 
L 764.243282 437.869754 
L 770.40371 438.996294 
L 776.564138 440.380077 
L 782.724566 439.160396 
L 788.884993 440.44217 
L 795.045421 440.038567 
L 801.205849 439.852289 
L 807.366277 439.949862 
L 813.526705 439.794631 
" clip-path="url(#p91ddb42ff4)" style="fill: none; stroke: #1f77b4; stroke-width: 1.5; stroke-linecap: square"/>
   </g>
   <g id="line2d_28">
    <path d="M 85.708108 -1 
L 86.596223 235.664545 
L 92.756651 82.233239 
L 98.917079 11.403079 
L 105.077507 95.631986 
L 111.237934 156.292221 
L 117.398362 181.861136 
L 123.55879 185.200856 
L 129.719218 198.967696 
L 135.879646 201.788481 
L 142.040074 202.090088 
L 148.200501 204.640328 
L 154.360929 209.776285 
L 160.521357 214.499764 
L 166.681785 205.29673 
L 172.842213 205.208038 
L 179.00264 216.548833 
L 185.163068 224.558817 
L 191.323496 225.73857 
L 197.483924 218.189865 
L 203.644352 219.205531 
L 209.804779 225.978079 
L 215.965207 228.098102 
L 222.125635 227.645705 
L 228.286063 214.827991 
L 234.446491 218.11447 
L 240.606918 213.382109 
L 246.767346 221.18362 
L 252.927774 220.726808 
L 259.088202 226.585707 
L 265.24863 224.155195 
L 271.409057 223.911271 
L 277.569485 223.095196 
L 283.729913 227.503771 
L 289.890341 229.548399 
L 296.050769 229.677036 
L 302.211197 223.88465 
L 308.371624 228.998454 
L 314.532052 231.699484 
L 320.69248 230.3157 
L 326.852908 230.098371 
L 333.013336 229.499625 
L 339.173763 230.116109 
L 345.334191 239.234892 
L 351.494619 232.763924 
L 357.655047 232.27605 
L 363.815475 233.389291 
L 369.975902 233.73523 
L 376.13633 234.156591 
L 382.296758 237.114869 
L 388.457186 237.039474 
L 394.617614 235.895171 
L 400.778041 234.329561 
L 406.938469 240.663009 
L 413.098897 232.905858 
L 419.259325 236.826586 
L 425.419753 229.801205 
L 431.58018 234.072314 
L 437.740608 238.143831 
L 443.901036 241.536767 
L 450.061464 234.985963 
L 456.221892 236.689093 
L 462.38232 238.13939 
L 468.542747 237.868846 
L 474.703175 235.318605 
L 480.863603 236.782226 
L 487.024031 239.310287 
L 493.184459 239.465518 
L 499.344886 236.356451 
L 505.505314 238.356719 
L 511.665742 243.293086 
L 517.82617 241.283961 
L 523.986598 244.605917 
L 530.147025 232.963515 
L 536.307453 241.173063 
L 542.467881 241.425869 
L 548.628309 243.927335 
L 554.788737 242.352842 
L 560.949164 244.756707 
L 567.109592 242.964885 
L 573.27002 237.726912 
L 579.430448 246.965436 
L 585.590876 240.600938 
L 591.751303 245.346596 
L 597.911731 242.858454 
L 604.072159 244.823233 
L 610.232587 238.968762 
L 616.393015 242.397175 
L 622.553443 243.333004 
L 628.71387 242.366139 
L 634.874298 248.841535 
L 641.034726 249.772923 
L 647.195154 246.238066 
L 653.355582 251.600222 
L 659.516009 243.528154 
L 665.676437 250.500292 
L 671.836865 247.497669 
L 677.997293 247.067451 
L 684.157721 243.749924 
L 690.318148 249.409232 
L 696.478576 251.422811 
L 702.639004 251.085741 
L 708.799432 256.337024 
L 714.95986 248.828225 
L 721.120287 244.246667 
L 727.280715 249.746315 
L 733.441143 249.44915 
L 739.601571 250.37611 
L 745.761999 250.327323 
L 751.922426 254.154903 
L 758.082854 259.197727 
L 764.243282 260.781089 
L 770.40371 261.579426 
L 776.564138 258.443737 
L 782.724566 263.313591 
L 788.884993 262.639437 
L 795.045421 264.542131 
L 801.205849 262.923292 
L 807.366277 262.462026 
L 813.526705 263.934516 
" clip-path="url(#p91ddb42ff4)" style="fill: none; stroke: #ff7f0e; stroke-width: 1.5; stroke-linecap: square"/>
   </g>
   <g id="line2d_29">
    <path d="M 95.970555 -1 
L 98.917079 69.623972 
L 105.077507 85.036285 
L 111.237934 91.7157 
L 117.398362 100.940913 
L 123.55879 95.915828 
L 129.719218 92.540657 
L 135.879646 93.857903 
L 142.040074 98.049175 
L 148.200501 119.298207 
L 154.360929 100.195792 
L 160.521357 106.391774 
L 166.681785 137.775255 
L 172.842213 131.610335 
L 179.00264 114.996063 
L 185.163068 110.472148 
L 191.323496 110.339097 
L 197.483924 135.025424 
L 203.644352 140.365413 
L 209.804779 127.490017 
L 215.965207 128.04887 
L 222.125635 121.019075 
L 228.286063 148.455207 
L 234.446491 155.751106 
L 240.606918 168.741815 
L 246.767346 163.450627 
L 252.927774 165.437598 
L 259.088202 161.405999 
L 265.24863 167.570919 
L 271.409057 161.991447 
L 277.569485 157.618349 
L 283.729913 169.118817 
L 289.890341 170.387289 
L 296.050769 167.531001 
L 302.211197 176.303844 
L 308.371624 167.247159 
L 314.532052 164.559426 
L 320.69248 171.868622 
L 326.852908 164.515066 
L 333.013336 172.378675 
L 339.173763 164.200162 
L 345.334191 175.465589 
L 351.494619 180.268904 
L 357.655047 190.762589 
L 363.815475 191.521008 
L 369.975902 180.721301 
L 376.13633 196.723504 
L 382.296758 192.239508 
L 388.457186 192.59433 
L 394.617614 199.899111 
L 400.778041 182.539718 
L 406.938469 185.418159 
L 413.098897 199.965623 
L 419.259325 211.980586 
L 425.419753 212.521675 
L 431.58018 210.605684 
L 437.740608 204.604851 
L 443.901036 204.272209 
L 450.061464 220.868716 
L 456.221892 224.789443 
L 462.38232 234.187627 
L 468.542747 226.359495 
L 474.703175 223.006477 
L 480.863603 223.835876 
L 487.024031 210.956064 
L 493.184459 218.305178 
L 499.344886 219.733322 
L 505.505314 224.554376 
L 511.665742 225.96034 
L 517.82617 232.617575 
L 523.986598 237.243479 
L 530.147025 231.193872 
L 536.307453 233.952559 
L 542.467881 229.162541 
L 548.628309 240.250557 
L 554.788737 239.381241 
L 560.949164 235.318605 
L 567.109592 240.858159 
L 573.27002 241.474669 
L 579.430448 245.705847 
L 585.590876 249.48464 
L 591.751303 253.609373 
L 597.911731 249.83058 
L 604.072159 252.536051 
L 610.232587 249.014505 
L 616.393015 251.099051 
L 622.553443 254.070626 
L 628.71387 253.019484 
L 634.874298 253.977492 
L 641.034726 252.615887 
L 647.195154 255.946725 
L 653.355582 262.564042 
L 659.516009 263.003129 
L 665.676437 262.958769 
L 671.836865 254.837927 
L 677.997293 260.350872 
L 684.157721 260.687943 
L 690.318148 269.296672 
L 696.478576 262.652748 
L 702.639004 267.948378 
L 708.799432 260.492806 
L 714.95986 267.637902 
L 721.120287 263.850252 
L 727.280715 270.986478 
L 733.441143 272.680726 
L 739.601571 266.103327 
L 745.761999 270.352256 
L 751.922426 266.400492 
L 758.082854 290.48362 
L 764.243282 286.611693 
L 770.40371 291.228741 
L 776.564138 292.071423 
L 782.724566 294.138231 
L 788.884993 297.890403 
L 795.045421 296.351388 
L 801.205849 298.209735 
L 807.366277 295.708283 
L 813.526705 297.655336 
" clip-path="url(#p91ddb42ff4)" style="fill: none; stroke: #2ca02c; stroke-width: 1.5; stroke-linecap: square"/>
   </g>
   <g id="line2d_30">
    <path d="M 80.435795 228.838782 
L 86.596223 337.696333 
L 92.756651 420.723272 
L 98.917079 437.231087 
L 105.077507 426.679745 
L 111.237934 436.002533 
L 117.398362 432.902331 
L 123.55879 436.823046 
L 129.719218 430.219033 
L 135.879646 434.818336 
L 142.040074 435.323948 
L 148.200501 435.829563 
L 154.360929 431.811271 
L 160.521357 425.774965 
L 166.681785 437.492762 
L 172.842213 430.817785 
L 179.00264 437.563726 
L 185.163068 424.457709 
L 191.323496 438.79671 
L 197.483924 436.202117 
L 203.644352 430.454101 
L 209.804779 429.167891 
L 215.965207 428.702197 
L 222.125635 435.891655 
L 228.286063 440.437734 
L 234.446491 438.703572 
L 240.606918 440.038567 
L 246.767346 438.016116 
L 252.927774 442.163027 
L 259.088202 443.041198 
L 265.24863 440.366772 
L 271.409057 439.750278 
L 277.569485 441.475571 
L 283.729913 442.402529 
L 289.890341 439.803501 
L 296.050769 443.116596 
L 302.211197 442.194074 
L 308.371624 440.99657 
L 314.532052 440.304679 
L 320.69248 442.291649 
L 326.852908 443.298438 
L 333.013336 441.457831 
L 339.173763 442.389222 
L 345.334191 442.974669 
L 351.494619 443.644385 
L 357.655047 442.686381 
L 363.815475 443.280698 
L 369.975902 442.402529 
L 376.13633 440.97883 
L 382.296758 442.522278 
L 388.457186 443.129902 
L 394.617614 443.027891 
L 400.778041 442.633159 
L 406.938469 442.655335 
L 413.098897 441.821517 
L 419.259325 443.724218 
L 425.419753 444.207655 
L 431.58018 441.67072 
L 437.740608 441.821517 
L 443.901036 441.44896 
L 450.061464 443.812921 
L 456.221892 442.442446 
L 462.38232 444.025811 
L 468.542747 443.985894 
L 474.703175 443.183124 
L 480.863603 444.376192 
L 487.024031 443.382708 
L 493.184459 443.178689 
L 499.344886 443.781876 
L 505.505314 444.841889 
L 511.665742 443.577855 
L 517.82617 444.371757 
L 523.986598 444.154433 
L 530.147025 445.032602 
L 536.307453 444.495943 
L 542.467881 442.322694 
L 548.628309 446.026086 
L 554.788737 443.937107 
L 560.949164 443.733088 
L 567.109592 445.028166 
L 573.27002 445.33863 
L 579.430448 443.391579 
L 585.590876 444.22096 
L 591.751303 444.917287 
L 597.911731 444.673351 
L 604.072159 444.540294 
L 610.232587 444.065727 
L 616.393015 443.67543 
L 622.553443 444.380628 
L 628.71387 445.094695 
L 634.874298 446.119226 
L 641.034726 446.42082 
L 647.195154 445.941817 
L 653.355582 445.990604 
L 659.516009 446.150272 
L 665.676437 445.906337 
L 671.836865 445.87529 
L 677.997293 445.516038 
L 684.157721 444.447155 
L 690.318148 445.830938 
L 696.478576 445.294279 
L 702.639004 444.890675 
L 708.799432 445.312019 
L 714.95986 443.799616 
L 721.120287 445.041471 
L 727.280715 445.072519 
L 733.441143 443.879451 
L 739.601571 444.56247 
L 745.761999 446.571617 
L 751.922426 443.595597 
L 758.082854 445.751104 
L 764.243282 446.252281 
L 770.40371 445.161223 
L 776.564138 445.396288 
L 782.724566 445.813197 
L 788.884993 444.620129 
L 795.045421 445.422899 
L 801.205849 445.037037 
L 807.366277 445.33863 
L 813.526705 445.693447 
" clip-path="url(#p91ddb42ff4)" style="fill: none; stroke: #d62728; stroke-width: 1.5; stroke-linecap: square"/>
   </g>
   <g id="line2d_31">
    <path d="M 80.435795 149.408775 
L 86.512987 -1 
M 101.35048 -1 
L 105.077507 117.785812 
L 111.237934 104.657609 
L 117.398362 141.886691 
L 123.55879 130.931727 
L 129.719218 159.352488 
L 135.879646 162.040221 
L 142.040074 157.20587 
L 148.200501 161.31728 
L 154.360929 176.525588 
L 160.521357 201.779625 
L 166.681785 162.927276 
L 172.842213 168.626502 
L 179.00264 172.081536 
L 185.163068 225.499061 
L 191.323496 177.909372 
L 197.483924 188.256709 
L 203.644352 215.488835 
L 209.804779 194.057951 
L 215.965207 205.137057 
L 222.125635 180.424136 
L 228.286063 176.175207 
L 234.446491 182.690534 
L 240.606918 214.943305 
L 246.767346 197.801241 
L 252.927774 185.209712 
L 259.088202 184.68192 
L 265.24863 197.734728 
L 271.409057 197.991949 
L 277.569485 194.226479 
L 283.729913 196.315467 
L 289.890341 200.515595 
L 296.050769 181.297867 
L 302.211197 196.03604 
L 308.371624 204.737903 
L 314.532052 198.95884 
L 320.69248 195.264324 
L 326.852908 193.388225 
L 333.013336 206.56076 
L 339.173763 197.960913 
L 345.334191 192.554411 
L 351.494619 192.372559 
L 357.655047 204.910872 
L 363.815475 196.856556 
L 369.975902 200.728483 
L 376.13633 205.132643 
L 382.296758 213.896577 
L 388.457186 199.415652 
L 394.617614 200.413579 
L 400.778041 210.317374 
L 406.938469 202.755372 
L 413.098897 208.188495 
L 419.259325 199.162846 
L 425.419753 196.005004 
L 431.58018 195.140129 
L 437.740608 202.604582 
L 443.901036 200.586549 
L 450.061464 204.498394 
L 456.221892 207.013157 
L 462.38232 199.229385 
L 468.542747 207.798196 
L 474.703175 201.105484 
L 480.863603 203.766596 
L 487.024031 205.749127 
L 493.184459 195.561463 
L 499.344886 197.415383 
L 505.505314 207.576426 
L 511.665742 198.222602 
L 517.82617 206.458771 
L 523.986598 208.871518 
L 530.147025 210.933885 
L 536.307453 201.087719 
L 542.467881 202.617879 
L 548.628309 198.311294 
L 554.788737 201.801805 
L 560.949164 188.478452 
L 567.109592 197.872221 
L 573.27002 199.983362 
L 579.430448 197.583912 
L 585.590876 203.682319 
L 591.751303 200.76396 
L 597.911731 203.629104 
L 604.072159 200.151917 
L 610.232587 196.435195 
L 616.393015 208.011084 
L 622.553443 207.660703 
L 628.71387 206.370052 
L 634.874298 204.502835 
L 641.034726 203.744417 
L 647.195154 205.496321 
L 653.355582 204.870954 
L 659.516009 207.314764 
L 665.676437 211.869714 
L 671.836865 211.510451 
L 677.997293 207.736098 
L 684.157721 209.92266 
L 690.318148 209.629936 
L 696.478576 205.483023 
L 702.639004 209.399283 
L 708.799432 202.40055 
L 714.95986 205.239073 
L 721.120287 207.833673 
L 727.280715 203.677878 
L 733.441143 205.416484 
L 739.601571 201.163141 
L 745.761999 203.3142 
L 751.922426 210.995956 
L 758.082854 207.709477 
L 764.243282 218.549102 
L 770.40371 213.21358 
L 776.564138 206.937762 
L 782.724566 209.168657 
L 788.884993 213.967557 
L 795.045421 211.173367 
L 801.205849 209.758547 
L 807.366277 210.477047 
L 813.526705 211.585846 
" clip-path="url(#p91ddb42ff4)" style="fill: none; stroke: #9467bd; stroke-width: 1.5; stroke-linecap: square"/>
   </g>
   <g id="line2d_32">
    <path d="M 87.208326 -1 
L 92.756651 180.251166 
L 98.917079 262.985377 
L 105.077507 167.522145 
L 111.237934 252.5671 
L 117.398362 228.643632 
L 123.55879 270.04178 
L 129.719218 218.28744 
L 135.879646 250.056778 
L 142.040074 244.951856 
L 148.200501 254.687123 
L 154.360929 222.82021 
L 160.521357 138.276426 
L 166.681785 266.165425 
L 172.842213 235.970566 
L 179.00264 263.074082 
L 185.163068 106.529267 
L 191.323496 278.189243 
L 197.483924 243.798698 
L 203.644352 189.094963 
L 209.804779 196.049337 
L 215.965207 178.973812 
L 222.125635 266.99481 
L 228.286063 287.658394 
L 234.446491 280.930205 
L 240.606918 265.065495 
L 246.767346 262.377762 
L 252.927774 301.873216 
L 259.088202 309.07154 
L 265.24863 273.399226 
L 271.409057 280.499988 
L 277.569485 294.275724 
L 283.729913 306.87168 
L 289.890341 267.265354 
L 296.050769 304.569818 
L 302.211197 305.461288 
L 308.371624 286.899976 
L 314.532052 292.767757 
L 320.69248 302.232466 
L 326.852908 307.998231 
L 333.013336 289.920351 
L 339.173763 296.125202 
L 345.334191 312.899121 
L 351.494619 311.67945 
L 357.655047 305.323808 
L 363.815475 305.066561 
L 369.975902 308.188939 
L 376.13633 296.692899 
L 382.296758 305.204054 
L 388.457186 313.559964 
L 394.617614 310.481945 
L 400.778041 304.339192 
L 406.938469 303.248131 
L 413.098897 301.039403 
L 419.259325 310.610556 
L 425.419753 319.401124 
L 431.58018 303.336837 
L 437.740608 291.450498 
L 443.901036 309.874317 
L 450.061464 320.283738 
L 456.221892 304.365799 
L 462.38232 319.915605 
L 468.542747 300.316461 
L 474.703175 316.748881 
L 480.863603 321.898149 
L 487.024031 313.919214 
L 493.184459 306.272935 
L 499.344886 315.45823 
L 505.505314 319.631751 
L 511.665742 317.307709 
L 517.82617 316.904113 
L 523.986598 319.117269 
L 530.147025 324.466128 
L 536.307453 321.423573 
L 542.467881 312.460034 
L 548.628309 326.271247 
L 554.788737 321.325998 
L 560.949164 317.733498 
L 567.109592 321.476801 
L 573.27002 322.217481 
L 579.430448 320.829255 
L 585.590876 321.459063 
L 591.751303 322.709783 
L 597.911731 320.554282 
L 604.072159 322.96703 
L 610.232587 320.039801 
L 616.393015 323.827451 
L 622.553443 322.275137 
L 628.71387 323.654481 
L 634.874298 329.979073 
L 641.034726 331.225365 
L 647.195154 329.13195 
L 653.355582 328.7727 
L 659.516009 329.766186 
L 665.676437 330.58226 
L 671.836865 327.748178 
L 677.997293 326.759121 
L 684.157721 324.492735 
L 690.318148 327.477621 
L 696.478576 328.843667 
L 702.639004 327.482062 
L 708.799432 328.506596 
L 714.95986 324.288717 
L 721.120287 328.071938 
L 727.280715 328.679566 
L 733.441143 323.898418 
L 739.601571 327.996543 
L 745.761999 333.904229 
L 751.922426 322.558992 
L 758.082854 330.852818 
L 764.243282 333.292173 
L 770.40371 328.746092 
L 776.564138 329.850463 
L 782.724566 331.243117 
L 788.884993 330.014564 
L 795.045421 330.249631 
L 801.205849 329.455723 
L 807.366277 331.997094 
L 813.526705 331.393907 
" clip-path="url(#p91ddb42ff4)" style="fill: none; stroke: #8c564b; stroke-width: 1.5; stroke-linecap: square"/>
   </g>
   <g id="patch_3">
    <path d="M 43.78125 465.838125 
L 43.78125 22.318125 
" style="fill: none; stroke: #000000; stroke-width: 0.8; stroke-linejoin: miter; stroke-linecap: square"/>
   </g>
   <g id="patch_4">
    <path d="M 850.18125 465.838125 
L 850.18125 22.318125 
" style="fill: none; stroke: #000000; stroke-width: 0.8; stroke-linejoin: miter; stroke-linecap: square"/>
   </g>
   <g id="patch_5">
    <path d="M 43.78125 465.838125 
L 850.18125 465.838125 
" style="fill: none; stroke: #000000; stroke-width: 0.8; stroke-linejoin: miter; stroke-linecap: square"/>
   </g>
   <g id="patch_6">
    <path d="M 43.78125 22.318125 
L 850.18125 22.318125 
" style="fill: none; stroke: #000000; stroke-width: 0.8; stroke-linejoin: miter; stroke-linecap: square"/>
   </g>
   <g id="text_16">
    <!-- Training Metrics over Epochs -->
    <g transform="translate(360.930938 16.318125) scale(0.12 -0.12)">
     <defs>
      <path id="DejaVuSans-54" d="M -19 4666 
L 3928 4666 
L 3928 4134 
L 2272 4134 
L 2272 0 
L 1638 0 
L 1638 4134 
L -19 4134 
L -19 4666 
z
" transform="scale(0.015625)"/>
      <path id="DejaVuSans-72" d="M 2631 2963 
Q 2534 3019 2420 3045 
Q 2306 3072 2169 3072 
Q 1681 3072 1420 2755 
Q 1159 2438 1159 1844 
L 1159 0 
L 581 0 
L 581 3500 
L 1159 3500 
L 1159 2956 
Q 1341 3275 1631 3429 
Q 1922 3584 2338 3584 
Q 2397 3584 2469 3576 
Q 2541 3569 2628 3553 
L 2631 2963 
z
" transform="scale(0.015625)"/>
      <path id="DejaVuSans-61" d="M 2194 1759 
Q 1497 1759 1228 1600 
Q 959 1441 959 1056 
Q 959 750 1161 570 
Q 1363 391 1709 391 
Q 2188 391 2477 730 
Q 2766 1069 2766 1631 
L 2766 1759 
L 2194 1759 
z
M 3341 1997 
L 3341 0 
L 2766 0 
L 2766 531 
Q 2569 213 2275 61 
Q 1981 -91 1556 -91 
Q 1019 -91 701 211 
Q 384 513 384 1019 
Q 384 1609 779 1909 
Q 1175 2209 1959 2209 
L 2766 2209 
L 2766 2266 
Q 2766 2663 2505 2880 
Q 2244 3097 1772 3097 
Q 1472 3097 1187 3025 
Q 903 2953 641 2809 
L 641 3341 
Q 956 3463 1253 3523 
Q 1550 3584 1831 3584 
Q 2591 3584 2966 3190 
Q 3341 2797 3341 1997 
z
" transform="scale(0.015625)"/>
      <path id="DejaVuSans-69" d="M 603 3500 
L 1178 3500 
L 1178 0 
L 603 0 
L 603 3500 
z
M 603 4863 
L 1178 4863 
L 1178 4134 
L 603 4134 
L 603 4863 
z
" transform="scale(0.015625)"/>
      <path id="DejaVuSans-6e" d="M 3513 2113 
L 3513 0 
L 2938 0 
L 2938 2094 
Q 2938 2591 2744 2837 
Q 2550 3084 2163 3084 
Q 1697 3084 1428 2787 
Q 1159 2491 1159 1978 
L 1159 0 
L 581 0 
L 581 3500 
L 1159 3500 
L 1159 2956 
Q 1366 3272 1645 3428 
Q 1925 3584 2291 3584 
Q 2894 3584 3203 3211 
Q 3513 2838 3513 2113 
z
" transform="scale(0.015625)"/>
      <path id="DejaVuSans-67" d="M 2906 1791 
Q 2906 2416 2648 2759 
Q 2391 3103 1925 3103 
Q 1463 3103 1205 2759 
Q 947 2416 947 1791 
Q 947 1169 1205 825 
Q 1463 481 1925 481 
Q 2391 481 2648 825 
Q 2906 1169 2906 1791 
z
M 3481 434 
Q 3481 -459 3084 -895 
Q 2688 -1331 1869 -1331 
Q 1566 -1331 1297 -1286 
Q 1028 -1241 775 -1147 
L 775 -588 
Q 1028 -725 1275 -790 
Q 1522 -856 1778 -856 
Q 2344 -856 2625 -561 
Q 2906 -266 2906 331 
L 2906 616 
Q 2728 306 2450 153 
Q 2172 0 1784 0 
Q 1141 0 747 490 
Q 353 981 353 1791 
Q 353 2603 747 3093 
Q 1141 3584 1784 3584 
Q 2172 3584 2450 3431 
Q 2728 3278 2906 2969 
L 2906 3500 
L 3481 3500 
L 3481 434 
z
" transform="scale(0.015625)"/>
      <path id="DejaVuSans-20" transform="scale(0.015625)"/>
      <path id="DejaVuSans-4d" d="M 628 4666 
L 1569 4666 
L 2759 1491 
L 3956 4666 
L 4897 4666 
L 4897 0 
L 4281 0 
L 4281 4097 
L 3078 897 
L 2444 897 
L 1241 4097 
L 1241 0 
L 628 0 
L 628 4666 
z
" transform="scale(0.015625)"/>
      <path id="DejaVuSans-65" d="M 3597 1894 
L 3597 1613 
L 953 1613 
Q 991 1019 1311 708 
Q 1631 397 2203 397 
Q 2534 397 2845 478 
Q 3156 559 3463 722 
L 3463 178 
Q 3153 47 2828 -22 
Q 2503 -91 2169 -91 
Q 1331 -91 842 396 
Q 353 884 353 1716 
Q 353 2575 817 3079 
Q 1281 3584 2069 3584 
Q 2775 3584 3186 3129 
Q 3597 2675 3597 1894 
z
M 3022 2063 
Q 3016 2534 2758 2815 
Q 2500 3097 2075 3097 
Q 1594 3097 1305 2825 
Q 1016 2553 972 2059 
L 3022 2063 
z
" transform="scale(0.015625)"/>
      <path id="DejaVuSans-74" d="M 1172 4494 
L 1172 3500 
L 2356 3500 
L 2356 3053 
L 1172 3053 
L 1172 1153 
Q 1172 725 1289 603 
Q 1406 481 1766 481 
L 2356 481 
L 2356 0 
L 1766 0 
Q 1100 0 847 248 
Q 594 497 594 1153 
L 594 3053 
L 172 3053 
L 172 3500 
L 594 3500 
L 594 4494 
L 1172 4494 
z
" transform="scale(0.015625)"/>
      <path id="DejaVuSans-76" d="M 191 3500 
L 800 3500 
L 1894 563 
L 2988 3500 
L 3597 3500 
L 2284 0 
L 1503 0 
L 191 3500 
z
" transform="scale(0.015625)"/>
     </defs>
     <use xlink:href="#DejaVuSans-54"/>
     <use xlink:href="#DejaVuSans-72" x="46.333984"/>
     <use xlink:href="#DejaVuSans-61" x="87.447266"/>
     <use xlink:href="#DejaVuSans-69" x="148.726562"/>
     <use xlink:href="#DejaVuSans-6e" x="176.509766"/>
     <use xlink:href="#DejaVuSans-69" x="239.888672"/>
     <use xlink:href="#DejaVuSans-6e" x="267.671875"/>
     <use xlink:href="#DejaVuSans-67" x="331.050781"/>
     <use xlink:href="#DejaVuSans-20" x="394.527344"/>
     <use xlink:href="#DejaVuSans-4d" x="426.314453"/>
     <use xlink:href="#DejaVuSans-65" x="512.59375"/>
     <use xlink:href="#DejaVuSans-74" x="574.117188"/>
     <use xlink:href="#DejaVuSans-72" x="613.326172"/>
     <use xlink:href="#DejaVuSans-69" x="654.439453"/>
     <use xlink:href="#DejaVuSans-63" x="682.222656"/>
     <use xlink:href="#DejaVuSans-73" x="737.203125"/>
     <use xlink:href="#DejaVuSans-20" x="789.302734"/>
     <use xlink:href="#DejaVuSans-6f" x="821.089844"/>
     <use xlink:href="#DejaVuSans-76" x="882.271484"/>
     <use xlink:href="#DejaVuSans-65" x="941.451172"/>
     <use xlink:href="#DejaVuSans-72" x="1002.974609"/>
     <use xlink:href="#DejaVuSans-20" x="1044.087891"/>
     <use xlink:href="#DejaVuSans-45" x="1075.875"/>
     <use xlink:href="#DejaVuSans-70" x="1139.058594"/>
     <use xlink:href="#DejaVuSans-6f" x="1202.535156"/>
     <use xlink:href="#DejaVuSans-63" x="1263.716797"/>
     <use xlink:href="#DejaVuSans-68" x="1318.697266"/>
     <use xlink:href="#DejaVuSans-73" x="1382.076172"/>
    </g>
   </g>
   <g id="legend_1">
    <g id="patch_7">
     <path d="M 873.30925 118.386875 
L 1051.93425 118.386875 
Q 1053.93425 118.386875 1053.93425 116.386875 
L 1053.93425 29.318125 
Q 1053.93425 27.318125 1051.93425 27.318125 
L 873.30925 27.318125 
Q 871.30925 27.318125 871.30925 29.318125 
L 871.30925 116.386875 
Q 871.30925 118.386875 873.30925 118.386875 
z
" style="fill: #ffffff; opacity: 0.8; stroke: #cccccc; stroke-linejoin: miter"/>
    </g>
    <g id="line2d_33">
     <path d="M 875.30925 35.416562 
L 885.30925 35.416562 
L 895.30925 35.416562 
" style="fill: none; stroke: #1f77b4; stroke-width: 1.5; stroke-linecap: square"/>
    </g>
    <g id="text_17">
     <!-- Traini Box Regression L1 Loss -->
     <g transform="translate(903.30925 38.916562) scale(0.1 -0.1)">
      <defs>
       <path id="DejaVuSans-42" d="M 1259 2228 
L 1259 519 
L 2272 519 
Q 2781 519 3026 730 
Q 3272 941 3272 1375 
Q 3272 1813 3026 2020 
Q 2781 2228 2272 2228 
L 1259 2228 
z
M 1259 4147 
L 1259 2741 
L 2194 2741 
Q 2656 2741 2882 2914 
Q 3109 3088 3109 3444 
Q 3109 3797 2882 3972 
Q 2656 4147 2194 4147 
L 1259 4147 
z
M 628 4666 
L 2241 4666 
Q 2963 4666 3353 4366 
Q 3744 4066 3744 3513 
Q 3744 3084 3544 2831 
Q 3344 2578 2956 2516 
Q 3422 2416 3680 2098 
Q 3938 1781 3938 1306 
Q 3938 681 3513 340 
Q 3088 0 2303 0 
L 628 0 
L 628 4666 
z
" transform="scale(0.015625)"/>
       <path id="DejaVuSans-78" d="M 3513 3500 
L 2247 1797 
L 3578 0 
L 2900 0 
L 1881 1375 
L 863 0 
L 184 0 
L 1544 1831 
L 300 3500 
L 978 3500 
L 1906 2253 
L 2834 3500 
L 3513 3500 
z
" transform="scale(0.015625)"/>
       <path id="DejaVuSans-52" d="M 2841 2188 
Q 3044 2119 3236 1894 
Q 3428 1669 3622 1275 
L 4263 0 
L 3584 0 
L 2988 1197 
Q 2756 1666 2539 1819 
Q 2322 1972 1947 1972 
L 1259 1972 
L 1259 0 
L 628 0 
L 628 4666 
L 2053 4666 
Q 2853 4666 3247 4331 
Q 3641 3997 3641 3322 
Q 3641 2881 3436 2590 
Q 3231 2300 2841 2188 
z
M 1259 4147 
L 1259 2491 
L 2053 2491 
Q 2509 2491 2742 2702 
Q 2975 2913 2975 3322 
Q 2975 3731 2742 3939 
Q 2509 4147 2053 4147 
L 1259 4147 
z
" transform="scale(0.015625)"/>
      </defs>
      <use xlink:href="#DejaVuSans-54"/>
      <use xlink:href="#DejaVuSans-72" x="46.333984"/>
      <use xlink:href="#DejaVuSans-61" x="87.447266"/>
      <use xlink:href="#DejaVuSans-69" x="148.726562"/>
      <use xlink:href="#DejaVuSans-6e" x="176.509766"/>
      <use xlink:href="#DejaVuSans-69" x="239.888672"/>
      <use xlink:href="#DejaVuSans-20" x="267.671875"/>
      <use xlink:href="#DejaVuSans-42" x="299.458984"/>
      <use xlink:href="#DejaVuSans-6f" x="368.0625"/>
      <use xlink:href="#DejaVuSans-78" x="426.119141"/>
      <use xlink:href="#DejaVuSans-20" x="485.298828"/>
      <use xlink:href="#DejaVuSans-52" x="517.085938"/>
      <use xlink:href="#DejaVuSans-65" x="582.068359"/>
      <use xlink:href="#DejaVuSans-67" x="643.591797"/>
      <use xlink:href="#DejaVuSans-72" x="707.068359"/>
      <use xlink:href="#DejaVuSans-65" x="745.931641"/>
      <use xlink:href="#DejaVuSans-73" x="807.455078"/>
      <use xlink:href="#DejaVuSans-73" x="859.554688"/>
      <use xlink:href="#DejaVuSans-69" x="911.654297"/>
      <use xlink:href="#DejaVuSans-6f" x="939.4375"/>
      <use xlink:href="#DejaVuSans-6e" x="1000.619141"/>
      <use xlink:href="#DejaVuSans-20" x="1063.998047"/>
      <use xlink:href="#DejaVuSans-4c" x="1095.785156"/>
      <use xlink:href="#DejaVuSans-31" x="1151.498047"/>
      <use xlink:href="#DejaVuSans-20" x="1215.121094"/>
      <use xlink:href="#DejaVuSans-4c" x="1246.908203"/>
      <use xlink:href="#DejaVuSans-6f" x="1300.871094"/>
      <use xlink:href="#DejaVuSans-73" x="1362.052734"/>
      <use xlink:href="#DejaVuSans-73" x="1414.152344"/>
     </g>
    </g>
    <g id="line2d_34">
     <path d="M 875.30925 50.094688 
L 885.30925 50.094688 
L 895.30925 50.094688 
" style="fill: none; stroke: #ff7f0e; stroke-width: 1.5; stroke-linecap: square"/>
    </g>
    <g id="text_18">
     <!-- Train Classification Loss -->
     <g transform="translate(903.30925 53.594688) scale(0.1 -0.1)">
      <defs>
       <path id="DejaVuSans-43" d="M 4122 4306 
L 4122 3641 
Q 3803 3938 3442 4084 
Q 3081 4231 2675 4231 
Q 1875 4231 1450 3742 
Q 1025 3253 1025 2328 
Q 1025 1406 1450 917 
Q 1875 428 2675 428 
Q 3081 428 3442 575 
Q 3803 722 4122 1019 
L 4122 359 
Q 3791 134 3420 21 
Q 3050 -91 2638 -91 
Q 1578 -91 968 557 
Q 359 1206 359 2328 
Q 359 3453 968 4101 
Q 1578 4750 2638 4750 
Q 3056 4750 3426 4639 
Q 3797 4528 4122 4306 
z
" transform="scale(0.015625)"/>
       <path id="DejaVuSans-6c" d="M 603 4863 
L 1178 4863 
L 1178 0 
L 603 0 
L 603 4863 
z
" transform="scale(0.015625)"/>
       <path id="DejaVuSans-66" d="M 2375 4863 
L 2375 4384 
L 1825 4384 
Q 1516 4384 1395 4259 
Q 1275 4134 1275 3809 
L 1275 3500 
L 2222 3500 
L 2222 3053 
L 1275 3053 
L 1275 0 
L 697 0 
L 697 3053 
L 147 3053 
L 147 3500 
L 697 3500 
L 697 3744 
Q 697 4328 969 4595 
Q 1241 4863 1831 4863 
L 2375 4863 
z
" transform="scale(0.015625)"/>
      </defs>
      <use xlink:href="#DejaVuSans-54"/>
      <use xlink:href="#DejaVuSans-72" x="46.333984"/>
      <use xlink:href="#DejaVuSans-61" x="87.447266"/>
      <use xlink:href="#DejaVuSans-69" x="148.726562"/>
      <use xlink:href="#DejaVuSans-6e" x="176.509766"/>
      <use xlink:href="#DejaVuSans-20" x="239.888672"/>
      <use xlink:href="#DejaVuSans-43" x="271.675781"/>
      <use xlink:href="#DejaVuSans-6c" x="341.5"/>
      <use xlink:href="#DejaVuSans-61" x="369.283203"/>
      <use xlink:href="#DejaVuSans-73" x="430.5625"/>
      <use xlink:href="#DejaVuSans-73" x="482.662109"/>
      <use xlink:href="#DejaVuSans-69" x="534.761719"/>
      <use xlink:href="#DejaVuSans-66" x="562.544922"/>
      <use xlink:href="#DejaVuSans-69" x="597.75"/>
      <use xlink:href="#DejaVuSans-63" x="625.533203"/>
      <use xlink:href="#DejaVuSans-61" x="680.513672"/>
      <use xlink:href="#DejaVuSans-74" x="741.792969"/>
      <use xlink:href="#DejaVuSans-69" x="781.001953"/>
      <use xlink:href="#DejaVuSans-6f" x="808.785156"/>
      <use xlink:href="#DejaVuSans-6e" x="869.966797"/>
      <use xlink:href="#DejaVuSans-20" x="933.345703"/>
      <use xlink:href="#DejaVuSans-4c" x="965.132812"/>
      <use xlink:href="#DejaVuSans-6f" x="1019.095703"/>
      <use xlink:href="#DejaVuSans-73" x="1080.277344"/>
      <use xlink:href="#DejaVuSans-73" x="1132.376953"/>
     </g>
    </g>
    <g id="line2d_35">
     <path d="M 875.30925 64.772812 
L 885.30925 64.772812 
L 895.30925 64.772812 
" style="fill: none; stroke: #2ca02c; stroke-width: 1.5; stroke-linecap: square"/>
    </g>
    <g id="text_19">
     <!-- Train Generalized IoU Loss -->
     <g transform="translate(903.30925 68.272812) scale(0.1 -0.1)">
      <defs>
       <path id="DejaVuSans-47" d="M 3809 666 
L 3809 1919 
L 2778 1919 
L 2778 2438 
L 4434 2438 
L 4434 434 
Q 4069 175 3628 42 
Q 3188 -91 2688 -91 
Q 1594 -91 976 548 
Q 359 1188 359 2328 
Q 359 3472 976 4111 
Q 1594 4750 2688 4750 
Q 3144 4750 3555 4637 
Q 3966 4525 4313 4306 
L 4313 3634 
Q 3963 3931 3569 4081 
Q 3175 4231 2741 4231 
Q 1884 4231 1454 3753 
Q 1025 3275 1025 2328 
Q 1025 1384 1454 906 
Q 1884 428 2741 428 
Q 3075 428 3337 486 
Q 3600 544 3809 666 
z
" transform="scale(0.015625)"/>
       <path id="DejaVuSans-7a" d="M 353 3500 
L 3084 3500 
L 3084 2975 
L 922 459 
L 3084 459 
L 3084 0 
L 275 0 
L 275 525 
L 2438 3041 
L 353 3041 
L 353 3500 
z
" transform="scale(0.015625)"/>
       <path id="DejaVuSans-64" d="M 2906 2969 
L 2906 4863 
L 3481 4863 
L 3481 0 
L 2906 0 
L 2906 525 
Q 2725 213 2448 61 
Q 2172 -91 1784 -91 
Q 1150 -91 751 415 
Q 353 922 353 1747 
Q 353 2572 751 3078 
Q 1150 3584 1784 3584 
Q 2172 3584 2448 3432 
Q 2725 3281 2906 2969 
z
M 947 1747 
Q 947 1113 1208 752 
Q 1469 391 1925 391 
Q 2381 391 2643 752 
Q 2906 1113 2906 1747 
Q 2906 2381 2643 2742 
Q 2381 3103 1925 3103 
Q 1469 3103 1208 2742 
Q 947 2381 947 1747 
z
" transform="scale(0.015625)"/>
       <path id="DejaVuSans-49" d="M 628 4666 
L 1259 4666 
L 1259 0 
L 628 0 
L 628 4666 
z
" transform="scale(0.015625)"/>
       <path id="DejaVuSans-55" d="M 556 4666 
L 1191 4666 
L 1191 1831 
Q 1191 1081 1462 751 
Q 1734 422 2344 422 
Q 2950 422 3222 751 
Q 3494 1081 3494 1831 
L 3494 4666 
L 4128 4666 
L 4128 1753 
Q 4128 841 3676 375 
Q 3225 -91 2344 -91 
Q 1459 -91 1007 375 
Q 556 841 556 1753 
L 556 4666 
z
" transform="scale(0.015625)"/>
      </defs>
      <use xlink:href="#DejaVuSans-54"/>
      <use xlink:href="#DejaVuSans-72" x="46.333984"/>
      <use xlink:href="#DejaVuSans-61" x="87.447266"/>
      <use xlink:href="#DejaVuSans-69" x="148.726562"/>
      <use xlink:href="#DejaVuSans-6e" x="176.509766"/>
      <use xlink:href="#DejaVuSans-20" x="239.888672"/>
      <use xlink:href="#DejaVuSans-47" x="271.675781"/>
      <use xlink:href="#DejaVuSans-65" x="349.166016"/>
      <use xlink:href="#DejaVuSans-6e" x="410.689453"/>
      <use xlink:href="#DejaVuSans-65" x="474.068359"/>
      <use xlink:href="#DejaVuSans-72" x="535.591797"/>
      <use xlink:href="#DejaVuSans-61" x="576.705078"/>
      <use xlink:href="#DejaVuSans-6c" x="637.984375"/>
      <use xlink:href="#DejaVuSans-69" x="665.767578"/>
      <use xlink:href="#DejaVuSans-7a" x="693.550781"/>
      <use xlink:href="#DejaVuSans-65" x="746.041016"/>
      <use xlink:href="#DejaVuSans-64" x="807.564453"/>
      <use xlink:href="#DejaVuSans-20" x="871.041016"/>
      <use xlink:href="#DejaVuSans-49" x="902.828125"/>
      <use xlink:href="#DejaVuSans-6f" x="932.320312"/>
      <use xlink:href="#DejaVuSans-55" x="993.501953"/>
      <use xlink:href="#DejaVuSans-20" x="1066.695312"/>
      <use xlink:href="#DejaVuSans-4c" x="1098.482422"/>
      <use xlink:href="#DejaVuSans-6f" x="1152.445312"/>
      <use xlink:href="#DejaVuSans-73" x="1213.626953"/>
      <use xlink:href="#DejaVuSans-73" x="1265.726562"/>
     </g>
    </g>
    <g id="line2d_36">
     <path d="M 875.30925 79.450938 
L 885.30925 79.450938 
L 895.30925 79.450938 
" style="fill: none; stroke: #d62728; stroke-width: 1.5; stroke-linecap: square"/>
    </g>
    <g id="text_20">
     <!-- Val Box Regression L1 Loss -->
     <g transform="translate(903.30925 82.950938) scale(0.1 -0.1)">
      <defs>
       <path id="DejaVuSans-56" d="M 1831 0 
L 50 4666 
L 709 4666 
L 2188 738 
L 3669 4666 
L 4325 4666 
L 2547 0 
L 1831 0 
z
" transform="scale(0.015625)"/>
      </defs>
      <use xlink:href="#DejaVuSans-56"/>
      <use xlink:href="#DejaVuSans-61" x="60.658203"/>
      <use xlink:href="#DejaVuSans-6c" x="121.9375"/>
      <use xlink:href="#DejaVuSans-20" x="149.720703"/>
      <use xlink:href="#DejaVuSans-42" x="181.507812"/>
      <use xlink:href="#DejaVuSans-6f" x="250.111328"/>
      <use xlink:href="#DejaVuSans-78" x="308.167969"/>
      <use xlink:href="#DejaVuSans-20" x="367.347656"/>
      <use xlink:href="#DejaVuSans-52" x="399.134766"/>
      <use xlink:href="#DejaVuSans-65" x="464.117188"/>
      <use xlink:href="#DejaVuSans-67" x="525.640625"/>
      <use xlink:href="#DejaVuSans-72" x="589.117188"/>
      <use xlink:href="#DejaVuSans-65" x="627.980469"/>
      <use xlink:href="#DejaVuSans-73" x="689.503906"/>
      <use xlink:href="#DejaVuSans-73" x="741.603516"/>
      <use xlink:href="#DejaVuSans-69" x="793.703125"/>
      <use xlink:href="#DejaVuSans-6f" x="821.486328"/>
      <use xlink:href="#DejaVuSans-6e" x="882.667969"/>
      <use xlink:href="#DejaVuSans-20" x="946.046875"/>
      <use xlink:href="#DejaVuSans-4c" x="977.833984"/>
      <use xlink:href="#DejaVuSans-31" x="1033.546875"/>
      <use xlink:href="#DejaVuSans-20" x="1097.169922"/>
      <use xlink:href="#DejaVuSans-4c" x="1128.957031"/>
      <use xlink:href="#DejaVuSans-6f" x="1182.919922"/>
      <use xlink:href="#DejaVuSans-73" x="1244.101562"/>
      <use xlink:href="#DejaVuSans-73" x="1296.201172"/>
     </g>
    </g>
    <g id="line2d_37">
     <path d="M 875.30925 94.129062 
L 885.30925 94.129062 
L 895.30925 94.129062 
" style="fill: none; stroke: #9467bd; stroke-width: 1.5; stroke-linecap: square"/>
    </g>
    <g id="text_21">
     <!-- Val Classification Loss -->
     <g transform="translate(903.30925 97.629062) scale(0.1 -0.1)">
      <use xlink:href="#DejaVuSans-56"/>
      <use xlink:href="#DejaVuSans-61" x="60.658203"/>
      <use xlink:href="#DejaVuSans-6c" x="121.9375"/>
      <use xlink:href="#DejaVuSans-20" x="149.720703"/>
      <use xlink:href="#DejaVuSans-43" x="181.507812"/>
      <use xlink:href="#DejaVuSans-6c" x="251.332031"/>
      <use xlink:href="#DejaVuSans-61" x="279.115234"/>
      <use xlink:href="#DejaVuSans-73" x="340.394531"/>
      <use xlink:href="#DejaVuSans-73" x="392.494141"/>
      <use xlink:href="#DejaVuSans-69" x="444.59375"/>
      <use xlink:href="#DejaVuSans-66" x="472.376953"/>
      <use xlink:href="#DejaVuSans-69" x="507.582031"/>
      <use xlink:href="#DejaVuSans-63" x="535.365234"/>
      <use xlink:href="#DejaVuSans-61" x="590.345703"/>
      <use xlink:href="#DejaVuSans-74" x="651.625"/>
      <use xlink:href="#DejaVuSans-69" x="690.833984"/>
      <use xlink:href="#DejaVuSans-6f" x="718.617188"/>
      <use xlink:href="#DejaVuSans-6e" x="779.798828"/>
      <use xlink:href="#DejaVuSans-20" x="843.177734"/>
      <use xlink:href="#DejaVuSans-4c" x="874.964844"/>
      <use xlink:href="#DejaVuSans-6f" x="928.927734"/>
      <use xlink:href="#DejaVuSans-73" x="990.109375"/>
      <use xlink:href="#DejaVuSans-73" x="1042.208984"/>
     </g>
    </g>
    <g id="line2d_38">
     <path d="M 875.30925 108.807187 
L 885.30925 108.807187 
L 895.30925 108.807187 
" style="fill: none; stroke: #8c564b; stroke-width: 1.5; stroke-linecap: square"/>
    </g>
    <g id="text_22">
     <!-- Val Generalized IoU Loss -->
     <g transform="translate(903.30925 112.307187) scale(0.1 -0.1)">
      <use xlink:href="#DejaVuSans-56"/>
      <use xlink:href="#DejaVuSans-61" x="60.658203"/>
      <use xlink:href="#DejaVuSans-6c" x="121.9375"/>
      <use xlink:href="#DejaVuSans-20" x="149.720703"/>
      <use xlink:href="#DejaVuSans-47" x="181.507812"/>
      <use xlink:href="#DejaVuSans-65" x="258.998047"/>
      <use xlink:href="#DejaVuSans-6e" x="320.521484"/>
      <use xlink:href="#DejaVuSans-65" x="383.900391"/>
      <use xlink:href="#DejaVuSans-72" x="445.423828"/>
      <use xlink:href="#DejaVuSans-61" x="486.537109"/>
      <use xlink:href="#DejaVuSans-6c" x="547.816406"/>
      <use xlink:href="#DejaVuSans-69" x="575.599609"/>
      <use xlink:href="#DejaVuSans-7a" x="603.382812"/>
      <use xlink:href="#DejaVuSans-65" x="655.873047"/>
      <use xlink:href="#DejaVuSans-64" x="717.396484"/>
      <use xlink:href="#DejaVuSans-20" x="780.873047"/>
      <use xlink:href="#DejaVuSans-49" x="812.660156"/>
      <use xlink:href="#DejaVuSans-6f" x="842.152344"/>
      <use xlink:href="#DejaVuSans-55" x="903.333984"/>
      <use xlink:href="#DejaVuSans-20" x="976.527344"/>
      <use xlink:href="#DejaVuSans-4c" x="1008.314453"/>
      <use xlink:href="#DejaVuSans-6f" x="1062.277344"/>
      <use xlink:href="#DejaVuSans-73" x="1123.458984"/>
      <use xlink:href="#DejaVuSans-73" x="1175.558594"/>
     </g>
    </g>
   </g>
  </g>
 </g>
 <defs>
  <clipPath id="p91ddb42ff4">
   <rect x="43.78125" y="22.318125" width="806.4" height="443.52"/>
  </clipPath>
 </defs>
</svg>
