<?xml version="1.0" encoding="utf-8" standalone="no"?>
<!DOCTYPE svg PUBLIC "-//W3C//DTD SVG 1.1//EN"
  "http://www.w3.org/Graphics/SVG/1.1/DTD/svg11.dtd">
<svg xmlns:xlink="http://www.w3.org/1999/xlink" width="959.845188pt" height="503.394375pt" viewBox="0 0 959.845188 503.394375" xmlns="http://www.w3.org/2000/svg" version="1.1">
 <metadata>
  <rdf:RDF xmlns:dc="http://purl.org/dc/elements/1.1/" xmlns:cc="http://creativecommons.org/ns#" xmlns:rdf="http://www.w3.org/1999/02/22-rdf-syntax-ns#">
   <cc:Work>
    <dc:type rdf:resource="http://purl.org/dc/dcmitype/StillImage"/>
    <dc:date>2025-04-11T17:12:13.307651</dc:date>
    <dc:format>image/svg+xml</dc:format>
    <dc:creator>
     <cc:Agent>
      <dc:title>Matplotlib v3.9.4, https://matplotlib.org/</dc:title>
     </cc:Agent>
    </dc:creator>
   </cc:Work>
  </rdf:RDF>
 </metadata>
 <defs>
  <style type="text/css">*{stroke-linejoin: round; stroke-linecap: butt}</style>
 </defs>
 <g id="figure_1">
  <g id="patch_1">
   <path d="M 0 503.394375 
L 959.845188 503.394375 
L 959.845188 0 
L 0 0 
z
" style="fill: #ffffff"/>
  </g>
  <g id="axes_1">
   <g id="patch_2">
    <path d="M 43.78125 465.838125 
L 850.18125 465.838125 
L 850.18125 22.318125 
L 43.78125 22.318125 
z
" style="fill: #ffffff"/>
   </g>
   <g id="matplotlib.axis_1">
    <g id="xtick_1">
     <g id="line2d_1">
      <path d="M 74.275368 465.838125 
L 74.275368 22.318125 
" clip-path="url(#p45a95c6c0e)" style="fill: none; stroke: #b0b0b0; stroke-width: 0.8; stroke-linecap: square"/>
     </g>
     <g id="line2d_2">
      <defs>
       <path id="mcb03d4fe05" d="M 0 0 
L 0 3.5 
" style="stroke: #000000; stroke-width: 0.8"/>
      </defs>
      <g>
       <use xlink:href="#mcb03d4fe05" x="74.275368" y="465.838125" style="stroke: #000000; stroke-width: 0.8"/>
      </g>
     </g>
     <g id="text_1">
      <!-- 0 -->
      <g transform="translate(71.094118 480.436562) scale(0.1 -0.1)">
       <defs>
        <path id="DejaVuSans-30" d="M 2034 4250 
Q 1547 4250 1301 3770 
Q 1056 3291 1056 2328 
Q 1056 1369 1301 889 
Q 1547 409 2034 409 
Q 2525 409 2770 889 
Q 3016 1369 3016 2328 
Q 3016 3291 2770 3770 
Q 2525 4250 2034 4250 
z
M 2034 4750 
Q 2819 4750 3233 4129 
Q 3647 3509 3647 2328 
Q 3647 1150 3233 529 
Q 2819 -91 2034 -91 
Q 1250 -91 836 529 
Q 422 1150 422 2328 
Q 422 3509 836 4129 
Q 1250 4750 2034 4750 
z
" transform="scale(0.015625)"/>
       </defs>
       <use xlink:href="#DejaVuSans-30"/>
      </g>
     </g>
    </g>
    <g id="xtick_2">
     <g id="line2d_3">
      <path d="M 197.483924 465.838125 
L 197.483924 22.318125 
" clip-path="url(#p45a95c6c0e)" style="fill: none; stroke: #b0b0b0; stroke-width: 0.8; stroke-linecap: square"/>
     </g>
     <g id="line2d_4">
      <g>
       <use xlink:href="#mcb03d4fe05" x="197.483924" y="465.838125" style="stroke: #000000; stroke-width: 0.8"/>
      </g>
     </g>
     <g id="text_2">
      <!-- 20 -->
      <g transform="translate(191.121424 480.436562) scale(0.1 -0.1)">
       <defs>
        <path id="DejaVuSans-32" d="M 1228 531 
L 3431 531 
L 3431 0 
L 469 0 
L 469 531 
Q 828 903 1448 1529 
Q 2069 2156 2228 2338 
Q 2531 2678 2651 2914 
Q 2772 3150 2772 3378 
Q 2772 3750 2511 3984 
Q 2250 4219 1831 4219 
Q 1534 4219 1204 4116 
Q 875 4013 500 3803 
L 500 4441 
Q 881 4594 1212 4672 
Q 1544 4750 1819 4750 
Q 2544 4750 2975 4387 
Q 3406 4025 3406 3419 
Q 3406 3131 3298 2873 
Q 3191 2616 2906 2266 
Q 2828 2175 2409 1742 
Q 1991 1309 1228 531 
z
" transform="scale(0.015625)"/>
       </defs>
       <use xlink:href="#DejaVuSans-32"/>
       <use xlink:href="#DejaVuSans-30" x="63.623047"/>
      </g>
     </g>
    </g>
    <g id="xtick_3">
     <g id="line2d_5">
      <path d="M 320.69248 465.838125 
L 320.69248 22.318125 
" clip-path="url(#p45a95c6c0e)" style="fill: none; stroke: #b0b0b0; stroke-width: 0.8; stroke-linecap: square"/>
     </g>
     <g id="line2d_6">
      <g>
       <use xlink:href="#mcb03d4fe05" x="320.69248" y="465.838125" style="stroke: #000000; stroke-width: 0.8"/>
      </g>
     </g>
     <g id="text_3">
      <!-- 40 -->
      <g transform="translate(314.32998 480.436562) scale(0.1 -0.1)">
       <defs>
        <path id="DejaVuSans-34" d="M 2419 4116 
L 825 1625 
L 2419 1625 
L 2419 4116 
z
M 2253 4666 
L 3047 4666 
L 3047 1625 
L 3713 1625 
L 3713 1100 
L 3047 1100 
L 3047 0 
L 2419 0 
L 2419 1100 
L 313 1100 
L 313 1709 
L 2253 4666 
z
" transform="scale(0.015625)"/>
       </defs>
       <use xlink:href="#DejaVuSans-34"/>
       <use xlink:href="#DejaVuSans-30" x="63.623047"/>
      </g>
     </g>
    </g>
    <g id="xtick_4">
     <g id="line2d_7">
      <path d="M 443.901036 465.838125 
L 443.901036 22.318125 
" clip-path="url(#p45a95c6c0e)" style="fill: none; stroke: #b0b0b0; stroke-width: 0.8; stroke-linecap: square"/>
     </g>
     <g id="line2d_8">
      <g>
       <use xlink:href="#mcb03d4fe05" x="443.901036" y="465.838125" style="stroke: #000000; stroke-width: 0.8"/>
      </g>
     </g>
     <g id="text_4">
      <!-- 60 -->
      <g transform="translate(437.538536 480.436562) scale(0.1 -0.1)">
       <defs>
        <path id="DejaVuSans-36" d="M 2113 2584 
Q 1688 2584 1439 2293 
Q 1191 2003 1191 1497 
Q 1191 994 1439 701 
Q 1688 409 2113 409 
Q 2538 409 2786 701 
Q 3034 994 3034 1497 
Q 3034 2003 2786 2293 
Q 2538 2584 2113 2584 
z
M 3366 4563 
L 3366 3988 
Q 3128 4100 2886 4159 
Q 2644 4219 2406 4219 
Q 1781 4219 1451 3797 
Q 1122 3375 1075 2522 
Q 1259 2794 1537 2939 
Q 1816 3084 2150 3084 
Q 2853 3084 3261 2657 
Q 3669 2231 3669 1497 
Q 3669 778 3244 343 
Q 2819 -91 2113 -91 
Q 1303 -91 875 529 
Q 447 1150 447 2328 
Q 447 3434 972 4092 
Q 1497 4750 2381 4750 
Q 2619 4750 2861 4703 
Q 3103 4656 3366 4563 
z
" transform="scale(0.015625)"/>
       </defs>
       <use xlink:href="#DejaVuSans-36"/>
       <use xlink:href="#DejaVuSans-30" x="63.623047"/>
      </g>
     </g>
    </g>
    <g id="xtick_5">
     <g id="line2d_9">
      <path d="M 567.109592 465.838125 
L 567.109592 22.318125 
" clip-path="url(#p45a95c6c0e)" style="fill: none; stroke: #b0b0b0; stroke-width: 0.8; stroke-linecap: square"/>
     </g>
     <g id="line2d_10">
      <g>
       <use xlink:href="#mcb03d4fe05" x="567.109592" y="465.838125" style="stroke: #000000; stroke-width: 0.8"/>
      </g>
     </g>
     <g id="text_5">
      <!-- 80 -->
      <g transform="translate(560.747092 480.436562) scale(0.1 -0.1)">
       <defs>
        <path id="DejaVuSans-38" d="M 2034 2216 
Q 1584 2216 1326 1975 
Q 1069 1734 1069 1313 
Q 1069 891 1326 650 
Q 1584 409 2034 409 
Q 2484 409 2743 651 
Q 3003 894 3003 1313 
Q 3003 1734 2745 1975 
Q 2488 2216 2034 2216 
z
M 1403 2484 
Q 997 2584 770 2862 
Q 544 3141 544 3541 
Q 544 4100 942 4425 
Q 1341 4750 2034 4750 
Q 2731 4750 3128 4425 
Q 3525 4100 3525 3541 
Q 3525 3141 3298 2862 
Q 3072 2584 2669 2484 
Q 3125 2378 3379 2068 
Q 3634 1759 3634 1313 
Q 3634 634 3220 271 
Q 2806 -91 2034 -91 
Q 1263 -91 848 271 
Q 434 634 434 1313 
Q 434 1759 690 2068 
Q 947 2378 1403 2484 
z
M 1172 3481 
Q 1172 3119 1398 2916 
Q 1625 2713 2034 2713 
Q 2441 2713 2670 2916 
Q 2900 3119 2900 3481 
Q 2900 3844 2670 4047 
Q 2441 4250 2034 4250 
Q 1625 4250 1398 4047 
Q 1172 3844 1172 3481 
z
" transform="scale(0.015625)"/>
       </defs>
       <use xlink:href="#DejaVuSans-38"/>
       <use xlink:href="#DejaVuSans-30" x="63.623047"/>
      </g>
     </g>
    </g>
    <g id="xtick_6">
     <g id="line2d_11">
      <path d="M 690.318148 465.838125 
L 690.318148 22.318125 
" clip-path="url(#p45a95c6c0e)" style="fill: none; stroke: #b0b0b0; stroke-width: 0.8; stroke-linecap: square"/>
     </g>
     <g id="line2d_12">
      <g>
       <use xlink:href="#mcb03d4fe05" x="690.318148" y="465.838125" style="stroke: #000000; stroke-width: 0.8"/>
      </g>
     </g>
     <g id="text_6">
      <!-- 100 -->
      <g transform="translate(680.774398 480.436562) scale(0.1 -0.1)">
       <defs>
        <path id="DejaVuSans-31" d="M 794 531 
L 1825 531 
L 1825 4091 
L 703 3866 
L 703 4441 
L 1819 4666 
L 2450 4666 
L 2450 531 
L 3481 531 
L 3481 0 
L 794 0 
L 794 531 
z
" transform="scale(0.015625)"/>
       </defs>
       <use xlink:href="#DejaVuSans-31"/>
       <use xlink:href="#DejaVuSans-30" x="63.623047"/>
       <use xlink:href="#DejaVuSans-30" x="127.246094"/>
      </g>
     </g>
    </g>
    <g id="xtick_7">
     <g id="line2d_13">
      <path d="M 813.526705 465.838125 
L 813.526705 22.318125 
" clip-path="url(#p45a95c6c0e)" style="fill: none; stroke: #b0b0b0; stroke-width: 0.8; stroke-linecap: square"/>
     </g>
     <g id="line2d_14">
      <g>
       <use xlink:href="#mcb03d4fe05" x="813.526705" y="465.838125" style="stroke: #000000; stroke-width: 0.8"/>
      </g>
     </g>
     <g id="text_7">
      <!-- 120 -->
      <g transform="translate(803.982955 480.436562) scale(0.1 -0.1)">
       <use xlink:href="#DejaVuSans-31"/>
       <use xlink:href="#DejaVuSans-32" x="63.623047"/>
       <use xlink:href="#DejaVuSans-30" x="127.246094"/>
      </g>
     </g>
    </g>
    <g id="text_8">
     <!-- Epochs -->
     <g transform="translate(429.065625 494.114687) scale(0.1 -0.1)">
      <defs>
       <path id="DejaVuSans-45" d="M 628 4666 
L 3578 4666 
L 3578 4134 
L 1259 4134 
L 1259 2753 
L 3481 2753 
L 3481 2222 
L 1259 2222 
L 1259 531 
L 3634 531 
L 3634 0 
L 628 0 
L 628 4666 
z
" transform="scale(0.015625)"/>
       <path id="DejaVuSans-70" d="M 1159 525 
L 1159 -1331 
L 581 -1331 
L 581 3500 
L 1159 3500 
L 1159 2969 
Q 1341 3281 1617 3432 
Q 1894 3584 2278 3584 
Q 2916 3584 3314 3078 
Q 3713 2572 3713 1747 
Q 3713 922 3314 415 
Q 2916 -91 2278 -91 
Q 1894 -91 1617 61 
Q 1341 213 1159 525 
z
M 3116 1747 
Q 3116 2381 2855 2742 
Q 2594 3103 2138 3103 
Q 1681 3103 1420 2742 
Q 1159 2381 1159 1747 
Q 1159 1113 1420 752 
Q 1681 391 2138 391 
Q 2594 391 2855 752 
Q 3116 1113 3116 1747 
z
" transform="scale(0.015625)"/>
       <path id="DejaVuSans-6f" d="M 1959 3097 
Q 1497 3097 1228 2736 
Q 959 2375 959 1747 
Q 959 1119 1226 758 
Q 1494 397 1959 397 
Q 2419 397 2687 759 
Q 2956 1122 2956 1747 
Q 2956 2369 2687 2733 
Q 2419 3097 1959 3097 
z
M 1959 3584 
Q 2709 3584 3137 3096 
Q 3566 2609 3566 1747 
Q 3566 888 3137 398 
Q 2709 -91 1959 -91 
Q 1206 -91 779 398 
Q 353 888 353 1747 
Q 353 2609 779 3096 
Q 1206 3584 1959 3584 
z
" transform="scale(0.015625)"/>
       <path id="DejaVuSans-63" d="M 3122 3366 
L 3122 2828 
Q 2878 2963 2633 3030 
Q 2388 3097 2138 3097 
Q 1578 3097 1268 2742 
Q 959 2388 959 1747 
Q 959 1106 1268 751 
Q 1578 397 2138 397 
Q 2388 397 2633 464 
Q 2878 531 3122 666 
L 3122 134 
Q 2881 22 2623 -34 
Q 2366 -91 2075 -91 
Q 1284 -91 818 406 
Q 353 903 353 1747 
Q 353 2603 823 3093 
Q 1294 3584 2113 3584 
Q 2378 3584 2631 3529 
Q 2884 3475 3122 3366 
z
" transform="scale(0.015625)"/>
       <path id="DejaVuSans-68" d="M 3513 2113 
L 3513 0 
L 2938 0 
L 2938 2094 
Q 2938 2591 2744 2837 
Q 2550 3084 2163 3084 
Q 1697 3084 1428 2787 
Q 1159 2491 1159 1978 
L 1159 0 
L 581 0 
L 581 4863 
L 1159 4863 
L 1159 2956 
Q 1366 3272 1645 3428 
Q 1925 3584 2291 3584 
Q 2894 3584 3203 3211 
Q 3513 2838 3513 2113 
z
" transform="scale(0.015625)"/>
       <path id="DejaVuSans-73" d="M 2834 3397 
L 2834 2853 
Q 2591 2978 2328 3040 
Q 2066 3103 1784 3103 
Q 1356 3103 1142 2972 
Q 928 2841 928 2578 
Q 928 2378 1081 2264 
Q 1234 2150 1697 2047 
L 1894 2003 
Q 2506 1872 2764 1633 
Q 3022 1394 3022 966 
Q 3022 478 2636 193 
Q 2250 -91 1575 -91 
Q 1294 -91 989 -36 
Q 684 19 347 128 
L 347 722 
Q 666 556 975 473 
Q 1284 391 1588 391 
Q 1994 391 2212 530 
Q 2431 669 2431 922 
Q 2431 1156 2273 1281 
Q 2116 1406 1581 1522 
L 1381 1569 
Q 847 1681 609 1914 
Q 372 2147 372 2553 
Q 372 3047 722 3315 
Q 1072 3584 1716 3584 
Q 2034 3584 2315 3537 
Q 2597 3491 2834 3397 
z
" transform="scale(0.015625)"/>
      </defs>
      <use xlink:href="#DejaVuSans-45"/>
      <use xlink:href="#DejaVuSans-70" x="63.183594"/>
      <use xlink:href="#DejaVuSans-6f" x="126.660156"/>
      <use xlink:href="#DejaVuSans-63" x="187.841797"/>
      <use xlink:href="#DejaVuSans-68" x="242.822266"/>
      <use xlink:href="#DejaVuSans-73" x="306.201172"/>
     </g>
    </g>
   </g>
   <g id="matplotlib.axis_2">
    <g id="ytick_1">
     <g id="line2d_15">
      <path d="M 43.78125 445.766598 
L 850.18125 445.766598 
" clip-path="url(#p45a95c6c0e)" style="fill: none; stroke: #b0b0b0; stroke-width: 0.8; stroke-linecap: square"/>
     </g>
     <g id="line2d_16">
      <defs>
       <path id="macd38276cb" d="M 0 0 
L -3.5 0 
" style="stroke: #000000; stroke-width: 0.8"/>
      </defs>
      <g>
       <use xlink:href="#macd38276cb" x="43.78125" y="445.766598" style="stroke: #000000; stroke-width: 0.8"/>
      </g>
     </g>
     <g id="text_9">
      <!-- 0.0 -->
      <g transform="translate(20.878125 449.565817) scale(0.1 -0.1)">
       <defs>
        <path id="DejaVuSans-2e" d="M 684 794 
L 1344 794 
L 1344 0 
L 684 0 
L 684 794 
z
" transform="scale(0.015625)"/>
       </defs>
       <use xlink:href="#DejaVuSans-30"/>
       <use xlink:href="#DejaVuSans-2e" x="63.623047"/>
       <use xlink:href="#DejaVuSans-30" x="95.410156"/>
      </g>
     </g>
    </g>
    <g id="ytick_2">
     <g id="line2d_17">
      <path d="M 43.78125 357.293162 
L 850.18125 357.293162 
" clip-path="url(#p45a95c6c0e)" style="fill: none; stroke: #b0b0b0; stroke-width: 0.8; stroke-linecap: square"/>
     </g>
     <g id="line2d_18">
      <g>
       <use xlink:href="#macd38276cb" x="43.78125" y="357.293162" style="stroke: #000000; stroke-width: 0.8"/>
      </g>
     </g>
     <g id="text_10">
      <!-- 0.2 -->
      <g transform="translate(20.878125 361.09238) scale(0.1 -0.1)">
       <use xlink:href="#DejaVuSans-30"/>
       <use xlink:href="#DejaVuSans-2e" x="63.623047"/>
       <use xlink:href="#DejaVuSans-32" x="95.410156"/>
      </g>
     </g>
    </g>
    <g id="ytick_3">
     <g id="line2d_19">
      <path d="M 43.78125 268.819725 
L 850.18125 268.819725 
" clip-path="url(#p45a95c6c0e)" style="fill: none; stroke: #b0b0b0; stroke-width: 0.8; stroke-linecap: square"/>
     </g>
     <g id="line2d_20">
      <g>
       <use xlink:href="#macd38276cb" x="43.78125" y="268.819725" style="stroke: #000000; stroke-width: 0.8"/>
      </g>
     </g>
     <g id="text_11">
      <!-- 0.4 -->
      <g transform="translate(20.878125 272.618944) scale(0.1 -0.1)">
       <use xlink:href="#DejaVuSans-30"/>
       <use xlink:href="#DejaVuSans-2e" x="63.623047"/>
       <use xlink:href="#DejaVuSans-34" x="95.410156"/>
      </g>
     </g>
    </g>
    <g id="ytick_4">
     <g id="line2d_21">
      <path d="M 43.78125 180.346288 
L 850.18125 180.346288 
" clip-path="url(#p45a95c6c0e)" style="fill: none; stroke: #b0b0b0; stroke-width: 0.8; stroke-linecap: square"/>
     </g>
     <g id="line2d_22">
      <g>
       <use xlink:href="#macd38276cb" x="43.78125" y="180.346288" style="stroke: #000000; stroke-width: 0.8"/>
      </g>
     </g>
     <g id="text_12">
      <!-- 0.6 -->
      <g transform="translate(20.878125 184.145507) scale(0.1 -0.1)">
       <use xlink:href="#DejaVuSans-30"/>
       <use xlink:href="#DejaVuSans-2e" x="63.623047"/>
       <use xlink:href="#DejaVuSans-36" x="95.410156"/>
      </g>
     </g>
    </g>
    <g id="ytick_5">
     <g id="line2d_23">
      <path d="M 43.78125 91.872852 
L 850.18125 91.872852 
" clip-path="url(#p45a95c6c0e)" style="fill: none; stroke: #b0b0b0; stroke-width: 0.8; stroke-linecap: square"/>
     </g>
     <g id="line2d_24">
      <g>
       <use xlink:href="#macd38276cb" x="43.78125" y="91.872852" style="stroke: #000000; stroke-width: 0.8"/>
      </g>
     </g>
     <g id="text_13">
      <!-- 0.8 -->
      <g transform="translate(20.878125 95.67207) scale(0.1 -0.1)">
       <use xlink:href="#DejaVuSans-30"/>
       <use xlink:href="#DejaVuSans-2e" x="63.623047"/>
       <use xlink:href="#DejaVuSans-38" x="95.410156"/>
      </g>
     </g>
    </g>
    <g id="text_14">
     <!-- Average Precision (AP) -->
     <g transform="translate(14.798438 300.432812) rotate(-90) scale(0.1 -0.1)">
      <defs>
       <path id="DejaVuSans-41" d="M 2188 4044 
L 1331 1722 
L 3047 1722 
L 2188 4044 
z
M 1831 4666 
L 2547 4666 
L 4325 0 
L 3669 0 
L 3244 1197 
L 1141 1197 
L 716 0 
L 50 0 
L 1831 4666 
z
" transform="scale(0.015625)"/>
       <path id="DejaVuSans-76" d="M 191 3500 
L 800 3500 
L 1894 563 
L 2988 3500 
L 3597 3500 
L 2284 0 
L 1503 0 
L 191 3500 
z
" transform="scale(0.015625)"/>
       <path id="DejaVuSans-65" d="M 3597 1894 
L 3597 1613 
L 953 1613 
Q 991 1019 1311 708 
Q 1631 397 2203 397 
Q 2534 397 2845 478 
Q 3156 559 3463 722 
L 3463 178 
Q 3153 47 2828 -22 
Q 2503 -91 2169 -91 
Q 1331 -91 842 396 
Q 353 884 353 1716 
Q 353 2575 817 3079 
Q 1281 3584 2069 3584 
Q 2775 3584 3186 3129 
Q 3597 2675 3597 1894 
z
M 3022 2063 
Q 3016 2534 2758 2815 
Q 2500 3097 2075 3097 
Q 1594 3097 1305 2825 
Q 1016 2553 972 2059 
L 3022 2063 
z
" transform="scale(0.015625)"/>
       <path id="DejaVuSans-72" d="M 2631 2963 
Q 2534 3019 2420 3045 
Q 2306 3072 2169 3072 
Q 1681 3072 1420 2755 
Q 1159 2438 1159 1844 
L 1159 0 
L 581 0 
L 581 3500 
L 1159 3500 
L 1159 2956 
Q 1341 3275 1631 3429 
Q 1922 3584 2338 3584 
Q 2397 3584 2469 3576 
Q 2541 3569 2628 3553 
L 2631 2963 
z
" transform="scale(0.015625)"/>
       <path id="DejaVuSans-61" d="M 2194 1759 
Q 1497 1759 1228 1600 
Q 959 1441 959 1056 
Q 959 750 1161 570 
Q 1363 391 1709 391 
Q 2188 391 2477 730 
Q 2766 1069 2766 1631 
L 2766 1759 
L 2194 1759 
z
M 3341 1997 
L 3341 0 
L 2766 0 
L 2766 531 
Q 2569 213 2275 61 
Q 1981 -91 1556 -91 
Q 1019 -91 701 211 
Q 384 513 384 1019 
Q 384 1609 779 1909 
Q 1175 2209 1959 2209 
L 2766 2209 
L 2766 2266 
Q 2766 2663 2505 2880 
Q 2244 3097 1772 3097 
Q 1472 3097 1187 3025 
Q 903 2953 641 2809 
L 641 3341 
Q 956 3463 1253 3523 
Q 1550 3584 1831 3584 
Q 2591 3584 2966 3190 
Q 3341 2797 3341 1997 
z
" transform="scale(0.015625)"/>
       <path id="DejaVuSans-67" d="M 2906 1791 
Q 2906 2416 2648 2759 
Q 2391 3103 1925 3103 
Q 1463 3103 1205 2759 
Q 947 2416 947 1791 
Q 947 1169 1205 825 
Q 1463 481 1925 481 
Q 2391 481 2648 825 
Q 2906 1169 2906 1791 
z
M 3481 434 
Q 3481 -459 3084 -895 
Q 2688 -1331 1869 -1331 
Q 1566 -1331 1297 -1286 
Q 1028 -1241 775 -1147 
L 775 -588 
Q 1028 -725 1275 -790 
Q 1522 -856 1778 -856 
Q 2344 -856 2625 -561 
Q 2906 -266 2906 331 
L 2906 616 
Q 2728 306 2450 153 
Q 2172 0 1784 0 
Q 1141 0 747 490 
Q 353 981 353 1791 
Q 353 2603 747 3093 
Q 1141 3584 1784 3584 
Q 2172 3584 2450 3431 
Q 2728 3278 2906 2969 
L 2906 3500 
L 3481 3500 
L 3481 434 
z
" transform="scale(0.015625)"/>
       <path id="DejaVuSans-20" transform="scale(0.015625)"/>
       <path id="DejaVuSans-50" d="M 1259 4147 
L 1259 2394 
L 2053 2394 
Q 2494 2394 2734 2622 
Q 2975 2850 2975 3272 
Q 2975 3691 2734 3919 
Q 2494 4147 2053 4147 
L 1259 4147 
z
M 628 4666 
L 2053 4666 
Q 2838 4666 3239 4311 
Q 3641 3956 3641 3272 
Q 3641 2581 3239 2228 
Q 2838 1875 2053 1875 
L 1259 1875 
L 1259 0 
L 628 0 
L 628 4666 
z
" transform="scale(0.015625)"/>
       <path id="DejaVuSans-69" d="M 603 3500 
L 1178 3500 
L 1178 0 
L 603 0 
L 603 3500 
z
M 603 4863 
L 1178 4863 
L 1178 4134 
L 603 4134 
L 603 4863 
z
" transform="scale(0.015625)"/>
       <path id="DejaVuSans-6e" d="M 3513 2113 
L 3513 0 
L 2938 0 
L 2938 2094 
Q 2938 2591 2744 2837 
Q 2550 3084 2163 3084 
Q 1697 3084 1428 2787 
Q 1159 2491 1159 1978 
L 1159 0 
L 581 0 
L 581 3500 
L 1159 3500 
L 1159 2956 
Q 1366 3272 1645 3428 
Q 1925 3584 2291 3584 
Q 2894 3584 3203 3211 
Q 3513 2838 3513 2113 
z
" transform="scale(0.015625)"/>
       <path id="DejaVuSans-28" d="M 1984 4856 
Q 1566 4138 1362 3434 
Q 1159 2731 1159 2009 
Q 1159 1288 1364 580 
Q 1569 -128 1984 -844 
L 1484 -844 
Q 1016 -109 783 600 
Q 550 1309 550 2009 
Q 550 2706 781 3412 
Q 1013 4119 1484 4856 
L 1984 4856 
z
" transform="scale(0.015625)"/>
       <path id="DejaVuSans-29" d="M 513 4856 
L 1013 4856 
Q 1481 4119 1714 3412 
Q 1947 2706 1947 2009 
Q 1947 1309 1714 600 
Q 1481 -109 1013 -844 
L 513 -844 
Q 928 -128 1133 580 
Q 1338 1288 1338 2009 
Q 1338 2731 1133 3434 
Q 928 4138 513 4856 
z
" transform="scale(0.015625)"/>
      </defs>
      <use xlink:href="#DejaVuSans-41"/>
      <use xlink:href="#DejaVuSans-76" x="62.533203"/>
      <use xlink:href="#DejaVuSans-65" x="121.712891"/>
      <use xlink:href="#DejaVuSans-72" x="183.236328"/>
      <use xlink:href="#DejaVuSans-61" x="224.349609"/>
      <use xlink:href="#DejaVuSans-67" x="285.628906"/>
      <use xlink:href="#DejaVuSans-65" x="349.105469"/>
      <use xlink:href="#DejaVuSans-20" x="410.628906"/>
      <use xlink:href="#DejaVuSans-50" x="442.416016"/>
      <use xlink:href="#DejaVuSans-72" x="500.96875"/>
      <use xlink:href="#DejaVuSans-65" x="539.832031"/>
      <use xlink:href="#DejaVuSans-63" x="601.355469"/>
      <use xlink:href="#DejaVuSans-69" x="656.335938"/>
      <use xlink:href="#DejaVuSans-73" x="684.119141"/>
      <use xlink:href="#DejaVuSans-69" x="736.21875"/>
      <use xlink:href="#DejaVuSans-6f" x="764.001953"/>
      <use xlink:href="#DejaVuSans-6e" x="825.183594"/>
      <use xlink:href="#DejaVuSans-20" x="888.5625"/>
      <use xlink:href="#DejaVuSans-28" x="920.349609"/>
      <use xlink:href="#DejaVuSans-41" x="959.363281"/>
      <use xlink:href="#DejaVuSans-50" x="1027.771484"/>
      <use xlink:href="#DejaVuSans-29" x="1088.074219"/>
     </g>
    </g>
   </g>
   <g id="line2d_25">
    <path d="M 80.435795 445.633888 
L 86.596223 221.968626 
L 92.756651 113.924845 
L 98.917079 77.159719 
L 105.077507 103.25496 
L 111.237934 47.229167 
L 117.398362 42.478125 
L 123.55879 177.205477 
L 129.719218 176.603858 
L 135.879646 153.60077 
L 142.040074 122.727962 
L 148.200501 145.452375 
L 154.360929 142.873353 
L 160.521357 158.22351 
L 166.681785 102.237505 
L 172.842213 104.763424 
L 179.00264 102.644482 
L 185.163068 165.99148 
L 191.323496 117.012568 
L 197.483924 113.951396 
L 203.644352 139.46714 
L 209.804779 143.815609 
L 215.965207 136.746579 
L 222.125635 110.682293 
L 228.286063 116.057076 
L 234.446491 107.541492 
L 240.606918 135.233685 
L 246.767346 124.687647 
L 252.927774 132.92896 
L 259.088202 141.652422 
L 265.24863 134.795727 
L 271.409057 155.604699 
L 277.569485 119.171325 
L 283.729913 113.89389 
L 289.890341 107.572474 
L 296.050769 92.885872 
L 302.211197 111.257387 
L 308.371624 92.129425 
L 314.532052 106.625788 
L 320.69248 85.343499 
L 326.852908 88.70109 
L 333.013336 88.387005 
L 339.173763 94.703991 
L 345.334191 76.704069 
L 351.494619 90.789051 
L 357.655047 78.332002 
L 363.815475 78.911499 
L 369.975902 92.120566 
L 376.13633 83.220153 
L 382.296758 95.026936 
L 388.457186 75.580459 
L 394.617614 73.439421 
L 400.778041 84.830368 
L 406.938469 80.782696 
L 413.098897 81.00389 
L 419.259325 77.341099 
L 425.419753 92.200194 
L 431.58018 98.596836 
L 437.740608 97.747498 
L 443.901036 83.994293 
L 450.061464 89.700827 
L 456.221892 81.410867 
L 462.38232 80.287257 
L 468.542747 91.346426 
L 474.703175 83.728881 
L 480.863603 88.347191 
L 487.024031 80.455348 
L 493.184459 84.839201 
L 499.344886 74.850564 
L 505.505314 82.614105 
L 511.665742 84.131428 
L 517.82617 88.670109 
L 523.986598 66.003229 
L 530.147025 78.792056 
L 536.307453 75.071758 
L 542.467881 84.812676 
L 548.628309 86.635225 
L 554.788737 83.874849 
L 560.949164 77.50033 
L 567.109592 86.369814 
L 573.27002 78.761101 
L 579.430448 51.051216 
L 585.590876 83.751003 
L 591.751303 73.001463 
L 597.911731 72.329075 
L 604.072159 68.462782 
L 610.232587 64.202775 
L 616.393015 73.523453 
L 622.553443 76.456349 
L 628.71387 94.115662 
L 634.874298 70.471114 
L 641.034726 79.035346 
L 647.195154 84.830368 
L 653.355582 58.421042 
L 659.516009 84.945382 
L 665.676437 68.237185 
L 671.836865 48.237763 
L 677.997293 56.846212 
L 684.157721 59.301362 
L 690.318148 47.136249 
L 696.478576 73.603082 
L 702.639004 57.151464 
L 708.799432 44.641311 
L 714.95986 48.454501 
L 721.120287 84.193364 
L 727.280715 85.692969 
L 733.441143 70.922335 
L 739.601571 91.191599 
L 745.761999 69.922599 
L 751.922426 78.89821 
L 758.082854 90.669608 
L 764.243282 78.588554 
L 770.40371 65.29543 
L 776.564138 68.772438 
L 782.724566 70.997534 
L 788.884993 59.836614 
L 795.045421 66.335007 
L 801.205849 72.404274 
L 807.366277 72.545839 
L 813.526705 62.884524 
L 813.526705 44.379723 
" clip-path="url(#p45a95c6c0e)" style="fill: none; stroke: #1f77b4; stroke-width: 1.5; stroke-linecap: square"/>
   </g>
   <g id="line2d_26">
    <path d="M 80.435795 395.509263 
L 86.596223 386.423041 
L 92.756651 358.536213 
L 98.917079 326.349576 
L 105.077507 272.557726 
L 111.237934 265.603709 
L 117.398362 260.888078 
L 123.55879 198.567395 
L 129.719218 201.602041 
L 135.879646 189.043215 
L 142.040074 189.622738 
L 148.200501 187.410904 
L 154.360929 204.150056 
L 160.521357 235.133461 
L 166.681785 175.542185 
L 172.842213 179.837577 
L 179.00264 180.82405 
L 185.163068 234.91671 
L 191.323496 161.527998 
L 197.483924 162.83296 
L 203.644352 183.637503 
L 209.804779 171.038889 
L 215.965207 191.414306 
L 222.125635 150.725381 
L 228.286063 141.776295 
L 234.446491 149.884876 
L 240.606918 110.14261 
L 246.767346 129.292694 
L 252.927774 122.042285 
L 259.088202 122.272312 
L 265.24863 133.198801 
L 271.409057 126.598685 
L 277.569485 128.691075 
L 283.729913 87.307614 
L 289.890341 100.636149 
L 296.050769 92.34176 
L 302.211197 98.977261 
L 308.371624 86.360954 
L 314.532052 98.185429 
L 320.69248 96.88487 
L 326.852908 95.066751 
L 333.013336 85.193101 
L 339.173763 89.081516 
L 345.334191 86.608673 
L 351.494619 89.789315 
L 357.655047 84.144691 
L 363.815475 96.946807 
L 369.975902 73.319978 
L 376.13633 86.064561 
L 382.296758 77.818845 
L 388.457186 81.220654 
L 394.617614 82.277897 
L 400.778041 75.881282 
L 406.938469 79.813914 
L 413.098897 74.961148 
L 419.259325 87.931355 
L 425.419753 92.34176 
L 431.58018 95.053462 
L 437.740608 96.937947 
L 443.901036 81.800151 
L 450.061464 80.29609 
L 456.221892 79.314046 
L 462.38232 83.047633 
L 468.542747 71.665519 
L 474.703175 80.504022 
L 480.863603 75.363695 
L 487.024031 69.289998 
L 493.184459 74.885949 
L 499.344886 73.098784 
L 505.505314 72.837802 
L 511.665742 72.267138 
L 517.82617 67.343603 
L 523.986598 89.603506 
L 530.147025 76.239585 
L 536.307453 87.741142 
L 542.467881 99.831029 
L 548.628309 73.05897 
L 554.788737 77.832108 
L 560.949164 96.01341 
L 567.109592 74.235683 
L 573.27002 71.718596 
L 579.430448 110.124918 
L 585.590876 72.572364 
L 591.751303 75.717595 
L 597.911731 96.685798 
L 604.072159 85.874349 
L 610.232587 92.69123 
L 616.393015 73.3421 
L 622.553443 85.887611 
L 628.71387 66.644662 
L 634.874298 95.734709 
L 641.034726 81.844395 
L 647.195154 82.388507 
L 653.355582 96.340758 
L 659.516009 71.196606 
L 665.676437 87.621699 
L 671.836865 97.486489 
L 677.997293 89.36462 
L 684.157721 100.003549 
L 690.318148 107.970591 
L 696.478576 90.373215 
L 702.639004 96.429246 
L 708.799432 100.62729 
L 714.95986 107.072579 
L 721.120287 69.586391 
L 727.280715 73.200535 
L 733.441143 89.740641 
L 739.601571 65.445828 
L 745.761999 95.181764 
L 751.922426 74.850564 
L 758.082854 84.410129 
L 764.243282 59.695076 
L 770.40371 108.665101 
L 776.564138 97.924447 
L 782.724566 86.520212 
L 788.884993 85.949548 
L 795.045421 87.493423 
L 801.205849 74.470139 
L 807.366277 82.370815 
L 813.526705 84.67554 
L 813.526705 100.81012 
" clip-path="url(#p45a95c6c0e)" style="fill: none; stroke: #ff7f0e; stroke-width: 1.5; stroke-linecap: square"/>
   </g>
   <g id="line2d_27">
    <path d="M 80.435795 445.571957 
L 86.596223 435.897387 
L 92.756651 386.62653 
L 98.917079 327.548398 
L 105.077507 280.896347 
L 111.237934 233.456894 
L 117.398362 226.162253 
L 123.55879 215.766626 
L 129.719218 219.858516 
L 135.879646 203.437853 
L 142.040074 199.429995 
L 148.200501 203.305148 
L 154.360929 211.028873 
L 160.521357 241.627411 
L 166.681785 177.5063 
L 172.842213 183.186282 
L 179.00264 182.044981 
L 185.163068 239.274025 
L 191.323496 171.251223 
L 197.483924 166.371905 
L 203.644352 209.184202 
L 209.804779 187.742656 
L 215.965207 207.290883 
L 222.125635 149.017845 
L 228.286063 142.426562 
L 234.446491 151.468565 
L 240.606918 129.920865 
L 246.767346 139.046901 
L 252.927774 129.620042 
L 259.088202 133.313815 
L 265.24863 136.454616 
L 271.409057 134.623207 
L 277.569485 126.970277 
L 283.729913 95.460438 
L 289.890341 106.908918 
L 296.050769 94.274893 
L 302.211197 106.913348 
L 308.371624 83.80851 
L 314.532052 94.699588 
L 320.69248 92.421388 
L 326.852908 90.864251 
L 333.013336 85.892041 
L 339.173763 89.771596 
L 345.334191 84.936522 
L 351.494619 92.841628 
L 357.655047 81.919594 
L 363.815475 94.429747 
L 369.975902 91.682634 
L 376.13633 89.745071 
L 382.296758 83.640393 
L 388.457186 85.573552 
L 394.617614 81.658586 
L 400.778041 81.45954 
L 406.938469 84.259704 
L 413.098897 78.424894 
L 419.259325 77.08009 
L 425.419753 93.478631 
L 431.58018 100.437078 
L 437.740608 95.90723 
L 443.901036 91.793218 
L 450.061464 91.793218 
L 456.221892 82.499091 
L 462.38232 83.538642 
L 468.542747 86.303447 
L 474.703175 87.462441 
L 480.863603 85.892041 
L 487.024031 76.686376 
L 493.184459 86.31671 
L 499.344886 78.500093 
L 505.505314 74.717858 
L 511.665742 87.347428 
L 517.82617 77.416298 
L 523.986598 74.912501 
L 530.147025 71.161221 
L 536.307453 78.774364 
L 542.467881 90.085682 
L 548.628309 80.017416 
L 554.788737 74.386081 
L 560.949164 84.998459 
L 567.109592 76.027251 
L 573.27002 72.426396 
L 579.430448 69.856233 
L 585.590876 74.589556 
L 591.751303 71.258543 
L 597.911731 76.535978 
L 604.072159 72.178677 
L 610.232587 69.223659 
L 616.393015 74.624967 
L 622.553443 73.731385 
L 628.71387 69.241351 
L 634.874298 75.491998 
L 641.034726 71.015227 
L 647.195154 75.929929 
L 653.355582 73.355363 
L 659.516009 71.4178 
L 665.676437 59.327887 
L 671.836865 62.827017 
L 677.997293 75.058469 
L 684.157721 70.988701 
L 690.318148 73.598653 
L 696.478576 74.558601 
L 702.639004 71.948623 
L 708.799432 73.69157 
L 714.95986 71.236421 
L 721.120287 67.900977 
L 727.280715 68.299095 
L 733.441143 77.602081 
L 739.601571 75.407939 
L 745.761999 73.191676 
L 751.922426 72.315786 
L 758.082854 74.549742 
L 764.243282 61.491073 
L 770.40371 80.30495 
L 776.564138 69.732386 
L 782.724566 63.180917 
L 788.884993 68.834374 
L 795.045421 64.101051 
L 801.205849 63.207469 
L 807.366277 68.139864 
L 813.526705 62.862402 
L 813.526705 59.300386 
" clip-path="url(#p45a95c6c0e)" style="fill: none; stroke: #2ca02c; stroke-width: 1.5; stroke-linecap: square"/>
   </g>
   <g id="line2d_28">
    <path d="M 80.435795 445.678125 
L 86.596223 441.188098 
L 92.756651 413.464948 
L 98.917079 364.574525 
L 105.077507 352.201514 
L 111.237934 308.084242 
L 117.398362 318.780678 
L 123.55879 293.614404 
L 129.719218 320.904037 
L 135.879646 296.334966 
L 142.040074 305.500816 
L 148.200501 296.710974 
L 154.360929 310.534949 
L 160.521357 353.785191 
L 166.681785 280.36108 
L 172.842213 303.182802 
L 179.00264 281.856282 
L 185.163068 356.77117 
L 191.323496 270.589195 
L 197.483924 292.490795 
L 203.644352 314.135816 
L 209.804779 316.993513 
L 215.965207 327.075055 
L 222.125635 268.434868 
L 228.286063 247.47551 
L 234.446491 257.216428 
L 240.606918 246.082047 
L 246.767346 264.174874 
L 252.927774 231.187553 
L 259.088202 224.140645 
L 265.24863 255.36291 
L 271.409057 248.245233 
L 277.569485 232.585433 
L 283.729913 202.55313 
L 289.890341 244.166606 
L 296.050769 207.786322 
L 302.211197 212.948744 
L 308.371624 215.952436 
L 314.532052 212.041899 
L 320.69248 204.534937 
L 326.852908 203.747509 
L 333.013336 208.149055 
L 339.173763 208.883406 
L 345.334191 189.419237 
L 351.494619 195.218662 
L 357.655047 201.071192 
L 363.815475 206.313243 
L 369.975902 198.231187 
L 376.13633 210.865213 
L 382.296758 198.890313 
L 388.457186 190.157991 
L 394.617614 187.216262 
L 400.778041 191.516057 
L 406.938469 200.177609 
L 413.098897 198.611639 
L 419.259325 191.343537 
L 425.419753 191.785898 
L 431.58018 208.99399 
L 437.740608 212.84259 
L 443.901036 193.842904 
L 450.061464 194.78959 
L 456.221892 195.364657 
L 462.38232 184.756683 
L 468.542747 205.831067 
L 474.703175 190.613642 
L 480.863603 182.456387 
L 487.024031 186.481911 
L 493.184459 196.970442 
L 499.344886 183.327847 
L 505.505314 173.613455 
L 511.665742 185.075198 
L 517.82617 182.712966 
L 523.986598 175.152901 
L 530.147025 169.38 
L 536.307453 176.046483 
L 542.467881 189.401544 
L 548.628309 177.019694 
L 554.788737 175.604121 
L 560.949164 185.482175 
L 567.109592 176.97102 
L 573.27002 176.847174 
L 579.430448 174.422979 
L 585.590876 176.303062 
L 591.751303 172.516398 
L 597.911731 175.210407 
L 604.072159 170.317827 
L 610.232587 174.055817 
L 616.393015 169.55695 
L 622.553443 167.964428 
L 628.71387 168.782811 
L 634.874298 168.194454 
L 641.034726 162.598504 
L 647.195154 167.791907 
L 653.355582 168.433341 
L 659.516009 163.469991 
L 665.676437 157.139715 
L 671.836865 159.077278 
L 677.997293 168.008672 
L 684.157721 170.162999 
L 690.318148 167.066416 
L 696.478576 166.34538 
L 702.639004 169.428674 
L 708.799432 168.51297 
L 714.95986 169.986049 
L 721.120287 166.783312 
L 727.280715 167.172596 
L 733.441143 174.613218 
L 739.601571 171.507802 
L 745.761999 167.504374 
L 751.922426 171.476821 
L 758.082854 173.887726 
L 764.243282 162.324259 
L 770.40371 174.538019 
L 776.564138 170.884061 
L 782.724566 165.394264 
L 788.884993 174.038124 
L 795.045421 166.287847 
L 801.205849 165.672965 
L 807.366277 168.468725 
L 813.526705 163.434579 
L 813.526705 156.421553 
" clip-path="url(#p45a95c6c0e)" style="fill: none; stroke: #d62728; stroke-width: 1.5; stroke-linecap: square"/>
   </g>
   <g id="patch_3">
    <path d="M 43.78125 465.838125 
L 43.78125 22.318125 
" style="fill: none; stroke: #000000; stroke-width: 0.8; stroke-linejoin: miter; stroke-linecap: square"/>
   </g>
   <g id="patch_4">
    <path d="M 850.18125 465.838125 
L 850.18125 22.318125 
" style="fill: none; stroke: #000000; stroke-width: 0.8; stroke-linejoin: miter; stroke-linecap: square"/>
   </g>
   <g id="patch_5">
    <path d="M 43.78125 465.838125 
L 850.18125 465.838125 
" style="fill: none; stroke: #000000; stroke-width: 0.8; stroke-linejoin: miter; stroke-linecap: square"/>
   </g>
   <g id="patch_6">
    <path d="M 43.78125 22.318125 
L 850.18125 22.318125 
" style="fill: none; stroke: #000000; stroke-width: 0.8; stroke-linejoin: miter; stroke-linecap: square"/>
   </g>
   <g id="text_15">
    <!-- Validation Metrics and Per-Class AP over Epochs -->
    <g transform="translate(303.11625 16.318125) scale(0.12 -0.12)">
     <defs>
      <path id="DejaVuSans-56" d="M 1831 0 
L 50 4666 
L 709 4666 
L 2188 738 
L 3669 4666 
L 4325 4666 
L 2547 0 
L 1831 0 
z
" transform="scale(0.015625)"/>
      <path id="DejaVuSans-6c" d="M 603 4863 
L 1178 4863 
L 1178 0 
L 603 0 
L 603 4863 
z
" transform="scale(0.015625)"/>
      <path id="DejaVuSans-64" d="M 2906 2969 
L 2906 4863 
L 3481 4863 
L 3481 0 
L 2906 0 
L 2906 525 
Q 2725 213 2448 61 
Q 2172 -91 1784 -91 
Q 1150 -91 751 415 
Q 353 922 353 1747 
Q 353 2572 751 3078 
Q 1150 3584 1784 3584 
Q 2172 3584 2448 3432 
Q 2725 3281 2906 2969 
z
M 947 1747 
Q 947 1113 1208 752 
Q 1469 391 1925 391 
Q 2381 391 2643 752 
Q 2906 1113 2906 1747 
Q 2906 2381 2643 2742 
Q 2381 3103 1925 3103 
Q 1469 3103 1208 2742 
Q 947 2381 947 1747 
z
" transform="scale(0.015625)"/>
      <path id="DejaVuSans-74" d="M 1172 4494 
L 1172 3500 
L 2356 3500 
L 2356 3053 
L 1172 3053 
L 1172 1153 
Q 1172 725 1289 603 
Q 1406 481 1766 481 
L 2356 481 
L 2356 0 
L 1766 0 
Q 1100 0 847 248 
Q 594 497 594 1153 
L 594 3053 
L 172 3053 
L 172 3500 
L 594 3500 
L 594 4494 
L 1172 4494 
z
" transform="scale(0.015625)"/>
      <path id="DejaVuSans-4d" d="M 628 4666 
L 1569 4666 
L 2759 1491 
L 3956 4666 
L 4897 4666 
L 4897 0 
L 4281 0 
L 4281 4097 
L 3078 897 
L 2444 897 
L 1241 4097 
L 1241 0 
L 628 0 
L 628 4666 
z
" transform="scale(0.015625)"/>
      <path id="DejaVuSans-2d" d="M 313 2009 
L 1997 2009 
L 1997 1497 
L 313 1497 
L 313 2009 
z
" transform="scale(0.015625)"/>
      <path id="DejaVuSans-43" d="M 4122 4306 
L 4122 3641 
Q 3803 3938 3442 4084 
Q 3081 4231 2675 4231 
Q 1875 4231 1450 3742 
Q 1025 3253 1025 2328 
Q 1025 1406 1450 917 
Q 1875 428 2675 428 
Q 3081 428 3442 575 
Q 3803 722 4122 1019 
L 4122 359 
Q 3791 134 3420 21 
Q 3050 -91 2638 -91 
Q 1578 -91 968 557 
Q 359 1206 359 2328 
Q 359 3453 968 4101 
Q 1578 4750 2638 4750 
Q 3056 4750 3426 4639 
Q 3797 4528 4122 4306 
z
" transform="scale(0.015625)"/>
     </defs>
     <use xlink:href="#DejaVuSans-56"/>
     <use xlink:href="#DejaVuSans-61" x="60.658203"/>
     <use xlink:href="#DejaVuSans-6c" x="121.9375"/>
     <use xlink:href="#DejaVuSans-69" x="149.720703"/>
     <use xlink:href="#DejaVuSans-64" x="177.503906"/>
     <use xlink:href="#DejaVuSans-61" x="240.980469"/>
     <use xlink:href="#DejaVuSans-74" x="302.259766"/>
     <use xlink:href="#DejaVuSans-69" x="341.46875"/>
     <use xlink:href="#DejaVuSans-6f" x="369.251953"/>
     <use xlink:href="#DejaVuSans-6e" x="430.433594"/>
     <use xlink:href="#DejaVuSans-20" x="493.8125"/>
     <use xlink:href="#DejaVuSans-4d" x="525.599609"/>
     <use xlink:href="#DejaVuSans-65" x="611.878906"/>
     <use xlink:href="#DejaVuSans-74" x="673.402344"/>
     <use xlink:href="#DejaVuSans-72" x="712.611328"/>
     <use xlink:href="#DejaVuSans-69" x="753.724609"/>
     <use xlink:href="#DejaVuSans-63" x="781.507812"/>
     <use xlink:href="#DejaVuSans-73" x="836.488281"/>
     <use xlink:href="#DejaVuSans-20" x="888.587891"/>
     <use xlink:href="#DejaVuSans-61" x="920.375"/>
     <use xlink:href="#DejaVuSans-6e" x="981.654297"/>
     <use xlink:href="#DejaVuSans-64" x="1045.033203"/>
     <use xlink:href="#DejaVuSans-20" x="1108.509766"/>
     <use xlink:href="#DejaVuSans-50" x="1140.296875"/>
     <use xlink:href="#DejaVuSans-65" x="1196.974609"/>
     <use xlink:href="#DejaVuSans-72" x="1258.498047"/>
     <use xlink:href="#DejaVuSans-2d" x="1293.236328"/>
     <use xlink:href="#DejaVuSans-43" x="1329.320312"/>
     <use xlink:href="#DejaVuSans-6c" x="1399.144531"/>
     <use xlink:href="#DejaVuSans-61" x="1426.927734"/>
     <use xlink:href="#DejaVuSans-73" x="1488.207031"/>
     <use xlink:href="#DejaVuSans-73" x="1540.306641"/>
     <use xlink:href="#DejaVuSans-20" x="1592.40625"/>
     <use xlink:href="#DejaVuSans-41" x="1624.193359"/>
     <use xlink:href="#DejaVuSans-50" x="1692.601562"/>
     <use xlink:href="#DejaVuSans-20" x="1752.904297"/>
     <use xlink:href="#DejaVuSans-6f" x="1784.691406"/>
     <use xlink:href="#DejaVuSans-76" x="1845.873047"/>
     <use xlink:href="#DejaVuSans-65" x="1905.052734"/>
     <use xlink:href="#DejaVuSans-72" x="1966.576172"/>
     <use xlink:href="#DejaVuSans-20" x="2007.689453"/>
     <use xlink:href="#DejaVuSans-45" x="2039.476562"/>
     <use xlink:href="#DejaVuSans-70" x="2102.660156"/>
     <use xlink:href="#DejaVuSans-6f" x="2166.136719"/>
     <use xlink:href="#DejaVuSans-63" x="2227.318359"/>
     <use xlink:href="#DejaVuSans-68" x="2282.298828"/>
     <use xlink:href="#DejaVuSans-73" x="2345.677734"/>
    </g>
   </g>
   <g id="legend_1">
    <g id="patch_7">
     <path d="M 873.30925 89.030625 
L 950.645188 89.030625 
Q 952.645188 89.030625 952.645188 87.030625 
L 952.645188 29.318125 
Q 952.645188 27.318125 950.645188 27.318125 
L 873.30925 27.318125 
Q 871.30925 27.318125 871.30925 29.318125 
L 871.30925 87.030625 
Q 871.30925 89.030625 873.30925 89.030625 
z
" style="fill: #ffffff; opacity: 0.8; stroke: #cccccc; stroke-linejoin: miter"/>
    </g>
    <g id="line2d_29">
     <path d="M 875.30925 35.416562 
L 885.30925 35.416562 
L 895.30925 35.416562 
" style="fill: none; stroke: #1f77b4; stroke-width: 1.5; stroke-linecap: square"/>
    </g>
    <g id="text_16">
     <!-- Precision -->
     <g transform="translate(903.30925 38.916562) scale(0.1 -0.1)">
      <use xlink:href="#DejaVuSans-50"/>
      <use xlink:href="#DejaVuSans-72" x="58.552734"/>
      <use xlink:href="#DejaVuSans-65" x="97.416016"/>
      <use xlink:href="#DejaVuSans-63" x="158.939453"/>
      <use xlink:href="#DejaVuSans-69" x="213.919922"/>
      <use xlink:href="#DejaVuSans-73" x="241.703125"/>
      <use xlink:href="#DejaVuSans-69" x="293.802734"/>
      <use xlink:href="#DejaVuSans-6f" x="321.585938"/>
      <use xlink:href="#DejaVuSans-6e" x="382.767578"/>
     </g>
    </g>
    <g id="line2d_30">
     <path d="M 875.30925 50.094687 
L 885.30925 50.094687 
L 895.30925 50.094687 
" style="fill: none; stroke: #ff7f0e; stroke-width: 1.5; stroke-linecap: square"/>
    </g>
    <g id="text_17">
     <!-- Recall -->
     <g transform="translate(903.30925 53.594687) scale(0.1 -0.1)">
      <defs>
       <path id="DejaVuSans-52" d="M 2841 2188 
Q 3044 2119 3236 1894 
Q 3428 1669 3622 1275 
L 4263 0 
L 3584 0 
L 2988 1197 
Q 2756 1666 2539 1819 
Q 2322 1972 1947 1972 
L 1259 1972 
L 1259 0 
L 628 0 
L 628 4666 
L 2053 4666 
Q 2853 4666 3247 4331 
Q 3641 3997 3641 3322 
Q 3641 2881 3436 2590 
Q 3231 2300 2841 2188 
z
M 1259 4147 
L 1259 2491 
L 2053 2491 
Q 2509 2491 2742 2702 
Q 2975 2913 2975 3322 
Q 2975 3731 2742 3939 
Q 2509 4147 2053 4147 
L 1259 4147 
z
" transform="scale(0.015625)"/>
      </defs>
      <use xlink:href="#DejaVuSans-52"/>
      <use xlink:href="#DejaVuSans-65" x="64.982422"/>
      <use xlink:href="#DejaVuSans-63" x="126.505859"/>
      <use xlink:href="#DejaVuSans-61" x="181.486328"/>
      <use xlink:href="#DejaVuSans-6c" x="242.765625"/>
      <use xlink:href="#DejaVuSans-6c" x="270.548828"/>
     </g>
    </g>
    <g id="line2d_31">
     <path d="M 875.30925 64.772812 
L 885.30925 64.772812 
L 895.30925 64.772812 
" style="fill: none; stroke: #2ca02c; stroke-width: 1.5; stroke-linecap: square"/>
    </g>
    <g id="text_18">
     <!-- mAP@50 -->
     <g transform="translate(903.30925 68.272812) scale(0.1 -0.1)">
      <defs>
       <path id="DejaVuSans-6d" d="M 3328 2828 
Q 3544 3216 3844 3400 
Q 4144 3584 4550 3584 
Q 5097 3584 5394 3201 
Q 5691 2819 5691 2113 
L 5691 0 
L 5113 0 
L 5113 2094 
Q 5113 2597 4934 2840 
Q 4756 3084 4391 3084 
Q 3944 3084 3684 2787 
Q 3425 2491 3425 1978 
L 3425 0 
L 2847 0 
L 2847 2094 
Q 2847 2600 2669 2842 
Q 2491 3084 2119 3084 
Q 1678 3084 1418 2786 
Q 1159 2488 1159 1978 
L 1159 0 
L 581 0 
L 581 3500 
L 1159 3500 
L 1159 2956 
Q 1356 3278 1631 3431 
Q 1906 3584 2284 3584 
Q 2666 3584 2933 3390 
Q 3200 3197 3328 2828 
z
" transform="scale(0.015625)"/>
       <path id="DejaVuSans-40" d="M 2381 1678 
Q 2381 1231 2603 976 
Q 2825 722 3213 722 
Q 3597 722 3817 978 
Q 4038 1234 4038 1678 
Q 4038 2116 3813 2373 
Q 3588 2631 3206 2631 
Q 2828 2631 2604 2375 
Q 2381 2119 2381 1678 
z
M 4084 744 
Q 3897 503 3655 389 
Q 3413 275 3091 275 
Q 2553 275 2217 664 
Q 1881 1053 1881 1678 
Q 1881 2303 2218 2693 
Q 2556 3084 3091 3084 
Q 3413 3084 3656 2967 
Q 3900 2850 4084 2613 
L 4084 3022 
L 4531 3022 
L 4531 722 
Q 4988 791 5245 1139 
Q 5503 1488 5503 2041 
Q 5503 2375 5404 2669 
Q 5306 2963 5106 3213 
Q 4781 3622 4314 3839 
Q 3847 4056 3297 4056 
Q 2913 4056 2559 3954 
Q 2206 3853 1906 3653 
Q 1416 3334 1139 2817 
Q 863 2300 863 1697 
Q 863 1200 1042 765 
Q 1222 331 1563 0 
Q 1891 -325 2322 -495 
Q 2753 -666 3244 -666 
Q 3647 -666 4036 -530 
Q 4425 -394 4750 -141 
L 5031 -488 
Q 4641 -791 4180 -952 
Q 3719 -1113 3244 -1113 
Q 2666 -1113 2153 -908 
Q 1641 -703 1241 -313 
Q 841 78 631 592 
Q 422 1106 422 1697 
Q 422 2266 634 2781 
Q 847 3297 1241 3688 
Q 1644 4084 2172 4295 
Q 2700 4506 3291 4506 
Q 3953 4506 4520 4234 
Q 5088 3963 5472 3463 
Q 5706 3156 5829 2797 
Q 5953 2438 5953 2053 
Q 5953 1231 5456 756 
Q 4959 281 4084 263 
L 4084 744 
z
" transform="scale(0.015625)"/>
       <path id="DejaVuSans-35" d="M 691 4666 
L 3169 4666 
L 3169 4134 
L 1269 4134 
L 1269 2991 
Q 1406 3038 1543 3061 
Q 1681 3084 1819 3084 
Q 2600 3084 3056 2656 
Q 3513 2228 3513 1497 
Q 3513 744 3044 326 
Q 2575 -91 1722 -91 
Q 1428 -91 1123 -41 
Q 819 9 494 109 
L 494 744 
Q 775 591 1075 516 
Q 1375 441 1709 441 
Q 2250 441 2565 725 
Q 2881 1009 2881 1497 
Q 2881 1984 2565 2268 
Q 2250 2553 1709 2553 
Q 1456 2553 1204 2497 
Q 953 2441 691 2322 
L 691 4666 
z
" transform="scale(0.015625)"/>
      </defs>
      <use xlink:href="#DejaVuSans-6d"/>
      <use xlink:href="#DejaVuSans-41" x="97.412109"/>
      <use xlink:href="#DejaVuSans-50" x="165.820312"/>
      <use xlink:href="#DejaVuSans-40" x="226.123047"/>
      <use xlink:href="#DejaVuSans-35" x="326.123047"/>
      <use xlink:href="#DejaVuSans-30" x="389.746094"/>
     </g>
    </g>
    <g id="line2d_32">
     <path d="M 875.30925 79.450937 
L 885.30925 79.450937 
L 895.30925 79.450937 
" style="fill: none; stroke: #d62728; stroke-width: 1.5; stroke-linecap: square"/>
    </g>
    <g id="text_19">
     <!-- mAP -->
     <g transform="translate(903.30925 82.950937) scale(0.1 -0.1)">
      <use xlink:href="#DejaVuSans-6d"/>
      <use xlink:href="#DejaVuSans-41" x="97.412109"/>
      <use xlink:href="#DejaVuSans-50" x="165.820312"/>
     </g>
    </g>
   </g>
  </g>
 </g>
 <defs>
  <clipPath id="p45a95c6c0e">
   <rect x="43.78125" y="22.318125" width="806.4" height="443.52"/>
  </clipPath>
 </defs>
</svg>
