<?xml version="1.0" encoding="utf-8" standalone="no"?>
<!DOCTYPE svg PUBLIC "-//W3C//DTD SVG 1.1//EN"
  "http://www.w3.org/Graphics/SVG/1.1/DTD/svg11.dtd">
<svg xmlns:xlink="http://www.w3.org/1999/xlink" width="1045.13425pt" height="503.394375pt" viewBox="0 0 1045.13425 503.394375" xmlns="http://www.w3.org/2000/svg" version="1.1">
 <metadata>
  <rdf:RDF xmlns:dc="http://purl.org/dc/elements/1.1/" xmlns:cc="http://creativecommons.org/ns#" xmlns:rdf="http://www.w3.org/1999/02/22-rdf-syntax-ns#">
   <cc:Work>
    <dc:type rdf:resource="http://purl.org/dc/dcmitype/StillImage"/>
    <dc:date>2025-04-07T18:48:07.579271</dc:date>
    <dc:format>image/svg+xml</dc:format>
    <dc:creator>
     <cc:Agent>
      <dc:title>Matplotlib v3.9.4, https://matplotlib.org/</dc:title>
     </cc:Agent>
    </dc:creator>
   </cc:Work>
  </rdf:RDF>
 </metadata>
 <defs>
  <style type="text/css">*{stroke-linejoin: round; stroke-linecap: butt}</style>
 </defs>
 <g id="figure_1">
  <g id="patch_1">
   <path d="M 0 503.394375 
L 1045.13425 503.394375 
L 1045.13425 0 
L 0 0 
z
" style="fill: #ffffff"/>
  </g>
  <g id="axes_1">
   <g id="patch_2">
    <path d="M 43.78125 465.838125 
L 850.18125 465.838125 
L 850.18125 22.318125 
L 43.78125 22.318125 
z
" style="fill: #ffffff"/>
   </g>
   <g id="matplotlib.axis_1">
    <g id="xtick_1">
     <g id="line2d_1">
      <path d="M 74.275368 465.838125 
L 74.275368 22.318125 
" clip-path="url(#p6f68ae929e)" style="fill: none; stroke: #b0b0b0; stroke-width: 0.8; stroke-linecap: square"/>
     </g>
     <g id="line2d_2">
      <defs>
       <path id="m56b6717071" d="M 0 0 
L 0 3.5 
" style="stroke: #000000; stroke-width: 0.8"/>
      </defs>
      <g>
       <use xlink:href="#m56b6717071" x="74.275368" y="465.838125" style="stroke: #000000; stroke-width: 0.8"/>
      </g>
     </g>
     <g id="text_1">
      <!-- 0 -->
      <g transform="translate(71.094118 480.436562) scale(0.1 -0.1)">
       <defs>
        <path id="DejaVuSans-30" d="M 2034 4250 
Q 1547 4250 1301 3770 
Q 1056 3291 1056 2328 
Q 1056 1369 1301 889 
Q 1547 409 2034 409 
Q 2525 409 2770 889 
Q 3016 1369 3016 2328 
Q 3016 3291 2770 3770 
Q 2525 4250 2034 4250 
z
M 2034 4750 
Q 2819 4750 3233 4129 
Q 3647 3509 3647 2328 
Q 3647 1150 3233 529 
Q 2819 -91 2034 -91 
Q 1250 -91 836 529 
Q 422 1150 422 2328 
Q 422 3509 836 4129 
Q 1250 4750 2034 4750 
z
" transform="scale(0.015625)"/>
       </defs>
       <use xlink:href="#DejaVuSans-30"/>
      </g>
     </g>
    </g>
    <g id="xtick_2">
     <g id="line2d_3">
      <path d="M 197.483924 465.838125 
L 197.483924 22.318125 
" clip-path="url(#p6f68ae929e)" style="fill: none; stroke: #b0b0b0; stroke-width: 0.8; stroke-linecap: square"/>
     </g>
     <g id="line2d_4">
      <g>
       <use xlink:href="#m56b6717071" x="197.483924" y="465.838125" style="stroke: #000000; stroke-width: 0.8"/>
      </g>
     </g>
     <g id="text_2">
      <!-- 20 -->
      <g transform="translate(191.121424 480.436562) scale(0.1 -0.1)">
       <defs>
        <path id="DejaVuSans-32" d="M 1228 531 
L 3431 531 
L 3431 0 
L 469 0 
L 469 531 
Q 828 903 1448 1529 
Q 2069 2156 2228 2338 
Q 2531 2678 2651 2914 
Q 2772 3150 2772 3378 
Q 2772 3750 2511 3984 
Q 2250 4219 1831 4219 
Q 1534 4219 1204 4116 
Q 875 4013 500 3803 
L 500 4441 
Q 881 4594 1212 4672 
Q 1544 4750 1819 4750 
Q 2544 4750 2975 4387 
Q 3406 4025 3406 3419 
Q 3406 3131 3298 2873 
Q 3191 2616 2906 2266 
Q 2828 2175 2409 1742 
Q 1991 1309 1228 531 
z
" transform="scale(0.015625)"/>
       </defs>
       <use xlink:href="#DejaVuSans-32"/>
       <use xlink:href="#DejaVuSans-30" x="63.623047"/>
      </g>
     </g>
    </g>
    <g id="xtick_3">
     <g id="line2d_5">
      <path d="M 320.69248 465.838125 
L 320.69248 22.318125 
" clip-path="url(#p6f68ae929e)" style="fill: none; stroke: #b0b0b0; stroke-width: 0.8; stroke-linecap: square"/>
     </g>
     <g id="line2d_6">
      <g>
       <use xlink:href="#m56b6717071" x="320.69248" y="465.838125" style="stroke: #000000; stroke-width: 0.8"/>
      </g>
     </g>
     <g id="text_3">
      <!-- 40 -->
      <g transform="translate(314.32998 480.436562) scale(0.1 -0.1)">
       <defs>
        <path id="DejaVuSans-34" d="M 2419 4116 
L 825 1625 
L 2419 1625 
L 2419 4116 
z
M 2253 4666 
L 3047 4666 
L 3047 1625 
L 3713 1625 
L 3713 1100 
L 3047 1100 
L 3047 0 
L 2419 0 
L 2419 1100 
L 313 1100 
L 313 1709 
L 2253 4666 
z
" transform="scale(0.015625)"/>
       </defs>
       <use xlink:href="#DejaVuSans-34"/>
       <use xlink:href="#DejaVuSans-30" x="63.623047"/>
      </g>
     </g>
    </g>
    <g id="xtick_4">
     <g id="line2d_7">
      <path d="M 443.901036 465.838125 
L 443.901036 22.318125 
" clip-path="url(#p6f68ae929e)" style="fill: none; stroke: #b0b0b0; stroke-width: 0.8; stroke-linecap: square"/>
     </g>
     <g id="line2d_8">
      <g>
       <use xlink:href="#m56b6717071" x="443.901036" y="465.838125" style="stroke: #000000; stroke-width: 0.8"/>
      </g>
     </g>
     <g id="text_4">
      <!-- 60 -->
      <g transform="translate(437.538536 480.436562) scale(0.1 -0.1)">
       <defs>
        <path id="DejaVuSans-36" d="M 2113 2584 
Q 1688 2584 1439 2293 
Q 1191 2003 1191 1497 
Q 1191 994 1439 701 
Q 1688 409 2113 409 
Q 2538 409 2786 701 
Q 3034 994 3034 1497 
Q 3034 2003 2786 2293 
Q 2538 2584 2113 2584 
z
M 3366 4563 
L 3366 3988 
Q 3128 4100 2886 4159 
Q 2644 4219 2406 4219 
Q 1781 4219 1451 3797 
Q 1122 3375 1075 2522 
Q 1259 2794 1537 2939 
Q 1816 3084 2150 3084 
Q 2853 3084 3261 2657 
Q 3669 2231 3669 1497 
Q 3669 778 3244 343 
Q 2819 -91 2113 -91 
Q 1303 -91 875 529 
Q 447 1150 447 2328 
Q 447 3434 972 4092 
Q 1497 4750 2381 4750 
Q 2619 4750 2861 4703 
Q 3103 4656 3366 4563 
z
" transform="scale(0.015625)"/>
       </defs>
       <use xlink:href="#DejaVuSans-36"/>
       <use xlink:href="#DejaVuSans-30" x="63.623047"/>
      </g>
     </g>
    </g>
    <g id="xtick_5">
     <g id="line2d_9">
      <path d="M 567.109592 465.838125 
L 567.109592 22.318125 
" clip-path="url(#p6f68ae929e)" style="fill: none; stroke: #b0b0b0; stroke-width: 0.8; stroke-linecap: square"/>
     </g>
     <g id="line2d_10">
      <g>
       <use xlink:href="#m56b6717071" x="567.109592" y="465.838125" style="stroke: #000000; stroke-width: 0.8"/>
      </g>
     </g>
     <g id="text_5">
      <!-- 80 -->
      <g transform="translate(560.747092 480.436562) scale(0.1 -0.1)">
       <defs>
        <path id="DejaVuSans-38" d="M 2034 2216 
Q 1584 2216 1326 1975 
Q 1069 1734 1069 1313 
Q 1069 891 1326 650 
Q 1584 409 2034 409 
Q 2484 409 2743 651 
Q 3003 894 3003 1313 
Q 3003 1734 2745 1975 
Q 2488 2216 2034 2216 
z
M 1403 2484 
Q 997 2584 770 2862 
Q 544 3141 544 3541 
Q 544 4100 942 4425 
Q 1341 4750 2034 4750 
Q 2731 4750 3128 4425 
Q 3525 4100 3525 3541 
Q 3525 3141 3298 2862 
Q 3072 2584 2669 2484 
Q 3125 2378 3379 2068 
Q 3634 1759 3634 1313 
Q 3634 634 3220 271 
Q 2806 -91 2034 -91 
Q 1263 -91 848 271 
Q 434 634 434 1313 
Q 434 1759 690 2068 
Q 947 2378 1403 2484 
z
M 1172 3481 
Q 1172 3119 1398 2916 
Q 1625 2713 2034 2713 
Q 2441 2713 2670 2916 
Q 2900 3119 2900 3481 
Q 2900 3844 2670 4047 
Q 2441 4250 2034 4250 
Q 1625 4250 1398 4047 
Q 1172 3844 1172 3481 
z
" transform="scale(0.015625)"/>
       </defs>
       <use xlink:href="#DejaVuSans-38"/>
       <use xlink:href="#DejaVuSans-30" x="63.623047"/>
      </g>
     </g>
    </g>
    <g id="xtick_6">
     <g id="line2d_11">
      <path d="M 690.318148 465.838125 
L 690.318148 22.318125 
" clip-path="url(#p6f68ae929e)" style="fill: none; stroke: #b0b0b0; stroke-width: 0.8; stroke-linecap: square"/>
     </g>
     <g id="line2d_12">
      <g>
       <use xlink:href="#m56b6717071" x="690.318148" y="465.838125" style="stroke: #000000; stroke-width: 0.8"/>
      </g>
     </g>
     <g id="text_6">
      <!-- 100 -->
      <g transform="translate(680.774398 480.436562) scale(0.1 -0.1)">
       <defs>
        <path id="DejaVuSans-31" d="M 794 531 
L 1825 531 
L 1825 4091 
L 703 3866 
L 703 4441 
L 1819 4666 
L 2450 4666 
L 2450 531 
L 3481 531 
L 3481 0 
L 794 0 
L 794 531 
z
" transform="scale(0.015625)"/>
       </defs>
       <use xlink:href="#DejaVuSans-31"/>
       <use xlink:href="#DejaVuSans-30" x="63.623047"/>
       <use xlink:href="#DejaVuSans-30" x="127.246094"/>
      </g>
     </g>
    </g>
    <g id="xtick_7">
     <g id="line2d_13">
      <path d="M 813.526705 465.838125 
L 813.526705 22.318125 
" clip-path="url(#p6f68ae929e)" style="fill: none; stroke: #b0b0b0; stroke-width: 0.8; stroke-linecap: square"/>
     </g>
     <g id="line2d_14">
      <g>
       <use xlink:href="#m56b6717071" x="813.526705" y="465.838125" style="stroke: #000000; stroke-width: 0.8"/>
      </g>
     </g>
     <g id="text_7">
      <!-- 120 -->
      <g transform="translate(803.982955 480.436562) scale(0.1 -0.1)">
       <use xlink:href="#DejaVuSans-31"/>
       <use xlink:href="#DejaVuSans-32" x="63.623047"/>
       <use xlink:href="#DejaVuSans-30" x="127.246094"/>
      </g>
     </g>
    </g>
    <g id="text_8">
     <!-- Iteration -->
     <g transform="translate(425.772656 494.114687) scale(0.1 -0.1)">
      <defs>
       <path id="DejaVuSans-49" d="M 628 4666 
L 1259 4666 
L 1259 0 
L 628 0 
L 628 4666 
z
" transform="scale(0.015625)"/>
       <path id="DejaVuSans-74" d="M 1172 4494 
L 1172 3500 
L 2356 3500 
L 2356 3053 
L 1172 3053 
L 1172 1153 
Q 1172 725 1289 603 
Q 1406 481 1766 481 
L 2356 481 
L 2356 0 
L 1766 0 
Q 1100 0 847 248 
Q 594 497 594 1153 
L 594 3053 
L 172 3053 
L 172 3500 
L 594 3500 
L 594 4494 
L 1172 4494 
z
" transform="scale(0.015625)"/>
       <path id="DejaVuSans-65" d="M 3597 1894 
L 3597 1613 
L 953 1613 
Q 991 1019 1311 708 
Q 1631 397 2203 397 
Q 2534 397 2845 478 
Q 3156 559 3463 722 
L 3463 178 
Q 3153 47 2828 -22 
Q 2503 -91 2169 -91 
Q 1331 -91 842 396 
Q 353 884 353 1716 
Q 353 2575 817 3079 
Q 1281 3584 2069 3584 
Q 2775 3584 3186 3129 
Q 3597 2675 3597 1894 
z
M 3022 2063 
Q 3016 2534 2758 2815 
Q 2500 3097 2075 3097 
Q 1594 3097 1305 2825 
Q 1016 2553 972 2059 
L 3022 2063 
z
" transform="scale(0.015625)"/>
       <path id="DejaVuSans-72" d="M 2631 2963 
Q 2534 3019 2420 3045 
Q 2306 3072 2169 3072 
Q 1681 3072 1420 2755 
Q 1159 2438 1159 1844 
L 1159 0 
L 581 0 
L 581 3500 
L 1159 3500 
L 1159 2956 
Q 1341 3275 1631 3429 
Q 1922 3584 2338 3584 
Q 2397 3584 2469 3576 
Q 2541 3569 2628 3553 
L 2631 2963 
z
" transform="scale(0.015625)"/>
       <path id="DejaVuSans-61" d="M 2194 1759 
Q 1497 1759 1228 1600 
Q 959 1441 959 1056 
Q 959 750 1161 570 
Q 1363 391 1709 391 
Q 2188 391 2477 730 
Q 2766 1069 2766 1631 
L 2766 1759 
L 2194 1759 
z
M 3341 1997 
L 3341 0 
L 2766 0 
L 2766 531 
Q 2569 213 2275 61 
Q 1981 -91 1556 -91 
Q 1019 -91 701 211 
Q 384 513 384 1019 
Q 384 1609 779 1909 
Q 1175 2209 1959 2209 
L 2766 2209 
L 2766 2266 
Q 2766 2663 2505 2880 
Q 2244 3097 1772 3097 
Q 1472 3097 1187 3025 
Q 903 2953 641 2809 
L 641 3341 
Q 956 3463 1253 3523 
Q 1550 3584 1831 3584 
Q 2591 3584 2966 3190 
Q 3341 2797 3341 1997 
z
" transform="scale(0.015625)"/>
       <path id="DejaVuSans-69" d="M 603 3500 
L 1178 3500 
L 1178 0 
L 603 0 
L 603 3500 
z
M 603 4863 
L 1178 4863 
L 1178 4134 
L 603 4134 
L 603 4863 
z
" transform="scale(0.015625)"/>
       <path id="DejaVuSans-6f" d="M 1959 3097 
Q 1497 3097 1228 2736 
Q 959 2375 959 1747 
Q 959 1119 1226 758 
Q 1494 397 1959 397 
Q 2419 397 2687 759 
Q 2956 1122 2956 1747 
Q 2956 2369 2687 2733 
Q 2419 3097 1959 3097 
z
M 1959 3584 
Q 2709 3584 3137 3096 
Q 3566 2609 3566 1747 
Q 3566 888 3137 398 
Q 2709 -91 1959 -91 
Q 1206 -91 779 398 
Q 353 888 353 1747 
Q 353 2609 779 3096 
Q 1206 3584 1959 3584 
z
" transform="scale(0.015625)"/>
       <path id="DejaVuSans-6e" d="M 3513 2113 
L 3513 0 
L 2938 0 
L 2938 2094 
Q 2938 2591 2744 2837 
Q 2550 3084 2163 3084 
Q 1697 3084 1428 2787 
Q 1159 2491 1159 1978 
L 1159 0 
L 581 0 
L 581 3500 
L 1159 3500 
L 1159 2956 
Q 1366 3272 1645 3428 
Q 1925 3584 2291 3584 
Q 2894 3584 3203 3211 
Q 3513 2838 3513 2113 
z
" transform="scale(0.015625)"/>
      </defs>
      <use xlink:href="#DejaVuSans-49"/>
      <use xlink:href="#DejaVuSans-74" x="29.492188"/>
      <use xlink:href="#DejaVuSans-65" x="68.701172"/>
      <use xlink:href="#DejaVuSans-72" x="130.224609"/>
      <use xlink:href="#DejaVuSans-61" x="171.337891"/>
      <use xlink:href="#DejaVuSans-74" x="232.617188"/>
      <use xlink:href="#DejaVuSans-69" x="271.826172"/>
      <use xlink:href="#DejaVuSans-6f" x="299.609375"/>
      <use xlink:href="#DejaVuSans-6e" x="360.791016"/>
     </g>
    </g>
   </g>
   <g id="matplotlib.axis_2">
    <g id="ytick_1">
     <g id="line2d_15">
      <path d="M 43.78125 465.838125 
L 850.18125 465.838125 
" clip-path="url(#p6f68ae929e)" style="fill: none; stroke: #b0b0b0; stroke-width: 0.8; stroke-linecap: square"/>
     </g>
     <g id="line2d_16">
      <defs>
       <path id="mc1bca676b8" d="M 0 0 
L -3.5 0 
" style="stroke: #000000; stroke-width: 0.8"/>
      </defs>
      <g>
       <use xlink:href="#mc1bca676b8" x="43.78125" y="465.838125" style="stroke: #000000; stroke-width: 0.8"/>
      </g>
     </g>
     <g id="text_9">
      <!-- 0.0 -->
      <g transform="translate(20.878125 469.637344) scale(0.1 -0.1)">
       <defs>
        <path id="DejaVuSans-2e" d="M 684 794 
L 1344 794 
L 1344 0 
L 684 0 
L 684 794 
z
" transform="scale(0.015625)"/>
       </defs>
       <use xlink:href="#DejaVuSans-30"/>
       <use xlink:href="#DejaVuSans-2e" x="63.623047"/>
       <use xlink:href="#DejaVuSans-30" x="95.410156"/>
      </g>
     </g>
    </g>
    <g id="ytick_2">
     <g id="line2d_17">
      <path d="M 43.78125 377.134125 
L 850.18125 377.134125 
" clip-path="url(#p6f68ae929e)" style="fill: none; stroke: #b0b0b0; stroke-width: 0.8; stroke-linecap: square"/>
     </g>
     <g id="line2d_18">
      <g>
       <use xlink:href="#mc1bca676b8" x="43.78125" y="377.134125" style="stroke: #000000; stroke-width: 0.8"/>
      </g>
     </g>
     <g id="text_10">
      <!-- 0.2 -->
      <g transform="translate(20.878125 380.933344) scale(0.1 -0.1)">
       <use xlink:href="#DejaVuSans-30"/>
       <use xlink:href="#DejaVuSans-2e" x="63.623047"/>
       <use xlink:href="#DejaVuSans-32" x="95.410156"/>
      </g>
     </g>
    </g>
    <g id="ytick_3">
     <g id="line2d_19">
      <path d="M 43.78125 288.430125 
L 850.18125 288.430125 
" clip-path="url(#p6f68ae929e)" style="fill: none; stroke: #b0b0b0; stroke-width: 0.8; stroke-linecap: square"/>
     </g>
     <g id="line2d_20">
      <g>
       <use xlink:href="#mc1bca676b8" x="43.78125" y="288.430125" style="stroke: #000000; stroke-width: 0.8"/>
      </g>
     </g>
     <g id="text_11">
      <!-- 0.4 -->
      <g transform="translate(20.878125 292.229344) scale(0.1 -0.1)">
       <use xlink:href="#DejaVuSans-30"/>
       <use xlink:href="#DejaVuSans-2e" x="63.623047"/>
       <use xlink:href="#DejaVuSans-34" x="95.410156"/>
      </g>
     </g>
    </g>
    <g id="ytick_4">
     <g id="line2d_21">
      <path d="M 43.78125 199.726125 
L 850.18125 199.726125 
" clip-path="url(#p6f68ae929e)" style="fill: none; stroke: #b0b0b0; stroke-width: 0.8; stroke-linecap: square"/>
     </g>
     <g id="line2d_22">
      <g>
       <use xlink:href="#mc1bca676b8" x="43.78125" y="199.726125" style="stroke: #000000; stroke-width: 0.8"/>
      </g>
     </g>
     <g id="text_12">
      <!-- 0.6 -->
      <g transform="translate(20.878125 203.525344) scale(0.1 -0.1)">
       <use xlink:href="#DejaVuSans-30"/>
       <use xlink:href="#DejaVuSans-2e" x="63.623047"/>
       <use xlink:href="#DejaVuSans-36" x="95.410156"/>
      </g>
     </g>
    </g>
    <g id="ytick_5">
     <g id="line2d_23">
      <path d="M 43.78125 111.022125 
L 850.18125 111.022125 
" clip-path="url(#p6f68ae929e)" style="fill: none; stroke: #b0b0b0; stroke-width: 0.8; stroke-linecap: square"/>
     </g>
     <g id="line2d_24">
      <g>
       <use xlink:href="#mc1bca676b8" x="43.78125" y="111.022125" style="stroke: #000000; stroke-width: 0.8"/>
      </g>
     </g>
     <g id="text_13">
      <!-- 0.8 -->
      <g transform="translate(20.878125 114.821344) scale(0.1 -0.1)">
       <use xlink:href="#DejaVuSans-30"/>
       <use xlink:href="#DejaVuSans-2e" x="63.623047"/>
       <use xlink:href="#DejaVuSans-38" x="95.410156"/>
      </g>
     </g>
    </g>
    <g id="ytick_6">
     <g id="line2d_25">
      <path d="M 43.78125 22.318125 
L 850.18125 22.318125 
" clip-path="url(#p6f68ae929e)" style="fill: none; stroke: #b0b0b0; stroke-width: 0.8; stroke-linecap: square"/>
     </g>
     <g id="line2d_26">
      <g>
       <use xlink:href="#mc1bca676b8" x="43.78125" y="22.318125" style="stroke: #000000; stroke-width: 0.8"/>
      </g>
     </g>
     <g id="text_14">
      <!-- 1.0 -->
      <g transform="translate(20.878125 26.117344) scale(0.1 -0.1)">
       <use xlink:href="#DejaVuSans-31"/>
       <use xlink:href="#DejaVuSans-2e" x="63.623047"/>
       <use xlink:href="#DejaVuSans-30" x="95.410156"/>
      </g>
     </g>
    </g>
    <g id="text_15">
     <!-- Loss -->
     <g transform="translate(14.798437 255.045312) rotate(-90) scale(0.1 -0.1)">
      <defs>
       <path id="DejaVuSans-4c" d="M 628 4666 
L 1259 4666 
L 1259 531 
L 3531 531 
L 3531 0 
L 628 0 
L 628 4666 
z
" transform="scale(0.015625)"/>
       <path id="DejaVuSans-73" d="M 2834 3397 
L 2834 2853 
Q 2591 2978 2328 3040 
Q 2066 3103 1784 3103 
Q 1356 3103 1142 2972 
Q 928 2841 928 2578 
Q 928 2378 1081 2264 
Q 1234 2150 1697 2047 
L 1894 2003 
Q 2506 1872 2764 1633 
Q 3022 1394 3022 966 
Q 3022 478 2636 193 
Q 2250 -91 1575 -91 
Q 1294 -91 989 -36 
Q 684 19 347 128 
L 347 722 
Q 666 556 975 473 
Q 1284 391 1588 391 
Q 1994 391 2212 530 
Q 2431 669 2431 922 
Q 2431 1156 2273 1281 
Q 2116 1406 1581 1522 
L 1381 1569 
Q 847 1681 609 1914 
Q 372 2147 372 2553 
Q 372 3047 722 3315 
Q 1072 3584 1716 3584 
Q 2034 3584 2315 3537 
Q 2597 3491 2834 3397 
z
" transform="scale(0.015625)"/>
      </defs>
      <use xlink:href="#DejaVuSans-4c"/>
      <use xlink:href="#DejaVuSans-6f" x="53.962891"/>
      <use xlink:href="#DejaVuSans-73" x="115.144531"/>
      <use xlink:href="#DejaVuSans-73" x="167.244141"/>
     </g>
    </g>
   </g>
   <g id="line2d_27">
    <path d="M 90.993916 -1 
L 92.756651 9.096815 
L 98.917079 2.328655 
L 105.077507 10.303189 
L 111.237934 8.959296 
L 117.398362 11.988527 
L 123.55879 29.365659 
L 129.719218 32.625517 
L 135.879646 35.614856 
L 142.040074 39.89038 
L 148.200501 28.527404 
L 154.360929 42.569257 
L 160.521357 60.11489 
L 166.681785 71.633123 
L 172.842213 65.095616 
L 179.00264 77.837961 
L 185.163068 80.565612 
L 191.323496 82.406209 
L 197.483924 79.070956 
L 203.644352 74.52042 
L 209.804779 92.469677 
L 215.965207 74.551483 
L 222.125635 103.806057 
L 228.286063 98.603561 
L 234.446491 105.265237 
L 240.606918 112.423643 
L 246.767346 119.417961 
L 252.927774 109.026292 
L 259.088202 112.570018 
L 265.24863 105.535782 
L 271.409057 117.58178 
L 277.569485 99.14465 
L 283.729913 116.836685 
L 289.890341 131.122461 
L 296.050769 130.674506 
L 302.211197 115.891974 
L 308.371624 120.717468 
L 314.532052 140.298874 
L 320.69248 135.4512 
L 326.852908 135.562098 
L 333.013336 138.076835 
L 339.173763 135.047604 
L 345.334191 154.234269 
L 351.494619 139.305388 
L 357.655047 137.114411 
L 363.815475 143.155136 
L 369.975902 144.383689 
L 376.13633 149.373298 
L 382.296758 146.556954 
L 388.457186 158.651727 
L 394.617614 149.147112 
L 400.778041 153.653262 
L 406.938469 157.622764 
L 413.098897 151.848143 
L 419.259325 156.673637 
L 425.419753 157.835652 
L 431.58018 171.766632 
L 437.740608 170.977152 
L 443.901036 163.614714 
L 450.061464 173.420961 
L 456.221892 163.042589 
L 462.38232 174.689433 
L 468.542747 175.789349 
L 474.703175 173.540716 
L 480.863603 175.208342 
L 487.024031 169.322823 
L 493.184459 180.002801 
L 499.344886 174.139461 
L 505.505314 185.710883 
L 511.665742 186.939436 
L 517.82617 183.994483 
L 523.986598 191.866947 
L 530.147025 184.003339 
L 536.307453 175.234963 
L 542.467881 178.995992 
L 548.628309 181.138194 
L 554.788737 192.102015 
L 560.949164 200.928073 
L 567.109592 194.377269 
L 573.27002 195.441709 
L 579.430448 200.151917 
L 585.590876 208.144136 
L 591.751303 190.558557 
L 597.911731 201.109899 
L 604.072159 208.977949 
L 610.232587 207.075255 
L 616.393015 210.468191 
L 622.553443 201.491342 
L 628.71387 210.330698 
L 634.874298 210.9871 
L 641.034726 215.688399 
L 647.195154 212.357588 
L 653.355582 218.06567 
L 659.516009 211.763257 
L 665.676437 218.46041 
L 671.836865 214.282461 
L 677.997293 223.259283 
L 684.157721 214.100609 
L 690.318148 222.42547 
L 696.478576 226.049033 
L 702.639004 228.874258 
L 708.799432 231.229349 
L 714.95986 227.206632 
L 721.120287 220.327627 
L 727.280715 217.191938 
L 733.441143 225.995817 
L 739.601571 230.816871 
L 745.761999 230.408833 
L 751.922426 222.811328 
L 758.082854 238.330098 
L 764.243282 234.666618 
L 770.40371 234.968225 
L 776.564138 235.500458 
L 782.724566 241.204125 
L 788.884993 232.577657 
L 795.045421 245.315548 
L 801.205849 245.169185 
L 807.366277 238.307919 
L 813.526705 239.753801 
" clip-path="url(#p6f68ae929e)" style="fill: none; stroke: #1f77b4; stroke-width: 1.5; stroke-linecap: square"/>
   </g>
   <g id="line2d_28">
    <path d="M 105.031027 -1 
L 105.077507 -0.381231 
L 111.237934 44.254621 
L 117.398362 56.495769 
L 123.55879 96.96697 
L 129.719218 92.868858 
L 135.879646 111.199531 
L 142.040074 126.505413 
L 148.200501 132.315511 
L 154.360929 151.728388 
L 160.521357 145.69652 
L 166.681785 145.922705 
L 172.842213 162.434961 
L 179.00264 179.009315 
L 185.163068 190.811364 
L 191.323496 174.844664 
L 197.483924 182.158301 
L 203.644352 178.729888 
L 209.804779 203.114609 
L 215.965207 193.485799 
L 222.125635 212.978513 
L 228.286063 202.742049 
L 234.446491 214.357856 
L 240.606918 217.750766 
L 246.767346 216.641967 
L 252.927774 220.518335 
L 259.088202 213.736931 
L 265.24863 219.365203 
L 271.409057 226.186525 
L 277.569485 219.489372 
L 283.729913 238.480915 
L 289.890341 242.441534 
L 296.050769 244.122471 
L 302.211197 235.491575 
L 308.371624 230.932184 
L 314.532052 255.631822 
L 320.69248 247.670638 
L 326.852908 242.437093 
L 333.013336 254.766959 
L 339.173763 240.84042 
L 345.334191 258.164323 
L 351.494619 261.087111 
L 357.655047 253.13481 
L 363.815475 251.981652 
L 369.975902 261.681428 
L 376.13633 261.193568 
L 382.296758 254.412137 
L 388.457186 264.577621 
L 394.617614 257.130919 
L 400.778041 258.040141 
L 406.938469 275.661183 
L 413.098897 268.085857 
L 419.259325 269.9043 
L 425.419753 268.764452 
L 431.58018 278.894446 
L 437.740608 280.779402 
L 443.901036 272.516625 
L 450.061464 278.743643 
L 456.221892 273.328272 
L 462.38232 279.111775 
L 468.542747 282.389385 
L 474.703175 278.801299 
L 480.863603 277.240117 
L 487.024031 275.501524 
L 493.184459 286.376625 
L 499.344886 283.334083 
L 505.505314 288.567615 
L 511.665742 296.910228 
L 517.82617 292.634692 
L 523.986598 289.108704 
L 530.147025 289.224031 
L 536.307453 284.553754 
L 542.467881 282.788553 
L 548.628309 281.817247 
L 554.788737 295.854645 
L 560.949164 301.629279 
L 567.109592 305.514516 
L 573.27002 302.675993 
L 579.430448 302.449795 
L 585.590876 304.91133 
L 591.751303 301.913134 
L 597.911731 303.762613 
L 604.072159 307.341815 
L 610.232587 306.605577 
L 616.393015 306.765236 
L 622.553443 296.519929 
L 628.71387 305.2484 
L 634.874298 314.668763 
L 641.034726 316.966197 
L 647.195154 314.012361 
L 653.355582 318.92212 
L 659.516009 314.788517 
L 665.676437 313.542226 
L 671.836865 310.765787 
L 677.997293 319.361206 
L 684.157721 317.879847 
L 690.318148 325.579355 
L 696.478576 322.75857 
L 702.639004 324.395161 
L 708.799432 329.775055 
L 714.95986 324.931822 
L 721.120287 312.193931 
L 727.280715 318.536262 
L 733.441143 322.882752 
L 739.601571 326.488576 
L 745.761999 323.885107 
L 751.922426 322.354974 
L 758.082854 331.247545 
L 764.243282 328.2183 
L 770.40371 332.897446 
L 776.564138 333.438535 
L 782.724566 334.675958 
L 788.884993 330.05004 
L 795.045421 336.090778 
L 801.205849 340.79209 
L 807.366277 335.052946 
L 813.526705 341.661394 
" clip-path="url(#p6f68ae929e)" style="fill: none; stroke: #ff7f0e; stroke-width: 1.5; stroke-linecap: square"/>
   </g>
   <g id="line2d_29">
    <path d="M 85.072789 -1 
L 86.596223 9.025808 
L 92.756651 34.435104 
L 98.917079 34.239954 
L 105.077507 33.352899 
L 111.237934 28.718113 
L 117.398362 30.616392 
L 123.55879 33.485951 
L 129.719218 46.587533 
L 135.879646 41.69994 
L 142.040074 47.062109 
L 148.200501 46.028705 
L 154.360929 48.117693 
L 160.521357 54.46888 
L 166.681785 52.459755 
L 172.842213 59.063748 
L 179.00264 59.547207 
L 185.163068 63.707417 
L 191.323496 60.243527 
L 197.483924 62.811506 
L 203.644352 64.155372 
L 209.804779 68.147054 
L 215.965207 55.914762 
L 222.125635 66.35079 
L 228.286063 64.044474 
L 234.446491 67.246702 
L 240.606918 64.975888 
L 246.767346 72.990287 
L 252.927774 67.597082 
L 259.088202 71.340399 
L 265.24863 70.617458 
L 271.409057 71.979063 
L 277.569485 67.295476 
L 283.729913 73.345109 
L 289.890341 79.807194 
L 296.050769 78.170604 
L 302.211197 74.440584 
L 308.371624 73.092303 
L 314.532052 78.52984 
L 320.69248 77.939977 
L 326.852908 81.097819 
L 333.013336 83.009396 
L 339.173763 76.125975 
L 345.334191 82.242121 
L 351.494619 80.831716 
L 357.655047 74.130122 
L 363.815475 82.335255 
L 369.975902 80.978091 
L 376.13633 87.089796 
L 382.296758 81.12444 
L 388.457186 87.036554 
L 394.617614 80.672043 
L 400.778041 83.940783 
L 406.938469 81.319589 
L 413.098897 83.701301 
L 419.259325 82.379614 
L 425.419753 81.257492 
L 431.58018 90.912922 
L 437.740608 88.096579 
L 443.901036 87.808296 
L 450.061464 88.234072 
L 456.221892 84.907675 
L 462.38232 83.466233 
L 468.542747 87.302684 
L 474.703175 86.034212 
L 480.863603 89.946057 
L 487.024031 84.481899 
L 493.184459 90.114586 
L 499.344886 93.183762 
L 505.505314 92.190276 
L 511.665742 92.372102 
L 517.82617 95.57433 
L 523.986598 91.431858 
L 530.147025 91.538289 
L 536.307453 94.04417 
L 542.467881 88.744125 
L 548.628309 90.433931 
L 554.788737 92.398723 
L 560.949164 95.232805 
L 567.109592 89.919436 
L 573.27002 94.035314 
L 579.430448 94.24376 
L 585.590876 94.088529 
L 591.751303 92.451938 
L 597.911731 99.521652 
L 604.072159 99.091435 
L 610.232587 95.272723 
L 616.393015 97.108904 
L 622.553443 92.367661 
L 628.71387 99.313205 
L 634.874298 96.004547 
L 641.034726 99.876474 
L 647.195154 100.284511 
L 653.355582 99.308764 
L 659.516009 99.716801 
L 665.676437 95.396919 
L 671.836865 99.872032 
L 677.997293 107.057059 
L 684.157721 100.062741 
L 690.318148 98.191082 
L 696.478576 101.215899 
L 702.639004 105.571259 
L 708.799432 107.194552 
L 714.95986 98.541463 
L 721.120287 100.69699 
L 727.280715 99.601488 
L 733.441143 99.384159 
L 739.601571 100.484102 
L 745.761999 105.713193 
L 751.922426 101.894481 
L 758.082854 106.910684 
L 764.243282 104.546737 
L 770.40371 104.001207 
L 776.564138 102.564207 
L 782.724566 104.928154 
L 788.884993 100.617153 
L 795.045421 107.815477 
L 801.205849 106.795371 
L 807.366277 102.537586 
L 813.526705 99.778899 
" clip-path="url(#p6f68ae929e)" style="fill: none; stroke: #2ca02c; stroke-width: 1.5; stroke-linecap: square"/>
   </g>
   <g id="line2d_30">
    <path d="M 83.796847 -1 
L 86.596223 33.991563 
L 92.756651 27.582719 
L 98.917079 24.038993 
L 105.077507 28.67378 
L 111.237934 36.976461 
L 117.398362 17.68778 
L 123.55879 34.577011 
L 129.719218 38.972289 
L 135.879646 57.591271 
L 142.040074 35.455184 
L 148.200501 35.393086 
L 154.360929 48.822869 
L 160.521357 46.334726 
L 166.681785 39.952477 
L 172.842213 49.96273 
L 179.00264 51.949701 
L 185.163068 57.551353 
L 191.323496 62.997773 
L 197.483924 74.440584 
L 203.644352 60.199168 
L 209.804779 70.958956 
L 215.965207 65.335125 
L 222.125635 65.548013 
L 228.286063 71.109773 
L 234.446491 55.457951 
L 240.606918 60.017315 
L 246.767346 64.177552 
L 252.927774 62.585294 
L 259.088202 64.062239 
L 265.24863 63.303821 
L 271.409057 68.315582 
L 277.569485 57.320726 
L 283.729913 57.028002 
L 289.890341 52.029538 
L 296.050769 65.618993 
L 302.211197 75.487312 
L 308.371624 78.636298 
L 314.532052 72.546773 
L 320.69248 76.112678 
L 326.852908 70.391246 
L 333.013336 70.169502 
L 339.173763 63.902566 
L 345.334191 68.830077 
L 351.494619 73.762002 
L 357.655047 82.623538 
L 363.815475 70.298113 
L 369.975902 75.536086 
L 376.13633 74.294235 
L 382.296758 65.4815 
L 388.457186 88.194153 
L 394.617614 77.589596 
L 400.778041 81.182097 
L 406.938469 86.020915 
L 413.098897 98.559202 
L 419.259325 86.699497 
L 425.419753 89.715431 
L 431.58018 90.815347 
L 437.740608 85.11168 
L 443.901036 91.857634 
L 450.061464 79.505588 
L 456.221892 80.201908 
L 462.38232 81.590134 
L 468.542747 92.28341 
L 474.703175 86.632958 
L 480.863603 88.278431 
L 487.024031 96.359342 
L 493.184459 93.365588 
L 499.344886 87.644182 
L 505.505314 90.686737 
L 511.665742 99.588191 
L 517.82617 91.476191 
L 523.986598 89.653333 
L 530.147025 83.834353 
L 536.307453 84.424242 
L 542.467881 93.259157 
L 548.628309 100.754646 
L 554.788737 97.867323 
L 560.949164 108.338828 
L 567.109592 105.411586 
L 573.27002 94.81147 
L 579.430448 93.999837 
L 585.590876 91.32096 
L 591.751303 96.900458 
L 597.911731 103.79276 
L 604.072159 101.863445 
L 610.232587 97.401629 
L 616.393015 93.476486 
L 622.553443 93.764769 
L 628.71387 93.973216 
L 634.874298 104.112079 
L 641.034726 101.819086 
L 647.195154 97.064545 
L 653.355582 100.479661 
L 659.516009 102.706114 
L 665.676437 96.496835 
L 671.836865 86.828107 
L 677.997293 93.046269 
L 684.157721 99.920807 
L 690.318148 100.692548 
L 696.478576 103.180691 
L 702.639004 102.675079 
L 708.799432 103.819355 
L 714.95986 101.575136 
L 721.120287 99.348682 
L 727.280715 99.88533 
L 733.441143 99.787755 
L 739.601571 90.841968 
L 745.761999 99.503913 
L 751.922426 95.578771 
L 758.082854 101.672711 
L 764.243282 102.666196 
L 770.40371 104.404803 
L 776.564138 107.762262 
L 782.724566 103.619764 
L 788.884993 107.025997 
L 795.045421 107.633625 
L 801.205849 108.613814 
L 807.366277 109.54076 
L 813.526705 108.67147 
" clip-path="url(#p6f68ae929e)" style="fill: none; stroke: #d62728; stroke-width: 1.5; stroke-linecap: square"/>
   </g>
   <g id="line2d_31">
    <path d="M 85.295382 -1 
L 86.596223 23.143082 
L 92.756651 10.990627 
L 98.917079 109.576237 
L 105.077507 100.009525 
L 111.237934 103.145214 
L 117.398362 125.64942 
L 123.55879 132.643712 
L 129.719218 119.023221 
L 135.879646 149.093871 
L 142.040074 156.917588 
L 148.200501 138.768741 
L 154.360929 136.400326 
L 160.521357 142.991048 
L 166.681785 117.807991 
L 172.842213 150.677246 
L 179.00264 142.857997 
L 185.163068 152.30054 
L 191.323496 146.206573 
L 197.483924 167.735032 
L 203.644352 164.120326 
L 209.804779 173.114913 
L 215.965207 175.802646 
L 222.125635 165.504111 
L 228.286063 174.259216 
L 234.446491 159.396847 
L 240.606918 169.846173 
L 246.767346 169.274048 
L 252.927774 158.376767 
L 259.088202 195.206668 
L 265.24863 180.424136 
L 271.409057 178.929479 
L 277.569485 186.553579 
L 283.729913 182.921161 
L 289.890341 160.381477 
L 296.050769 168.085413 
L 302.211197 176.26834 
L 308.371624 186.704369 
L 314.532052 177.763023 
L 320.69248 176.11755 
L 326.852908 157.840093 
L 333.013336 187.183386 
L 339.173763 150.388963 
L 345.334191 177.558992 
L 351.494619 170.529196 
L 357.655047 170.857397 
L 363.815475 169.030098 
L 369.975902 170.311867 
L 376.13633 167.637458 
L 382.296758 163.184523 
L 388.457186 161.743082 
L 394.617614 176.419157 
L 400.778041 184.615408 
L 406.938469 188.655863 
L 413.098897 187.884148 
L 419.259325 183.275956 
L 425.419753 194.603481 
L 431.58018 200.582107 
L 437.740608 172.161346 
L 443.901036 185.591155 
L 450.061464 172.139193 
L 456.221892 180.113673 
L 462.38232 173.98423 
L 468.542747 181.763561 
L 474.703175 188.21679 
L 480.863603 205.740244 
L 487.024031 203.762155 
L 493.184459 184.18075 
L 499.344886 190.075125 
L 505.505314 181.927675 
L 511.665742 187.484967 
L 517.82617 185.205271 
L 523.986598 191.144006 
L 530.147025 177.590054 
L 536.307453 176.725178 
L 542.467881 180.614844 
L 548.628309 199.903525 
L 554.788737 168.879308 
L 560.949164 166.293591 
L 567.109592 173.74028 
L 573.27002 182.082906 
L 579.430448 159.241616 
L 585.590876 169.877235 
L 591.751303 173.846737 
L 597.911731 190.895641 
L 604.072159 173.713685 
L 610.232587 178.743186 
L 616.393015 181.093862 
L 622.553443 178.091225 
L 628.71387 180.597105 
L 634.874298 198.34233 
L 641.034726 197.397645 
L 647.195154 189.853381 
L 653.355582 185.542355 
L 659.516009 189.534036 
L 665.676437 194.989338 
L 671.836865 186.624533 
L 677.997293 198.967696 
L 684.157721 211.00928 
L 690.318148 197.140397 
L 696.478576 194.275253 
L 702.639004 183.435629 
L 708.799432 201.602214 
L 714.95986 204.631445 
L 721.120287 202.671095 
L 727.280715 197.818979 
L 733.441143 194.896205 
L 739.601571 193.636589 
L 745.761999 196.665847 
L 751.922426 196.519472 
L 758.082854 207.882447 
L 764.243282 208.729584 
L 770.40371 210.139963 
L 776.564138 207.900186 
L 782.724566 205.744686 
L 788.884993 213.914342 
L 795.045421 213.430883 
L 801.205849 206.192641 
L 807.366277 208.26389 
L 813.526705 205.522942 
" clip-path="url(#p6f68ae929e)" style="fill: none; stroke: #9467bd; stroke-width: 1.5; stroke-linecap: square"/>
   </g>
   <g id="line2d_32">
    <path d="M 83.74521 -1 
L 86.596223 15.798357 
L 92.756651 24.451445 
L 98.917079 22.81044 
L 105.077507 18.574808 
L 111.237934 19.812218 
L 117.398362 14.423481 
L 123.55879 25.373977 
L 129.719218 29.54307 
L 135.879646 31.197399 
L 142.040074 28.208059 
L 148.200501 28.017351 
L 154.360929 30.035385 
L 160.521357 29.099556 
L 166.681785 28.172582 
L 172.842213 30.248273 
L 179.00264 31.609878 
L 185.163068 33.055734 
L 191.323496 38.156214 
L 197.483924 40.258499 
L 203.644352 36.643819 
L 209.804779 38.488856 
L 215.965207 32.909385 
L 222.125635 37.872372 
L 228.286063 38.178394 
L 234.446491 32.709794 
L 240.606918 33.344043 
L 246.767346 30.78492 
L 252.927774 31.915899 
L 259.088202 35.650333 
L 265.24863 36.093848 
L 271.409057 33.441618 
L 277.569485 34.776602 
L 283.729913 32.386034 
L 289.890341 31.782847 
L 296.050769 36.147089 
L 302.211197 43.518383 
L 308.371624 42.66239 
L 314.532052 42.099121 
L 320.69248 43.092607 
L 326.852908 43.274433 
L 333.013336 40.387136 
L 339.173763 33.22873 
L 345.334191 37.881255 
L 351.494619 40.28512 
L 357.655047 45.775899 
L 363.815475 40.076673 
L 369.975902 38.84812 
L 376.13633 33.809737 
L 382.296758 32.013474 
L 388.457186 38.191717 
L 394.617614 41.092338 
L 400.778041 40.050052 
L 406.938469 43.87762 
L 413.098897 46.698431 
L 419.259325 46.929057 
L 425.419753 44.622741 
L 431.58018 43.123643 
L 437.740608 42.932935 
L 443.901036 40.870568 
L 450.061464 40.458089 
L 456.221892 39.216239 
L 462.38232 40.169806 
L 468.542747 45.274728 
L 474.703175 40.072232 
L 480.863603 41.473755 
L 487.024031 42.165634 
L 493.184459 44.010698 
L 499.344886 40.617762 
L 505.505314 44.072769 
L 511.665742 44.449771 
L 517.82617 44.84007 
L 523.986598 43.323234 
L 530.147025 41.021358 
L 536.307453 43.340972 
L 542.467881 43.833287 
L 548.628309 45.691622 
L 554.788737 45.531949 
L 560.949164 47.647557 
L 567.109592 47.354833 
L 573.27002 43.216776 
L 579.430448 45.962166 
L 585.590876 44.334458 
L 591.751303 48.383796 
L 597.911731 48.711997 
L 604.072159 47.425787 
L 610.232587 47.483444 
L 616.393015 43.043807 
L 622.553443 45.554129 
L 628.71387 45.478734 
L 634.874298 47.678593 
L 641.034726 47.753988 
L 647.195154 44.658218 
L 653.355582 47.833824 
L 659.516009 47.146386 
L 665.676437 45.492057 
L 671.836865 43.944159 
L 677.997293 44.786854 
L 684.157721 44.871106 
L 690.318148 46.507696 
L 696.478576 47.95802 
L 702.639004 46.073064 
L 708.799432 45.971048 
L 714.95986 44.729198 
L 721.120287 45.421077 
L 727.280715 45.336826 
L 733.441143 45.758161 
L 739.601571 41.584627 
L 745.761999 44.64492 
L 751.922426 43.305495 
L 758.082854 43.389773 
L 764.243282 43.913123 
L 770.40371 44.724757 
L 776.564138 45.25699 
L 782.724566 44.520725 
L 788.884993 46.192819 
L 795.045421 46.89358 
L 801.205849 46.144018 
L 807.366277 46.006525 
L 813.526705 44.893285 
" clip-path="url(#p6f68ae929e)" style="fill: none; stroke: #8c564b; stroke-width: 1.5; stroke-linecap: square"/>
   </g>
   <g id="patch_3">
    <path d="M 43.78125 465.838125 
L 43.78125 22.318125 
" style="fill: none; stroke: #000000; stroke-width: 0.8; stroke-linejoin: miter; stroke-linecap: square"/>
   </g>
   <g id="patch_4">
    <path d="M 850.18125 465.838125 
L 850.18125 22.318125 
" style="fill: none; stroke: #000000; stroke-width: 0.8; stroke-linejoin: miter; stroke-linecap: square"/>
   </g>
   <g id="patch_5">
    <path d="M 43.78125 465.838125 
L 850.18125 465.838125 
" style="fill: none; stroke: #000000; stroke-width: 0.8; stroke-linejoin: miter; stroke-linecap: square"/>
   </g>
   <g id="patch_6">
    <path d="M 43.78125 22.318125 
L 850.18125 22.318125 
" style="fill: none; stroke: #000000; stroke-width: 0.8; stroke-linejoin: miter; stroke-linecap: square"/>
   </g>
   <g id="text_16">
    <!-- Training Metrics over Iterations -->
    <g transform="translate(353.85375 16.318125) scale(0.12 -0.12)">
     <defs>
      <path id="DejaVuSans-54" d="M -19 4666 
L 3928 4666 
L 3928 4134 
L 2272 4134 
L 2272 0 
L 1638 0 
L 1638 4134 
L -19 4134 
L -19 4666 
z
" transform="scale(0.015625)"/>
      <path id="DejaVuSans-67" d="M 2906 1791 
Q 2906 2416 2648 2759 
Q 2391 3103 1925 3103 
Q 1463 3103 1205 2759 
Q 947 2416 947 1791 
Q 947 1169 1205 825 
Q 1463 481 1925 481 
Q 2391 481 2648 825 
Q 2906 1169 2906 1791 
z
M 3481 434 
Q 3481 -459 3084 -895 
Q 2688 -1331 1869 -1331 
Q 1566 -1331 1297 -1286 
Q 1028 -1241 775 -1147 
L 775 -588 
Q 1028 -725 1275 -790 
Q 1522 -856 1778 -856 
Q 2344 -856 2625 -561 
Q 2906 -266 2906 331 
L 2906 616 
Q 2728 306 2450 153 
Q 2172 0 1784 0 
Q 1141 0 747 490 
Q 353 981 353 1791 
Q 353 2603 747 3093 
Q 1141 3584 1784 3584 
Q 2172 3584 2450 3431 
Q 2728 3278 2906 2969 
L 2906 3500 
L 3481 3500 
L 3481 434 
z
" transform="scale(0.015625)"/>
      <path id="DejaVuSans-20" transform="scale(0.015625)"/>
      <path id="DejaVuSans-4d" d="M 628 4666 
L 1569 4666 
L 2759 1491 
L 3956 4666 
L 4897 4666 
L 4897 0 
L 4281 0 
L 4281 4097 
L 3078 897 
L 2444 897 
L 1241 4097 
L 1241 0 
L 628 0 
L 628 4666 
z
" transform="scale(0.015625)"/>
      <path id="DejaVuSans-63" d="M 3122 3366 
L 3122 2828 
Q 2878 2963 2633 3030 
Q 2388 3097 2138 3097 
Q 1578 3097 1268 2742 
Q 959 2388 959 1747 
Q 959 1106 1268 751 
Q 1578 397 2138 397 
Q 2388 397 2633 464 
Q 2878 531 3122 666 
L 3122 134 
Q 2881 22 2623 -34 
Q 2366 -91 2075 -91 
Q 1284 -91 818 406 
Q 353 903 353 1747 
Q 353 2603 823 3093 
Q 1294 3584 2113 3584 
Q 2378 3584 2631 3529 
Q 2884 3475 3122 3366 
z
" transform="scale(0.015625)"/>
      <path id="DejaVuSans-76" d="M 191 3500 
L 800 3500 
L 1894 563 
L 2988 3500 
L 3597 3500 
L 2284 0 
L 1503 0 
L 191 3500 
z
" transform="scale(0.015625)"/>
     </defs>
     <use xlink:href="#DejaVuSans-54"/>
     <use xlink:href="#DejaVuSans-72" x="46.333984"/>
     <use xlink:href="#DejaVuSans-61" x="87.447266"/>
     <use xlink:href="#DejaVuSans-69" x="148.726562"/>
     <use xlink:href="#DejaVuSans-6e" x="176.509766"/>
     <use xlink:href="#DejaVuSans-69" x="239.888672"/>
     <use xlink:href="#DejaVuSans-6e" x="267.671875"/>
     <use xlink:href="#DejaVuSans-67" x="331.050781"/>
     <use xlink:href="#DejaVuSans-20" x="394.527344"/>
     <use xlink:href="#DejaVuSans-4d" x="426.314453"/>
     <use xlink:href="#DejaVuSans-65" x="512.59375"/>
     <use xlink:href="#DejaVuSans-74" x="574.117188"/>
     <use xlink:href="#DejaVuSans-72" x="613.326172"/>
     <use xlink:href="#DejaVuSans-69" x="654.439453"/>
     <use xlink:href="#DejaVuSans-63" x="682.222656"/>
     <use xlink:href="#DejaVuSans-73" x="737.203125"/>
     <use xlink:href="#DejaVuSans-20" x="789.302734"/>
     <use xlink:href="#DejaVuSans-6f" x="821.089844"/>
     <use xlink:href="#DejaVuSans-76" x="882.271484"/>
     <use xlink:href="#DejaVuSans-65" x="941.451172"/>
     <use xlink:href="#DejaVuSans-72" x="1002.974609"/>
     <use xlink:href="#DejaVuSans-20" x="1044.087891"/>
     <use xlink:href="#DejaVuSans-49" x="1075.875"/>
     <use xlink:href="#DejaVuSans-74" x="1105.367188"/>
     <use xlink:href="#DejaVuSans-65" x="1144.576172"/>
     <use xlink:href="#DejaVuSans-72" x="1206.099609"/>
     <use xlink:href="#DejaVuSans-61" x="1247.212891"/>
     <use xlink:href="#DejaVuSans-74" x="1308.492188"/>
     <use xlink:href="#DejaVuSans-69" x="1347.701172"/>
     <use xlink:href="#DejaVuSans-6f" x="1375.484375"/>
     <use xlink:href="#DejaVuSans-6e" x="1436.666016"/>
     <use xlink:href="#DejaVuSans-73" x="1500.044922"/>
    </g>
   </g>
   <g id="legend_1">
    <g id="patch_7">
     <path d="M 873.30925 118.386875 
L 1035.93425 118.386875 
Q 1037.93425 118.386875 1037.93425 116.386875 
L 1037.93425 29.318125 
Q 1037.93425 27.318125 1035.93425 27.318125 
L 873.30925 27.318125 
Q 871.30925 27.318125 871.30925 29.318125 
L 871.30925 116.386875 
Q 871.30925 118.386875 873.30925 118.386875 
z
" style="fill: #ffffff; opacity: 0.8; stroke: #cccccc; stroke-linejoin: miter"/>
    </g>
    <g id="line2d_33">
     <path d="M 875.30925 35.416562 
L 885.30925 35.416562 
L 895.30925 35.416562 
" style="fill: none; stroke: #1f77b4; stroke-width: 1.5; stroke-linecap: square"/>
    </g>
    <g id="text_17">
     <!-- Train Box Regression Loss -->
     <g transform="translate(903.30925 38.916562) scale(0.1 -0.1)">
      <defs>
       <path id="DejaVuSans-42" d="M 1259 2228 
L 1259 519 
L 2272 519 
Q 2781 519 3026 730 
Q 3272 941 3272 1375 
Q 3272 1813 3026 2020 
Q 2781 2228 2272 2228 
L 1259 2228 
z
M 1259 4147 
L 1259 2741 
L 2194 2741 
Q 2656 2741 2882 2914 
Q 3109 3088 3109 3444 
Q 3109 3797 2882 3972 
Q 2656 4147 2194 4147 
L 1259 4147 
z
M 628 4666 
L 2241 4666 
Q 2963 4666 3353 4366 
Q 3744 4066 3744 3513 
Q 3744 3084 3544 2831 
Q 3344 2578 2956 2516 
Q 3422 2416 3680 2098 
Q 3938 1781 3938 1306 
Q 3938 681 3513 340 
Q 3088 0 2303 0 
L 628 0 
L 628 4666 
z
" transform="scale(0.015625)"/>
       <path id="DejaVuSans-78" d="M 3513 3500 
L 2247 1797 
L 3578 0 
L 2900 0 
L 1881 1375 
L 863 0 
L 184 0 
L 1544 1831 
L 300 3500 
L 978 3500 
L 1906 2253 
L 2834 3500 
L 3513 3500 
z
" transform="scale(0.015625)"/>
       <path id="DejaVuSans-52" d="M 2841 2188 
Q 3044 2119 3236 1894 
Q 3428 1669 3622 1275 
L 4263 0 
L 3584 0 
L 2988 1197 
Q 2756 1666 2539 1819 
Q 2322 1972 1947 1972 
L 1259 1972 
L 1259 0 
L 628 0 
L 628 4666 
L 2053 4666 
Q 2853 4666 3247 4331 
Q 3641 3997 3641 3322 
Q 3641 2881 3436 2590 
Q 3231 2300 2841 2188 
z
M 1259 4147 
L 1259 2491 
L 2053 2491 
Q 2509 2491 2742 2702 
Q 2975 2913 2975 3322 
Q 2975 3731 2742 3939 
Q 2509 4147 2053 4147 
L 1259 4147 
z
" transform="scale(0.015625)"/>
      </defs>
      <use xlink:href="#DejaVuSans-54"/>
      <use xlink:href="#DejaVuSans-72" x="46.333984"/>
      <use xlink:href="#DejaVuSans-61" x="87.447266"/>
      <use xlink:href="#DejaVuSans-69" x="148.726562"/>
      <use xlink:href="#DejaVuSans-6e" x="176.509766"/>
      <use xlink:href="#DejaVuSans-20" x="239.888672"/>
      <use xlink:href="#DejaVuSans-42" x="271.675781"/>
      <use xlink:href="#DejaVuSans-6f" x="340.279297"/>
      <use xlink:href="#DejaVuSans-78" x="398.335938"/>
      <use xlink:href="#DejaVuSans-20" x="457.515625"/>
      <use xlink:href="#DejaVuSans-52" x="489.302734"/>
      <use xlink:href="#DejaVuSans-65" x="554.285156"/>
      <use xlink:href="#DejaVuSans-67" x="615.808594"/>
      <use xlink:href="#DejaVuSans-72" x="679.285156"/>
      <use xlink:href="#DejaVuSans-65" x="718.148438"/>
      <use xlink:href="#DejaVuSans-73" x="779.671875"/>
      <use xlink:href="#DejaVuSans-73" x="831.771484"/>
      <use xlink:href="#DejaVuSans-69" x="883.871094"/>
      <use xlink:href="#DejaVuSans-6f" x="911.654297"/>
      <use xlink:href="#DejaVuSans-6e" x="972.835938"/>
      <use xlink:href="#DejaVuSans-20" x="1036.214844"/>
      <use xlink:href="#DejaVuSans-4c" x="1068.001953"/>
      <use xlink:href="#DejaVuSans-6f" x="1121.964844"/>
      <use xlink:href="#DejaVuSans-73" x="1183.146484"/>
      <use xlink:href="#DejaVuSans-73" x="1235.246094"/>
     </g>
    </g>
    <g id="line2d_34">
     <path d="M 875.30925 50.094688 
L 885.30925 50.094688 
L 895.30925 50.094688 
" style="fill: none; stroke: #ff7f0e; stroke-width: 1.5; stroke-linecap: square"/>
    </g>
    <g id="text_18">
     <!-- Train Classification Loss -->
     <g transform="translate(903.30925 53.594688) scale(0.1 -0.1)">
      <defs>
       <path id="DejaVuSans-43" d="M 4122 4306 
L 4122 3641 
Q 3803 3938 3442 4084 
Q 3081 4231 2675 4231 
Q 1875 4231 1450 3742 
Q 1025 3253 1025 2328 
Q 1025 1406 1450 917 
Q 1875 428 2675 428 
Q 3081 428 3442 575 
Q 3803 722 4122 1019 
L 4122 359 
Q 3791 134 3420 21 
Q 3050 -91 2638 -91 
Q 1578 -91 968 557 
Q 359 1206 359 2328 
Q 359 3453 968 4101 
Q 1578 4750 2638 4750 
Q 3056 4750 3426 4639 
Q 3797 4528 4122 4306 
z
" transform="scale(0.015625)"/>
       <path id="DejaVuSans-6c" d="M 603 4863 
L 1178 4863 
L 1178 0 
L 603 0 
L 603 4863 
z
" transform="scale(0.015625)"/>
       <path id="DejaVuSans-66" d="M 2375 4863 
L 2375 4384 
L 1825 4384 
Q 1516 4384 1395 4259 
Q 1275 4134 1275 3809 
L 1275 3500 
L 2222 3500 
L 2222 3053 
L 1275 3053 
L 1275 0 
L 697 0 
L 697 3053 
L 147 3053 
L 147 3500 
L 697 3500 
L 697 3744 
Q 697 4328 969 4595 
Q 1241 4863 1831 4863 
L 2375 4863 
z
" transform="scale(0.015625)"/>
      </defs>
      <use xlink:href="#DejaVuSans-54"/>
      <use xlink:href="#DejaVuSans-72" x="46.333984"/>
      <use xlink:href="#DejaVuSans-61" x="87.447266"/>
      <use xlink:href="#DejaVuSans-69" x="148.726562"/>
      <use xlink:href="#DejaVuSans-6e" x="176.509766"/>
      <use xlink:href="#DejaVuSans-20" x="239.888672"/>
      <use xlink:href="#DejaVuSans-43" x="271.675781"/>
      <use xlink:href="#DejaVuSans-6c" x="341.5"/>
      <use xlink:href="#DejaVuSans-61" x="369.283203"/>
      <use xlink:href="#DejaVuSans-73" x="430.5625"/>
      <use xlink:href="#DejaVuSans-73" x="482.662109"/>
      <use xlink:href="#DejaVuSans-69" x="534.761719"/>
      <use xlink:href="#DejaVuSans-66" x="562.544922"/>
      <use xlink:href="#DejaVuSans-69" x="597.75"/>
      <use xlink:href="#DejaVuSans-63" x="625.533203"/>
      <use xlink:href="#DejaVuSans-61" x="680.513672"/>
      <use xlink:href="#DejaVuSans-74" x="741.792969"/>
      <use xlink:href="#DejaVuSans-69" x="781.001953"/>
      <use xlink:href="#DejaVuSans-6f" x="808.785156"/>
      <use xlink:href="#DejaVuSans-6e" x="869.966797"/>
      <use xlink:href="#DejaVuSans-20" x="933.345703"/>
      <use xlink:href="#DejaVuSans-4c" x="965.132812"/>
      <use xlink:href="#DejaVuSans-6f" x="1019.095703"/>
      <use xlink:href="#DejaVuSans-73" x="1080.277344"/>
      <use xlink:href="#DejaVuSans-73" x="1132.376953"/>
     </g>
    </g>
    <g id="line2d_35">
     <path d="M 875.30925 64.772812 
L 885.30925 64.772812 
L 895.30925 64.772812 
" style="fill: none; stroke: #2ca02c; stroke-width: 1.5; stroke-linecap: square"/>
    </g>
    <g id="text_19">
     <!-- Train Distribute Focal Loss -->
     <g transform="translate(903.30925 68.272812) scale(0.1 -0.1)">
      <defs>
       <path id="DejaVuSans-44" d="M 1259 4147 
L 1259 519 
L 2022 519 
Q 2988 519 3436 956 
Q 3884 1394 3884 2338 
Q 3884 3275 3436 3711 
Q 2988 4147 2022 4147 
L 1259 4147 
z
M 628 4666 
L 1925 4666 
Q 3281 4666 3915 4102 
Q 4550 3538 4550 2338 
Q 4550 1131 3912 565 
Q 3275 0 1925 0 
L 628 0 
L 628 4666 
z
" transform="scale(0.015625)"/>
       <path id="DejaVuSans-62" d="M 3116 1747 
Q 3116 2381 2855 2742 
Q 2594 3103 2138 3103 
Q 1681 3103 1420 2742 
Q 1159 2381 1159 1747 
Q 1159 1113 1420 752 
Q 1681 391 2138 391 
Q 2594 391 2855 752 
Q 3116 1113 3116 1747 
z
M 1159 2969 
Q 1341 3281 1617 3432 
Q 1894 3584 2278 3584 
Q 2916 3584 3314 3078 
Q 3713 2572 3713 1747 
Q 3713 922 3314 415 
Q 2916 -91 2278 -91 
Q 1894 -91 1617 61 
Q 1341 213 1159 525 
L 1159 0 
L 581 0 
L 581 4863 
L 1159 4863 
L 1159 2969 
z
" transform="scale(0.015625)"/>
       <path id="DejaVuSans-75" d="M 544 1381 
L 544 3500 
L 1119 3500 
L 1119 1403 
Q 1119 906 1312 657 
Q 1506 409 1894 409 
Q 2359 409 2629 706 
Q 2900 1003 2900 1516 
L 2900 3500 
L 3475 3500 
L 3475 0 
L 2900 0 
L 2900 538 
Q 2691 219 2414 64 
Q 2138 -91 1772 -91 
Q 1169 -91 856 284 
Q 544 659 544 1381 
z
M 1991 3584 
L 1991 3584 
z
" transform="scale(0.015625)"/>
       <path id="DejaVuSans-46" d="M 628 4666 
L 3309 4666 
L 3309 4134 
L 1259 4134 
L 1259 2759 
L 3109 2759 
L 3109 2228 
L 1259 2228 
L 1259 0 
L 628 0 
L 628 4666 
z
" transform="scale(0.015625)"/>
      </defs>
      <use xlink:href="#DejaVuSans-54"/>
      <use xlink:href="#DejaVuSans-72" x="46.333984"/>
      <use xlink:href="#DejaVuSans-61" x="87.447266"/>
      <use xlink:href="#DejaVuSans-69" x="148.726562"/>
      <use xlink:href="#DejaVuSans-6e" x="176.509766"/>
      <use xlink:href="#DejaVuSans-20" x="239.888672"/>
      <use xlink:href="#DejaVuSans-44" x="271.675781"/>
      <use xlink:href="#DejaVuSans-69" x="348.677734"/>
      <use xlink:href="#DejaVuSans-73" x="376.460938"/>
      <use xlink:href="#DejaVuSans-74" x="428.560547"/>
      <use xlink:href="#DejaVuSans-72" x="467.769531"/>
      <use xlink:href="#DejaVuSans-69" x="508.882812"/>
      <use xlink:href="#DejaVuSans-62" x="536.666016"/>
      <use xlink:href="#DejaVuSans-75" x="600.142578"/>
      <use xlink:href="#DejaVuSans-74" x="663.521484"/>
      <use xlink:href="#DejaVuSans-65" x="702.730469"/>
      <use xlink:href="#DejaVuSans-20" x="764.253906"/>
      <use xlink:href="#DejaVuSans-46" x="796.041016"/>
      <use xlink:href="#DejaVuSans-6f" x="849.935547"/>
      <use xlink:href="#DejaVuSans-63" x="911.117188"/>
      <use xlink:href="#DejaVuSans-61" x="966.097656"/>
      <use xlink:href="#DejaVuSans-6c" x="1027.376953"/>
      <use xlink:href="#DejaVuSans-20" x="1055.160156"/>
      <use xlink:href="#DejaVuSans-4c" x="1086.947266"/>
      <use xlink:href="#DejaVuSans-6f" x="1140.910156"/>
      <use xlink:href="#DejaVuSans-73" x="1202.091797"/>
      <use xlink:href="#DejaVuSans-73" x="1254.191406"/>
     </g>
    </g>
    <g id="line2d_36">
     <path d="M 875.30925 79.450938 
L 885.30925 79.450938 
L 895.30925 79.450938 
" style="fill: none; stroke: #d62728; stroke-width: 1.5; stroke-linecap: square"/>
    </g>
    <g id="text_20">
     <!-- Val Box Regression Loss -->
     <g transform="translate(903.30925 82.950938) scale(0.1 -0.1)">
      <defs>
       <path id="DejaVuSans-56" d="M 1831 0 
L 50 4666 
L 709 4666 
L 2188 738 
L 3669 4666 
L 4325 4666 
L 2547 0 
L 1831 0 
z
" transform="scale(0.015625)"/>
      </defs>
      <use xlink:href="#DejaVuSans-56"/>
      <use xlink:href="#DejaVuSans-61" x="60.658203"/>
      <use xlink:href="#DejaVuSans-6c" x="121.9375"/>
      <use xlink:href="#DejaVuSans-20" x="149.720703"/>
      <use xlink:href="#DejaVuSans-42" x="181.507812"/>
      <use xlink:href="#DejaVuSans-6f" x="250.111328"/>
      <use xlink:href="#DejaVuSans-78" x="308.167969"/>
      <use xlink:href="#DejaVuSans-20" x="367.347656"/>
      <use xlink:href="#DejaVuSans-52" x="399.134766"/>
      <use xlink:href="#DejaVuSans-65" x="464.117188"/>
      <use xlink:href="#DejaVuSans-67" x="525.640625"/>
      <use xlink:href="#DejaVuSans-72" x="589.117188"/>
      <use xlink:href="#DejaVuSans-65" x="627.980469"/>
      <use xlink:href="#DejaVuSans-73" x="689.503906"/>
      <use xlink:href="#DejaVuSans-73" x="741.603516"/>
      <use xlink:href="#DejaVuSans-69" x="793.703125"/>
      <use xlink:href="#DejaVuSans-6f" x="821.486328"/>
      <use xlink:href="#DejaVuSans-6e" x="882.667969"/>
      <use xlink:href="#DejaVuSans-20" x="946.046875"/>
      <use xlink:href="#DejaVuSans-4c" x="977.833984"/>
      <use xlink:href="#DejaVuSans-6f" x="1031.796875"/>
      <use xlink:href="#DejaVuSans-73" x="1092.978516"/>
      <use xlink:href="#DejaVuSans-73" x="1145.078125"/>
     </g>
    </g>
    <g id="line2d_37">
     <path d="M 875.30925 94.129062 
L 885.30925 94.129062 
L 895.30925 94.129062 
" style="fill: none; stroke: #9467bd; stroke-width: 1.5; stroke-linecap: square"/>
    </g>
    <g id="text_21">
     <!-- Val Classification Loss -->
     <g transform="translate(903.30925 97.629062) scale(0.1 -0.1)">
      <use xlink:href="#DejaVuSans-56"/>
      <use xlink:href="#DejaVuSans-61" x="60.658203"/>
      <use xlink:href="#DejaVuSans-6c" x="121.9375"/>
      <use xlink:href="#DejaVuSans-20" x="149.720703"/>
      <use xlink:href="#DejaVuSans-43" x="181.507812"/>
      <use xlink:href="#DejaVuSans-6c" x="251.332031"/>
      <use xlink:href="#DejaVuSans-61" x="279.115234"/>
      <use xlink:href="#DejaVuSans-73" x="340.394531"/>
      <use xlink:href="#DejaVuSans-73" x="392.494141"/>
      <use xlink:href="#DejaVuSans-69" x="444.59375"/>
      <use xlink:href="#DejaVuSans-66" x="472.376953"/>
      <use xlink:href="#DejaVuSans-69" x="507.582031"/>
      <use xlink:href="#DejaVuSans-63" x="535.365234"/>
      <use xlink:href="#DejaVuSans-61" x="590.345703"/>
      <use xlink:href="#DejaVuSans-74" x="651.625"/>
      <use xlink:href="#DejaVuSans-69" x="690.833984"/>
      <use xlink:href="#DejaVuSans-6f" x="718.617188"/>
      <use xlink:href="#DejaVuSans-6e" x="779.798828"/>
      <use xlink:href="#DejaVuSans-20" x="843.177734"/>
      <use xlink:href="#DejaVuSans-4c" x="874.964844"/>
      <use xlink:href="#DejaVuSans-6f" x="928.927734"/>
      <use xlink:href="#DejaVuSans-73" x="990.109375"/>
      <use xlink:href="#DejaVuSans-73" x="1042.208984"/>
     </g>
    </g>
    <g id="line2d_38">
     <path d="M 875.30925 108.807187 
L 885.30925 108.807187 
L 895.30925 108.807187 
" style="fill: none; stroke: #8c564b; stroke-width: 1.5; stroke-linecap: square"/>
    </g>
    <g id="text_22">
     <!-- Val Distribute Focal Loss -->
     <g transform="translate(903.30925 112.307187) scale(0.1 -0.1)">
      <use xlink:href="#DejaVuSans-56"/>
      <use xlink:href="#DejaVuSans-61" x="60.658203"/>
      <use xlink:href="#DejaVuSans-6c" x="121.9375"/>
      <use xlink:href="#DejaVuSans-20" x="149.720703"/>
      <use xlink:href="#DejaVuSans-44" x="181.507812"/>
      <use xlink:href="#DejaVuSans-69" x="258.509766"/>
      <use xlink:href="#DejaVuSans-73" x="286.292969"/>
      <use xlink:href="#DejaVuSans-74" x="338.392578"/>
      <use xlink:href="#DejaVuSans-72" x="377.601562"/>
      <use xlink:href="#DejaVuSans-69" x="418.714844"/>
      <use xlink:href="#DejaVuSans-62" x="446.498047"/>
      <use xlink:href="#DejaVuSans-75" x="509.974609"/>
      <use xlink:href="#DejaVuSans-74" x="573.353516"/>
      <use xlink:href="#DejaVuSans-65" x="612.5625"/>
      <use xlink:href="#DejaVuSans-20" x="674.085938"/>
      <use xlink:href="#DejaVuSans-46" x="705.873047"/>
      <use xlink:href="#DejaVuSans-6f" x="759.767578"/>
      <use xlink:href="#DejaVuSans-63" x="820.949219"/>
      <use xlink:href="#DejaVuSans-61" x="875.929688"/>
      <use xlink:href="#DejaVuSans-6c" x="937.208984"/>
      <use xlink:href="#DejaVuSans-20" x="964.992188"/>
      <use xlink:href="#DejaVuSans-4c" x="996.779297"/>
      <use xlink:href="#DejaVuSans-6f" x="1050.742188"/>
      <use xlink:href="#DejaVuSans-73" x="1111.923828"/>
      <use xlink:href="#DejaVuSans-73" x="1164.023438"/>
     </g>
    </g>
   </g>
  </g>
 </g>
 <defs>
  <clipPath id="p6f68ae929e">
   <rect x="43.78125" y="22.318125" width="806.4" height="443.52"/>
  </clipPath>
 </defs>
</svg>
