<?xml version="1.0" encoding="utf-8" standalone="no"?>
<!DOCTYPE svg PUBLIC "-//W3C//DTD SVG 1.1//EN"
  "http://www.w3.org/Graphics/SVG/1.1/DTD/svg11.dtd">
<svg xmlns:xlink="http://www.w3.org/1999/xlink" width="1061.13425pt" height="503.394375pt" viewBox="0 0 1061.13425 503.394375" xmlns="http://www.w3.org/2000/svg" version="1.1">
 <metadata>
  <rdf:RDF xmlns:dc="http://purl.org/dc/elements/1.1/" xmlns:cc="http://creativecommons.org/ns#" xmlns:rdf="http://www.w3.org/1999/02/22-rdf-syntax-ns#">
   <cc:Work>
    <dc:type rdf:resource="http://purl.org/dc/dcmitype/StillImage"/>
    <dc:date>2025-04-08T10:43:51.556966</dc:date>
    <dc:format>image/svg+xml</dc:format>
    <dc:creator>
     <cc:Agent>
      <dc:title>Matplotlib v3.9.4, https://matplotlib.org/</dc:title>
     </cc:Agent>
    </dc:creator>
   </cc:Work>
  </rdf:RDF>
 </metadata>
 <defs>
  <style type="text/css">*{stroke-linejoin: round; stroke-linecap: butt}</style>
 </defs>
 <g id="figure_1">
  <g id="patch_1">
   <path d="M 0 503.394375 
L 1061.13425 503.394375 
L 1061.13425 0 
L 0 0 
z
" style="fill: #ffffff"/>
  </g>
  <g id="axes_1">
   <g id="patch_2">
    <path d="M 43.78125 465.838125 
L 850.18125 465.838125 
L 850.18125 22.318125 
L 43.78125 22.318125 
z
" style="fill: #ffffff"/>
   </g>
   <g id="matplotlib.axis_1">
    <g id="xtick_1">
     <g id="line2d_1">
      <path d="M 74.275368 465.838125 
L 74.275368 22.318125 
" clip-path="url(#pf0471a606e)" style="fill: none; stroke: #b0b0b0; stroke-width: 0.8; stroke-linecap: square"/>
     </g>
     <g id="line2d_2">
      <defs>
       <path id="m36f43a90e7" d="M 0 0 
L 0 3.5 
" style="stroke: #000000; stroke-width: 0.8"/>
      </defs>
      <g>
       <use xlink:href="#m36f43a90e7" x="74.275368" y="465.838125" style="stroke: #000000; stroke-width: 0.8"/>
      </g>
     </g>
     <g id="text_1">
      <!-- 0 -->
      <g transform="translate(71.094118 480.436562) scale(0.1 -0.1)">
       <defs>
        <path id="DejaVuSans-30" d="M 2034 4250 
Q 1547 4250 1301 3770 
Q 1056 3291 1056 2328 
Q 1056 1369 1301 889 
Q 1547 409 2034 409 
Q 2525 409 2770 889 
Q 3016 1369 3016 2328 
Q 3016 3291 2770 3770 
Q 2525 4250 2034 4250 
z
M 2034 4750 
Q 2819 4750 3233 4129 
Q 3647 3509 3647 2328 
Q 3647 1150 3233 529 
Q 2819 -91 2034 -91 
Q 1250 -91 836 529 
Q 422 1150 422 2328 
Q 422 3509 836 4129 
Q 1250 4750 2034 4750 
z
" transform="scale(0.015625)"/>
       </defs>
       <use xlink:href="#DejaVuSans-30"/>
      </g>
     </g>
    </g>
    <g id="xtick_2">
     <g id="line2d_3">
      <path d="M 197.483924 465.838125 
L 197.483924 22.318125 
" clip-path="url(#pf0471a606e)" style="fill: none; stroke: #b0b0b0; stroke-width: 0.8; stroke-linecap: square"/>
     </g>
     <g id="line2d_4">
      <g>
       <use xlink:href="#m36f43a90e7" x="197.483924" y="465.838125" style="stroke: #000000; stroke-width: 0.8"/>
      </g>
     </g>
     <g id="text_2">
      <!-- 20 -->
      <g transform="translate(191.121424 480.436562) scale(0.1 -0.1)">
       <defs>
        <path id="DejaVuSans-32" d="M 1228 531 
L 3431 531 
L 3431 0 
L 469 0 
L 469 531 
Q 828 903 1448 1529 
Q 2069 2156 2228 2338 
Q 2531 2678 2651 2914 
Q 2772 3150 2772 3378 
Q 2772 3750 2511 3984 
Q 2250 4219 1831 4219 
Q 1534 4219 1204 4116 
Q 875 4013 500 3803 
L 500 4441 
Q 881 4594 1212 4672 
Q 1544 4750 1819 4750 
Q 2544 4750 2975 4387 
Q 3406 4025 3406 3419 
Q 3406 3131 3298 2873 
Q 3191 2616 2906 2266 
Q 2828 2175 2409 1742 
Q 1991 1309 1228 531 
z
" transform="scale(0.015625)"/>
       </defs>
       <use xlink:href="#DejaVuSans-32"/>
       <use xlink:href="#DejaVuSans-30" x="63.623047"/>
      </g>
     </g>
    </g>
    <g id="xtick_3">
     <g id="line2d_5">
      <path d="M 320.69248 465.838125 
L 320.69248 22.318125 
" clip-path="url(#pf0471a606e)" style="fill: none; stroke: #b0b0b0; stroke-width: 0.8; stroke-linecap: square"/>
     </g>
     <g id="line2d_6">
      <g>
       <use xlink:href="#m36f43a90e7" x="320.69248" y="465.838125" style="stroke: #000000; stroke-width: 0.8"/>
      </g>
     </g>
     <g id="text_3">
      <!-- 40 -->
      <g transform="translate(314.32998 480.436562) scale(0.1 -0.1)">
       <defs>
        <path id="DejaVuSans-34" d="M 2419 4116 
L 825 1625 
L 2419 1625 
L 2419 4116 
z
M 2253 4666 
L 3047 4666 
L 3047 1625 
L 3713 1625 
L 3713 1100 
L 3047 1100 
L 3047 0 
L 2419 0 
L 2419 1100 
L 313 1100 
L 313 1709 
L 2253 4666 
z
" transform="scale(0.015625)"/>
       </defs>
       <use xlink:href="#DejaVuSans-34"/>
       <use xlink:href="#DejaVuSans-30" x="63.623047"/>
      </g>
     </g>
    </g>
    <g id="xtick_4">
     <g id="line2d_7">
      <path d="M 443.901036 465.838125 
L 443.901036 22.318125 
" clip-path="url(#pf0471a606e)" style="fill: none; stroke: #b0b0b0; stroke-width: 0.8; stroke-linecap: square"/>
     </g>
     <g id="line2d_8">
      <g>
       <use xlink:href="#m36f43a90e7" x="443.901036" y="465.838125" style="stroke: #000000; stroke-width: 0.8"/>
      </g>
     </g>
     <g id="text_4">
      <!-- 60 -->
      <g transform="translate(437.538536 480.436562) scale(0.1 -0.1)">
       <defs>
        <path id="DejaVuSans-36" d="M 2113 2584 
Q 1688 2584 1439 2293 
Q 1191 2003 1191 1497 
Q 1191 994 1439 701 
Q 1688 409 2113 409 
Q 2538 409 2786 701 
Q 3034 994 3034 1497 
Q 3034 2003 2786 2293 
Q 2538 2584 2113 2584 
z
M 3366 4563 
L 3366 3988 
Q 3128 4100 2886 4159 
Q 2644 4219 2406 4219 
Q 1781 4219 1451 3797 
Q 1122 3375 1075 2522 
Q 1259 2794 1537 2939 
Q 1816 3084 2150 3084 
Q 2853 3084 3261 2657 
Q 3669 2231 3669 1497 
Q 3669 778 3244 343 
Q 2819 -91 2113 -91 
Q 1303 -91 875 529 
Q 447 1150 447 2328 
Q 447 3434 972 4092 
Q 1497 4750 2381 4750 
Q 2619 4750 2861 4703 
Q 3103 4656 3366 4563 
z
" transform="scale(0.015625)"/>
       </defs>
       <use xlink:href="#DejaVuSans-36"/>
       <use xlink:href="#DejaVuSans-30" x="63.623047"/>
      </g>
     </g>
    </g>
    <g id="xtick_5">
     <g id="line2d_9">
      <path d="M 567.109592 465.838125 
L 567.109592 22.318125 
" clip-path="url(#pf0471a606e)" style="fill: none; stroke: #b0b0b0; stroke-width: 0.8; stroke-linecap: square"/>
     </g>
     <g id="line2d_10">
      <g>
       <use xlink:href="#m36f43a90e7" x="567.109592" y="465.838125" style="stroke: #000000; stroke-width: 0.8"/>
      </g>
     </g>
     <g id="text_5">
      <!-- 80 -->
      <g transform="translate(560.747092 480.436562) scale(0.1 -0.1)">
       <defs>
        <path id="DejaVuSans-38" d="M 2034 2216 
Q 1584 2216 1326 1975 
Q 1069 1734 1069 1313 
Q 1069 891 1326 650 
Q 1584 409 2034 409 
Q 2484 409 2743 651 
Q 3003 894 3003 1313 
Q 3003 1734 2745 1975 
Q 2488 2216 2034 2216 
z
M 1403 2484 
Q 997 2584 770 2862 
Q 544 3141 544 3541 
Q 544 4100 942 4425 
Q 1341 4750 2034 4750 
Q 2731 4750 3128 4425 
Q 3525 4100 3525 3541 
Q 3525 3141 3298 2862 
Q 3072 2584 2669 2484 
Q 3125 2378 3379 2068 
Q 3634 1759 3634 1313 
Q 3634 634 3220 271 
Q 2806 -91 2034 -91 
Q 1263 -91 848 271 
Q 434 634 434 1313 
Q 434 1759 690 2068 
Q 947 2378 1403 2484 
z
M 1172 3481 
Q 1172 3119 1398 2916 
Q 1625 2713 2034 2713 
Q 2441 2713 2670 2916 
Q 2900 3119 2900 3481 
Q 2900 3844 2670 4047 
Q 2441 4250 2034 4250 
Q 1625 4250 1398 4047 
Q 1172 3844 1172 3481 
z
" transform="scale(0.015625)"/>
       </defs>
       <use xlink:href="#DejaVuSans-38"/>
       <use xlink:href="#DejaVuSans-30" x="63.623047"/>
      </g>
     </g>
    </g>
    <g id="xtick_6">
     <g id="line2d_11">
      <path d="M 690.318148 465.838125 
L 690.318148 22.318125 
" clip-path="url(#pf0471a606e)" style="fill: none; stroke: #b0b0b0; stroke-width: 0.8; stroke-linecap: square"/>
     </g>
     <g id="line2d_12">
      <g>
       <use xlink:href="#m36f43a90e7" x="690.318148" y="465.838125" style="stroke: #000000; stroke-width: 0.8"/>
      </g>
     </g>
     <g id="text_6">
      <!-- 100 -->
      <g transform="translate(680.774398 480.436562) scale(0.1 -0.1)">
       <defs>
        <path id="DejaVuSans-31" d="M 794 531 
L 1825 531 
L 1825 4091 
L 703 3866 
L 703 4441 
L 1819 4666 
L 2450 4666 
L 2450 531 
L 3481 531 
L 3481 0 
L 794 0 
L 794 531 
z
" transform="scale(0.015625)"/>
       </defs>
       <use xlink:href="#DejaVuSans-31"/>
       <use xlink:href="#DejaVuSans-30" x="63.623047"/>
       <use xlink:href="#DejaVuSans-30" x="127.246094"/>
      </g>
     </g>
    </g>
    <g id="xtick_7">
     <g id="line2d_13">
      <path d="M 813.526705 465.838125 
L 813.526705 22.318125 
" clip-path="url(#pf0471a606e)" style="fill: none; stroke: #b0b0b0; stroke-width: 0.8; stroke-linecap: square"/>
     </g>
     <g id="line2d_14">
      <g>
       <use xlink:href="#m36f43a90e7" x="813.526705" y="465.838125" style="stroke: #000000; stroke-width: 0.8"/>
      </g>
     </g>
     <g id="text_7">
      <!-- 120 -->
      <g transform="translate(803.982955 480.436562) scale(0.1 -0.1)">
       <use xlink:href="#DejaVuSans-31"/>
       <use xlink:href="#DejaVuSans-32" x="63.623047"/>
       <use xlink:href="#DejaVuSans-30" x="127.246094"/>
      </g>
     </g>
    </g>
    <g id="text_8">
     <!-- Epoch -->
     <g transform="translate(431.670312 494.114687) scale(0.1 -0.1)">
      <defs>
       <path id="DejaVuSans-45" d="M 628 4666 
L 3578 4666 
L 3578 4134 
L 1259 4134 
L 1259 2753 
L 3481 2753 
L 3481 2222 
L 1259 2222 
L 1259 531 
L 3634 531 
L 3634 0 
L 628 0 
L 628 4666 
z
" transform="scale(0.015625)"/>
       <path id="DejaVuSans-70" d="M 1159 525 
L 1159 -1331 
L 581 -1331 
L 581 3500 
L 1159 3500 
L 1159 2969 
Q 1341 3281 1617 3432 
Q 1894 3584 2278 3584 
Q 2916 3584 3314 3078 
Q 3713 2572 3713 1747 
Q 3713 922 3314 415 
Q 2916 -91 2278 -91 
Q 1894 -91 1617 61 
Q 1341 213 1159 525 
z
M 3116 1747 
Q 3116 2381 2855 2742 
Q 2594 3103 2138 3103 
Q 1681 3103 1420 2742 
Q 1159 2381 1159 1747 
Q 1159 1113 1420 752 
Q 1681 391 2138 391 
Q 2594 391 2855 752 
Q 3116 1113 3116 1747 
z
" transform="scale(0.015625)"/>
       <path id="DejaVuSans-6f" d="M 1959 3097 
Q 1497 3097 1228 2736 
Q 959 2375 959 1747 
Q 959 1119 1226 758 
Q 1494 397 1959 397 
Q 2419 397 2687 759 
Q 2956 1122 2956 1747 
Q 2956 2369 2687 2733 
Q 2419 3097 1959 3097 
z
M 1959 3584 
Q 2709 3584 3137 3096 
Q 3566 2609 3566 1747 
Q 3566 888 3137 398 
Q 2709 -91 1959 -91 
Q 1206 -91 779 398 
Q 353 888 353 1747 
Q 353 2609 779 3096 
Q 1206 3584 1959 3584 
z
" transform="scale(0.015625)"/>
       <path id="DejaVuSans-63" d="M 3122 3366 
L 3122 2828 
Q 2878 2963 2633 3030 
Q 2388 3097 2138 3097 
Q 1578 3097 1268 2742 
Q 959 2388 959 1747 
Q 959 1106 1268 751 
Q 1578 397 2138 397 
Q 2388 397 2633 464 
Q 2878 531 3122 666 
L 3122 134 
Q 2881 22 2623 -34 
Q 2366 -91 2075 -91 
Q 1284 -91 818 406 
Q 353 903 353 1747 
Q 353 2603 823 3093 
Q 1294 3584 2113 3584 
Q 2378 3584 2631 3529 
Q 2884 3475 3122 3366 
z
" transform="scale(0.015625)"/>
       <path id="DejaVuSans-68" d="M 3513 2113 
L 3513 0 
L 2938 0 
L 2938 2094 
Q 2938 2591 2744 2837 
Q 2550 3084 2163 3084 
Q 1697 3084 1428 2787 
Q 1159 2491 1159 1978 
L 1159 0 
L 581 0 
L 581 4863 
L 1159 4863 
L 1159 2956 
Q 1366 3272 1645 3428 
Q 1925 3584 2291 3584 
Q 2894 3584 3203 3211 
Q 3513 2838 3513 2113 
z
" transform="scale(0.015625)"/>
      </defs>
      <use xlink:href="#DejaVuSans-45"/>
      <use xlink:href="#DejaVuSans-70" x="63.183594"/>
      <use xlink:href="#DejaVuSans-6f" x="126.660156"/>
      <use xlink:href="#DejaVuSans-63" x="187.841797"/>
      <use xlink:href="#DejaVuSans-68" x="242.822266"/>
     </g>
    </g>
   </g>
   <g id="matplotlib.axis_2">
    <g id="ytick_1">
     <g id="line2d_15">
      <path d="M 43.78125 465.838125 
L 850.18125 465.838125 
" clip-path="url(#pf0471a606e)" style="fill: none; stroke: #b0b0b0; stroke-width: 0.8; stroke-linecap: square"/>
     </g>
     <g id="line2d_16">
      <defs>
       <path id="mbcfa644ba2" d="M 0 0 
L -3.5 0 
" style="stroke: #000000; stroke-width: 0.8"/>
      </defs>
      <g>
       <use xlink:href="#mbcfa644ba2" x="43.78125" y="465.838125" style="stroke: #000000; stroke-width: 0.8"/>
      </g>
     </g>
     <g id="text_9">
      <!-- 0.0 -->
      <g transform="translate(20.878125 469.637344) scale(0.1 -0.1)">
       <defs>
        <path id="DejaVuSans-2e" d="M 684 794 
L 1344 794 
L 1344 0 
L 684 0 
L 684 794 
z
" transform="scale(0.015625)"/>
       </defs>
       <use xlink:href="#DejaVuSans-30"/>
       <use xlink:href="#DejaVuSans-2e" x="63.623047"/>
       <use xlink:href="#DejaVuSans-30" x="95.410156"/>
      </g>
     </g>
    </g>
    <g id="ytick_2">
     <g id="line2d_17">
      <path d="M 43.78125 377.134125 
L 850.18125 377.134125 
" clip-path="url(#pf0471a606e)" style="fill: none; stroke: #b0b0b0; stroke-width: 0.8; stroke-linecap: square"/>
     </g>
     <g id="line2d_18">
      <g>
       <use xlink:href="#mbcfa644ba2" x="43.78125" y="377.134125" style="stroke: #000000; stroke-width: 0.8"/>
      </g>
     </g>
     <g id="text_10">
      <!-- 0.2 -->
      <g transform="translate(20.878125 380.933344) scale(0.1 -0.1)">
       <use xlink:href="#DejaVuSans-30"/>
       <use xlink:href="#DejaVuSans-2e" x="63.623047"/>
       <use xlink:href="#DejaVuSans-32" x="95.410156"/>
      </g>
     </g>
    </g>
    <g id="ytick_3">
     <g id="line2d_19">
      <path d="M 43.78125 288.430125 
L 850.18125 288.430125 
" clip-path="url(#pf0471a606e)" style="fill: none; stroke: #b0b0b0; stroke-width: 0.8; stroke-linecap: square"/>
     </g>
     <g id="line2d_20">
      <g>
       <use xlink:href="#mbcfa644ba2" x="43.78125" y="288.430125" style="stroke: #000000; stroke-width: 0.8"/>
      </g>
     </g>
     <g id="text_11">
      <!-- 0.4 -->
      <g transform="translate(20.878125 292.229344) scale(0.1 -0.1)">
       <use xlink:href="#DejaVuSans-30"/>
       <use xlink:href="#DejaVuSans-2e" x="63.623047"/>
       <use xlink:href="#DejaVuSans-34" x="95.410156"/>
      </g>
     </g>
    </g>
    <g id="ytick_4">
     <g id="line2d_21">
      <path d="M 43.78125 199.726125 
L 850.18125 199.726125 
" clip-path="url(#pf0471a606e)" style="fill: none; stroke: #b0b0b0; stroke-width: 0.8; stroke-linecap: square"/>
     </g>
     <g id="line2d_22">
      <g>
       <use xlink:href="#mbcfa644ba2" x="43.78125" y="199.726125" style="stroke: #000000; stroke-width: 0.8"/>
      </g>
     </g>
     <g id="text_12">
      <!-- 0.6 -->
      <g transform="translate(20.878125 203.525344) scale(0.1 -0.1)">
       <use xlink:href="#DejaVuSans-30"/>
       <use xlink:href="#DejaVuSans-2e" x="63.623047"/>
       <use xlink:href="#DejaVuSans-36" x="95.410156"/>
      </g>
     </g>
    </g>
    <g id="ytick_5">
     <g id="line2d_23">
      <path d="M 43.78125 111.022125 
L 850.18125 111.022125 
" clip-path="url(#pf0471a606e)" style="fill: none; stroke: #b0b0b0; stroke-width: 0.8; stroke-linecap: square"/>
     </g>
     <g id="line2d_24">
      <g>
       <use xlink:href="#mbcfa644ba2" x="43.78125" y="111.022125" style="stroke: #000000; stroke-width: 0.8"/>
      </g>
     </g>
     <g id="text_13">
      <!-- 0.8 -->
      <g transform="translate(20.878125 114.821344) scale(0.1 -0.1)">
       <use xlink:href="#DejaVuSans-30"/>
       <use xlink:href="#DejaVuSans-2e" x="63.623047"/>
       <use xlink:href="#DejaVuSans-38" x="95.410156"/>
      </g>
     </g>
    </g>
    <g id="ytick_6">
     <g id="line2d_25">
      <path d="M 43.78125 22.318125 
L 850.18125 22.318125 
" clip-path="url(#pf0471a606e)" style="fill: none; stroke: #b0b0b0; stroke-width: 0.8; stroke-linecap: square"/>
     </g>
     <g id="line2d_26">
      <g>
       <use xlink:href="#mbcfa644ba2" x="43.78125" y="22.318125" style="stroke: #000000; stroke-width: 0.8"/>
      </g>
     </g>
     <g id="text_14">
      <!-- 1.0 -->
      <g transform="translate(20.878125 26.117344) scale(0.1 -0.1)">
       <use xlink:href="#DejaVuSans-31"/>
       <use xlink:href="#DejaVuSans-2e" x="63.623047"/>
       <use xlink:href="#DejaVuSans-30" x="95.410156"/>
      </g>
     </g>
    </g>
    <g id="text_15">
     <!-- Loss -->
     <g transform="translate(14.798437 255.045312) rotate(-90) scale(0.1 -0.1)">
      <defs>
       <path id="DejaVuSans-4c" d="M 628 4666 
L 1259 4666 
L 1259 531 
L 3531 531 
L 3531 0 
L 628 0 
L 628 4666 
z
" transform="scale(0.015625)"/>
       <path id="DejaVuSans-73" d="M 2834 3397 
L 2834 2853 
Q 2591 2978 2328 3040 
Q 2066 3103 1784 3103 
Q 1356 3103 1142 2972 
Q 928 2841 928 2578 
Q 928 2378 1081 2264 
Q 1234 2150 1697 2047 
L 1894 2003 
Q 2506 1872 2764 1633 
Q 3022 1394 3022 966 
Q 3022 478 2636 193 
Q 2250 -91 1575 -91 
Q 1294 -91 989 -36 
Q 684 19 347 128 
L 347 722 
Q 666 556 975 473 
Q 1284 391 1588 391 
Q 1994 391 2212 530 
Q 2431 669 2431 922 
Q 2431 1156 2273 1281 
Q 2116 1406 1581 1522 
L 1381 1569 
Q 847 1681 609 1914 
Q 372 2147 372 2553 
Q 372 3047 722 3315 
Q 1072 3584 1716 3584 
Q 2034 3584 2315 3537 
Q 2597 3491 2834 3397 
z
" transform="scale(0.015625)"/>
      </defs>
      <use xlink:href="#DejaVuSans-4c"/>
      <use xlink:href="#DejaVuSans-6f" x="53.962891"/>
      <use xlink:href="#DejaVuSans-73" x="115.144531"/>
      <use xlink:href="#DejaVuSans-73" x="167.244141"/>
     </g>
    </g>
   </g>
   <g id="line2d_27">
    <path d="M 80.435795 102.7017 
L 86.596223 246.175968 
L 92.756651 346.580035 
L 98.917079 397.797721 
L 105.077507 414.935333 
L 111.237934 419.277396 
L 117.398362 423.779124 
L 123.55879 423.610585 
L 129.719218 427.305108 
L 135.879646 425.601992 
L 142.040074 429.961792 
L 148.200501 431.110509 
L 154.360929 432.489856 
L 160.521357 434.14862 
L 166.681785 433.097478 
L 172.842213 435.066707 
L 179.00264 434.436909 
L 185.163068 436.792 
L 191.323496 436.051321 
L 197.483924 438.091514 
L 203.644352 437.732264 
L 209.804779 437.284308 
L 215.965207 438.929767 
L 222.125635 438.925332 
L 228.286063 439.976475 
L 234.446491 440.446605 
L 240.606918 439.315629 
L 246.767346 440.974393 
L 252.927774 441.227201 
L 259.088202 442.602111 
L 265.24863 441.440091 
L 271.409057 441.950137 
L 277.569485 442.154158 
L 283.729913 443.453671 
L 289.890341 443.600032 
L 296.050769 442.562195 
L 302.211197 443.506893 
L 308.371624 444.45159 
L 314.532052 443.608903 
L 320.69248 443.857274 
L 326.852908 444.429415 
L 333.013336 444.917287 
L 339.173763 444.318535 
L 345.334191 445.356372 
L 351.494619 445.972864 
L 357.655047 446.837728 
L 363.815475 446.021652 
L 369.975902 446.487347 
L 376.13633 445.906337 
L 382.296758 447.547361 
L 388.457186 445.507169 
L 394.617614 447.853389 
L 400.778041 449.228301 
L 406.938469 447.995316 
L 413.098897 448.163853 
L 419.259325 446.833293 
L 425.419753 448.704947 
L 431.58018 448.483188 
L 437.740608 448.132807 
L 443.901036 446.478476 
L 450.061464 448.469883 
L 456.221892 448.106195 
L 462.38232 449.095246 
L 468.542747 448.390048 
L 474.703175 449.813747 
L 480.863603 447.662675 
L 487.024031 449.809313 
L 493.184459 450.283879 
L 499.344886 450.470156 
L 505.505314 451.512429 
L 511.665742 450.204045 
L 517.82617 451.277363 
L 523.986598 451.272929 
L 530.147025 450.102035 
L 536.307453 451.414855 
L 542.467881 451.463642 
L 548.628309 451.853939 
L 554.788737 452.217626 
L 560.949164 451.18866 
L 567.109592 452.661146 
L 573.27002 452.882906 
L 579.430448 452.19545 
L 585.590876 452.692192 
L 591.751303 453.459482 
L 597.911731 453.233287 
L 604.072159 453.982836 
L 610.232587 453.282073 
L 616.393015 452.803072 
L 622.553443 452.976045 
L 628.71387 453.508269 
L 634.874298 453.85865 
L 641.034726 454.288864 
L 647.195154 454.355392 
L 653.355582 454.058234 
L 659.516009 453.965095 
L 665.676437 453.903002 
L 671.836865 453.619149 
L 677.997293 454.470708 
L 684.157721 454.608199 
L 690.318148 454.661421 
L 696.478576 454.741255 
L 702.639004 455.308961 
L 708.799432 455.016237 
L 714.95986 454.829959 
L 721.120287 453.982836 
L 727.280715 454.603764 
L 733.441143 455.597248 
L 739.601571 455.096071 
L 745.761999 455.486368 
L 751.922426 455.091636 
L 758.082854 455.898842 
L 764.243282 456.027462 
L 770.40371 455.841184 
L 776.564138 455.756915 
L 782.724566 455.850055 
L 788.884993 455.579508 
L 795.045421 455.646035 
L 801.205849 456.661696 
L 807.366277 456.391149 
L 813.526705 456.213741 
" clip-path="url(#pf0471a606e)" style="fill: none; stroke: #1f77b4; stroke-width: 1.5; stroke-linecap: square"/>
   </g>
   <g id="line2d_28">
    <path d="M 86.286032 -1 
L 86.596223 216.788342 
L 92.756651 35.299952 
L 94.472437 -1 
M 107.408446 -1 
L 111.237934 54.060842 
L 117.398362 107.992888 
L 123.55879 155.17454 
L 129.719218 171.504944 
L 135.879646 196.297728 
L 142.040074 183.386854 
L 148.200501 191.973404 
L 154.360929 200.715185 
L 160.521357 207.137353 
L 166.681785 216.309351 
L 172.842213 216.730685 
L 179.00264 227.752162 
L 185.163068 223.671762 
L 191.323496 228.860961 
L 197.483924 226.816333 
L 203.644352 225.126527 
L 209.804779 236.312091 
L 215.965207 237.585004 
L 222.125635 240.600938 
L 228.286063 247.275898 
L 234.446491 245.164744 
L 240.606918 251.604663 
L 246.767346 248.699601 
L 252.927774 250.677703 
L 259.088202 251.276449 
L 265.24863 251.382893 
L 271.409057 253.62267 
L 277.569485 257.4813 
L 283.729913 260.559332 
L 289.890341 260.541594 
L 296.050769 262.77693 
L 302.211197 262.989818 
L 308.371624 261.49072 
L 314.532052 269.558347 
L 320.69248 268.165694 
L 326.852908 274.587861 
L 333.013336 271.948928 
L 339.173763 273.647604 
L 345.334191 275.01365 
L 351.494619 274.295137 
L 357.655047 280.162918 
L 363.815475 279.559731 
L 369.975902 280.012114 
L 376.13633 281.741839 
L 382.296758 284.695688 
L 388.457186 284.451751 
L 394.617614 287.219321 
L 400.778041 290.044533 
L 406.938469 290.337258 
L 413.098897 289.55666 
L 419.259325 288.190627 
L 425.419753 294.683761 
L 431.58018 293.464077 
L 437.740608 296.111892 
L 443.901036 288.11966 
L 450.061464 293.335453 
L 456.221892 293.01168 
L 462.38232 294.927698 
L 468.542747 293.539472 
L 474.703175 297.979109 
L 480.863603 289.459085 
L 487.024031 302.631634 
L 493.184459 299.957211 
L 499.344886 300.937387 
L 505.505314 306.139883 
L 511.665742 302.999753 
L 517.82617 305.039953 
L 523.986598 304.228307 
L 530.147025 301.882085 
L 536.307453 309.253392 
L 542.467881 306.991435 
L 548.628309 306.849514 
L 554.788737 308.321991 
L 560.949164 309.936415 
L 567.109592 317.604874 
L 573.27002 317.431904 
L 579.430448 311.222612 
L 585.590876 320.616367 
L 591.751303 320.301476 
L 597.911731 319.986573 
L 604.072159 324.315324 
L 610.232587 318.984218 
L 616.393015 315.622331 
L 622.553443 318.899953 
L 628.71387 322.425928 
L 634.874298 324.616918 
L 641.034726 325.796684 
L 647.195154 327.295782 
L 653.355582 324.869724 
L 659.516009 323.565775 
L 665.676437 322.292876 
L 671.836865 326.395443 
L 677.997293 328.754961 
L 684.157721 331.118921 
L 690.318148 330.919344 
L 696.478576 332.209982 
L 702.639004 334.702565 
L 708.799432 333.36314 
L 714.95986 332.875266 
L 721.120287 331.926127 
L 727.280715 334.80014 
L 733.441143 336.795981 
L 739.601571 335.789185 
L 745.761999 337.913649 
L 751.922426 332.9684 
L 758.082854 340.698957 
L 764.243282 341.72792 
L 770.40371 338.907135 
L 776.564138 343.187099 
L 782.724566 339.350662 
L 788.884993 340.348576 
L 795.045421 336.219402 
L 801.205849 345.005542 
L 807.366277 344.655161 
L 813.526705 341.009419 
" clip-path="url(#pf0471a606e)" style="fill: none; stroke: #ff7f0e; stroke-width: 1.5; stroke-linecap: square"/>
   </g>
   <g id="line2d_29">
    <path d="M 94.503523 -1 
L 98.917079 124.913182 
L 105.077507 176.263926 
L 111.237934 181.865577 
L 117.398362 176.778394 
L 123.55879 175.501066 
L 129.719218 177.967029 
L 135.879646 171.912981 
L 142.040074 201.797363 
L 148.200501 209.785168 
L 154.360929 215.568671 
L 160.521357 225.228517 
L 166.681785 202.538043 
L 172.842213 219.467193 
L 179.00264 208.051002 
L 185.163068 237.855548 
L 191.323496 224.447919 
L 197.483924 244.060387 
L 203.644352 240.033228 
L 209.804779 222.079531 
L 215.965207 240.379168 
L 222.125635 235.402883 
L 228.286063 241.789573 
L 234.446491 250.287404 
L 240.606918 237.633778 
L 246.767346 258.714282 
L 252.927774 260.297657 
L 259.088202 270.649408 
L 265.24863 258.652197 
L 271.409057 263.548659 
L 277.569485 258.359473 
L 283.729913 266.95932 
L 289.890341 275.430556 
L 296.050769 254.008541 
L 302.211197 273.887099 
L 308.371624 279.426666 
L 314.532052 277.315512 
L 320.69248 271.039707 
L 326.852908 274.751975 
L 333.013336 278.26021 
L 339.173763 273.798394 
L 345.334191 284.700116 
L 351.494619 299.518125 
L 357.655047 303.035243 
L 363.815475 293.002811 
L 369.975902 287.596309 
L 376.13633 291.454926 
L 382.296758 311.701616 
L 388.457186 276.889736 
L 394.617614 312.140702 
L 400.778041 319.835782 
L 406.938469 307.727686 
L 413.098897 308.690123 
L 419.259325 293.171353 
L 425.419753 312.238277 
L 431.58018 310.167041 
L 437.740608 307.018042 
L 443.901036 283.471576 
L 450.061464 309.115899 
L 456.221892 306.836203 
L 462.38232 313.125319 
L 468.542747 303.341265 
L 474.703175 326.745823 
L 480.863603 307.976051 
L 487.024031 327.623983 
L 493.184459 327.16273 
L 499.344886 330.356075 
L 505.505314 338.339425 
L 511.665742 323.11782 
L 517.82617 336.175056 
L 523.986598 336.556485 
L 530.147025 321.85379 
L 536.307453 339.324041 
L 542.467881 340.423971 
L 548.628309 343.581839 
L 554.788737 342.597223 
L 560.949164 328.160644 
L 567.109592 351.618418 
L 573.27002 352.629642 
L 579.430448 339.936097 
L 585.590876 353.188483 
L 591.751303 359.61065 
L 597.911731 359.9699 
L 604.072159 367.758113 
L 610.232587 359.109472 
L 616.393015 356.86526 
L 622.553443 360.196098 
L 628.71387 362.772946 
L 634.874298 361.624229 
L 641.034726 369.155202 
L 647.195154 367.962132 
L 653.355582 366.560609 
L 659.516009 366.463034 
L 665.676437 366.875506 
L 671.836865 367.27024 
L 677.997293 370.197475 
L 684.157721 369.651945 
L 690.318148 372.392893 
L 696.478576 371.479244 
L 702.639004 378.446941 
L 708.799432 373.985131 
L 714.95986 373.56379 
L 721.120287 372.335237 
L 727.280715 374.557276 
L 733.441143 379.84403 
L 739.601571 379.57792 
L 745.761999 381.360873 
L 751.922426 378.411464 
L 758.082854 384.642917 
L 764.243282 385.800503 
L 770.40371 384.336889 
L 776.564138 385.05983 
L 782.724566 385.330375 
L 788.884993 384.904592 
L 795.045421 384.350193 
L 801.205849 391.495301 
L 807.366277 388.967241 
L 813.526705 388.288652 
" clip-path="url(#pf0471a606e)" style="fill: none; stroke: #2ca02c; stroke-width: 1.5; stroke-linecap: square"/>
   </g>
   <g id="line2d_30">
    <path d="M 80.435795 161.445917 
L 86.596223 345.187381 
L 92.756651 374.912091 
L 98.917079 407.457586 
L 105.077507 426.511206 
L 111.237934 432.667264 
L 117.398362 423.544056 
L 123.55879 432.046335 
L 129.719218 428.462694 
L 135.879646 432.112864 
L 142.040074 437.324223 
L 148.200501 438.34432 
L 154.360929 433.305934 
L 160.521357 436.960539 
L 166.681785 435.541274 
L 172.842213 431.984244 
L 179.00264 433.190618 
L 185.163068 437.106901 
L 191.323496 433.004341 
L 197.483924 438.166912 
L 203.644352 437.687911 
L 209.804779 436.126719 
L 215.965207 437.736699 
L 222.125635 438.175783 
L 228.286063 441.067533 
L 234.446491 438.397542 
L 240.606918 438.424153 
L 246.767346 442.384787 
L 252.927774 438.770099 
L 259.088202 440.242586 
L 265.24863 438.251182 
L 271.409057 440.100659 
L 277.569485 439.652705 
L 283.729913 441.821517 
L 289.890341 437.479455 
L 296.050769 440.859078 
L 302.211197 440.069613 
L 308.371624 440.632883 
L 314.532052 438.566081 
L 320.69248 436.933928 
L 326.852908 442.256167 
L 333.013336 438.268922 
L 339.173763 433.390202 
L 345.334191 439.741409 
L 351.494619 439.719232 
L 357.655047 439.892205 
L 363.815475 438.956378 
L 369.975902 437.710088 
L 376.13633 438.242311 
L 382.296758 438.171347 
L 388.457186 434.791725 
L 394.617614 440.730458 
L 400.778041 441.732813 
L 406.938469 438.592692 
L 413.098897 437.257697 
L 419.259325 441.262681 
L 425.419753 438.23344 
L 431.58018 436.996019 
L 437.740608 436.858529 
L 443.901036 435.430395 
L 450.061464 438.051596 
L 456.221892 437.980635 
L 462.38232 437.239956 
L 468.542747 439.488603 
L 474.703175 437.980635 
L 480.863603 440.309114 
L 487.024031 442.242861 
L 493.184459 442.118676 
L 499.344886 435.904962 
L 505.505314 441.981184 
L 511.665742 438.77897 
L 517.82617 439.745843 
L 523.986598 439.714798 
L 530.147025 438.920896 
L 536.307453 439.723667 
L 542.467881 441.21833 
L 548.628309 443.582292 
L 554.788737 442.854919 
L 560.949164 442.069888 
L 567.109592 439.417639 
L 573.27002 441.595322 
L 579.430448 441.679591 
L 585.590876 439.55513 
L 591.751303 437.976198 
L 597.911731 440.127271 
L 604.072159 440.974393 
L 610.232587 443.01015 
L 616.393015 441.768295 
L 622.553443 440.850208 
L 628.71387 440.610707 
L 634.874298 439.479732 
L 641.034726 440.881255 
L 647.195154 442.77065 
L 653.355582 442.77065 
L 659.516009 441.395738 
L 665.676437 439.932122 
L 671.836865 442.766215 
L 677.997293 443.129902 
L 684.157721 440.677236 
L 690.318148 440.433299 
L 696.478576 440.823597 
L 702.639004 442.721863 
L 708.799432 438.526164 
L 714.95986 439.76802 
L 721.120287 441.590887 
L 727.280715 441.763859 
L 733.441143 441.395738 
L 739.601571 443.440364 
L 745.761999 440.921171 
L 751.922426 439.067258 
L 758.082854 441.480007 
L 764.243282 439.297888 
L 770.40371 441.373561 
L 776.564138 439.697056 
L 782.724566 441.67072 
L 788.884993 437.089159 
L 795.045421 441.888044 
L 801.205849 439.515214 
L 807.366277 439.728103 
L 813.526705 440.433299 
" clip-path="url(#pf0471a606e)" style="fill: none; stroke: #d62728; stroke-width: 1.5; stroke-linecap: square"/>
   </g>
   <g id="line2d_31">
    <path d="M 80.435795 215.382378 
L 85.93779 -1 
M 108.477301 -1 
L 111.237934 16.565684 
L 117.398362 119.373602 
L 123.55879 139.873098 
L 129.719218 194.022447 
L 135.879646 160.212922 
L 142.040074 141.580643 
L 148.200501 150.699426 
L 154.360929 169.597808 
L 160.521357 179.940703 
L 166.681785 159.866983 
L 172.842213 168.950262 
L 179.00264 185.205271 
L 185.163068 173.83344 
L 191.323496 211.035874 
L 197.483924 161.405999 
L 203.644352 168.165249 
L 209.804779 209.847239 
L 215.965207 177.319483 
L 222.125635 173.017339 
L 228.286063 179.448388 
L 234.446491 191.600844 
L 240.606918 198.009714 
L 246.767346 164.63038 
L 252.927774 178.534739 
L 259.088202 182.28247 
L 265.24863 185.932653 
L 271.409057 176.179648 
L 277.569485 190.762589 
L 283.729913 170.183257 
L 289.890341 202.524746 
L 296.050769 178.858499 
L 302.211197 175.629677 
L 308.371624 178.485965 
L 314.532052 188.970767 
L 320.69248 188.930849 
L 326.852908 182.273614 
L 333.013336 190.54526 
L 339.173763 205.483023 
L 345.334191 184.127534 
L 351.494619 195.659038 
L 357.655047 186.606794 
L 363.815475 195.126831 
L 369.975902 202.786408 
L 376.13633 195.534869 
L 382.296758 203.85973 
L 388.457186 207.771575 
L 394.617614 200.382543 
L 400.778041 184.012221 
L 406.938469 197.832303 
L 413.098897 195.051436 
L 419.259325 193.46362 
L 425.419753 191.685095 
L 431.58018 203.376298 
L 437.740608 193.889396 
L 443.901036 203.815371 
L 450.061464 192.922531 
L 456.221892 199.695079 
L 462.38232 189.307851 
L 468.542747 194.621219 
L 474.703175 195.716694 
L 480.863603 188.948588 
L 487.024031 186.061264 
L 493.184459 192.634248 
L 499.344886 193.499097 
L 505.505314 186.154424 
L 511.665742 202.174365 
L 517.82617 193.618851 
L 523.986598 200.231727 
L 530.147025 196.200153 
L 536.307453 186.673333 
L 542.467881 180.610403 
L 548.628309 184.18075 
L 554.788737 186.220936 
L 560.949164 188.261123 
L 567.109592 190.110602 
L 573.27002 182.646175 
L 579.430448 187.480525 
L 585.590876 188.890931 
L 591.751303 196.067075 
L 597.911731 181.249093 
L 604.072159 189.43202 
L 610.232587 184.859331 
L 616.393015 186.784205 
L 622.553443 183.196146 
L 628.71387 186.801944 
L 634.874298 189.866678 
L 641.034726 193.468061 
L 647.195154 187.241043 
L 653.355582 187.272079 
L 659.516009 192.931387 
L 665.676437 196.027157 
L 671.836865 192.217328 
L 677.997293 187.861968 
L 684.157721 192.523349 
L 690.318148 183.994483 
L 696.478576 188.7357 
L 702.639004 178.361769 
L 708.799432 190.651717 
L 714.95986 186.349573 
L 721.120287 174.254774 
L 727.280715 184.003339 
L 733.441143 189.494118 
L 739.601571 187.746655 
L 745.761999 185.063363 
L 751.922426 193.06888 
L 758.082854 185.081102 
L 764.243282 192.683022 
L 770.40371 176.188531 
L 776.564138 188.536109 
L 782.724566 186.90396 
L 788.884993 194.053509 
L 795.045421 179.65242 
L 801.205849 194.217597 
L 807.366277 187.82205 
L 813.526705 186.172162 
" clip-path="url(#pf0471a606e)" style="fill: none; stroke: #9467bd; stroke-width: 1.5; stroke-linecap: square"/>
   </g>
   <g id="line2d_32">
    <path d="M 88.000866 -1 
L 92.756651 87.755054 
L 98.917079 138.524791 
L 105.077507 209.035605 
L 111.237934 242.672161 
L 117.398362 184.761757 
L 123.55879 204.72902 
L 129.719218 138.240949 
L 135.879646 211.883011 
L 142.040074 269.802284 
L 148.200501 264.466736 
L 154.360929 205.957573 
L 160.521357 251.928423 
L 166.681785 253.387616 
L 172.842213 205.052806 
L 179.00264 192.274984 
L 185.163068 272.81379 
L 191.323496 203.527088 
L 197.483924 279.701652 
L 203.644352 270.032911 
L 209.804779 239.394564 
L 215.965207 275.053568 
L 222.125635 270.507487 
L 228.286063 290.119942 
L 234.446491 284.766655 
L 240.606918 263.34464 
L 246.767346 303.390052 
L 252.927774 274.286267 
L 259.088202 280.295969 
L 265.24863 245.932045 
L 271.409057 277.253427 
L 277.569485 267.651212 
L 283.729913 291.836355 
L 289.890341 239.234892 
L 296.050769 277.577187 
L 302.211197 281.475735 
L 308.371624 280.180656 
L 314.532052 281.697492 
L 320.69248 264.174012 
L 326.852908 301.890954 
L 333.013336 231.025344 
L 339.173763 200.706303 
L 345.334191 288.776075 
L 351.494619 295.176063 
L 357.655047 299.252008 
L 363.815475 288.727288 
L 369.975902 256.665226 
L 376.13633 263.127311 
L 382.296758 275.466033 
L 388.457186 217.928177 
L 394.617614 293.153614 
L 400.778041 296.111892 
L 406.938469 293.668096 
L 413.098897 259.499321 
L 419.259325 305.465729 
L 425.419753 302.644944 
L 431.58018 273.394798 
L 437.740608 278.819051 
L 443.901036 258.687674 
L 450.061464 272.002144 
L 456.221892 280.863679 
L 462.38232 271.310251 
L 468.542747 280.25161 
L 474.703175 293.55721 
L 480.863603 304.410146 
L 487.024031 294.648271 
L 493.184459 310.481945 
L 499.344886 290.887229 
L 505.505314 301.008354 
L 511.665742 306.587838 
L 517.82617 304.88915 
L 523.986598 298.835102 
L 530.147025 303.008622 
L 536.307453 294.954306 
L 542.467881 305.443549 
L 548.628309 311.102871 
L 554.788737 307.208764 
L 560.949164 308.579238 
L 567.109592 307.106748 
L 573.27002 310.677095 
L 579.430448 307.470439 
L 585.590876 307.457129 
L 591.751303 299.7798 
L 597.911731 302.973145 
L 604.072159 311.329069 
L 610.232587 310.717 
L 616.393015 309.865448 
L 622.553443 310.273485 
L 628.71387 303.563022 
L 634.874298 307.159976 
L 641.034726 309.963023 
L 647.195154 309.519495 
L 653.355582 305.940292 
L 659.516009 307.638981 
L 665.676437 309.568283 
L 671.836865 308.282086 
L 677.997293 309.829971 
L 684.157721 306.570087 
L 690.318148 305.115348 
L 696.478576 306.250755 
L 702.639004 309.111458 
L 708.799432 301.655887 
L 714.95986 308.166759 
L 721.120287 309.475149 
L 727.280715 313.839391 
L 733.441143 310.823444 
L 739.601571 314.216379 
L 745.761999 311.306889 
L 751.922426 303.163854 
L 758.082854 311.985471 
L 764.243282 302.755816 
L 770.40371 308.951798 
L 776.564138 308.437317 
L 782.724566 310.34888 
L 788.884993 301.478489 
L 795.045421 309.191294 
L 801.205849 302.108283 
L 807.366277 305.399203 
L 813.526705 308.432876 
" clip-path="url(#pf0471a606e)" style="fill: none; stroke: #8c564b; stroke-width: 1.5; stroke-linecap: square"/>
   </g>
   <g id="patch_3">
    <path d="M 43.78125 465.838125 
L 43.78125 22.318125 
" style="fill: none; stroke: #000000; stroke-width: 0.8; stroke-linejoin: miter; stroke-linecap: square"/>
   </g>
   <g id="patch_4">
    <path d="M 850.18125 465.838125 
L 850.18125 22.318125 
" style="fill: none; stroke: #000000; stroke-width: 0.8; stroke-linejoin: miter; stroke-linecap: square"/>
   </g>
   <g id="patch_5">
    <path d="M 43.78125 465.838125 
L 850.18125 465.838125 
" style="fill: none; stroke: #000000; stroke-width: 0.8; stroke-linejoin: miter; stroke-linecap: square"/>
   </g>
   <g id="patch_6">
    <path d="M 43.78125 22.318125 
L 850.18125 22.318125 
" style="fill: none; stroke: #000000; stroke-width: 0.8; stroke-linejoin: miter; stroke-linecap: square"/>
   </g>
   <g id="text_16">
    <!-- Training Metrics over Epochs -->
    <g transform="translate(360.930938 16.318125) scale(0.12 -0.12)">
     <defs>
      <path id="DejaVuSans-54" d="M -19 4666 
L 3928 4666 
L 3928 4134 
L 2272 4134 
L 2272 0 
L 1638 0 
L 1638 4134 
L -19 4134 
L -19 4666 
z
" transform="scale(0.015625)"/>
      <path id="DejaVuSans-72" d="M 2631 2963 
Q 2534 3019 2420 3045 
Q 2306 3072 2169 3072 
Q 1681 3072 1420 2755 
Q 1159 2438 1159 1844 
L 1159 0 
L 581 0 
L 581 3500 
L 1159 3500 
L 1159 2956 
Q 1341 3275 1631 3429 
Q 1922 3584 2338 3584 
Q 2397 3584 2469 3576 
Q 2541 3569 2628 3553 
L 2631 2963 
z
" transform="scale(0.015625)"/>
      <path id="DejaVuSans-61" d="M 2194 1759 
Q 1497 1759 1228 1600 
Q 959 1441 959 1056 
Q 959 750 1161 570 
Q 1363 391 1709 391 
Q 2188 391 2477 730 
Q 2766 1069 2766 1631 
L 2766 1759 
L 2194 1759 
z
M 3341 1997 
L 3341 0 
L 2766 0 
L 2766 531 
Q 2569 213 2275 61 
Q 1981 -91 1556 -91 
Q 1019 -91 701 211 
Q 384 513 384 1019 
Q 384 1609 779 1909 
Q 1175 2209 1959 2209 
L 2766 2209 
L 2766 2266 
Q 2766 2663 2505 2880 
Q 2244 3097 1772 3097 
Q 1472 3097 1187 3025 
Q 903 2953 641 2809 
L 641 3341 
Q 956 3463 1253 3523 
Q 1550 3584 1831 3584 
Q 2591 3584 2966 3190 
Q 3341 2797 3341 1997 
z
" transform="scale(0.015625)"/>
      <path id="DejaVuSans-69" d="M 603 3500 
L 1178 3500 
L 1178 0 
L 603 0 
L 603 3500 
z
M 603 4863 
L 1178 4863 
L 1178 4134 
L 603 4134 
L 603 4863 
z
" transform="scale(0.015625)"/>
      <path id="DejaVuSans-6e" d="M 3513 2113 
L 3513 0 
L 2938 0 
L 2938 2094 
Q 2938 2591 2744 2837 
Q 2550 3084 2163 3084 
Q 1697 3084 1428 2787 
Q 1159 2491 1159 1978 
L 1159 0 
L 581 0 
L 581 3500 
L 1159 3500 
L 1159 2956 
Q 1366 3272 1645 3428 
Q 1925 3584 2291 3584 
Q 2894 3584 3203 3211 
Q 3513 2838 3513 2113 
z
" transform="scale(0.015625)"/>
      <path id="DejaVuSans-67" d="M 2906 1791 
Q 2906 2416 2648 2759 
Q 2391 3103 1925 3103 
Q 1463 3103 1205 2759 
Q 947 2416 947 1791 
Q 947 1169 1205 825 
Q 1463 481 1925 481 
Q 2391 481 2648 825 
Q 2906 1169 2906 1791 
z
M 3481 434 
Q 3481 -459 3084 -895 
Q 2688 -1331 1869 -1331 
Q 1566 -1331 1297 -1286 
Q 1028 -1241 775 -1147 
L 775 -588 
Q 1028 -725 1275 -790 
Q 1522 -856 1778 -856 
Q 2344 -856 2625 -561 
Q 2906 -266 2906 331 
L 2906 616 
Q 2728 306 2450 153 
Q 2172 0 1784 0 
Q 1141 0 747 490 
Q 353 981 353 1791 
Q 353 2603 747 3093 
Q 1141 3584 1784 3584 
Q 2172 3584 2450 3431 
Q 2728 3278 2906 2969 
L 2906 3500 
L 3481 3500 
L 3481 434 
z
" transform="scale(0.015625)"/>
      <path id="DejaVuSans-20" transform="scale(0.015625)"/>
      <path id="DejaVuSans-4d" d="M 628 4666 
L 1569 4666 
L 2759 1491 
L 3956 4666 
L 4897 4666 
L 4897 0 
L 4281 0 
L 4281 4097 
L 3078 897 
L 2444 897 
L 1241 4097 
L 1241 0 
L 628 0 
L 628 4666 
z
" transform="scale(0.015625)"/>
      <path id="DejaVuSans-65" d="M 3597 1894 
L 3597 1613 
L 953 1613 
Q 991 1019 1311 708 
Q 1631 397 2203 397 
Q 2534 397 2845 478 
Q 3156 559 3463 722 
L 3463 178 
Q 3153 47 2828 -22 
Q 2503 -91 2169 -91 
Q 1331 -91 842 396 
Q 353 884 353 1716 
Q 353 2575 817 3079 
Q 1281 3584 2069 3584 
Q 2775 3584 3186 3129 
Q 3597 2675 3597 1894 
z
M 3022 2063 
Q 3016 2534 2758 2815 
Q 2500 3097 2075 3097 
Q 1594 3097 1305 2825 
Q 1016 2553 972 2059 
L 3022 2063 
z
" transform="scale(0.015625)"/>
      <path id="DejaVuSans-74" d="M 1172 4494 
L 1172 3500 
L 2356 3500 
L 2356 3053 
L 1172 3053 
L 1172 1153 
Q 1172 725 1289 603 
Q 1406 481 1766 481 
L 2356 481 
L 2356 0 
L 1766 0 
Q 1100 0 847 248 
Q 594 497 594 1153 
L 594 3053 
L 172 3053 
L 172 3500 
L 594 3500 
L 594 4494 
L 1172 4494 
z
" transform="scale(0.015625)"/>
      <path id="DejaVuSans-76" d="M 191 3500 
L 800 3500 
L 1894 563 
L 2988 3500 
L 3597 3500 
L 2284 0 
L 1503 0 
L 191 3500 
z
" transform="scale(0.015625)"/>
     </defs>
     <use xlink:href="#DejaVuSans-54"/>
     <use xlink:href="#DejaVuSans-72" x="46.333984"/>
     <use xlink:href="#DejaVuSans-61" x="87.447266"/>
     <use xlink:href="#DejaVuSans-69" x="148.726562"/>
     <use xlink:href="#DejaVuSans-6e" x="176.509766"/>
     <use xlink:href="#DejaVuSans-69" x="239.888672"/>
     <use xlink:href="#DejaVuSans-6e" x="267.671875"/>
     <use xlink:href="#DejaVuSans-67" x="331.050781"/>
     <use xlink:href="#DejaVuSans-20" x="394.527344"/>
     <use xlink:href="#DejaVuSans-4d" x="426.314453"/>
     <use xlink:href="#DejaVuSans-65" x="512.59375"/>
     <use xlink:href="#DejaVuSans-74" x="574.117188"/>
     <use xlink:href="#DejaVuSans-72" x="613.326172"/>
     <use xlink:href="#DejaVuSans-69" x="654.439453"/>
     <use xlink:href="#DejaVuSans-63" x="682.222656"/>
     <use xlink:href="#DejaVuSans-73" x="737.203125"/>
     <use xlink:href="#DejaVuSans-20" x="789.302734"/>
     <use xlink:href="#DejaVuSans-6f" x="821.089844"/>
     <use xlink:href="#DejaVuSans-76" x="882.271484"/>
     <use xlink:href="#DejaVuSans-65" x="941.451172"/>
     <use xlink:href="#DejaVuSans-72" x="1002.974609"/>
     <use xlink:href="#DejaVuSans-20" x="1044.087891"/>
     <use xlink:href="#DejaVuSans-45" x="1075.875"/>
     <use xlink:href="#DejaVuSans-70" x="1139.058594"/>
     <use xlink:href="#DejaVuSans-6f" x="1202.535156"/>
     <use xlink:href="#DejaVuSans-63" x="1263.716797"/>
     <use xlink:href="#DejaVuSans-68" x="1318.697266"/>
     <use xlink:href="#DejaVuSans-73" x="1382.076172"/>
    </g>
   </g>
   <g id="legend_1">
    <g id="patch_7">
     <path d="M 873.30925 118.386875 
L 1051.93425 118.386875 
Q 1053.93425 118.386875 1053.93425 116.386875 
L 1053.93425 29.318125 
Q 1053.93425 27.318125 1051.93425 27.318125 
L 873.30925 27.318125 
Q 871.30925 27.318125 871.30925 29.318125 
L 871.30925 116.386875 
Q 871.30925 118.386875 873.30925 118.386875 
z
" style="fill: #ffffff; opacity: 0.8; stroke: #cccccc; stroke-linejoin: miter"/>
    </g>
    <g id="line2d_33">
     <path d="M 875.30925 35.416562 
L 885.30925 35.416562 
L 895.30925 35.416562 
" style="fill: none; stroke: #1f77b4; stroke-width: 1.5; stroke-linecap: square"/>
    </g>
    <g id="text_17">
     <!-- Traini Box Regression L1 Loss -->
     <g transform="translate(903.30925 38.916562) scale(0.1 -0.1)">
      <defs>
       <path id="DejaVuSans-42" d="M 1259 2228 
L 1259 519 
L 2272 519 
Q 2781 519 3026 730 
Q 3272 941 3272 1375 
Q 3272 1813 3026 2020 
Q 2781 2228 2272 2228 
L 1259 2228 
z
M 1259 4147 
L 1259 2741 
L 2194 2741 
Q 2656 2741 2882 2914 
Q 3109 3088 3109 3444 
Q 3109 3797 2882 3972 
Q 2656 4147 2194 4147 
L 1259 4147 
z
M 628 4666 
L 2241 4666 
Q 2963 4666 3353 4366 
Q 3744 4066 3744 3513 
Q 3744 3084 3544 2831 
Q 3344 2578 2956 2516 
Q 3422 2416 3680 2098 
Q 3938 1781 3938 1306 
Q 3938 681 3513 340 
Q 3088 0 2303 0 
L 628 0 
L 628 4666 
z
" transform="scale(0.015625)"/>
       <path id="DejaVuSans-78" d="M 3513 3500 
L 2247 1797 
L 3578 0 
L 2900 0 
L 1881 1375 
L 863 0 
L 184 0 
L 1544 1831 
L 300 3500 
L 978 3500 
L 1906 2253 
L 2834 3500 
L 3513 3500 
z
" transform="scale(0.015625)"/>
       <path id="DejaVuSans-52" d="M 2841 2188 
Q 3044 2119 3236 1894 
Q 3428 1669 3622 1275 
L 4263 0 
L 3584 0 
L 2988 1197 
Q 2756 1666 2539 1819 
Q 2322 1972 1947 1972 
L 1259 1972 
L 1259 0 
L 628 0 
L 628 4666 
L 2053 4666 
Q 2853 4666 3247 4331 
Q 3641 3997 3641 3322 
Q 3641 2881 3436 2590 
Q 3231 2300 2841 2188 
z
M 1259 4147 
L 1259 2491 
L 2053 2491 
Q 2509 2491 2742 2702 
Q 2975 2913 2975 3322 
Q 2975 3731 2742 3939 
Q 2509 4147 2053 4147 
L 1259 4147 
z
" transform="scale(0.015625)"/>
      </defs>
      <use xlink:href="#DejaVuSans-54"/>
      <use xlink:href="#DejaVuSans-72" x="46.333984"/>
      <use xlink:href="#DejaVuSans-61" x="87.447266"/>
      <use xlink:href="#DejaVuSans-69" x="148.726562"/>
      <use xlink:href="#DejaVuSans-6e" x="176.509766"/>
      <use xlink:href="#DejaVuSans-69" x="239.888672"/>
      <use xlink:href="#DejaVuSans-20" x="267.671875"/>
      <use xlink:href="#DejaVuSans-42" x="299.458984"/>
      <use xlink:href="#DejaVuSans-6f" x="368.0625"/>
      <use xlink:href="#DejaVuSans-78" x="426.119141"/>
      <use xlink:href="#DejaVuSans-20" x="485.298828"/>
      <use xlink:href="#DejaVuSans-52" x="517.085938"/>
      <use xlink:href="#DejaVuSans-65" x="582.068359"/>
      <use xlink:href="#DejaVuSans-67" x="643.591797"/>
      <use xlink:href="#DejaVuSans-72" x="707.068359"/>
      <use xlink:href="#DejaVuSans-65" x="745.931641"/>
      <use xlink:href="#DejaVuSans-73" x="807.455078"/>
      <use xlink:href="#DejaVuSans-73" x="859.554688"/>
      <use xlink:href="#DejaVuSans-69" x="911.654297"/>
      <use xlink:href="#DejaVuSans-6f" x="939.4375"/>
      <use xlink:href="#DejaVuSans-6e" x="1000.619141"/>
      <use xlink:href="#DejaVuSans-20" x="1063.998047"/>
      <use xlink:href="#DejaVuSans-4c" x="1095.785156"/>
      <use xlink:href="#DejaVuSans-31" x="1151.498047"/>
      <use xlink:href="#DejaVuSans-20" x="1215.121094"/>
      <use xlink:href="#DejaVuSans-4c" x="1246.908203"/>
      <use xlink:href="#DejaVuSans-6f" x="1300.871094"/>
      <use xlink:href="#DejaVuSans-73" x="1362.052734"/>
      <use xlink:href="#DejaVuSans-73" x="1414.152344"/>
     </g>
    </g>
    <g id="line2d_34">
     <path d="M 875.30925 50.094688 
L 885.30925 50.094688 
L 895.30925 50.094688 
" style="fill: none; stroke: #ff7f0e; stroke-width: 1.5; stroke-linecap: square"/>
    </g>
    <g id="text_18">
     <!-- Train Classification Loss -->
     <g transform="translate(903.30925 53.594688) scale(0.1 -0.1)">
      <defs>
       <path id="DejaVuSans-43" d="M 4122 4306 
L 4122 3641 
Q 3803 3938 3442 4084 
Q 3081 4231 2675 4231 
Q 1875 4231 1450 3742 
Q 1025 3253 1025 2328 
Q 1025 1406 1450 917 
Q 1875 428 2675 428 
Q 3081 428 3442 575 
Q 3803 722 4122 1019 
L 4122 359 
Q 3791 134 3420 21 
Q 3050 -91 2638 -91 
Q 1578 -91 968 557 
Q 359 1206 359 2328 
Q 359 3453 968 4101 
Q 1578 4750 2638 4750 
Q 3056 4750 3426 4639 
Q 3797 4528 4122 4306 
z
" transform="scale(0.015625)"/>
       <path id="DejaVuSans-6c" d="M 603 4863 
L 1178 4863 
L 1178 0 
L 603 0 
L 603 4863 
z
" transform="scale(0.015625)"/>
       <path id="DejaVuSans-66" d="M 2375 4863 
L 2375 4384 
L 1825 4384 
Q 1516 4384 1395 4259 
Q 1275 4134 1275 3809 
L 1275 3500 
L 2222 3500 
L 2222 3053 
L 1275 3053 
L 1275 0 
L 697 0 
L 697 3053 
L 147 3053 
L 147 3500 
L 697 3500 
L 697 3744 
Q 697 4328 969 4595 
Q 1241 4863 1831 4863 
L 2375 4863 
z
" transform="scale(0.015625)"/>
      </defs>
      <use xlink:href="#DejaVuSans-54"/>
      <use xlink:href="#DejaVuSans-72" x="46.333984"/>
      <use xlink:href="#DejaVuSans-61" x="87.447266"/>
      <use xlink:href="#DejaVuSans-69" x="148.726562"/>
      <use xlink:href="#DejaVuSans-6e" x="176.509766"/>
      <use xlink:href="#DejaVuSans-20" x="239.888672"/>
      <use xlink:href="#DejaVuSans-43" x="271.675781"/>
      <use xlink:href="#DejaVuSans-6c" x="341.5"/>
      <use xlink:href="#DejaVuSans-61" x="369.283203"/>
      <use xlink:href="#DejaVuSans-73" x="430.5625"/>
      <use xlink:href="#DejaVuSans-73" x="482.662109"/>
      <use xlink:href="#DejaVuSans-69" x="534.761719"/>
      <use xlink:href="#DejaVuSans-66" x="562.544922"/>
      <use xlink:href="#DejaVuSans-69" x="597.75"/>
      <use xlink:href="#DejaVuSans-63" x="625.533203"/>
      <use xlink:href="#DejaVuSans-61" x="680.513672"/>
      <use xlink:href="#DejaVuSans-74" x="741.792969"/>
      <use xlink:href="#DejaVuSans-69" x="781.001953"/>
      <use xlink:href="#DejaVuSans-6f" x="808.785156"/>
      <use xlink:href="#DejaVuSans-6e" x="869.966797"/>
      <use xlink:href="#DejaVuSans-20" x="933.345703"/>
      <use xlink:href="#DejaVuSans-4c" x="965.132812"/>
      <use xlink:href="#DejaVuSans-6f" x="1019.095703"/>
      <use xlink:href="#DejaVuSans-73" x="1080.277344"/>
      <use xlink:href="#DejaVuSans-73" x="1132.376953"/>
     </g>
    </g>
    <g id="line2d_35">
     <path d="M 875.30925 64.772812 
L 885.30925 64.772812 
L 895.30925 64.772812 
" style="fill: none; stroke: #2ca02c; stroke-width: 1.5; stroke-linecap: square"/>
    </g>
    <g id="text_19">
     <!-- Train Generalized IoU Loss -->
     <g transform="translate(903.30925 68.272812) scale(0.1 -0.1)">
      <defs>
       <path id="DejaVuSans-47" d="M 3809 666 
L 3809 1919 
L 2778 1919 
L 2778 2438 
L 4434 2438 
L 4434 434 
Q 4069 175 3628 42 
Q 3188 -91 2688 -91 
Q 1594 -91 976 548 
Q 359 1188 359 2328 
Q 359 3472 976 4111 
Q 1594 4750 2688 4750 
Q 3144 4750 3555 4637 
Q 3966 4525 4313 4306 
L 4313 3634 
Q 3963 3931 3569 4081 
Q 3175 4231 2741 4231 
Q 1884 4231 1454 3753 
Q 1025 3275 1025 2328 
Q 1025 1384 1454 906 
Q 1884 428 2741 428 
Q 3075 428 3337 486 
Q 3600 544 3809 666 
z
" transform="scale(0.015625)"/>
       <path id="DejaVuSans-7a" d="M 353 3500 
L 3084 3500 
L 3084 2975 
L 922 459 
L 3084 459 
L 3084 0 
L 275 0 
L 275 525 
L 2438 3041 
L 353 3041 
L 353 3500 
z
" transform="scale(0.015625)"/>
       <path id="DejaVuSans-64" d="M 2906 2969 
L 2906 4863 
L 3481 4863 
L 3481 0 
L 2906 0 
L 2906 525 
Q 2725 213 2448 61 
Q 2172 -91 1784 -91 
Q 1150 -91 751 415 
Q 353 922 353 1747 
Q 353 2572 751 3078 
Q 1150 3584 1784 3584 
Q 2172 3584 2448 3432 
Q 2725 3281 2906 2969 
z
M 947 1747 
Q 947 1113 1208 752 
Q 1469 391 1925 391 
Q 2381 391 2643 752 
Q 2906 1113 2906 1747 
Q 2906 2381 2643 2742 
Q 2381 3103 1925 3103 
Q 1469 3103 1208 2742 
Q 947 2381 947 1747 
z
" transform="scale(0.015625)"/>
       <path id="DejaVuSans-49" d="M 628 4666 
L 1259 4666 
L 1259 0 
L 628 0 
L 628 4666 
z
" transform="scale(0.015625)"/>
       <path id="DejaVuSans-55" d="M 556 4666 
L 1191 4666 
L 1191 1831 
Q 1191 1081 1462 751 
Q 1734 422 2344 422 
Q 2950 422 3222 751 
Q 3494 1081 3494 1831 
L 3494 4666 
L 4128 4666 
L 4128 1753 
Q 4128 841 3676 375 
Q 3225 -91 2344 -91 
Q 1459 -91 1007 375 
Q 556 841 556 1753 
L 556 4666 
z
" transform="scale(0.015625)"/>
      </defs>
      <use xlink:href="#DejaVuSans-54"/>
      <use xlink:href="#DejaVuSans-72" x="46.333984"/>
      <use xlink:href="#DejaVuSans-61" x="87.447266"/>
      <use xlink:href="#DejaVuSans-69" x="148.726562"/>
      <use xlink:href="#DejaVuSans-6e" x="176.509766"/>
      <use xlink:href="#DejaVuSans-20" x="239.888672"/>
      <use xlink:href="#DejaVuSans-47" x="271.675781"/>
      <use xlink:href="#DejaVuSans-65" x="349.166016"/>
      <use xlink:href="#DejaVuSans-6e" x="410.689453"/>
      <use xlink:href="#DejaVuSans-65" x="474.068359"/>
      <use xlink:href="#DejaVuSans-72" x="535.591797"/>
      <use xlink:href="#DejaVuSans-61" x="576.705078"/>
      <use xlink:href="#DejaVuSans-6c" x="637.984375"/>
      <use xlink:href="#DejaVuSans-69" x="665.767578"/>
      <use xlink:href="#DejaVuSans-7a" x="693.550781"/>
      <use xlink:href="#DejaVuSans-65" x="746.041016"/>
      <use xlink:href="#DejaVuSans-64" x="807.564453"/>
      <use xlink:href="#DejaVuSans-20" x="871.041016"/>
      <use xlink:href="#DejaVuSans-49" x="902.828125"/>
      <use xlink:href="#DejaVuSans-6f" x="932.320312"/>
      <use xlink:href="#DejaVuSans-55" x="993.501953"/>
      <use xlink:href="#DejaVuSans-20" x="1066.695312"/>
      <use xlink:href="#DejaVuSans-4c" x="1098.482422"/>
      <use xlink:href="#DejaVuSans-6f" x="1152.445312"/>
      <use xlink:href="#DejaVuSans-73" x="1213.626953"/>
      <use xlink:href="#DejaVuSans-73" x="1265.726562"/>
     </g>
    </g>
    <g id="line2d_36">
     <path d="M 875.30925 79.450938 
L 885.30925 79.450938 
L 895.30925 79.450938 
" style="fill: none; stroke: #d62728; stroke-width: 1.5; stroke-linecap: square"/>
    </g>
    <g id="text_20">
     <!-- Val Box Regression L1 Loss -->
     <g transform="translate(903.30925 82.950938) scale(0.1 -0.1)">
      <defs>
       <path id="DejaVuSans-56" d="M 1831 0 
L 50 4666 
L 709 4666 
L 2188 738 
L 3669 4666 
L 4325 4666 
L 2547 0 
L 1831 0 
z
" transform="scale(0.015625)"/>
      </defs>
      <use xlink:href="#DejaVuSans-56"/>
      <use xlink:href="#DejaVuSans-61" x="60.658203"/>
      <use xlink:href="#DejaVuSans-6c" x="121.9375"/>
      <use xlink:href="#DejaVuSans-20" x="149.720703"/>
      <use xlink:href="#DejaVuSans-42" x="181.507812"/>
      <use xlink:href="#DejaVuSans-6f" x="250.111328"/>
      <use xlink:href="#DejaVuSans-78" x="308.167969"/>
      <use xlink:href="#DejaVuSans-20" x="367.347656"/>
      <use xlink:href="#DejaVuSans-52" x="399.134766"/>
      <use xlink:href="#DejaVuSans-65" x="464.117188"/>
      <use xlink:href="#DejaVuSans-67" x="525.640625"/>
      <use xlink:href="#DejaVuSans-72" x="589.117188"/>
      <use xlink:href="#DejaVuSans-65" x="627.980469"/>
      <use xlink:href="#DejaVuSans-73" x="689.503906"/>
      <use xlink:href="#DejaVuSans-73" x="741.603516"/>
      <use xlink:href="#DejaVuSans-69" x="793.703125"/>
      <use xlink:href="#DejaVuSans-6f" x="821.486328"/>
      <use xlink:href="#DejaVuSans-6e" x="882.667969"/>
      <use xlink:href="#DejaVuSans-20" x="946.046875"/>
      <use xlink:href="#DejaVuSans-4c" x="977.833984"/>
      <use xlink:href="#DejaVuSans-31" x="1033.546875"/>
      <use xlink:href="#DejaVuSans-20" x="1097.169922"/>
      <use xlink:href="#DejaVuSans-4c" x="1128.957031"/>
      <use xlink:href="#DejaVuSans-6f" x="1182.919922"/>
      <use xlink:href="#DejaVuSans-73" x="1244.101562"/>
      <use xlink:href="#DejaVuSans-73" x="1296.201172"/>
     </g>
    </g>
    <g id="line2d_37">
     <path d="M 875.30925 94.129062 
L 885.30925 94.129062 
L 895.30925 94.129062 
" style="fill: none; stroke: #9467bd; stroke-width: 1.5; stroke-linecap: square"/>
    </g>
    <g id="text_21">
     <!-- Val Classification Loss -->
     <g transform="translate(903.30925 97.629062) scale(0.1 -0.1)">
      <use xlink:href="#DejaVuSans-56"/>
      <use xlink:href="#DejaVuSans-61" x="60.658203"/>
      <use xlink:href="#DejaVuSans-6c" x="121.9375"/>
      <use xlink:href="#DejaVuSans-20" x="149.720703"/>
      <use xlink:href="#DejaVuSans-43" x="181.507812"/>
      <use xlink:href="#DejaVuSans-6c" x="251.332031"/>
      <use xlink:href="#DejaVuSans-61" x="279.115234"/>
      <use xlink:href="#DejaVuSans-73" x="340.394531"/>
      <use xlink:href="#DejaVuSans-73" x="392.494141"/>
      <use xlink:href="#DejaVuSans-69" x="444.59375"/>
      <use xlink:href="#DejaVuSans-66" x="472.376953"/>
      <use xlink:href="#DejaVuSans-69" x="507.582031"/>
      <use xlink:href="#DejaVuSans-63" x="535.365234"/>
      <use xlink:href="#DejaVuSans-61" x="590.345703"/>
      <use xlink:href="#DejaVuSans-74" x="651.625"/>
      <use xlink:href="#DejaVuSans-69" x="690.833984"/>
      <use xlink:href="#DejaVuSans-6f" x="718.617188"/>
      <use xlink:href="#DejaVuSans-6e" x="779.798828"/>
      <use xlink:href="#DejaVuSans-20" x="843.177734"/>
      <use xlink:href="#DejaVuSans-4c" x="874.964844"/>
      <use xlink:href="#DejaVuSans-6f" x="928.927734"/>
      <use xlink:href="#DejaVuSans-73" x="990.109375"/>
      <use xlink:href="#DejaVuSans-73" x="1042.208984"/>
     </g>
    </g>
    <g id="line2d_38">
     <path d="M 875.30925 108.807187 
L 885.30925 108.807187 
L 895.30925 108.807187 
" style="fill: none; stroke: #8c564b; stroke-width: 1.5; stroke-linecap: square"/>
    </g>
    <g id="text_22">
     <!-- Val Generalized IoU Loss -->
     <g transform="translate(903.30925 112.307187) scale(0.1 -0.1)">
      <use xlink:href="#DejaVuSans-56"/>
      <use xlink:href="#DejaVuSans-61" x="60.658203"/>
      <use xlink:href="#DejaVuSans-6c" x="121.9375"/>
      <use xlink:href="#DejaVuSans-20" x="149.720703"/>
      <use xlink:href="#DejaVuSans-47" x="181.507812"/>
      <use xlink:href="#DejaVuSans-65" x="258.998047"/>
      <use xlink:href="#DejaVuSans-6e" x="320.521484"/>
      <use xlink:href="#DejaVuSans-65" x="383.900391"/>
      <use xlink:href="#DejaVuSans-72" x="445.423828"/>
      <use xlink:href="#DejaVuSans-61" x="486.537109"/>
      <use xlink:href="#DejaVuSans-6c" x="547.816406"/>
      <use xlink:href="#DejaVuSans-69" x="575.599609"/>
      <use xlink:href="#DejaVuSans-7a" x="603.382812"/>
      <use xlink:href="#DejaVuSans-65" x="655.873047"/>
      <use xlink:href="#DejaVuSans-64" x="717.396484"/>
      <use xlink:href="#DejaVuSans-20" x="780.873047"/>
      <use xlink:href="#DejaVuSans-49" x="812.660156"/>
      <use xlink:href="#DejaVuSans-6f" x="842.152344"/>
      <use xlink:href="#DejaVuSans-55" x="903.333984"/>
      <use xlink:href="#DejaVuSans-20" x="976.527344"/>
      <use xlink:href="#DejaVuSans-4c" x="1008.314453"/>
      <use xlink:href="#DejaVuSans-6f" x="1062.277344"/>
      <use xlink:href="#DejaVuSans-73" x="1123.458984"/>
      <use xlink:href="#DejaVuSans-73" x="1175.558594"/>
     </g>
    </g>
   </g>
  </g>
 </g>
 <defs>
  <clipPath id="pf0471a606e">
   <rect x="43.78125" y="22.318125" width="806.4" height="443.52"/>
  </clipPath>
 </defs>
</svg>
