<?xml version="1.0" encoding="utf-8" standalone="no"?>
<!DOCTYPE svg PUBLIC "-//W3C//DTD SVG 1.1//EN"
  "http://www.w3.org/Graphics/SVG/1.1/DTD/svg11.dtd">
<svg xmlns:xlink="http://www.w3.org/1999/xlink" width="1061.13425pt" height="503.394375pt" viewBox="0 0 1061.13425 503.394375" xmlns="http://www.w3.org/2000/svg" version="1.1">
 <metadata>
  <rdf:RDF xmlns:dc="http://purl.org/dc/elements/1.1/" xmlns:cc="http://creativecommons.org/ns#" xmlns:rdf="http://www.w3.org/1999/02/22-rdf-syntax-ns#">
   <cc:Work>
    <dc:type rdf:resource="http://purl.org/dc/dcmitype/StillImage"/>
    <dc:date>2025-04-14T10:18:04.757849</dc:date>
    <dc:format>image/svg+xml</dc:format>
    <dc:creator>
     <cc:Agent>
      <dc:title>Matplotlib v3.9.4, https://matplotlib.org/</dc:title>
     </cc:Agent>
    </dc:creator>
   </cc:Work>
  </rdf:RDF>
 </metadata>
 <defs>
  <style type="text/css">*{stroke-linejoin: round; stroke-linecap: butt}</style>
 </defs>
 <g id="figure_1">
  <g id="patch_1">
   <path d="M 0 503.394375 
L 1061.13425 503.394375 
L 1061.13425 0 
L 0 0 
z
" style="fill: #ffffff"/>
  </g>
  <g id="axes_1">
   <g id="patch_2">
    <path d="M 43.78125 465.838125 
L 850.18125 465.838125 
L 850.18125 22.318125 
L 43.78125 22.318125 
z
" style="fill: #ffffff"/>
   </g>
   <g id="matplotlib.axis_1">
    <g id="xtick_1">
     <g id="line2d_1">
      <path d="M 74.275368 465.838125 
L 74.275368 22.318125 
" clip-path="url(#p1d9c67707e)" style="fill: none; stroke: #b0b0b0; stroke-width: 0.8; stroke-linecap: square"/>
     </g>
     <g id="line2d_2">
      <defs>
       <path id="md1e88a5cd6" d="M 0 0 
L 0 3.5 
" style="stroke: #000000; stroke-width: 0.8"/>
      </defs>
      <g>
       <use xlink:href="#md1e88a5cd6" x="74.275368" y="465.838125" style="stroke: #000000; stroke-width: 0.8"/>
      </g>
     </g>
     <g id="text_1">
      <!-- 0 -->
      <g transform="translate(71.094118 480.436562) scale(0.1 -0.1)">
       <defs>
        <path id="DejaVuSans-30" d="M 2034 4250 
Q 1547 4250 1301 3770 
Q 1056 3291 1056 2328 
Q 1056 1369 1301 889 
Q 1547 409 2034 409 
Q 2525 409 2770 889 
Q 3016 1369 3016 2328 
Q 3016 3291 2770 3770 
Q 2525 4250 2034 4250 
z
M 2034 4750 
Q 2819 4750 3233 4129 
Q 3647 3509 3647 2328 
Q 3647 1150 3233 529 
Q 2819 -91 2034 -91 
Q 1250 -91 836 529 
Q 422 1150 422 2328 
Q 422 3509 836 4129 
Q 1250 4750 2034 4750 
z
" transform="scale(0.015625)"/>
       </defs>
       <use xlink:href="#DejaVuSans-30"/>
      </g>
     </g>
    </g>
    <g id="xtick_2">
     <g id="line2d_3">
      <path d="M 197.483924 465.838125 
L 197.483924 22.318125 
" clip-path="url(#p1d9c67707e)" style="fill: none; stroke: #b0b0b0; stroke-width: 0.8; stroke-linecap: square"/>
     </g>
     <g id="line2d_4">
      <g>
       <use xlink:href="#md1e88a5cd6" x="197.483924" y="465.838125" style="stroke: #000000; stroke-width: 0.8"/>
      </g>
     </g>
     <g id="text_2">
      <!-- 20 -->
      <g transform="translate(191.121424 480.436562) scale(0.1 -0.1)">
       <defs>
        <path id="DejaVuSans-32" d="M 1228 531 
L 3431 531 
L 3431 0 
L 469 0 
L 469 531 
Q 828 903 1448 1529 
Q 2069 2156 2228 2338 
Q 2531 2678 2651 2914 
Q 2772 3150 2772 3378 
Q 2772 3750 2511 3984 
Q 2250 4219 1831 4219 
Q 1534 4219 1204 4116 
Q 875 4013 500 3803 
L 500 4441 
Q 881 4594 1212 4672 
Q 1544 4750 1819 4750 
Q 2544 4750 2975 4387 
Q 3406 4025 3406 3419 
Q 3406 3131 3298 2873 
Q 3191 2616 2906 2266 
Q 2828 2175 2409 1742 
Q 1991 1309 1228 531 
z
" transform="scale(0.015625)"/>
       </defs>
       <use xlink:href="#DejaVuSans-32"/>
       <use xlink:href="#DejaVuSans-30" x="63.623047"/>
      </g>
     </g>
    </g>
    <g id="xtick_3">
     <g id="line2d_5">
      <path d="M 320.69248 465.838125 
L 320.69248 22.318125 
" clip-path="url(#p1d9c67707e)" style="fill: none; stroke: #b0b0b0; stroke-width: 0.8; stroke-linecap: square"/>
     </g>
     <g id="line2d_6">
      <g>
       <use xlink:href="#md1e88a5cd6" x="320.69248" y="465.838125" style="stroke: #000000; stroke-width: 0.8"/>
      </g>
     </g>
     <g id="text_3">
      <!-- 40 -->
      <g transform="translate(314.32998 480.436562) scale(0.1 -0.1)">
       <defs>
        <path id="DejaVuSans-34" d="M 2419 4116 
L 825 1625 
L 2419 1625 
L 2419 4116 
z
M 2253 4666 
L 3047 4666 
L 3047 1625 
L 3713 1625 
L 3713 1100 
L 3047 1100 
L 3047 0 
L 2419 0 
L 2419 1100 
L 313 1100 
L 313 1709 
L 2253 4666 
z
" transform="scale(0.015625)"/>
       </defs>
       <use xlink:href="#DejaVuSans-34"/>
       <use xlink:href="#DejaVuSans-30" x="63.623047"/>
      </g>
     </g>
    </g>
    <g id="xtick_4">
     <g id="line2d_7">
      <path d="M 443.901036 465.838125 
L 443.901036 22.318125 
" clip-path="url(#p1d9c67707e)" style="fill: none; stroke: #b0b0b0; stroke-width: 0.8; stroke-linecap: square"/>
     </g>
     <g id="line2d_8">
      <g>
       <use xlink:href="#md1e88a5cd6" x="443.901036" y="465.838125" style="stroke: #000000; stroke-width: 0.8"/>
      </g>
     </g>
     <g id="text_4">
      <!-- 60 -->
      <g transform="translate(437.538536 480.436562) scale(0.1 -0.1)">
       <defs>
        <path id="DejaVuSans-36" d="M 2113 2584 
Q 1688 2584 1439 2293 
Q 1191 2003 1191 1497 
Q 1191 994 1439 701 
Q 1688 409 2113 409 
Q 2538 409 2786 701 
Q 3034 994 3034 1497 
Q 3034 2003 2786 2293 
Q 2538 2584 2113 2584 
z
M 3366 4563 
L 3366 3988 
Q 3128 4100 2886 4159 
Q 2644 4219 2406 4219 
Q 1781 4219 1451 3797 
Q 1122 3375 1075 2522 
Q 1259 2794 1537 2939 
Q 1816 3084 2150 3084 
Q 2853 3084 3261 2657 
Q 3669 2231 3669 1497 
Q 3669 778 3244 343 
Q 2819 -91 2113 -91 
Q 1303 -91 875 529 
Q 447 1150 447 2328 
Q 447 3434 972 4092 
Q 1497 4750 2381 4750 
Q 2619 4750 2861 4703 
Q 3103 4656 3366 4563 
z
" transform="scale(0.015625)"/>
       </defs>
       <use xlink:href="#DejaVuSans-36"/>
       <use xlink:href="#DejaVuSans-30" x="63.623047"/>
      </g>
     </g>
    </g>
    <g id="xtick_5">
     <g id="line2d_9">
      <path d="M 567.109592 465.838125 
L 567.109592 22.318125 
" clip-path="url(#p1d9c67707e)" style="fill: none; stroke: #b0b0b0; stroke-width: 0.8; stroke-linecap: square"/>
     </g>
     <g id="line2d_10">
      <g>
       <use xlink:href="#md1e88a5cd6" x="567.109592" y="465.838125" style="stroke: #000000; stroke-width: 0.8"/>
      </g>
     </g>
     <g id="text_5">
      <!-- 80 -->
      <g transform="translate(560.747092 480.436562) scale(0.1 -0.1)">
       <defs>
        <path id="DejaVuSans-38" d="M 2034 2216 
Q 1584 2216 1326 1975 
Q 1069 1734 1069 1313 
Q 1069 891 1326 650 
Q 1584 409 2034 409 
Q 2484 409 2743 651 
Q 3003 894 3003 1313 
Q 3003 1734 2745 1975 
Q 2488 2216 2034 2216 
z
M 1403 2484 
Q 997 2584 770 2862 
Q 544 3141 544 3541 
Q 544 4100 942 4425 
Q 1341 4750 2034 4750 
Q 2731 4750 3128 4425 
Q 3525 4100 3525 3541 
Q 3525 3141 3298 2862 
Q 3072 2584 2669 2484 
Q 3125 2378 3379 2068 
Q 3634 1759 3634 1313 
Q 3634 634 3220 271 
Q 2806 -91 2034 -91 
Q 1263 -91 848 271 
Q 434 634 434 1313 
Q 434 1759 690 2068 
Q 947 2378 1403 2484 
z
M 1172 3481 
Q 1172 3119 1398 2916 
Q 1625 2713 2034 2713 
Q 2441 2713 2670 2916 
Q 2900 3119 2900 3481 
Q 2900 3844 2670 4047 
Q 2441 4250 2034 4250 
Q 1625 4250 1398 4047 
Q 1172 3844 1172 3481 
z
" transform="scale(0.015625)"/>
       </defs>
       <use xlink:href="#DejaVuSans-38"/>
       <use xlink:href="#DejaVuSans-30" x="63.623047"/>
      </g>
     </g>
    </g>
    <g id="xtick_6">
     <g id="line2d_11">
      <path d="M 690.318148 465.838125 
L 690.318148 22.318125 
" clip-path="url(#p1d9c67707e)" style="fill: none; stroke: #b0b0b0; stroke-width: 0.8; stroke-linecap: square"/>
     </g>
     <g id="line2d_12">
      <g>
       <use xlink:href="#md1e88a5cd6" x="690.318148" y="465.838125" style="stroke: #000000; stroke-width: 0.8"/>
      </g>
     </g>
     <g id="text_6">
      <!-- 100 -->
      <g transform="translate(680.774398 480.436562) scale(0.1 -0.1)">
       <defs>
        <path id="DejaVuSans-31" d="M 794 531 
L 1825 531 
L 1825 4091 
L 703 3866 
L 703 4441 
L 1819 4666 
L 2450 4666 
L 2450 531 
L 3481 531 
L 3481 0 
L 794 0 
L 794 531 
z
" transform="scale(0.015625)"/>
       </defs>
       <use xlink:href="#DejaVuSans-31"/>
       <use xlink:href="#DejaVuSans-30" x="63.623047"/>
       <use xlink:href="#DejaVuSans-30" x="127.246094"/>
      </g>
     </g>
    </g>
    <g id="xtick_7">
     <g id="line2d_13">
      <path d="M 813.526705 465.838125 
L 813.526705 22.318125 
" clip-path="url(#p1d9c67707e)" style="fill: none; stroke: #b0b0b0; stroke-width: 0.8; stroke-linecap: square"/>
     </g>
     <g id="line2d_14">
      <g>
       <use xlink:href="#md1e88a5cd6" x="813.526705" y="465.838125" style="stroke: #000000; stroke-width: 0.8"/>
      </g>
     </g>
     <g id="text_7">
      <!-- 120 -->
      <g transform="translate(803.982955 480.436562) scale(0.1 -0.1)">
       <use xlink:href="#DejaVuSans-31"/>
       <use xlink:href="#DejaVuSans-32" x="63.623047"/>
       <use xlink:href="#DejaVuSans-30" x="127.246094"/>
      </g>
     </g>
    </g>
    <g id="text_8">
     <!-- Epoch -->
     <g transform="translate(431.670312 494.114687) scale(0.1 -0.1)">
      <defs>
       <path id="DejaVuSans-45" d="M 628 4666 
L 3578 4666 
L 3578 4134 
L 1259 4134 
L 1259 2753 
L 3481 2753 
L 3481 2222 
L 1259 2222 
L 1259 531 
L 3634 531 
L 3634 0 
L 628 0 
L 628 4666 
z
" transform="scale(0.015625)"/>
       <path id="DejaVuSans-70" d="M 1159 525 
L 1159 -1331 
L 581 -1331 
L 581 3500 
L 1159 3500 
L 1159 2969 
Q 1341 3281 1617 3432 
Q 1894 3584 2278 3584 
Q 2916 3584 3314 3078 
Q 3713 2572 3713 1747 
Q 3713 922 3314 415 
Q 2916 -91 2278 -91 
Q 1894 -91 1617 61 
Q 1341 213 1159 525 
z
M 3116 1747 
Q 3116 2381 2855 2742 
Q 2594 3103 2138 3103 
Q 1681 3103 1420 2742 
Q 1159 2381 1159 1747 
Q 1159 1113 1420 752 
Q 1681 391 2138 391 
Q 2594 391 2855 752 
Q 3116 1113 3116 1747 
z
" transform="scale(0.015625)"/>
       <path id="DejaVuSans-6f" d="M 1959 3097 
Q 1497 3097 1228 2736 
Q 959 2375 959 1747 
Q 959 1119 1226 758 
Q 1494 397 1959 397 
Q 2419 397 2687 759 
Q 2956 1122 2956 1747 
Q 2956 2369 2687 2733 
Q 2419 3097 1959 3097 
z
M 1959 3584 
Q 2709 3584 3137 3096 
Q 3566 2609 3566 1747 
Q 3566 888 3137 398 
Q 2709 -91 1959 -91 
Q 1206 -91 779 398 
Q 353 888 353 1747 
Q 353 2609 779 3096 
Q 1206 3584 1959 3584 
z
" transform="scale(0.015625)"/>
       <path id="DejaVuSans-63" d="M 3122 3366 
L 3122 2828 
Q 2878 2963 2633 3030 
Q 2388 3097 2138 3097 
Q 1578 3097 1268 2742 
Q 959 2388 959 1747 
Q 959 1106 1268 751 
Q 1578 397 2138 397 
Q 2388 397 2633 464 
Q 2878 531 3122 666 
L 3122 134 
Q 2881 22 2623 -34 
Q 2366 -91 2075 -91 
Q 1284 -91 818 406 
Q 353 903 353 1747 
Q 353 2603 823 3093 
Q 1294 3584 2113 3584 
Q 2378 3584 2631 3529 
Q 2884 3475 3122 3366 
z
" transform="scale(0.015625)"/>
       <path id="DejaVuSans-68" d="M 3513 2113 
L 3513 0 
L 2938 0 
L 2938 2094 
Q 2938 2591 2744 2837 
Q 2550 3084 2163 3084 
Q 1697 3084 1428 2787 
Q 1159 2491 1159 1978 
L 1159 0 
L 581 0 
L 581 4863 
L 1159 4863 
L 1159 2956 
Q 1366 3272 1645 3428 
Q 1925 3584 2291 3584 
Q 2894 3584 3203 3211 
Q 3513 2838 3513 2113 
z
" transform="scale(0.015625)"/>
      </defs>
      <use xlink:href="#DejaVuSans-45"/>
      <use xlink:href="#DejaVuSans-70" x="63.183594"/>
      <use xlink:href="#DejaVuSans-6f" x="126.660156"/>
      <use xlink:href="#DejaVuSans-63" x="187.841797"/>
      <use xlink:href="#DejaVuSans-68" x="242.822266"/>
     </g>
    </g>
   </g>
   <g id="matplotlib.axis_2">
    <g id="ytick_1">
     <g id="line2d_15">
      <path d="M 43.78125 465.838125 
L 850.18125 465.838125 
" clip-path="url(#p1d9c67707e)" style="fill: none; stroke: #b0b0b0; stroke-width: 0.8; stroke-linecap: square"/>
     </g>
     <g id="line2d_16">
      <defs>
       <path id="meababd39cf" d="M 0 0 
L -3.5 0 
" style="stroke: #000000; stroke-width: 0.8"/>
      </defs>
      <g>
       <use xlink:href="#meababd39cf" x="43.78125" y="465.838125" style="stroke: #000000; stroke-width: 0.8"/>
      </g>
     </g>
     <g id="text_9">
      <!-- 0.0 -->
      <g transform="translate(20.878125 469.637344) scale(0.1 -0.1)">
       <defs>
        <path id="DejaVuSans-2e" d="M 684 794 
L 1344 794 
L 1344 0 
L 684 0 
L 684 794 
z
" transform="scale(0.015625)"/>
       </defs>
       <use xlink:href="#DejaVuSans-30"/>
       <use xlink:href="#DejaVuSans-2e" x="63.623047"/>
       <use xlink:href="#DejaVuSans-30" x="95.410156"/>
      </g>
     </g>
    </g>
    <g id="ytick_2">
     <g id="line2d_17">
      <path d="M 43.78125 377.134125 
L 850.18125 377.134125 
" clip-path="url(#p1d9c67707e)" style="fill: none; stroke: #b0b0b0; stroke-width: 0.8; stroke-linecap: square"/>
     </g>
     <g id="line2d_18">
      <g>
       <use xlink:href="#meababd39cf" x="43.78125" y="377.134125" style="stroke: #000000; stroke-width: 0.8"/>
      </g>
     </g>
     <g id="text_10">
      <!-- 0.2 -->
      <g transform="translate(20.878125 380.933344) scale(0.1 -0.1)">
       <use xlink:href="#DejaVuSans-30"/>
       <use xlink:href="#DejaVuSans-2e" x="63.623047"/>
       <use xlink:href="#DejaVuSans-32" x="95.410156"/>
      </g>
     </g>
    </g>
    <g id="ytick_3">
     <g id="line2d_19">
      <path d="M 43.78125 288.430125 
L 850.18125 288.430125 
" clip-path="url(#p1d9c67707e)" style="fill: none; stroke: #b0b0b0; stroke-width: 0.8; stroke-linecap: square"/>
     </g>
     <g id="line2d_20">
      <g>
       <use xlink:href="#meababd39cf" x="43.78125" y="288.430125" style="stroke: #000000; stroke-width: 0.8"/>
      </g>
     </g>
     <g id="text_11">
      <!-- 0.4 -->
      <g transform="translate(20.878125 292.229344) scale(0.1 -0.1)">
       <use xlink:href="#DejaVuSans-30"/>
       <use xlink:href="#DejaVuSans-2e" x="63.623047"/>
       <use xlink:href="#DejaVuSans-34" x="95.410156"/>
      </g>
     </g>
    </g>
    <g id="ytick_4">
     <g id="line2d_21">
      <path d="M 43.78125 199.726125 
L 850.18125 199.726125 
" clip-path="url(#p1d9c67707e)" style="fill: none; stroke: #b0b0b0; stroke-width: 0.8; stroke-linecap: square"/>
     </g>
     <g id="line2d_22">
      <g>
       <use xlink:href="#meababd39cf" x="43.78125" y="199.726125" style="stroke: #000000; stroke-width: 0.8"/>
      </g>
     </g>
     <g id="text_12">
      <!-- 0.6 -->
      <g transform="translate(20.878125 203.525344) scale(0.1 -0.1)">
       <use xlink:href="#DejaVuSans-30"/>
       <use xlink:href="#DejaVuSans-2e" x="63.623047"/>
       <use xlink:href="#DejaVuSans-36" x="95.410156"/>
      </g>
     </g>
    </g>
    <g id="ytick_5">
     <g id="line2d_23">
      <path d="M 43.78125 111.022125 
L 850.18125 111.022125 
" clip-path="url(#p1d9c67707e)" style="fill: none; stroke: #b0b0b0; stroke-width: 0.8; stroke-linecap: square"/>
     </g>
     <g id="line2d_24">
      <g>
       <use xlink:href="#meababd39cf" x="43.78125" y="111.022125" style="stroke: #000000; stroke-width: 0.8"/>
      </g>
     </g>
     <g id="text_13">
      <!-- 0.8 -->
      <g transform="translate(20.878125 114.821344) scale(0.1 -0.1)">
       <use xlink:href="#DejaVuSans-30"/>
       <use xlink:href="#DejaVuSans-2e" x="63.623047"/>
       <use xlink:href="#DejaVuSans-38" x="95.410156"/>
      </g>
     </g>
    </g>
    <g id="ytick_6">
     <g id="line2d_25">
      <path d="M 43.78125 22.318125 
L 850.18125 22.318125 
" clip-path="url(#p1d9c67707e)" style="fill: none; stroke: #b0b0b0; stroke-width: 0.8; stroke-linecap: square"/>
     </g>
     <g id="line2d_26">
      <g>
       <use xlink:href="#meababd39cf" x="43.78125" y="22.318125" style="stroke: #000000; stroke-width: 0.8"/>
      </g>
     </g>
     <g id="text_14">
      <!-- 1.0 -->
      <g transform="translate(20.878125 26.117344) scale(0.1 -0.1)">
       <use xlink:href="#DejaVuSans-31"/>
       <use xlink:href="#DejaVuSans-2e" x="63.623047"/>
       <use xlink:href="#DejaVuSans-30" x="95.410156"/>
      </g>
     </g>
    </g>
    <g id="text_15">
     <!-- Loss -->
     <g transform="translate(14.798437 255.045312) rotate(-90) scale(0.1 -0.1)">
      <defs>
       <path id="DejaVuSans-4c" d="M 628 4666 
L 1259 4666 
L 1259 531 
L 3531 531 
L 3531 0 
L 628 0 
L 628 4666 
z
" transform="scale(0.015625)"/>
       <path id="DejaVuSans-73" d="M 2834 3397 
L 2834 2853 
Q 2591 2978 2328 3040 
Q 2066 3103 1784 3103 
Q 1356 3103 1142 2972 
Q 928 2841 928 2578 
Q 928 2378 1081 2264 
Q 1234 2150 1697 2047 
L 1894 2003 
Q 2506 1872 2764 1633 
Q 3022 1394 3022 966 
Q 3022 478 2636 193 
Q 2250 -91 1575 -91 
Q 1294 -91 989 -36 
Q 684 19 347 128 
L 347 722 
Q 666 556 975 473 
Q 1284 391 1588 391 
Q 1994 391 2212 530 
Q 2431 669 2431 922 
Q 2431 1156 2273 1281 
Q 2116 1406 1581 1522 
L 1381 1569 
Q 847 1681 609 1914 
Q 372 2147 372 2553 
Q 372 3047 722 3315 
Q 1072 3584 1716 3584 
Q 2034 3584 2315 3537 
Q 2597 3491 2834 3397 
z
" transform="scale(0.015625)"/>
      </defs>
      <use xlink:href="#DejaVuSans-4c"/>
      <use xlink:href="#DejaVuSans-6f" x="53.962891"/>
      <use xlink:href="#DejaVuSans-73" x="115.144531"/>
      <use xlink:href="#DejaVuSans-73" x="167.244141"/>
     </g>
    </g>
   </g>
   <g id="line2d_27">
    <path d="M 80.435795 49.701041 
L 86.596223 161.330604 
L 92.756651 314.921569 
L 98.917079 368.476613 
L 105.077507 390.421986 
L 111.237934 392.005348 
L 117.398362 399.868963 
L 123.55879 403.891687 
L 129.719218 410.952524 
L 135.879646 412.837487 
L 142.040074 417.986751 
L 148.200501 415.986476 
L 154.360929 414.460767 
L 160.521357 416.944481 
L 166.681785 422.044962 
L 172.842213 420.226529 
L 179.00264 422.452999 
L 185.163068 422.444127 
L 191.323496 423.326734 
L 197.483924 424.524238 
L 203.644352 421.871989 
L 209.804779 423.623893 
L 215.965207 420.958336 
L 222.125635 426.613216 
L 228.286063 424.927841 
L 234.446491 421.299847 
L 240.606918 425.03872 
L 246.767346 428.440518 
L 252.927774 425.256045 
L 259.088202 422.949742 
L 265.24863 420.709964 
L 271.409057 427.234144 
L 277.569485 427.628878 
L 283.729913 427.637747 
L 289.890341 429.052577 
L 296.050769 427.500258 
L 302.211197 429.14128 
L 308.371624 428.919519 
L 314.532052 432.299141 
L 320.69248 431.376623 
L 326.852908 431.55403 
L 333.013336 432.387847 
L 339.173763 432.574124 
L 345.334191 432.5963 
L 351.494619 432.214874 
L 357.655047 430.937536 
L 363.815475 432.627349 
L 369.975902 432.871282 
L 376.13633 434.445779 
L 382.296758 428.103444 
L 388.457186 436.299692 
L 394.617614 434.796159 
L 400.778041 438.304404 
L 406.938469 435.869478 
L 413.098897 432.5963 
L 419.259325 435.150975 
L 425.419753 434.326028 
L 431.58018 435.838433 
L 437.740608 434.445779 
L 443.901036 435.740858 
L 450.061464 434.574399 
L 456.221892 436.419443 
L 462.38232 434.836078 
L 468.542747 437.084724 
L 474.703175 435.390477 
L 480.863603 437.217779 
L 487.024031 436.352914 
L 493.184459 436.57024 
L 499.344886 437.541549 
L 505.505314 436.840788 
L 511.665742 439.46199 
L 517.82617 436.43275 
L 523.986598 438.703572 
L 530.147025 436.778693 
L 536.307453 438.858803 
L 542.467881 438.264487 
L 548.628309 438.251182 
L 554.788737 439.843418 
L 560.949164 438.654784 
L 567.109592 437.692346 
L 573.27002 437.155688 
L 579.430448 439.373286 
L 585.590876 440.522003 
L 591.751303 439.714798 
L 597.911731 438.419718 
L 604.072159 441.205025 
L 610.232587 440.588531 
L 616.393015 438.619302 
L 622.553443 437.621382 
L 628.71387 439.914382 
L 634.874298 441.001004 
L 641.034726 442.535584 
L 647.195154 439.271277 
L 653.355582 440.366772 
L 659.516009 439.448684 
L 665.676437 439.648268 
L 671.836865 442.12311 
L 677.997293 442.562195 
L 684.157721 439.590612 
L 690.318148 442.167463 
L 696.478576 442.12311 
L 702.639004 441.679591 
L 708.799432 442.229556 
L 714.95986 440.836902 
L 721.120287 441.497747 
L 727.280715 441.444525 
L 733.441143 440.153882 
L 739.601571 441.036486 
L 745.761999 439.830112 
L 751.922426 442.065454 
L 758.082854 444.779796 
L 764.243282 445.427334 
L 770.40371 444.518119 
L 776.564138 443.901625 
L 782.724566 445.161223 
L 788.884993 444.380628 
L 795.045421 445.520474 
L 801.205849 446.505087 
L 807.366277 446.403078 
L 813.526705 446.456302 
" clip-path="url(#p1d9c67707e)" style="fill: none; stroke: #1f77b4; stroke-width: 1.5; stroke-linecap: square"/>
   </g>
   <g id="line2d_28">
    <path d="M 86.155935 -1 
L 86.596223 351.476497 
L 92.756651 120.500139 
L 97.545718 -1 
M 110.773648 -1 
L 111.237934 1.89405 
L 117.398362 57.205413 
L 123.55879 123.76888 
L 129.719218 127.423504 
L 135.879646 138.578032 
L 142.040074 151.604193 
L 148.200501 173.682623 
L 154.360929 194.816369 
L 160.521357 168.14307 
L 166.681785 180.113673 
L 172.842213 204.804442 
L 179.00264 188.611504 
L 185.163068 202.715454 
L 191.323496 198.5641 
L 197.483924 192.217328 
L 203.644352 201.646573 
L 209.804779 209.532362 
L 215.965207 212.588214 
L 222.125635 209.044488 
L 228.286063 207.075255 
L 234.446491 226.190967 
L 240.606918 208.836015 
L 246.767346 200.967991 
L 252.927774 218.722098 
L 259.088202 224.137456 
L 265.24863 223.175032 
L 271.409057 203.921828 
L 277.569485 204.817739 
L 283.729913 207.549805 
L 289.890341 217.750766 
L 296.050769 217.333872 
L 302.211197 202.475945 
L 308.371624 212.8632 
L 314.532052 213.976413 
L 320.69248 214.943305 
L 326.852908 215.839216 
L 333.013336 208.991246 
L 339.173763 211.767698 
L 345.334191 213.674833 
L 351.494619 215.111833 
L 357.655047 214.584041 
L 363.815475 216.996789 
L 369.975902 219.099073 
L 376.13633 220.030461 
L 382.296758 232.834904 
L 388.457186 217.764089 
L 394.617614 217.041148 
L 400.778041 200.954668 
L 406.938469 214.610662 
L 413.098897 225.991376 
L 419.259325 221.760186 
L 425.419753 222.984324 
L 431.58018 225.459143 
L 437.740608 225.206337 
L 443.901036 216.823819 
L 450.061464 231.779321 
L 456.221892 220.199016 
L 462.38232 226.47925 
L 468.542747 222.984324 
L 474.703175 226.142166 
L 480.863603 220.660269 
L 487.024031 225.206337 
L 493.184459 232.067604 
L 499.344886 216.619813 
L 505.505314 216.97905 
L 511.665742 222.971001 
L 517.82617 229.326655 
L 523.986598 228.723468 
L 530.147025 219.631306 
L 536.307453 215.355757 
L 542.467881 218.926104 
L 548.628309 228.758945 
L 554.788737 225.645436 
L 560.949164 230.608424 
L 567.109592 234.435992 
L 573.27002 227.428376 
L 579.430448 228.821043 
L 585.590876 228.639191 
L 591.751303 223.219392 
L 597.911731 228.581534 
L 604.072159 224.607591 
L 610.232587 228.559355 
L 616.393015 222.79359 
L 622.553443 229.841123 
L 628.71387 225.188598 
L 634.874298 235.398442 
L 641.034726 233.637655 
L 647.195154 236.808821 
L 653.355582 235.921792 
L 659.516009 228.475104 
L 665.676437 231.180575 
L 671.836865 223.308084 
L 677.997293 240.197315 
L 684.157721 231.464417 
L 690.318148 238.72928 
L 696.478576 236.999556 
L 702.639004 238.197047 
L 708.799432 243.013685 
L 714.95986 239.363502 
L 721.120287 230.643901 
L 727.280715 236.751164 
L 733.441143 238.148273 
L 739.601571 232.484523 
L 745.761999 233.819508 
L 751.922426 243.723303 
L 758.082854 245.905424 
L 764.243282 246.570709 
L 770.40371 241.159766 
L 776.564138 247.111798 
L 782.724566 243.940632 
L 788.884993 248.389138 
L 795.045421 253.946444 
L 801.205849 252.17236 
L 807.366277 247.280339 
L 813.526705 254.7226 
" clip-path="url(#p1d9c67707e)" style="fill: none; stroke: #ff7f0e; stroke-width: 1.5; stroke-linecap: square"/>
   </g>
   <g id="line2d_29">
    <path d="M 98.557826 -1 
L 98.917079 8.542402 
L 105.077507 63.915863 
L 111.237934 75.398593 
L 117.398362 66.727792 
L 123.55879 61.427721 
L 129.719218 100.594974 
L 135.879646 126.527593 
L 142.040074 134.7815 
L 148.200501 112.468002 
L 154.360929 80.179755 
L 160.521357 148.233463 
L 166.681785 132.036111 
L 172.842213 88.415924 
L 179.00264 146.228753 
L 185.163068 123.524956 
L 191.323496 144.716331 
L 197.483924 144.219602 
L 203.644352 126.12397 
L 209.804779 134.355725 
L 215.965207 127.374703 
L 222.125635 145.155431 
L 228.286063 135.526595 
L 234.446491 108.34771 
L 240.606918 146.26423 
L 246.767346 169.225248 
L 252.927774 145.527991 
L 259.088202 113.740915 
L 265.24863 115.217833 
L 271.409057 177.213052 
L 277.569485 178.499262 
L 283.729913 182.278056 
L 289.890341 158.345705 
L 296.050769 170.1256 
L 302.211197 172.879872 
L 308.371624 182.788109 
L 314.532052 224.909198 
L 320.69248 192.119753 
L 326.852908 189.511856 
L 333.013336 204.489538 
L 339.173763 205.128201 
L 345.334191 180.823291 
L 351.494619 202.320714 
L 357.655047 205.261253 
L 363.815475 212.929712 
L 369.975902 197.792385 
L 376.13633 208.467896 
L 382.296758 158.984369 
L 388.457186 228.617011 
L 394.617614 207.221604 
L 400.778041 238.259145 
L 406.938469 236.768903 
L 413.098897 182.193778 
L 419.259325 203.234363 
L 425.419753 222.230321 
L 431.58018 209.32833 
L 437.740608 210.46375 
L 443.901036 218.78417 
L 450.061464 222.465388 
L 456.221892 224.816064 
L 462.38232 202.232022 
L 468.542747 234.538008 
L 474.703175 225.117645 
L 480.863603 232.883678 
L 487.024031 244.441816 
L 493.184459 231.043082 
L 499.344886 242.410499 
L 505.505314 234.227545 
L 511.665742 241.275079 
L 517.82617 239.904591 
L 523.986598 252.646936 
L 530.147025 247.386783 
L 536.307453 244.259964 
L 542.467881 253.857738 
L 548.628309 249.023374 
L 554.788737 251.622402 
L 560.949164 247.577492 
L 567.109592 247.537587 
L 573.27002 245.661487 
L 579.430448 252.864252 
L 585.590876 264.160715 
L 591.751303 260.696825 
L 597.911731 252.793298 
L 604.072159 269.203539 
L 610.232587 266.617808 
L 616.393015 259.503749 
L 622.553443 263.335758 
L 628.71387 254.629467 
L 634.874298 274.681008 
L 641.034726 277.098183 
L 647.195154 264.60867 
L 653.355582 270.334504 
L 659.516009 255.911235 
L 665.676437 270.015172 
L 671.836865 275.989384 
L 677.997293 287.010861 
L 684.157721 262.537421 
L 690.318148 282.739766 
L 696.478576 283.910662 
L 702.639004 275.976087 
L 708.799432 279.75488 
L 714.95986 276.344206 
L 721.120287 278.082799 
L 727.280715 272.392443 
L 733.441143 280.774974 
L 739.601571 278.62833 
L 745.761999 276.570404 
L 751.922426 278.171505 
L 758.082854 307.324077 
L 764.243282 312.304803 
L 770.40371 304.742788 
L 776.564138 307.621229 
L 782.724566 308.588107 
L 788.884993 305.935864 
L 795.045421 310.122682 
L 801.205849 317.148049 
L 807.366277 314.012361 
L 813.526705 312.770497 
" clip-path="url(#p1d9c67707e)" style="fill: none; stroke: #2ca02c; stroke-width: 1.5; stroke-linecap: square"/>
   </g>
   <g id="line2d_30">
    <path d="M 80.435795 120.061066 
L 86.596223 304.028729 
L 92.756651 400.968893 
L 98.917079 426.866022 
L 105.077507 428.063526 
L 111.237934 432.081819 
L 117.398362 429.127976 
L 123.55879 430.511757 
L 129.719218 432.760404 
L 135.879646 434.153058 
L 142.040074 437.803224 
L 148.200501 435.461441 
L 154.360929 434.281678 
L 160.521357 436.281954 
L 166.681785 435.816256 
L 172.842213 435.811822 
L 179.00264 438.929767 
L 185.163068 429.589235 
L 191.323496 438.029419 
L 197.483924 434.920345 
L 203.644352 440.140577 
L 209.804779 437.803224 
L 215.965207 439.501908 
L 222.125635 420.878503 
L 228.286063 434.255067 
L 234.446491 436.925055 
L 240.606918 438.166912 
L 246.767346 437.421798 
L 252.927774 431.420972 
L 259.088202 428.994917 
L 265.24863 437.381883 
L 271.409057 439.661574 
L 277.569485 442.491233 
L 283.729913 437.497196 
L 289.890341 432.844671 
L 296.050769 437.324223 
L 302.211197 443.2053 
L 308.371624 442.180769 
L 314.532052 441.320339 
L 320.69248 442.673075 
L 326.852908 443.019021 
L 333.013336 441.524358 
L 339.173763 441.843693 
L 345.334191 438.295533 
L 351.494619 442.145287 
L 357.655047 442.828308 
L 363.815475 442.721863 
L 369.975902 442.438009 
L 376.13633 438.810016 
L 382.296758 438.969683 
L 388.457186 442.588806 
L 394.617614 443.227475 
L 400.778041 443.085549 
L 406.938469 443.147642 
L 413.098897 441.7816 
L 419.259325 444.096775 
L 425.419753 445.280974 
L 431.58018 440.832467 
L 437.740608 442.309389 
L 443.901036 442.863788 
L 450.061464 443.781876 
L 456.221892 443.706477 
L 462.38232 443.906061 
L 468.542747 442.420269 
L 474.703175 443.65769 
L 480.863603 442.12311 
L 487.024031 443.67543 
L 493.184459 444.491508 
L 499.344886 443.271827 
L 505.505314 443.129902 
L 511.665742 443.440364 
L 517.82617 444.45159 
L 523.986598 443.950413 
L 530.147025 443.382708 
L 536.307453 444.8685 
L 542.467881 444.070164 
L 548.628309 443.387142 
L 554.788737 443.631079 
L 560.949164 444.300793 
L 567.109592 444.487072 
L 573.27002 443.480282 
L 579.430448 443.653254 
L 585.590876 443.741959 
L 591.751303 443.09442 
L 597.911731 444.216526 
L 604.072159 443.852838 
L 610.232587 444.300793 
L 616.393015 444.500377 
L 622.553443 445.085824 
L 628.71387 444.389497 
L 634.874298 444.65561 
L 641.034726 444.571341 
L 647.195154 444.983815 
L 653.355582 444.185479 
L 659.516009 443.901625 
L 665.676437 444.45159 
L 671.836865 443.88832 
L 677.997293 445.22775 
L 684.157721 443.950413 
L 690.318148 444.943898 
L 696.478576 444.118951 
L 702.639004 444.101209 
L 708.799432 444.495943 
L 714.95986 444.034682 
L 721.120287 444.034682 
L 727.280715 444.549165 
L 733.441143 443.812921 
L 739.601571 443.679866 
L 745.761999 444.526988 
L 751.922426 444.513683 
L 758.082854 445.924077 
L 764.243282 446.088179 
L 770.40371 446.243412 
L 776.564138 446.584922 
L 782.724566 446.673626 
L 788.884993 446.212365 
L 795.045421 446.988525 
L 801.205849 446.717977 
L 807.366277 446.806682 
L 813.526705 446.886515 
" clip-path="url(#p1d9c67707e)" style="fill: none; stroke: #d62728; stroke-width: 1.5; stroke-linecap: square"/>
   </g>
   <g id="line2d_31">
    <path d="M 80.435795 344.202765 
L 86.596223 33.295242 
L 87.614099 -1 
M 118.238575 -1 
L 123.55879 59.449632 
L 129.719218 110.325799 
L 135.879646 109.944383 
L 142.040074 106.866351 
L 148.200501 139.549338 
L 154.360929 162.261992 
L 160.521357 157.090557 
L 166.681785 148.823326 
L 172.842213 160.683057 
L 179.00264 154.549173 
L 185.163068 204.134716 
L 191.323496 142.38342 
L 197.483924 168.834949 
L 203.644352 158.265869 
L 209.804779 173.744721 
L 215.965207 160.119789 
L 222.125635 234.804111 
L 228.286063 190.54526 
L 234.446491 187.369654 
L 240.606918 177.142098 
L 246.767346 177.044523 
L 252.927774 195.330837 
L 259.088202 218.123326 
L 265.24863 179.696753 
L 271.409057 167.003209 
L 277.569485 170.839659 
L 283.729913 183.670696 
L 289.890341 198.599577 
L 296.050769 195.339719 
L 302.211197 157.427614 
L 308.371624 163.583678 
L 314.532052 159.148483 
L 320.69248 155.649116 
L 326.852908 149.48417 
L 333.013336 174.139461 
L 339.173763 175.545426 
L 345.334191 186.464886 
L 351.494619 172.724614 
L 357.655047 167.22942 
L 363.815475 175.017634 
L 369.975902 175.163983 
L 376.13633 197.167018 
L 382.296758 187.573685 
L 388.457186 175.376871 
L 394.617614 177.057821 
L 400.778041 183.147346 
L 406.938469 191.30812 
L 413.098897 199.792653 
L 419.259325 180.455171 
L 425.419753 174.600714 
L 431.58018 188.309924 
L 437.740608 189.613872 
L 443.901036 180.6725 
L 450.061464 172.981862 
L 456.221892 181.670427 
L 462.38232 175.700657 
L 468.542747 187.751096 
L 474.703175 195.388493 
L 480.863603 199.162846 
L 487.024031 186.509219 
L 493.184459 194.093427 
L 499.344886 189.795725 
L 505.505314 193.955935 
L 511.665742 194.869584 
L 517.82617 192.186292 
L 523.986598 189.600575 
L 530.147025 191.485531 
L 536.307453 189.010685 
L 542.467881 194.718794 
L 548.628309 187.516029 
L 554.788737 197.535137 
L 560.949164 196.018301 
L 567.109592 193.06888 
L 573.27002 199.251564 
L 579.430448 197.548435 
L 585.590876 197.295629 
L 591.751303 201.327228 
L 597.911731 198.005273 
L 604.072159 194.33291 
L 610.232587 196.550534 
L 616.393015 195.282063 
L 622.553443 202.852947 
L 628.71387 203.509349 
L 634.874298 201.00791 
L 641.034726 194.324054 
L 647.195154 193.153157 
L 653.355582 193.814 
L 659.516009 193.924872 
L 665.676437 198.275817 
L 671.836865 198.231458 
L 677.997293 204.658066 
L 684.157721 209.32833 
L 690.318148 207.864709 
L 696.478576 204.196814 
L 702.639004 200.697447 
L 708.799432 205.975312 
L 714.95986 207.084111 
L 721.120287 202.00581 
L 727.280715 201.673168 
L 733.441143 203.753299 
L 739.601571 203.549267 
L 745.761999 198.058488 
L 751.922426 204.742344 
L 758.082854 204.884251 
L 764.243282 203.478314 
L 770.40371 206.99986 
L 776.564138 208.223972 
L 782.724566 209.878301 
L 788.884993 208.352582 
L 795.045421 208.512255 
L 801.205849 212.291048 
L 807.366277 211.266527 
L 813.526705 214.415513 
" clip-path="url(#p1d9c67707e)" style="fill: none; stroke: #9467bd; stroke-width: 1.5; stroke-linecap: square"/>
   </g>
   <g id="line2d_32">
    <path d="M 89.270437 -1 
L 92.756651 120.469104 
L 98.917079 193.099942 
L 105.077507 201.411506 
L 111.237934 244.854282 
L 117.398362 217.772945 
L 123.55879 204.981826 
L 129.719218 212.215653 
L 135.879646 228.430744 
L 142.040074 258.816298 
L 148.200501 237.899881 
L 154.360929 217.764089 
L 160.521357 243.922894 
L 166.681785 246.601758 
L 172.842213 226.195408 
L 179.00264 266.897235 
L 185.163068 167.477785 
L 191.323496 256.824885 
L 197.483924 227.34854 
L 203.644352 283.941698 
L 209.804779 252.052619 
L 215.965207 270.893345 
L 222.125635 57.600153 
L 228.286063 209.075524 
L 234.446491 242.166549 
L 240.606918 254.225857 
L 246.767346 262.169302 
L 252.927774 167.770509 
L 259.088202 140.431926 
L 265.24863 227.171155 
L 271.409057 285.174693 
L 277.569485 300.405167 
L 283.729913 236.125824 
L 289.890341 182.065168 
L 296.050769 241.545623 
L 302.211197 305.64314 
L 308.371624 289.889302 
L 314.532052 299.460468 
L 320.69248 304.92464 
L 326.852908 314.917141 
L 333.013336 296.617504 
L 339.173763 301.057141 
L 345.334191 251.444991 
L 351.494619 297.890403 
L 357.655047 306.769677 
L 363.815475 305.177446 
L 369.975902 307.25311 
L 376.13633 241.226305 
L 382.296758 266.529103 
L 388.457186 311.927815 
L 394.617614 308.752208 
L 400.778041 305.567732 
L 406.938469 298.728658 
L 413.098897 280.535465 
L 419.259325 314.939321 
L 425.419753 318.451998 
L 431.58018 282.557927 
L 437.740608 307.554703 
L 443.901036 297.406971 
L 450.061464 314.757468 
L 456.221892 312.544312 
L 462.38232 313.174106 
L 468.542747 298.68874 
L 474.703175 316.37188 
L 480.863603 291.188822 
L 487.024031 317.374234 
L 493.184459 320.478874 
L 499.344886 307.377306 
L 505.505314 305.354844 
L 511.665742 317.179085 
L 517.82617 322.315056 
L 523.986598 316.052548 
L 530.147025 316.38519 
L 536.307453 322.323925 
L 542.467881 320.76717 
L 548.628309 315.174375 
L 554.788737 316.810966 
L 560.949164 321.676379 
L 567.109592 320.971189 
L 573.27002 318.301194 
L 579.430448 315.994891 
L 585.590876 316.416239 
L 591.751303 312.406819 
L 597.911731 322.456976 
L 604.072159 309.63925 
L 610.232587 321.778395 
L 616.393015 324.506046 
L 622.553443 325.774504 
L 628.71387 320.483315 
L 634.874298 321.742918 
L 641.034726 321.530017 
L 647.195154 324.931822 
L 653.355582 321.436883 
L 659.516009 322.465846 
L 665.676437 324.435079 
L 671.836865 321.192946 
L 677.997293 327.286912 
L 684.157721 321.840492 
L 690.318148 326.470838 
L 696.478576 322.448107 
L 702.639004 324.412899 
L 708.799432 325.140282 
L 714.95986 321.938067 
L 721.120287 322.359402 
L 727.280715 326.351083 
L 733.441143 323.224264 
L 739.601571 323.645612 
L 745.761999 324.92738 
L 751.922426 326.262378 
L 758.082854 330.027861 
L 764.243282 331.575746 
L 770.40371 332.702297 
L 776.564138 331.220937 
L 782.724566 333.052677 
L 788.884993 332.582542 
L 795.045421 335.341229 
L 801.205849 334.525154 
L 807.366277 334.671516 
L 813.526705 335.234785 
" clip-path="url(#p1d9c67707e)" style="fill: none; stroke: #8c564b; stroke-width: 1.5; stroke-linecap: square"/>
   </g>
   <g id="patch_3">
    <path d="M 43.78125 465.838125 
L 43.78125 22.318125 
" style="fill: none; stroke: #000000; stroke-width: 0.8; stroke-linejoin: miter; stroke-linecap: square"/>
   </g>
   <g id="patch_4">
    <path d="M 850.18125 465.838125 
L 850.18125 22.318125 
" style="fill: none; stroke: #000000; stroke-width: 0.8; stroke-linejoin: miter; stroke-linecap: square"/>
   </g>
   <g id="patch_5">
    <path d="M 43.78125 465.838125 
L 850.18125 465.838125 
" style="fill: none; stroke: #000000; stroke-width: 0.8; stroke-linejoin: miter; stroke-linecap: square"/>
   </g>
   <g id="patch_6">
    <path d="M 43.78125 22.318125 
L 850.18125 22.318125 
" style="fill: none; stroke: #000000; stroke-width: 0.8; stroke-linejoin: miter; stroke-linecap: square"/>
   </g>
   <g id="text_16">
    <!-- Training Metrics over Epochs -->
    <g transform="translate(360.930938 16.318125) scale(0.12 -0.12)">
     <defs>
      <path id="DejaVuSans-54" d="M -19 4666 
L 3928 4666 
L 3928 4134 
L 2272 4134 
L 2272 0 
L 1638 0 
L 1638 4134 
L -19 4134 
L -19 4666 
z
" transform="scale(0.015625)"/>
      <path id="DejaVuSans-72" d="M 2631 2963 
Q 2534 3019 2420 3045 
Q 2306 3072 2169 3072 
Q 1681 3072 1420 2755 
Q 1159 2438 1159 1844 
L 1159 0 
L 581 0 
L 581 3500 
L 1159 3500 
L 1159 2956 
Q 1341 3275 1631 3429 
Q 1922 3584 2338 3584 
Q 2397 3584 2469 3576 
Q 2541 3569 2628 3553 
L 2631 2963 
z
" transform="scale(0.015625)"/>
      <path id="DejaVuSans-61" d="M 2194 1759 
Q 1497 1759 1228 1600 
Q 959 1441 959 1056 
Q 959 750 1161 570 
Q 1363 391 1709 391 
Q 2188 391 2477 730 
Q 2766 1069 2766 1631 
L 2766 1759 
L 2194 1759 
z
M 3341 1997 
L 3341 0 
L 2766 0 
L 2766 531 
Q 2569 213 2275 61 
Q 1981 -91 1556 -91 
Q 1019 -91 701 211 
Q 384 513 384 1019 
Q 384 1609 779 1909 
Q 1175 2209 1959 2209 
L 2766 2209 
L 2766 2266 
Q 2766 2663 2505 2880 
Q 2244 3097 1772 3097 
Q 1472 3097 1187 3025 
Q 903 2953 641 2809 
L 641 3341 
Q 956 3463 1253 3523 
Q 1550 3584 1831 3584 
Q 2591 3584 2966 3190 
Q 3341 2797 3341 1997 
z
" transform="scale(0.015625)"/>
      <path id="DejaVuSans-69" d="M 603 3500 
L 1178 3500 
L 1178 0 
L 603 0 
L 603 3500 
z
M 603 4863 
L 1178 4863 
L 1178 4134 
L 603 4134 
L 603 4863 
z
" transform="scale(0.015625)"/>
      <path id="DejaVuSans-6e" d="M 3513 2113 
L 3513 0 
L 2938 0 
L 2938 2094 
Q 2938 2591 2744 2837 
Q 2550 3084 2163 3084 
Q 1697 3084 1428 2787 
Q 1159 2491 1159 1978 
L 1159 0 
L 581 0 
L 581 3500 
L 1159 3500 
L 1159 2956 
Q 1366 3272 1645 3428 
Q 1925 3584 2291 3584 
Q 2894 3584 3203 3211 
Q 3513 2838 3513 2113 
z
" transform="scale(0.015625)"/>
      <path id="DejaVuSans-67" d="M 2906 1791 
Q 2906 2416 2648 2759 
Q 2391 3103 1925 3103 
Q 1463 3103 1205 2759 
Q 947 2416 947 1791 
Q 947 1169 1205 825 
Q 1463 481 1925 481 
Q 2391 481 2648 825 
Q 2906 1169 2906 1791 
z
M 3481 434 
Q 3481 -459 3084 -895 
Q 2688 -1331 1869 -1331 
Q 1566 -1331 1297 -1286 
Q 1028 -1241 775 -1147 
L 775 -588 
Q 1028 -725 1275 -790 
Q 1522 -856 1778 -856 
Q 2344 -856 2625 -561 
Q 2906 -266 2906 331 
L 2906 616 
Q 2728 306 2450 153 
Q 2172 0 1784 0 
Q 1141 0 747 490 
Q 353 981 353 1791 
Q 353 2603 747 3093 
Q 1141 3584 1784 3584 
Q 2172 3584 2450 3431 
Q 2728 3278 2906 2969 
L 2906 3500 
L 3481 3500 
L 3481 434 
z
" transform="scale(0.015625)"/>
      <path id="DejaVuSans-20" transform="scale(0.015625)"/>
      <path id="DejaVuSans-4d" d="M 628 4666 
L 1569 4666 
L 2759 1491 
L 3956 4666 
L 4897 4666 
L 4897 0 
L 4281 0 
L 4281 4097 
L 3078 897 
L 2444 897 
L 1241 4097 
L 1241 0 
L 628 0 
L 628 4666 
z
" transform="scale(0.015625)"/>
      <path id="DejaVuSans-65" d="M 3597 1894 
L 3597 1613 
L 953 1613 
Q 991 1019 1311 708 
Q 1631 397 2203 397 
Q 2534 397 2845 478 
Q 3156 559 3463 722 
L 3463 178 
Q 3153 47 2828 -22 
Q 2503 -91 2169 -91 
Q 1331 -91 842 396 
Q 353 884 353 1716 
Q 353 2575 817 3079 
Q 1281 3584 2069 3584 
Q 2775 3584 3186 3129 
Q 3597 2675 3597 1894 
z
M 3022 2063 
Q 3016 2534 2758 2815 
Q 2500 3097 2075 3097 
Q 1594 3097 1305 2825 
Q 1016 2553 972 2059 
L 3022 2063 
z
" transform="scale(0.015625)"/>
      <path id="DejaVuSans-74" d="M 1172 4494 
L 1172 3500 
L 2356 3500 
L 2356 3053 
L 1172 3053 
L 1172 1153 
Q 1172 725 1289 603 
Q 1406 481 1766 481 
L 2356 481 
L 2356 0 
L 1766 0 
Q 1100 0 847 248 
Q 594 497 594 1153 
L 594 3053 
L 172 3053 
L 172 3500 
L 594 3500 
L 594 4494 
L 1172 4494 
z
" transform="scale(0.015625)"/>
      <path id="DejaVuSans-76" d="M 191 3500 
L 800 3500 
L 1894 563 
L 2988 3500 
L 3597 3500 
L 2284 0 
L 1503 0 
L 191 3500 
z
" transform="scale(0.015625)"/>
     </defs>
     <use xlink:href="#DejaVuSans-54"/>
     <use xlink:href="#DejaVuSans-72" x="46.333984"/>
     <use xlink:href="#DejaVuSans-61" x="87.447266"/>
     <use xlink:href="#DejaVuSans-69" x="148.726562"/>
     <use xlink:href="#DejaVuSans-6e" x="176.509766"/>
     <use xlink:href="#DejaVuSans-69" x="239.888672"/>
     <use xlink:href="#DejaVuSans-6e" x="267.671875"/>
     <use xlink:href="#DejaVuSans-67" x="331.050781"/>
     <use xlink:href="#DejaVuSans-20" x="394.527344"/>
     <use xlink:href="#DejaVuSans-4d" x="426.314453"/>
     <use xlink:href="#DejaVuSans-65" x="512.59375"/>
     <use xlink:href="#DejaVuSans-74" x="574.117188"/>
     <use xlink:href="#DejaVuSans-72" x="613.326172"/>
     <use xlink:href="#DejaVuSans-69" x="654.439453"/>
     <use xlink:href="#DejaVuSans-63" x="682.222656"/>
     <use xlink:href="#DejaVuSans-73" x="737.203125"/>
     <use xlink:href="#DejaVuSans-20" x="789.302734"/>
     <use xlink:href="#DejaVuSans-6f" x="821.089844"/>
     <use xlink:href="#DejaVuSans-76" x="882.271484"/>
     <use xlink:href="#DejaVuSans-65" x="941.451172"/>
     <use xlink:href="#DejaVuSans-72" x="1002.974609"/>
     <use xlink:href="#DejaVuSans-20" x="1044.087891"/>
     <use xlink:href="#DejaVuSans-45" x="1075.875"/>
     <use xlink:href="#DejaVuSans-70" x="1139.058594"/>
     <use xlink:href="#DejaVuSans-6f" x="1202.535156"/>
     <use xlink:href="#DejaVuSans-63" x="1263.716797"/>
     <use xlink:href="#DejaVuSans-68" x="1318.697266"/>
     <use xlink:href="#DejaVuSans-73" x="1382.076172"/>
    </g>
   </g>
   <g id="legend_1">
    <g id="patch_7">
     <path d="M 873.30925 118.386875 
L 1051.93425 118.386875 
Q 1053.93425 118.386875 1053.93425 116.386875 
L 1053.93425 29.318125 
Q 1053.93425 27.318125 1051.93425 27.318125 
L 873.30925 27.318125 
Q 871.30925 27.318125 871.30925 29.318125 
L 871.30925 116.386875 
Q 871.30925 118.386875 873.30925 118.386875 
z
" style="fill: #ffffff; opacity: 0.8; stroke: #cccccc; stroke-linejoin: miter"/>
    </g>
    <g id="line2d_33">
     <path d="M 875.30925 35.416562 
L 885.30925 35.416562 
L 895.30925 35.416562 
" style="fill: none; stroke: #1f77b4; stroke-width: 1.5; stroke-linecap: square"/>
    </g>
    <g id="text_17">
     <!-- Traini Box Regression L1 Loss -->
     <g transform="translate(903.30925 38.916562) scale(0.1 -0.1)">
      <defs>
       <path id="DejaVuSans-42" d="M 1259 2228 
L 1259 519 
L 2272 519 
Q 2781 519 3026 730 
Q 3272 941 3272 1375 
Q 3272 1813 3026 2020 
Q 2781 2228 2272 2228 
L 1259 2228 
z
M 1259 4147 
L 1259 2741 
L 2194 2741 
Q 2656 2741 2882 2914 
Q 3109 3088 3109 3444 
Q 3109 3797 2882 3972 
Q 2656 4147 2194 4147 
L 1259 4147 
z
M 628 4666 
L 2241 4666 
Q 2963 4666 3353 4366 
Q 3744 4066 3744 3513 
Q 3744 3084 3544 2831 
Q 3344 2578 2956 2516 
Q 3422 2416 3680 2098 
Q 3938 1781 3938 1306 
Q 3938 681 3513 340 
Q 3088 0 2303 0 
L 628 0 
L 628 4666 
z
" transform="scale(0.015625)"/>
       <path id="DejaVuSans-78" d="M 3513 3500 
L 2247 1797 
L 3578 0 
L 2900 0 
L 1881 1375 
L 863 0 
L 184 0 
L 1544 1831 
L 300 3500 
L 978 3500 
L 1906 2253 
L 2834 3500 
L 3513 3500 
z
" transform="scale(0.015625)"/>
       <path id="DejaVuSans-52" d="M 2841 2188 
Q 3044 2119 3236 1894 
Q 3428 1669 3622 1275 
L 4263 0 
L 3584 0 
L 2988 1197 
Q 2756 1666 2539 1819 
Q 2322 1972 1947 1972 
L 1259 1972 
L 1259 0 
L 628 0 
L 628 4666 
L 2053 4666 
Q 2853 4666 3247 4331 
Q 3641 3997 3641 3322 
Q 3641 2881 3436 2590 
Q 3231 2300 2841 2188 
z
M 1259 4147 
L 1259 2491 
L 2053 2491 
Q 2509 2491 2742 2702 
Q 2975 2913 2975 3322 
Q 2975 3731 2742 3939 
Q 2509 4147 2053 4147 
L 1259 4147 
z
" transform="scale(0.015625)"/>
      </defs>
      <use xlink:href="#DejaVuSans-54"/>
      <use xlink:href="#DejaVuSans-72" x="46.333984"/>
      <use xlink:href="#DejaVuSans-61" x="87.447266"/>
      <use xlink:href="#DejaVuSans-69" x="148.726562"/>
      <use xlink:href="#DejaVuSans-6e" x="176.509766"/>
      <use xlink:href="#DejaVuSans-69" x="239.888672"/>
      <use xlink:href="#DejaVuSans-20" x="267.671875"/>
      <use xlink:href="#DejaVuSans-42" x="299.458984"/>
      <use xlink:href="#DejaVuSans-6f" x="368.0625"/>
      <use xlink:href="#DejaVuSans-78" x="426.119141"/>
      <use xlink:href="#DejaVuSans-20" x="485.298828"/>
      <use xlink:href="#DejaVuSans-52" x="517.085938"/>
      <use xlink:href="#DejaVuSans-65" x="582.068359"/>
      <use xlink:href="#DejaVuSans-67" x="643.591797"/>
      <use xlink:href="#DejaVuSans-72" x="707.068359"/>
      <use xlink:href="#DejaVuSans-65" x="745.931641"/>
      <use xlink:href="#DejaVuSans-73" x="807.455078"/>
      <use xlink:href="#DejaVuSans-73" x="859.554688"/>
      <use xlink:href="#DejaVuSans-69" x="911.654297"/>
      <use xlink:href="#DejaVuSans-6f" x="939.4375"/>
      <use xlink:href="#DejaVuSans-6e" x="1000.619141"/>
      <use xlink:href="#DejaVuSans-20" x="1063.998047"/>
      <use xlink:href="#DejaVuSans-4c" x="1095.785156"/>
      <use xlink:href="#DejaVuSans-31" x="1151.498047"/>
      <use xlink:href="#DejaVuSans-20" x="1215.121094"/>
      <use xlink:href="#DejaVuSans-4c" x="1246.908203"/>
      <use xlink:href="#DejaVuSans-6f" x="1300.871094"/>
      <use xlink:href="#DejaVuSans-73" x="1362.052734"/>
      <use xlink:href="#DejaVuSans-73" x="1414.152344"/>
     </g>
    </g>
    <g id="line2d_34">
     <path d="M 875.30925 50.094688 
L 885.30925 50.094688 
L 895.30925 50.094688 
" style="fill: none; stroke: #ff7f0e; stroke-width: 1.5; stroke-linecap: square"/>
    </g>
    <g id="text_18">
     <!-- Train Classification Loss -->
     <g transform="translate(903.30925 53.594688) scale(0.1 -0.1)">
      <defs>
       <path id="DejaVuSans-43" d="M 4122 4306 
L 4122 3641 
Q 3803 3938 3442 4084 
Q 3081 4231 2675 4231 
Q 1875 4231 1450 3742 
Q 1025 3253 1025 2328 
Q 1025 1406 1450 917 
Q 1875 428 2675 428 
Q 3081 428 3442 575 
Q 3803 722 4122 1019 
L 4122 359 
Q 3791 134 3420 21 
Q 3050 -91 2638 -91 
Q 1578 -91 968 557 
Q 359 1206 359 2328 
Q 359 3453 968 4101 
Q 1578 4750 2638 4750 
Q 3056 4750 3426 4639 
Q 3797 4528 4122 4306 
z
" transform="scale(0.015625)"/>
       <path id="DejaVuSans-6c" d="M 603 4863 
L 1178 4863 
L 1178 0 
L 603 0 
L 603 4863 
z
" transform="scale(0.015625)"/>
       <path id="DejaVuSans-66" d="M 2375 4863 
L 2375 4384 
L 1825 4384 
Q 1516 4384 1395 4259 
Q 1275 4134 1275 3809 
L 1275 3500 
L 2222 3500 
L 2222 3053 
L 1275 3053 
L 1275 0 
L 697 0 
L 697 3053 
L 147 3053 
L 147 3500 
L 697 3500 
L 697 3744 
Q 697 4328 969 4595 
Q 1241 4863 1831 4863 
L 2375 4863 
z
" transform="scale(0.015625)"/>
      </defs>
      <use xlink:href="#DejaVuSans-54"/>
      <use xlink:href="#DejaVuSans-72" x="46.333984"/>
      <use xlink:href="#DejaVuSans-61" x="87.447266"/>
      <use xlink:href="#DejaVuSans-69" x="148.726562"/>
      <use xlink:href="#DejaVuSans-6e" x="176.509766"/>
      <use xlink:href="#DejaVuSans-20" x="239.888672"/>
      <use xlink:href="#DejaVuSans-43" x="271.675781"/>
      <use xlink:href="#DejaVuSans-6c" x="341.5"/>
      <use xlink:href="#DejaVuSans-61" x="369.283203"/>
      <use xlink:href="#DejaVuSans-73" x="430.5625"/>
      <use xlink:href="#DejaVuSans-73" x="482.662109"/>
      <use xlink:href="#DejaVuSans-69" x="534.761719"/>
      <use xlink:href="#DejaVuSans-66" x="562.544922"/>
      <use xlink:href="#DejaVuSans-69" x="597.75"/>
      <use xlink:href="#DejaVuSans-63" x="625.533203"/>
      <use xlink:href="#DejaVuSans-61" x="680.513672"/>
      <use xlink:href="#DejaVuSans-74" x="741.792969"/>
      <use xlink:href="#DejaVuSans-69" x="781.001953"/>
      <use xlink:href="#DejaVuSans-6f" x="808.785156"/>
      <use xlink:href="#DejaVuSans-6e" x="869.966797"/>
      <use xlink:href="#DejaVuSans-20" x="933.345703"/>
      <use xlink:href="#DejaVuSans-4c" x="965.132812"/>
      <use xlink:href="#DejaVuSans-6f" x="1019.095703"/>
      <use xlink:href="#DejaVuSans-73" x="1080.277344"/>
      <use xlink:href="#DejaVuSans-73" x="1132.376953"/>
     </g>
    </g>
    <g id="line2d_35">
     <path d="M 875.30925 64.772812 
L 885.30925 64.772812 
L 895.30925 64.772812 
" style="fill: none; stroke: #2ca02c; stroke-width: 1.5; stroke-linecap: square"/>
    </g>
    <g id="text_19">
     <!-- Train Generalized IoU Loss -->
     <g transform="translate(903.30925 68.272812) scale(0.1 -0.1)">
      <defs>
       <path id="DejaVuSans-47" d="M 3809 666 
L 3809 1919 
L 2778 1919 
L 2778 2438 
L 4434 2438 
L 4434 434 
Q 4069 175 3628 42 
Q 3188 -91 2688 -91 
Q 1594 -91 976 548 
Q 359 1188 359 2328 
Q 359 3472 976 4111 
Q 1594 4750 2688 4750 
Q 3144 4750 3555 4637 
Q 3966 4525 4313 4306 
L 4313 3634 
Q 3963 3931 3569 4081 
Q 3175 4231 2741 4231 
Q 1884 4231 1454 3753 
Q 1025 3275 1025 2328 
Q 1025 1384 1454 906 
Q 1884 428 2741 428 
Q 3075 428 3337 486 
Q 3600 544 3809 666 
z
" transform="scale(0.015625)"/>
       <path id="DejaVuSans-7a" d="M 353 3500 
L 3084 3500 
L 3084 2975 
L 922 459 
L 3084 459 
L 3084 0 
L 275 0 
L 275 525 
L 2438 3041 
L 353 3041 
L 353 3500 
z
" transform="scale(0.015625)"/>
       <path id="DejaVuSans-64" d="M 2906 2969 
L 2906 4863 
L 3481 4863 
L 3481 0 
L 2906 0 
L 2906 525 
Q 2725 213 2448 61 
Q 2172 -91 1784 -91 
Q 1150 -91 751 415 
Q 353 922 353 1747 
Q 353 2572 751 3078 
Q 1150 3584 1784 3584 
Q 2172 3584 2448 3432 
Q 2725 3281 2906 2969 
z
M 947 1747 
Q 947 1113 1208 752 
Q 1469 391 1925 391 
Q 2381 391 2643 752 
Q 2906 1113 2906 1747 
Q 2906 2381 2643 2742 
Q 2381 3103 1925 3103 
Q 1469 3103 1208 2742 
Q 947 2381 947 1747 
z
" transform="scale(0.015625)"/>
       <path id="DejaVuSans-49" d="M 628 4666 
L 1259 4666 
L 1259 0 
L 628 0 
L 628 4666 
z
" transform="scale(0.015625)"/>
       <path id="DejaVuSans-55" d="M 556 4666 
L 1191 4666 
L 1191 1831 
Q 1191 1081 1462 751 
Q 1734 422 2344 422 
Q 2950 422 3222 751 
Q 3494 1081 3494 1831 
L 3494 4666 
L 4128 4666 
L 4128 1753 
Q 4128 841 3676 375 
Q 3225 -91 2344 -91 
Q 1459 -91 1007 375 
Q 556 841 556 1753 
L 556 4666 
z
" transform="scale(0.015625)"/>
      </defs>
      <use xlink:href="#DejaVuSans-54"/>
      <use xlink:href="#DejaVuSans-72" x="46.333984"/>
      <use xlink:href="#DejaVuSans-61" x="87.447266"/>
      <use xlink:href="#DejaVuSans-69" x="148.726562"/>
      <use xlink:href="#DejaVuSans-6e" x="176.509766"/>
      <use xlink:href="#DejaVuSans-20" x="239.888672"/>
      <use xlink:href="#DejaVuSans-47" x="271.675781"/>
      <use xlink:href="#DejaVuSans-65" x="349.166016"/>
      <use xlink:href="#DejaVuSans-6e" x="410.689453"/>
      <use xlink:href="#DejaVuSans-65" x="474.068359"/>
      <use xlink:href="#DejaVuSans-72" x="535.591797"/>
      <use xlink:href="#DejaVuSans-61" x="576.705078"/>
      <use xlink:href="#DejaVuSans-6c" x="637.984375"/>
      <use xlink:href="#DejaVuSans-69" x="665.767578"/>
      <use xlink:href="#DejaVuSans-7a" x="693.550781"/>
      <use xlink:href="#DejaVuSans-65" x="746.041016"/>
      <use xlink:href="#DejaVuSans-64" x="807.564453"/>
      <use xlink:href="#DejaVuSans-20" x="871.041016"/>
      <use xlink:href="#DejaVuSans-49" x="902.828125"/>
      <use xlink:href="#DejaVuSans-6f" x="932.320312"/>
      <use xlink:href="#DejaVuSans-55" x="993.501953"/>
      <use xlink:href="#DejaVuSans-20" x="1066.695312"/>
      <use xlink:href="#DejaVuSans-4c" x="1098.482422"/>
      <use xlink:href="#DejaVuSans-6f" x="1152.445312"/>
      <use xlink:href="#DejaVuSans-73" x="1213.626953"/>
      <use xlink:href="#DejaVuSans-73" x="1265.726562"/>
     </g>
    </g>
    <g id="line2d_36">
     <path d="M 875.30925 79.450938 
L 885.30925 79.450938 
L 895.30925 79.450938 
" style="fill: none; stroke: #d62728; stroke-width: 1.5; stroke-linecap: square"/>
    </g>
    <g id="text_20">
     <!-- Val Box Regression L1 Loss -->
     <g transform="translate(903.30925 82.950938) scale(0.1 -0.1)">
      <defs>
       <path id="DejaVuSans-56" d="M 1831 0 
L 50 4666 
L 709 4666 
L 2188 738 
L 3669 4666 
L 4325 4666 
L 2547 0 
L 1831 0 
z
" transform="scale(0.015625)"/>
      </defs>
      <use xlink:href="#DejaVuSans-56"/>
      <use xlink:href="#DejaVuSans-61" x="60.658203"/>
      <use xlink:href="#DejaVuSans-6c" x="121.9375"/>
      <use xlink:href="#DejaVuSans-20" x="149.720703"/>
      <use xlink:href="#DejaVuSans-42" x="181.507812"/>
      <use xlink:href="#DejaVuSans-6f" x="250.111328"/>
      <use xlink:href="#DejaVuSans-78" x="308.167969"/>
      <use xlink:href="#DejaVuSans-20" x="367.347656"/>
      <use xlink:href="#DejaVuSans-52" x="399.134766"/>
      <use xlink:href="#DejaVuSans-65" x="464.117188"/>
      <use xlink:href="#DejaVuSans-67" x="525.640625"/>
      <use xlink:href="#DejaVuSans-72" x="589.117188"/>
      <use xlink:href="#DejaVuSans-65" x="627.980469"/>
      <use xlink:href="#DejaVuSans-73" x="689.503906"/>
      <use xlink:href="#DejaVuSans-73" x="741.603516"/>
      <use xlink:href="#DejaVuSans-69" x="793.703125"/>
      <use xlink:href="#DejaVuSans-6f" x="821.486328"/>
      <use xlink:href="#DejaVuSans-6e" x="882.667969"/>
      <use xlink:href="#DejaVuSans-20" x="946.046875"/>
      <use xlink:href="#DejaVuSans-4c" x="977.833984"/>
      <use xlink:href="#DejaVuSans-31" x="1033.546875"/>
      <use xlink:href="#DejaVuSans-20" x="1097.169922"/>
      <use xlink:href="#DejaVuSans-4c" x="1128.957031"/>
      <use xlink:href="#DejaVuSans-6f" x="1182.919922"/>
      <use xlink:href="#DejaVuSans-73" x="1244.101562"/>
      <use xlink:href="#DejaVuSans-73" x="1296.201172"/>
     </g>
    </g>
    <g id="line2d_37">
     <path d="M 875.30925 94.129062 
L 885.30925 94.129062 
L 895.30925 94.129062 
" style="fill: none; stroke: #9467bd; stroke-width: 1.5; stroke-linecap: square"/>
    </g>
    <g id="text_21">
     <!-- Val Classification Loss -->
     <g transform="translate(903.30925 97.629062) scale(0.1 -0.1)">
      <use xlink:href="#DejaVuSans-56"/>
      <use xlink:href="#DejaVuSans-61" x="60.658203"/>
      <use xlink:href="#DejaVuSans-6c" x="121.9375"/>
      <use xlink:href="#DejaVuSans-20" x="149.720703"/>
      <use xlink:href="#DejaVuSans-43" x="181.507812"/>
      <use xlink:href="#DejaVuSans-6c" x="251.332031"/>
      <use xlink:href="#DejaVuSans-61" x="279.115234"/>
      <use xlink:href="#DejaVuSans-73" x="340.394531"/>
      <use xlink:href="#DejaVuSans-73" x="392.494141"/>
      <use xlink:href="#DejaVuSans-69" x="444.59375"/>
      <use xlink:href="#DejaVuSans-66" x="472.376953"/>
      <use xlink:href="#DejaVuSans-69" x="507.582031"/>
      <use xlink:href="#DejaVuSans-63" x="535.365234"/>
      <use xlink:href="#DejaVuSans-61" x="590.345703"/>
      <use xlink:href="#DejaVuSans-74" x="651.625"/>
      <use xlink:href="#DejaVuSans-69" x="690.833984"/>
      <use xlink:href="#DejaVuSans-6f" x="718.617188"/>
      <use xlink:href="#DejaVuSans-6e" x="779.798828"/>
      <use xlink:href="#DejaVuSans-20" x="843.177734"/>
      <use xlink:href="#DejaVuSans-4c" x="874.964844"/>
      <use xlink:href="#DejaVuSans-6f" x="928.927734"/>
      <use xlink:href="#DejaVuSans-73" x="990.109375"/>
      <use xlink:href="#DejaVuSans-73" x="1042.208984"/>
     </g>
    </g>
    <g id="line2d_38">
     <path d="M 875.30925 108.807187 
L 885.30925 108.807187 
L 895.30925 108.807187 
" style="fill: none; stroke: #8c564b; stroke-width: 1.5; stroke-linecap: square"/>
    </g>
    <g id="text_22">
     <!-- Val Generalized IoU Loss -->
     <g transform="translate(903.30925 112.307187) scale(0.1 -0.1)">
      <use xlink:href="#DejaVuSans-56"/>
      <use xlink:href="#DejaVuSans-61" x="60.658203"/>
      <use xlink:href="#DejaVuSans-6c" x="121.9375"/>
      <use xlink:href="#DejaVuSans-20" x="149.720703"/>
      <use xlink:href="#DejaVuSans-47" x="181.507812"/>
      <use xlink:href="#DejaVuSans-65" x="258.998047"/>
      <use xlink:href="#DejaVuSans-6e" x="320.521484"/>
      <use xlink:href="#DejaVuSans-65" x="383.900391"/>
      <use xlink:href="#DejaVuSans-72" x="445.423828"/>
      <use xlink:href="#DejaVuSans-61" x="486.537109"/>
      <use xlink:href="#DejaVuSans-6c" x="547.816406"/>
      <use xlink:href="#DejaVuSans-69" x="575.599609"/>
      <use xlink:href="#DejaVuSans-7a" x="603.382812"/>
      <use xlink:href="#DejaVuSans-65" x="655.873047"/>
      <use xlink:href="#DejaVuSans-64" x="717.396484"/>
      <use xlink:href="#DejaVuSans-20" x="780.873047"/>
      <use xlink:href="#DejaVuSans-49" x="812.660156"/>
      <use xlink:href="#DejaVuSans-6f" x="842.152344"/>
      <use xlink:href="#DejaVuSans-55" x="903.333984"/>
      <use xlink:href="#DejaVuSans-20" x="976.527344"/>
      <use xlink:href="#DejaVuSans-4c" x="1008.314453"/>
      <use xlink:href="#DejaVuSans-6f" x="1062.277344"/>
      <use xlink:href="#DejaVuSans-73" x="1123.458984"/>
      <use xlink:href="#DejaVuSans-73" x="1175.558594"/>
     </g>
    </g>
   </g>
  </g>
 </g>
 <defs>
  <clipPath id="p1d9c67707e">
   <rect x="43.78125" y="22.318125" width="806.4" height="443.52"/>
  </clipPath>
 </defs>
</svg>
