<?xml version="1.0" encoding="utf-8" standalone="no"?>
<!DOCTYPE svg PUBLIC "-//W3C//DTD SVG 1.1//EN"
  "http://www.w3.org/Graphics/SVG/1.1/DTD/svg11.dtd">
<svg xmlns:xlink="http://www.w3.org/1999/xlink" width="942.2265pt" height="509.982812pt" viewBox="0 0 942.2265 509.982812" xmlns="http://www.w3.org/2000/svg" version="1.1">
 <metadata>
  <rdf:RDF xmlns:dc="http://purl.org/dc/elements/1.1/" xmlns:cc="http://creativecommons.org/ns#" xmlns:rdf="http://www.w3.org/1999/02/22-rdf-syntax-ns#">
   <cc:Work>
    <dc:type rdf:resource="http://purl.org/dc/dcmitype/StillImage"/>
    <dc:date>2025-04-24T16:08:02.867696</dc:date>
    <dc:format>image/svg+xml</dc:format>
    <dc:creator>
     <cc:Agent>
      <dc:title>Matplotlib v3.9.4, https://matplotlib.org/</dc:title>
     </cc:Agent>
    </dc:creator>
   </cc:Work>
  </rdf:RDF>
 </metadata>
 <defs>
  <style type="text/css">*{stroke-linejoin: round; stroke-linecap: butt}</style>
 </defs>
 <g id="figure_1">
  <g id="patch_1">
   <path d="M 0 509.982812 
L 942.2265 509.982812 
L 942.2265 0 
L 0 0 
z
" style="fill: #ffffff"/>
  </g>
  <g id="axes_1">
   <g id="patch_2">
    <path d="M 57.330625 458.877187 
L 748.530625 458.877187 
L 748.530625 26.877187 
L 57.330625 26.877187 
z
" style="fill: #ffffff"/>
   </g>
   <g id="matplotlib.axis_1">
    <g id="xtick_1">
     <g id="line2d_1">
      <path d="M 84.796834 458.877187 
L 84.796834 26.877187 
" clip-path="url(#p324861373c)" style="fill: none; stroke: #b0b0b0; stroke-width: 0.8; stroke-linecap: square"/>
     </g>
     <g id="line2d_2">
      <defs>
       <path id="ma4e627a9d6" d="M 0 0 
L 0 3.5 
" style="stroke: #000000; stroke-width: 0.8"/>
      </defs>
      <g>
       <use xlink:href="#ma4e627a9d6" x="84.796834" y="458.877187" style="stroke: #000000; stroke-width: 0.8"/>
      </g>
     </g>
     <g id="text_1">
      <!-- 0 -->
      <g transform="translate(81.615584 473.475625) scale(0.1 -0.1)">
       <defs>
        <path id="DejaVuSans-30" d="M 2034 4250 
Q 1547 4250 1301 3770 
Q 1056 3291 1056 2328 
Q 1056 1369 1301 889 
Q 1547 409 2034 409 
Q 2525 409 2770 889 
Q 3016 1369 3016 2328 
Q 3016 3291 2770 3770 
Q 2525 4250 2034 4250 
z
M 2034 4750 
Q 2819 4750 3233 4129 
Q 3647 3509 3647 2328 
Q 3647 1150 3233 529 
Q 2819 -91 2034 -91 
Q 1250 -91 836 529 
Q 422 1150 422 2328 
Q 422 3509 836 4129 
Q 1250 4750 2034 4750 
z
" transform="scale(0.015625)"/>
       </defs>
       <use xlink:href="#DejaVuSans-30"/>
      </g>
     </g>
    </g>
    <g id="xtick_2">
     <g id="line2d_3">
      <path d="M 163.836285 458.877187 
L 163.836285 26.877187 
" clip-path="url(#p324861373c)" style="fill: none; stroke: #b0b0b0; stroke-width: 0.8; stroke-linecap: square"/>
     </g>
     <g id="line2d_4">
      <g>
       <use xlink:href="#ma4e627a9d6" x="163.836285" y="458.877187" style="stroke: #000000; stroke-width: 0.8"/>
      </g>
     </g>
     <g id="text_2">
      <!-- 20 -->
      <g transform="translate(157.473785 473.475625) scale(0.1 -0.1)">
       <defs>
        <path id="DejaVuSans-32" d="M 1228 531 
L 3431 531 
L 3431 0 
L 469 0 
L 469 531 
Q 828 903 1448 1529 
Q 2069 2156 2228 2338 
Q 2531 2678 2651 2914 
Q 2772 3150 2772 3378 
Q 2772 3750 2511 3984 
Q 2250 4219 1831 4219 
Q 1534 4219 1204 4116 
Q 875 4013 500 3803 
L 500 4441 
Q 881 4594 1212 4672 
Q 1544 4750 1819 4750 
Q 2544 4750 2975 4387 
Q 3406 4025 3406 3419 
Q 3406 3131 3298 2873 
Q 3191 2616 2906 2266 
Q 2828 2175 2409 1742 
Q 1991 1309 1228 531 
z
" transform="scale(0.015625)"/>
       </defs>
       <use xlink:href="#DejaVuSans-32"/>
       <use xlink:href="#DejaVuSans-30" x="63.623047"/>
      </g>
     </g>
    </g>
    <g id="xtick_3">
     <g id="line2d_5">
      <path d="M 242.875736 458.877187 
L 242.875736 26.877187 
" clip-path="url(#p324861373c)" style="fill: none; stroke: #b0b0b0; stroke-width: 0.8; stroke-linecap: square"/>
     </g>
     <g id="line2d_6">
      <g>
       <use xlink:href="#ma4e627a9d6" x="242.875736" y="458.877187" style="stroke: #000000; stroke-width: 0.8"/>
      </g>
     </g>
     <g id="text_3">
      <!-- 40 -->
      <g transform="translate(236.513236 473.475625) scale(0.1 -0.1)">
       <defs>
        <path id="DejaVuSans-34" d="M 2419 4116 
L 825 1625 
L 2419 1625 
L 2419 4116 
z
M 2253 4666 
L 3047 4666 
L 3047 1625 
L 3713 1625 
L 3713 1100 
L 3047 1100 
L 3047 0 
L 2419 0 
L 2419 1100 
L 313 1100 
L 313 1709 
L 2253 4666 
z
" transform="scale(0.015625)"/>
       </defs>
       <use xlink:href="#DejaVuSans-34"/>
       <use xlink:href="#DejaVuSans-30" x="63.623047"/>
      </g>
     </g>
    </g>
    <g id="xtick_4">
     <g id="line2d_7">
      <path d="M 321.915188 458.877187 
L 321.915188 26.877187 
" clip-path="url(#p324861373c)" style="fill: none; stroke: #b0b0b0; stroke-width: 0.8; stroke-linecap: square"/>
     </g>
     <g id="line2d_8">
      <g>
       <use xlink:href="#ma4e627a9d6" x="321.915188" y="458.877187" style="stroke: #000000; stroke-width: 0.8"/>
      </g>
     </g>
     <g id="text_4">
      <!-- 60 -->
      <g transform="translate(315.552688 473.475625) scale(0.1 -0.1)">
       <defs>
        <path id="DejaVuSans-36" d="M 2113 2584 
Q 1688 2584 1439 2293 
Q 1191 2003 1191 1497 
Q 1191 994 1439 701 
Q 1688 409 2113 409 
Q 2538 409 2786 701 
Q 3034 994 3034 1497 
Q 3034 2003 2786 2293 
Q 2538 2584 2113 2584 
z
M 3366 4563 
L 3366 3988 
Q 3128 4100 2886 4159 
Q 2644 4219 2406 4219 
Q 1781 4219 1451 3797 
Q 1122 3375 1075 2522 
Q 1259 2794 1537 2939 
Q 1816 3084 2150 3084 
Q 2853 3084 3261 2657 
Q 3669 2231 3669 1497 
Q 3669 778 3244 343 
Q 2819 -91 2113 -91 
Q 1303 -91 875 529 
Q 447 1150 447 2328 
Q 447 3434 972 4092 
Q 1497 4750 2381 4750 
Q 2619 4750 2861 4703 
Q 3103 4656 3366 4563 
z
" transform="scale(0.015625)"/>
       </defs>
       <use xlink:href="#DejaVuSans-36"/>
       <use xlink:href="#DejaVuSans-30" x="63.623047"/>
      </g>
     </g>
    </g>
    <g id="xtick_5">
     <g id="line2d_9">
      <path d="M 400.954639 458.877187 
L 400.954639 26.877187 
" clip-path="url(#p324861373c)" style="fill: none; stroke: #b0b0b0; stroke-width: 0.8; stroke-linecap: square"/>
     </g>
     <g id="line2d_10">
      <g>
       <use xlink:href="#ma4e627a9d6" x="400.954639" y="458.877187" style="stroke: #000000; stroke-width: 0.8"/>
      </g>
     </g>
     <g id="text_5">
      <!-- 80 -->
      <g transform="translate(394.592139 473.475625) scale(0.1 -0.1)">
       <defs>
        <path id="DejaVuSans-38" d="M 2034 2216 
Q 1584 2216 1326 1975 
Q 1069 1734 1069 1313 
Q 1069 891 1326 650 
Q 1584 409 2034 409 
Q 2484 409 2743 651 
Q 3003 894 3003 1313 
Q 3003 1734 2745 1975 
Q 2488 2216 2034 2216 
z
M 1403 2484 
Q 997 2584 770 2862 
Q 544 3141 544 3541 
Q 544 4100 942 4425 
Q 1341 4750 2034 4750 
Q 2731 4750 3128 4425 
Q 3525 4100 3525 3541 
Q 3525 3141 3298 2862 
Q 3072 2584 2669 2484 
Q 3125 2378 3379 2068 
Q 3634 1759 3634 1313 
Q 3634 634 3220 271 
Q 2806 -91 2034 -91 
Q 1263 -91 848 271 
Q 434 634 434 1313 
Q 434 1759 690 2068 
Q 947 2378 1403 2484 
z
M 1172 3481 
Q 1172 3119 1398 2916 
Q 1625 2713 2034 2713 
Q 2441 2713 2670 2916 
Q 2900 3119 2900 3481 
Q 2900 3844 2670 4047 
Q 2441 4250 2034 4250 
Q 1625 4250 1398 4047 
Q 1172 3844 1172 3481 
z
" transform="scale(0.015625)"/>
       </defs>
       <use xlink:href="#DejaVuSans-38"/>
       <use xlink:href="#DejaVuSans-30" x="63.623047"/>
      </g>
     </g>
    </g>
    <g id="xtick_6">
     <g id="line2d_11">
      <path d="M 479.99409 458.877187 
L 479.99409 26.877187 
" clip-path="url(#p324861373c)" style="fill: none; stroke: #b0b0b0; stroke-width: 0.8; stroke-linecap: square"/>
     </g>
     <g id="line2d_12">
      <g>
       <use xlink:href="#ma4e627a9d6" x="479.99409" y="458.877187" style="stroke: #000000; stroke-width: 0.8"/>
      </g>
     </g>
     <g id="text_6">
      <!-- 100 -->
      <g transform="translate(470.45034 473.475625) scale(0.1 -0.1)">
       <defs>
        <path id="DejaVuSans-31" d="M 794 531 
L 1825 531 
L 1825 4091 
L 703 3866 
L 703 4441 
L 1819 4666 
L 2450 4666 
L 2450 531 
L 3481 531 
L 3481 0 
L 794 0 
L 794 531 
z
" transform="scale(0.015625)"/>
       </defs>
       <use xlink:href="#DejaVuSans-31"/>
       <use xlink:href="#DejaVuSans-30" x="63.623047"/>
       <use xlink:href="#DejaVuSans-30" x="127.246094"/>
      </g>
     </g>
    </g>
    <g id="xtick_7">
     <g id="line2d_13">
      <path d="M 559.033541 458.877187 
L 559.033541 26.877187 
" clip-path="url(#p324861373c)" style="fill: none; stroke: #b0b0b0; stroke-width: 0.8; stroke-linecap: square"/>
     </g>
     <g id="line2d_14">
      <g>
       <use xlink:href="#ma4e627a9d6" x="559.033541" y="458.877187" style="stroke: #000000; stroke-width: 0.8"/>
      </g>
     </g>
     <g id="text_7">
      <!-- 120 -->
      <g transform="translate(549.489791 473.475625) scale(0.1 -0.1)">
       <use xlink:href="#DejaVuSans-31"/>
       <use xlink:href="#DejaVuSans-32" x="63.623047"/>
       <use xlink:href="#DejaVuSans-30" x="127.246094"/>
      </g>
     </g>
    </g>
    <g id="xtick_8">
     <g id="line2d_15">
      <path d="M 638.072992 458.877187 
L 638.072992 26.877187 
" clip-path="url(#p324861373c)" style="fill: none; stroke: #b0b0b0; stroke-width: 0.8; stroke-linecap: square"/>
     </g>
     <g id="line2d_16">
      <g>
       <use xlink:href="#ma4e627a9d6" x="638.072992" y="458.877187" style="stroke: #000000; stroke-width: 0.8"/>
      </g>
     </g>
     <g id="text_8">
      <!-- 140 -->
      <g transform="translate(628.529242 473.475625) scale(0.1 -0.1)">
       <use xlink:href="#DejaVuSans-31"/>
       <use xlink:href="#DejaVuSans-34" x="63.623047"/>
       <use xlink:href="#DejaVuSans-30" x="127.246094"/>
      </g>
     </g>
    </g>
    <g id="xtick_9">
     <g id="line2d_17">
      <path d="M 717.112443 458.877187 
L 717.112443 26.877187 
" clip-path="url(#p324861373c)" style="fill: none; stroke: #b0b0b0; stroke-width: 0.8; stroke-linecap: square"/>
     </g>
     <g id="line2d_18">
      <g>
       <use xlink:href="#ma4e627a9d6" x="717.112443" y="458.877187" style="stroke: #000000; stroke-width: 0.8"/>
      </g>
     </g>
     <g id="text_9">
      <!-- 160 -->
      <g transform="translate(707.568693 473.475625) scale(0.1 -0.1)">
       <use xlink:href="#DejaVuSans-31"/>
       <use xlink:href="#DejaVuSans-36" x="63.623047"/>
       <use xlink:href="#DejaVuSans-30" x="127.246094"/>
      </g>
     </g>
    </g>
    <g id="text_10">
     <!-- Epochs -->
     <g transform="translate(359.933125 497.791562) scale(0.24 -0.24)">
      <defs>
       <path id="DejaVuSans-45" d="M 628 4666 
L 3578 4666 
L 3578 4134 
L 1259 4134 
L 1259 2753 
L 3481 2753 
L 3481 2222 
L 1259 2222 
L 1259 531 
L 3634 531 
L 3634 0 
L 628 0 
L 628 4666 
z
" transform="scale(0.015625)"/>
       <path id="DejaVuSans-70" d="M 1159 525 
L 1159 -1331 
L 581 -1331 
L 581 3500 
L 1159 3500 
L 1159 2969 
Q 1341 3281 1617 3432 
Q 1894 3584 2278 3584 
Q 2916 3584 3314 3078 
Q 3713 2572 3713 1747 
Q 3713 922 3314 415 
Q 2916 -91 2278 -91 
Q 1894 -91 1617 61 
Q 1341 213 1159 525 
z
M 3116 1747 
Q 3116 2381 2855 2742 
Q 2594 3103 2138 3103 
Q 1681 3103 1420 2742 
Q 1159 2381 1159 1747 
Q 1159 1113 1420 752 
Q 1681 391 2138 391 
Q 2594 391 2855 752 
Q 3116 1113 3116 1747 
z
" transform="scale(0.015625)"/>
       <path id="DejaVuSans-6f" d="M 1959 3097 
Q 1497 3097 1228 2736 
Q 959 2375 959 1747 
Q 959 1119 1226 758 
Q 1494 397 1959 397 
Q 2419 397 2687 759 
Q 2956 1122 2956 1747 
Q 2956 2369 2687 2733 
Q 2419 3097 1959 3097 
z
M 1959 3584 
Q 2709 3584 3137 3096 
Q 3566 2609 3566 1747 
Q 3566 888 3137 398 
Q 2709 -91 1959 -91 
Q 1206 -91 779 398 
Q 353 888 353 1747 
Q 353 2609 779 3096 
Q 1206 3584 1959 3584 
z
" transform="scale(0.015625)"/>
       <path id="DejaVuSans-63" d="M 3122 3366 
L 3122 2828 
Q 2878 2963 2633 3030 
Q 2388 3097 2138 3097 
Q 1578 3097 1268 2742 
Q 959 2388 959 1747 
Q 959 1106 1268 751 
Q 1578 397 2138 397 
Q 2388 397 2633 464 
Q 2878 531 3122 666 
L 3122 134 
Q 2881 22 2623 -34 
Q 2366 -91 2075 -91 
Q 1284 -91 818 406 
Q 353 903 353 1747 
Q 353 2603 823 3093 
Q 1294 3584 2113 3584 
Q 2378 3584 2631 3529 
Q 2884 3475 3122 3366 
z
" transform="scale(0.015625)"/>
       <path id="DejaVuSans-68" d="M 3513 2113 
L 3513 0 
L 2938 0 
L 2938 2094 
Q 2938 2591 2744 2837 
Q 2550 3084 2163 3084 
Q 1697 3084 1428 2787 
Q 1159 2491 1159 1978 
L 1159 0 
L 581 0 
L 581 4863 
L 1159 4863 
L 1159 2956 
Q 1366 3272 1645 3428 
Q 1925 3584 2291 3584 
Q 2894 3584 3203 3211 
Q 3513 2838 3513 2113 
z
" transform="scale(0.015625)"/>
       <path id="DejaVuSans-73" d="M 2834 3397 
L 2834 2853 
Q 2591 2978 2328 3040 
Q 2066 3103 1784 3103 
Q 1356 3103 1142 2972 
Q 928 2841 928 2578 
Q 928 2378 1081 2264 
Q 1234 2150 1697 2047 
L 1894 2003 
Q 2506 1872 2764 1633 
Q 3022 1394 3022 966 
Q 3022 478 2636 193 
Q 2250 -91 1575 -91 
Q 1294 -91 989 -36 
Q 684 19 347 128 
L 347 722 
Q 666 556 975 473 
Q 1284 391 1588 391 
Q 1994 391 2212 530 
Q 2431 669 2431 922 
Q 2431 1156 2273 1281 
Q 2116 1406 1581 1522 
L 1381 1569 
Q 847 1681 609 1914 
Q 372 2147 372 2553 
Q 372 3047 722 3315 
Q 1072 3584 1716 3584 
Q 2034 3584 2315 3537 
Q 2597 3491 2834 3397 
z
" transform="scale(0.015625)"/>
      </defs>
      <use xlink:href="#DejaVuSans-45"/>
      <use xlink:href="#DejaVuSans-70" x="63.183594"/>
      <use xlink:href="#DejaVuSans-6f" x="126.660156"/>
      <use xlink:href="#DejaVuSans-63" x="187.841797"/>
      <use xlink:href="#DejaVuSans-68" x="242.822266"/>
      <use xlink:href="#DejaVuSans-73" x="306.201172"/>
     </g>
    </g>
   </g>
   <g id="matplotlib.axis_2">
    <g id="ytick_1">
     <g id="line2d_19">
      <path d="M 57.330625 439.25762 
L 748.530625 439.25762 
" clip-path="url(#p324861373c)" style="fill: none; stroke: #b0b0b0; stroke-width: 0.8; stroke-linecap: square"/>
     </g>
     <g id="line2d_20">
      <defs>
       <path id="m37521eb507" d="M 0 0 
L -3.5 0 
" style="stroke: #000000; stroke-width: 0.8"/>
      </defs>
      <g>
       <use xlink:href="#m37521eb507" x="57.330625" y="439.25762" style="stroke: #000000; stroke-width: 0.8"/>
      </g>
     </g>
     <g id="text_11">
      <!-- 0.0 -->
      <g transform="translate(34.4275 443.056839) scale(0.1 -0.1)">
       <defs>
        <path id="DejaVuSans-2e" d="M 684 794 
L 1344 794 
L 1344 0 
L 684 0 
L 684 794 
z
" transform="scale(0.015625)"/>
       </defs>
       <use xlink:href="#DejaVuSans-30"/>
       <use xlink:href="#DejaVuSans-2e" x="63.623047"/>
       <use xlink:href="#DejaVuSans-30" x="95.410156"/>
      </g>
     </g>
    </g>
    <g id="ytick_2">
     <g id="line2d_21">
      <path d="M 57.330625 355.276038 
L 748.530625 355.276038 
" clip-path="url(#p324861373c)" style="fill: none; stroke: #b0b0b0; stroke-width: 0.8; stroke-linecap: square"/>
     </g>
     <g id="line2d_22">
      <g>
       <use xlink:href="#m37521eb507" x="57.330625" y="355.276038" style="stroke: #000000; stroke-width: 0.8"/>
      </g>
     </g>
     <g id="text_12">
      <!-- 0.2 -->
      <g transform="translate(34.4275 359.075257) scale(0.1 -0.1)">
       <use xlink:href="#DejaVuSans-30"/>
       <use xlink:href="#DejaVuSans-2e" x="63.623047"/>
       <use xlink:href="#DejaVuSans-32" x="95.410156"/>
      </g>
     </g>
    </g>
    <g id="ytick_3">
     <g id="line2d_23">
      <path d="M 57.330625 271.294457 
L 748.530625 271.294457 
" clip-path="url(#p324861373c)" style="fill: none; stroke: #b0b0b0; stroke-width: 0.8; stroke-linecap: square"/>
     </g>
     <g id="line2d_24">
      <g>
       <use xlink:href="#m37521eb507" x="57.330625" y="271.294457" style="stroke: #000000; stroke-width: 0.8"/>
      </g>
     </g>
     <g id="text_13">
      <!-- 0.4 -->
      <g transform="translate(34.4275 275.093675) scale(0.1 -0.1)">
       <use xlink:href="#DejaVuSans-30"/>
       <use xlink:href="#DejaVuSans-2e" x="63.623047"/>
       <use xlink:href="#DejaVuSans-34" x="95.410156"/>
      </g>
     </g>
    </g>
    <g id="ytick_4">
     <g id="line2d_25">
      <path d="M 57.330625 187.312875 
L 748.530625 187.312875 
" clip-path="url(#p324861373c)" style="fill: none; stroke: #b0b0b0; stroke-width: 0.8; stroke-linecap: square"/>
     </g>
     <g id="line2d_26">
      <g>
       <use xlink:href="#m37521eb507" x="57.330625" y="187.312875" style="stroke: #000000; stroke-width: 0.8"/>
      </g>
     </g>
     <g id="text_14">
      <!-- 0.6 -->
      <g transform="translate(34.4275 191.112093) scale(0.1 -0.1)">
       <use xlink:href="#DejaVuSans-30"/>
       <use xlink:href="#DejaVuSans-2e" x="63.623047"/>
       <use xlink:href="#DejaVuSans-36" x="95.410156"/>
      </g>
     </g>
    </g>
    <g id="ytick_5">
     <g id="line2d_27">
      <path d="M 57.330625 103.331293 
L 748.530625 103.331293 
" clip-path="url(#p324861373c)" style="fill: none; stroke: #b0b0b0; stroke-width: 0.8; stroke-linecap: square"/>
     </g>
     <g id="line2d_28">
      <g>
       <use xlink:href="#m37521eb507" x="57.330625" y="103.331293" style="stroke: #000000; stroke-width: 0.8"/>
      </g>
     </g>
     <g id="text_15">
      <!-- 0.8 -->
      <g transform="translate(34.4275 107.130512) scale(0.1 -0.1)">
       <use xlink:href="#DejaVuSans-30"/>
       <use xlink:href="#DejaVuSans-2e" x="63.623047"/>
       <use xlink:href="#DejaVuSans-38" x="95.410156"/>
      </g>
     </g>
    </g>
    <g id="text_16">
     <!-- Average Precision (AP) -->
     <g transform="translate(25.43625 378.128437) rotate(-90) scale(0.24 -0.24)">
      <defs>
       <path id="DejaVuSans-41" d="M 2188 4044 
L 1331 1722 
L 3047 1722 
L 2188 4044 
z
M 1831 4666 
L 2547 4666 
L 4325 0 
L 3669 0 
L 3244 1197 
L 1141 1197 
L 716 0 
L 50 0 
L 1831 4666 
z
" transform="scale(0.015625)"/>
       <path id="DejaVuSans-76" d="M 191 3500 
L 800 3500 
L 1894 563 
L 2988 3500 
L 3597 3500 
L 2284 0 
L 1503 0 
L 191 3500 
z
" transform="scale(0.015625)"/>
       <path id="DejaVuSans-65" d="M 3597 1894 
L 3597 1613 
L 953 1613 
Q 991 1019 1311 708 
Q 1631 397 2203 397 
Q 2534 397 2845 478 
Q 3156 559 3463 722 
L 3463 178 
Q 3153 47 2828 -22 
Q 2503 -91 2169 -91 
Q 1331 -91 842 396 
Q 353 884 353 1716 
Q 353 2575 817 3079 
Q 1281 3584 2069 3584 
Q 2775 3584 3186 3129 
Q 3597 2675 3597 1894 
z
M 3022 2063 
Q 3016 2534 2758 2815 
Q 2500 3097 2075 3097 
Q 1594 3097 1305 2825 
Q 1016 2553 972 2059 
L 3022 2063 
z
" transform="scale(0.015625)"/>
       <path id="DejaVuSans-72" d="M 2631 2963 
Q 2534 3019 2420 3045 
Q 2306 3072 2169 3072 
Q 1681 3072 1420 2755 
Q 1159 2438 1159 1844 
L 1159 0 
L 581 0 
L 581 3500 
L 1159 3500 
L 1159 2956 
Q 1341 3275 1631 3429 
Q 1922 3584 2338 3584 
Q 2397 3584 2469 3576 
Q 2541 3569 2628 3553 
L 2631 2963 
z
" transform="scale(0.015625)"/>
       <path id="DejaVuSans-61" d="M 2194 1759 
Q 1497 1759 1228 1600 
Q 959 1441 959 1056 
Q 959 750 1161 570 
Q 1363 391 1709 391 
Q 2188 391 2477 730 
Q 2766 1069 2766 1631 
L 2766 1759 
L 2194 1759 
z
M 3341 1997 
L 3341 0 
L 2766 0 
L 2766 531 
Q 2569 213 2275 61 
Q 1981 -91 1556 -91 
Q 1019 -91 701 211 
Q 384 513 384 1019 
Q 384 1609 779 1909 
Q 1175 2209 1959 2209 
L 2766 2209 
L 2766 2266 
Q 2766 2663 2505 2880 
Q 2244 3097 1772 3097 
Q 1472 3097 1187 3025 
Q 903 2953 641 2809 
L 641 3341 
Q 956 3463 1253 3523 
Q 1550 3584 1831 3584 
Q 2591 3584 2966 3190 
Q 3341 2797 3341 1997 
z
" transform="scale(0.015625)"/>
       <path id="DejaVuSans-67" d="M 2906 1791 
Q 2906 2416 2648 2759 
Q 2391 3103 1925 3103 
Q 1463 3103 1205 2759 
Q 947 2416 947 1791 
Q 947 1169 1205 825 
Q 1463 481 1925 481 
Q 2391 481 2648 825 
Q 2906 1169 2906 1791 
z
M 3481 434 
Q 3481 -459 3084 -895 
Q 2688 -1331 1869 -1331 
Q 1566 -1331 1297 -1286 
Q 1028 -1241 775 -1147 
L 775 -588 
Q 1028 -725 1275 -790 
Q 1522 -856 1778 -856 
Q 2344 -856 2625 -561 
Q 2906 -266 2906 331 
L 2906 616 
Q 2728 306 2450 153 
Q 2172 0 1784 0 
Q 1141 0 747 490 
Q 353 981 353 1791 
Q 353 2603 747 3093 
Q 1141 3584 1784 3584 
Q 2172 3584 2450 3431 
Q 2728 3278 2906 2969 
L 2906 3500 
L 3481 3500 
L 3481 434 
z
" transform="scale(0.015625)"/>
       <path id="DejaVuSans-20" transform="scale(0.015625)"/>
       <path id="DejaVuSans-50" d="M 1259 4147 
L 1259 2394 
L 2053 2394 
Q 2494 2394 2734 2622 
Q 2975 2850 2975 3272 
Q 2975 3691 2734 3919 
Q 2494 4147 2053 4147 
L 1259 4147 
z
M 628 4666 
L 2053 4666 
Q 2838 4666 3239 4311 
Q 3641 3956 3641 3272 
Q 3641 2581 3239 2228 
Q 2838 1875 2053 1875 
L 1259 1875 
L 1259 0 
L 628 0 
L 628 4666 
z
" transform="scale(0.015625)"/>
       <path id="DejaVuSans-69" d="M 603 3500 
L 1178 3500 
L 1178 0 
L 603 0 
L 603 3500 
z
M 603 4863 
L 1178 4863 
L 1178 4134 
L 603 4134 
L 603 4863 
z
" transform="scale(0.015625)"/>
       <path id="DejaVuSans-6e" d="M 3513 2113 
L 3513 0 
L 2938 0 
L 2938 2094 
Q 2938 2591 2744 2837 
Q 2550 3084 2163 3084 
Q 1697 3084 1428 2787 
Q 1159 2491 1159 1978 
L 1159 0 
L 581 0 
L 581 3500 
L 1159 3500 
L 1159 2956 
Q 1366 3272 1645 3428 
Q 1925 3584 2291 3584 
Q 2894 3584 3203 3211 
Q 3513 2838 3513 2113 
z
" transform="scale(0.015625)"/>
       <path id="DejaVuSans-28" d="M 1984 4856 
Q 1566 4138 1362 3434 
Q 1159 2731 1159 2009 
Q 1159 1288 1364 580 
Q 1569 -128 1984 -844 
L 1484 -844 
Q 1016 -109 783 600 
Q 550 1309 550 2009 
Q 550 2706 781 3412 
Q 1013 4119 1484 4856 
L 1984 4856 
z
" transform="scale(0.015625)"/>
       <path id="DejaVuSans-29" d="M 513 4856 
L 1013 4856 
Q 1481 4119 1714 3412 
Q 1947 2706 1947 2009 
Q 1947 1309 1714 600 
Q 1481 -109 1013 -844 
L 513 -844 
Q 928 -128 1133 580 
Q 1338 1288 1338 2009 
Q 1338 2731 1133 3434 
Q 928 4138 513 4856 
z
" transform="scale(0.015625)"/>
      </defs>
      <use xlink:href="#DejaVuSans-41"/>
      <use xlink:href="#DejaVuSans-76" x="62.533203"/>
      <use xlink:href="#DejaVuSans-65" x="121.712891"/>
      <use xlink:href="#DejaVuSans-72" x="183.236328"/>
      <use xlink:href="#DejaVuSans-61" x="224.349609"/>
      <use xlink:href="#DejaVuSans-67" x="285.628906"/>
      <use xlink:href="#DejaVuSans-65" x="349.105469"/>
      <use xlink:href="#DejaVuSans-20" x="410.628906"/>
      <use xlink:href="#DejaVuSans-50" x="442.416016"/>
      <use xlink:href="#DejaVuSans-72" x="500.96875"/>
      <use xlink:href="#DejaVuSans-65" x="539.832031"/>
      <use xlink:href="#DejaVuSans-63" x="601.355469"/>
      <use xlink:href="#DejaVuSans-69" x="656.335938"/>
      <use xlink:href="#DejaVuSans-73" x="684.119141"/>
      <use xlink:href="#DejaVuSans-69" x="736.21875"/>
      <use xlink:href="#DejaVuSans-6f" x="764.001953"/>
      <use xlink:href="#DejaVuSans-6e" x="825.183594"/>
      <use xlink:href="#DejaVuSans-20" x="888.5625"/>
      <use xlink:href="#DejaVuSans-28" x="920.349609"/>
      <use xlink:href="#DejaVuSans-41" x="959.363281"/>
      <use xlink:href="#DejaVuSans-50" x="1027.771484"/>
      <use xlink:href="#DejaVuSans-29" x="1088.074219"/>
     </g>
    </g>
   </g>
   <g id="line2d_29">
    <path d="M 88.748807 439.198833 
L 92.700779 439.144245 
L 96.652752 367.570944 
L 100.604724 46.513551 
L 104.556697 97.956476 
L 108.50867 81.088769 
L 112.460642 53.971107 
L 116.412615 47.538141 
L 120.364587 95.852733 
L 124.31656 79.253783 
L 128.268532 120.875038 
L 132.220505 58.388555 
L 136.172477 55.3946 
L 140.12445 193.464535 
L 144.076423 181.136041 
L 148.028395 183.369931 
L 151.980368 181.186423 
L 155.93234 165.952149 
L 159.884313 167.808159 
L 163.836285 186.174921 
L 167.788258 173.775045 
L 171.74023 168.929309 
L 175.692203 144.675428 
L 179.644176 150.276998 
L 183.596148 140.883667 
L 187.548121 153.661447 
L 191.500093 156.932542 
L 195.452066 158.041103 
L 199.404038 126.216262 
L 203.356011 142.021611 
L 207.307983 133.783017 
L 211.259956 145.737787 
L 215.211929 138.58255 
L 219.163901 135.21069 
L 223.115874 147.509802 
L 227.067846 129.478947 
L 231.019819 134.551441 
L 234.971791 121.996188 
L 238.923764 127.051887 
L 242.875736 124.368686 
L 246.827709 125.733388 
L 250.779682 131.834651 
L 254.731654 116.419822 
L 258.683627 121.106001 
L 262.635599 146.926138 
L 266.587572 140.341976 
L 270.539544 141.706677 
L 274.491517 130.982232 
L 278.443489 131.242578 
L 282.395462 146.741378 
L 286.347435 128.357797 
L 290.299407 139.930458 
L 294.25138 119.111433 
L 298.203352 121.038799 
L 302.155325 106.211864 
L 306.107297 113.912971 
L 310.05927 111.565677 
L 314.011242 117.721527 
L 317.963215 127.912691 
L 321.915188 120.492929 
L 325.86716 131.49031 
L 329.819133 124.47786 
L 333.771105 190.726722 
L 337.723078 118.41439 
L 341.67505 135.987524 
L 345.627023 124.162927 
L 349.578995 114.572221 
L 353.530968 134.94196 
L 357.482941 120.450931 
L 361.434913 136.642594 
L 365.386886 120.224198 
L 369.338858 130.520332 
L 373.290831 126.002119 
L 377.242803 114.891359 
L 381.194776 132.708044 
L 385.146748 143.016792 
L 389.098721 114.215315 
L 393.050694 123.764024 
L 397.002666 127.669164 
L 400.954639 122.193563 
L 404.906611 117.704733 
L 408.858584 122.588261 
L 412.810556 106.283245 
L 416.762529 109.902861 
L 420.714502 108.034261 
L 424.666474 116.591993 
L 428.618447 116.852339 
L 432.570419 116.83552 
L 436.522392 113.404893 
L 440.474364 105.115892 
L 444.426337 111.086982 
L 448.378309 106.690558 
L 452.330282 103.049943 
L 456.282255 110.490729 
L 460.234227 104.742192 
L 464.1862 103.66722 
L 468.138172 96.079491 
L 472.090145 100.610294 
L 476.042117 107.799119 
L 479.99409 76.150654 
L 483.946062 87.630934 
L 487.898035 108.344989 
L 491.850008 105.111713 
L 495.80198 97.97327 
L 499.753953 98.653518 
L 503.705925 121.370527 
L 507.657898 104.213091 
L 511.60987 94.895345 
L 515.561843 94.122716 
L 519.513815 104.905954 
L 523.465788 96.083671 
L 527.417761 82.885988 
L 531.369733 100.21557 
L 535.321706 106.724146 
L 539.273678 101.958201 
L 543.225651 107.58495 
L 547.177623 88.038247 
L 551.129596 85.061111 
L 555.081568 86.522373 
L 559.033541 89.995022 
L 562.985514 78.867468 
L 566.937486 91.838418 
L 570.889459 83.860171 
L 574.841431 92.300319 
L 578.793404 94.240275 
L 582.745376 89.6675 
L 586.697349 87.584756 
L 590.649321 86.963275 
L 594.601294 79.165582 
L 598.553267 80.366523 
L 602.505239 79.438543 
L 606.457212 72.728412 
L 610.409184 73.526219 
L 614.361157 72.892173 
L 618.313129 79.77445 
L 622.265102 78.636506 
L 626.217074 76.478176 
L 630.169047 79.006026 
L 634.12102 77.99405 
L 638.072992 76.070863 
L 642.024965 71.964168 
L 645.976937 69.390141 
L 649.92891 79.375546 
L 653.880882 83.457062 
L 657.832855 72.379891 
L 661.784827 80.295142 
L 665.7368 76.154859 
L 669.688773 77.271804 
L 673.640745 82.130153 
L 677.592718 86.0185 
L 681.54469 100.879024 
L 685.496663 91.200143 
L 689.448635 89.293775 
L 693.400608 89.394539 
L 697.35258 102.667833 
L 701.304553 89.890053 
L 705.256526 105.325856 
L 709.208498 84.687386 
L 713.160471 96.768124 
L 717.112443 88.021453 
L 717.112443 87.31107 
L 717.112443 87.31107 
" clip-path="url(#p324861373c)" style="fill: none; stroke: #1f77b4; stroke-width: 1.5; stroke-linecap: square"/>
   </g>
   <g id="line2d_30">
    <path d="M 88.748807 426.122901 
L 92.700779 397.338213 
L 96.652752 372.861779 
L 100.604724 382.926975 
L 104.556697 352.899359 
L 108.50867 331.471461 
L 112.460642 323.447023 
L 116.412615 317.99242 
L 120.364587 286.041624 
L 124.31656 271.491816 
L 128.268532 259.88976 
L 132.220505 261.909519 
L 136.172477 271.265058 
L 140.12445 222.370982 
L 144.076423 231.172253 
L 148.028395 211.419779 
L 151.980368 221.044073 
L 155.93234 205.734238 
L 159.884313 210.076075 
L 163.836285 228.875354 
L 167.788258 211.738916 
L 171.74023 230.714558 
L 175.692203 209.584792 
L 179.644176 201.186642 
L 183.596148 198.268273 
L 187.548121 187.258278 
L 191.500093 199.754738 
L 195.452066 191.381792 
L 199.404038 195.916799 
L 203.356011 198.154894 
L 207.307983 205.730033 
L 211.259956 169.840496 
L 215.211929 193.733266 
L 219.163901 181.136041 
L 223.115874 189.660159 
L 227.067846 172.977213 
L 231.019819 191.612729 
L 234.971791 186.84258 
L 238.923764 192.141806 
L 242.875736 182.030433 
L 246.827709 206.263315 
L 250.779682 189.286434 
L 254.731654 184.251734 
L 258.683627 197.894548 
L 262.635599 136.365454 
L 266.587572 137.377429 
L 270.539544 165.418867 
L 274.491517 166.460252 
L 278.443489 150.982451 
L 282.395462 147.535005 
L 286.347435 150.155235 
L 290.299407 148.794713 
L 294.25138 144.986157 
L 298.203352 135.681 
L 302.155325 160.241405 
L 310.05927 140.963432 
L 314.011242 135.798584 
L 317.963215 125.926533 
L 321.915188 137.0877 
L 325.86716 136.289868 
L 329.819133 132.548488 
L 333.771105 187.329659 
L 337.723078 116.575199 
L 341.67505 115.966331 
L 345.627023 124.85997 
L 349.578995 122.903195 
L 353.530968 133.871192 
L 357.482941 129.277393 
L 361.434913 135.462652 
L 365.386886 124.889353 
L 369.338858 131.263577 
L 373.290831 136.671977 
L 377.242803 116.482818 
L 381.194776 139.04027 
L 385.146748 127.219853 
L 389.098721 111.259153 
L 393.050694 120.576899 
L 397.002666 134.937755 
L 400.954639 138.712723 
L 404.906611 116.507997 
L 408.858584 123.537266 
L 412.810556 103.835186 
L 416.762529 115.160089 
L 420.714502 118.565562 
L 424.666474 117.242833 
L 428.618447 110.180001 
L 432.570419 111.376737 
L 436.522392 105.355239 
L 440.474364 113.715622 
L 444.426337 115.634604 
L 448.378309 118.334599 
L 452.330282 125.023731 
L 456.282255 106.959289 
L 460.234227 116.566789 
L 464.1862 110.444527 
L 468.138172 125.787975 
L 472.090145 94.907934 
L 476.042117 107.647947 
L 479.99409 113.698828 
L 483.946062 108.252609 
L 487.898035 110.48232 
L 491.850008 123.696822 
L 495.80198 108.605335 
L 499.753953 112.392918 
L 503.705925 113.37128 
L 507.657898 100.627088 
L 511.60987 112.128367 
L 515.561843 106.526797 
L 519.513815 96.864709 
L 523.465788 86.57696 
L 527.417761 109.575313 
L 531.369733 108.017467 
L 535.321706 111.805024 
L 539.273678 116.680168 
L 543.225651 104.507025 
L 547.177623 101.366128 
L 551.129596 111.758847 
L 555.081568 102.504072 
L 559.033541 121.139589 
L 562.985514 105.313267 
L 566.937486 124.532447 
L 570.889459 110.016215 
L 574.841431 101.193957 
L 578.793404 109.126028 
L 582.745376 95.621796 
L 586.697349 115.395257 
L 590.649321 105.380443 
L 594.601294 103.839391 
L 598.553267 112.203953 
L 606.457212 98.775282 
L 610.409184 104.423054 
L 614.361157 101.937203 
L 618.313129 99.623496 
L 622.265102 105.422441 
L 626.217074 104.099737 
L 630.169047 101.496301 
L 634.12102 102.138757 
L 638.072992 105.061305 
L 642.024965 101.571887 
L 645.976937 107.375011 
L 649.92891 104.60361 
L 653.880882 95.579798 
L 657.832855 107.631153 
L 661.784827 106.043898 
L 665.7368 108.349194 
L 669.688773 112.052781 
L 677.592718 106.295834 
L 681.54469 91.81742 
L 685.496663 101.878411 
L 689.448635 96.616978 
L 693.400608 102.63845 
L 697.35258 89.520533 
L 701.304553 96.696743 
L 705.256526 90.700474 
L 709.208498 96.28943 
L 713.160471 85.4684 
L 717.112443 98.968452 
L 717.112443 98.95864 
" clip-path="url(#p324861373c)" style="fill: none; stroke: #ff7f0e; stroke-width: 1.5; stroke-linecap: square"/>
   </g>
   <g id="line2d_31">
    <path d="M 88.748807 439.215629 
L 92.700779 439.085458 
L 96.652752 435.075337 
L 100.604724 375.377033 
L 104.556697 358.177599 
L 108.50867 338.681278 
L 112.460642 301.788168 
L 116.412615 296.879449 
L 120.364587 271.966306 
L 124.31656 259.56643 
L 128.268532 261.854932 
L 132.220505 245.822838 
L 136.172477 251.080092 
L 140.12445 234.934632 
L 144.076423 243.387381 
L 148.028395 225.784839 
L 151.980368 225.910807 
L 155.93234 219.263673 
L 159.884313 223.605511 
L 163.836285 241.67835 
L 167.788258 228.887968 
L 171.74023 235.816434 
L 175.692203 215.78264 
L 179.644176 210.852909 
L 183.596148 197.037949 
L 187.548121 196.261115 
L 191.500093 205.125371 
L 195.452066 203.601112 
L 199.404038 192.859848 
L 203.356011 206.103758 
L 207.307983 198.839347 
L 211.259956 166.027735 
L 215.211929 191.092037 
L 219.163901 171.486542 
L 223.115874 193.653475 
L 227.067846 171.096023 
L 231.019819 193.955819 
L 234.971791 182.202603 
L 238.923764 188.627184 
L 242.875736 186.132923 
L 246.827709 198.478237 
L 250.779682 190.050678 
L 254.731654 173.783454 
L 258.683627 198.268273 
L 262.635599 149.920068 
L 266.587572 154.299723 
L 270.539544 165.368485 
L 274.491517 171.864472 
L 278.443489 163.310945 
L 282.395462 162.458526 
L 286.347435 155.626632 
L 290.299407 155.118529 
L 294.25138 143.999385 
L 298.203352 144.356291 
L 302.155325 156.432849 
L 306.107297 146.006542 
L 310.05927 142.197961 
L 314.011242 137.801537 
L 317.963215 129.995435 
L 321.915188 135.890964 
L 325.86716 148.122874 
L 329.819133 140.803876 
L 333.771105 210.705942 
L 337.723078 125.279872 
L 341.67505 132.808834 
L 345.627023 125.641008 
L 349.578995 129.210217 
L 353.530968 142.899209 
L 357.482941 136.15549 
L 361.434913 139.271208 
L 365.386886 127.853924 
L 369.338858 136.436835 
L 373.290831 138.318024 
L 377.242803 120.694483 
L 381.194776 146.678381 
L 385.146748 142.617889 
L 389.098721 115.920129 
L 393.050694 130.427952 
L 397.002666 136.365454 
L 400.954639 135.042749 
L 404.906611 127.093885 
L 408.858584 126.098703 
L 412.810556 108.168639 
L 416.762529 120.93383 
L 420.714502 121.887014 
L 424.666474 118.301011 
L 428.618447 119.867267 
L 432.570419 111.897404 
L 436.522392 117.834906 
L 440.474364 112.392918 
L 444.426337 115.831953 
L 448.378309 113.661035 
L 452.330282 111.893224 
L 456.282255 107.316219 
L 460.234227 110.998807 
L 464.1862 113.010169 
L 468.138172 116.440821 
L 472.090145 104.208911 
L 476.042117 104.716989 
L 479.99409 99.850254 
L 483.946062 96.906707 
L 487.898035 110.02042 
L 491.850008 120.610512 
L 495.80198 110.973629 
L 499.753953 104.32647 
L 503.705925 112.346715 
L 507.657898 105.581997 
L 511.60987 96.616978 
L 515.561843 93.009951 
L 519.513815 93.816168 
L 523.465788 97.03688 
L 527.417761 94.110127 
L 531.369733 110.326968 
L 535.321706 102.919795 
L 539.273678 102.495688 
L 543.225651 102.651039 
L 547.177623 93.820372 
L 551.129596 104.213091 
L 555.081568 92.283525 
L 559.033541 104.166913 
L 562.985514 95.050721 
L 566.937486 103.037354 
L 570.889459 100.014016 
L 574.841431 91.922389 
L 578.793404 96.419603 
L 582.745376 93.093946 
L 586.697349 93.291296 
L 590.649321 88.092834 
L 594.601294 85.787538 
L 598.553267 93.316499 
L 602.505239 90.02861 
L 606.457212 87.177443 
L 610.409184 85.28364 
L 614.361157 87.303411 
L 618.313129 92.695018 
L 622.265102 93.119125 
L 626.217074 83.746792 
L 630.169047 83.889554 
L 634.12102 84.460629 
L 638.072992 93.618818 
L 642.024965 89.549916 
L 645.976937 83.100132 
L 649.92891 88.966252 
L 653.880882 83.478036 
L 657.832855 87.160649 
L 661.784827 85.447426 
L 665.7368 89.356746 
L 669.688773 86.597959 
L 673.640745 85.636366 
L 677.592718 92.291909 
L 681.54469 85.64057 
L 685.496663 83.977729 
L 689.448635 88.584118 
L 693.400608 88.239801 
L 697.35258 81.365909 
L 701.304553 83.654412 
L 705.256526 83.742587 
L 709.208498 85.984887 
L 713.160471 85.212258 
L 717.112443 80.685661 
L 717.112443 80.068159 
L 717.112443 80.068159 
" clip-path="url(#p324861373c)" style="fill: none; stroke: #2ca02c; stroke-width: 1.5; stroke-linecap: square"/>
   </g>
   <g id="line2d_32">
    <path d="M 88.748807 439.240824 
L 92.700779 439.215629 
L 96.652752 436.809557 
L 100.604724 418.085863 
L 104.556697 385.345644 
L 108.50867 383.926355 
L 112.460642 344.828732 
L 116.412615 349.107591 
L 120.364587 334.24285 
L 124.31656 327.809859 
L 128.268532 332.470835 
L 132.220505 301.049128 
L 136.172477 311.18991 
L 140.12445 310.690216 
L 144.076423 318.508908 
L 148.028395 305.227217 
L 151.980368 288.657649 
L 155.93234 311.962538 
L 159.884313 293.48659 
L 163.836285 334.536784 
L 167.788258 314.549167 
L 171.74023 331.706603 
L 175.692203 296.073219 
L 179.644176 316.102834 
L 183.596148 303.320836 
L 187.548121 283.996674 
L 191.500093 310.870772 
L 195.452066 281.855138 
L 199.404038 272.285443 
L 203.356011 296.299977 
L 207.307983 280.431657 
L 211.259956 266.280753 
L 215.211929 276.547503 
L 219.163901 249.614613 
L 223.115874 292.722359 
L 227.067846 279.805996 
L 231.019819 289.686419 
L 234.971791 275.438942 
L 238.923764 288.896996 
L 242.875736 266.587289 
L 246.827709 281.384841 
L 250.779682 291.693589 
L 254.731654 271.496008 
L 258.683627 285.260598 
L 262.635599 242.274616 
L 266.587572 254.044638 
L 270.539544 250.366242 
L 274.491517 253.318199 
L 278.443489 245.239175 
L 282.395462 254.267191 
L 286.347435 279.184526 
L 290.299407 247.330315 
L 294.25138 258.546057 
L 298.203352 239.184101 
L 302.155325 266.801445 
L 306.107297 243.55954 
L 310.05927 227.418272 
L 314.011242 230.168674 
L 317.963215 222.110636 
L 321.915188 239.528418 
L 325.86716 251.688959 
L 329.819133 243.710711 
L 333.771105 324.605966 
L 337.723078 221.396799 
L 341.67505 228.673799 
L 345.627023 218.482635 
L 349.578995 221.888083 
L 353.530968 228.585624 
L 357.482941 240.011317 
L 361.434913 231.419997 
L 365.386886 218.01653 
L 369.338858 229.593408 
L 373.290831 231.344424 
L 377.242803 213.091029 
L 381.194776 232.427781 
L 385.146748 241.476796 
L 389.098721 209.416826 
L 393.050694 219.813749 
L 397.002666 223.832269 
L 400.954639 220.804726 
L 404.906611 214.00642 
L 408.858584 240.47741 
L 412.810556 199.616181 
L 416.762529 215.858226 
L 420.714502 223.7063 
L 424.666474 241.094674 
L 428.618447 214.808457 
L 432.570419 201.577136 
L 436.522392 218.461636 
L 440.474364 200.674334 
L 444.426337 213.35976 
L 448.378309 206.103758 
L 452.330282 200.670154 
L 456.282255 199.830324 
L 460.234227 204.365331 
L 464.1862 208.12771 
L 468.138172 201.980269 
L 472.090145 194.58989 
L 476.042117 192.649909 
L 479.99409 206.364104 
L 483.946062 198.847757 
L 487.898035 196.744015 
L 491.850008 202.744488 
L 495.80198 195.186143 
L 499.753953 203.403738 
L 503.705925 197.671995 
L 507.657898 186.46465 
L 511.60987 193.246162 
L 515.561843 202.223796 
L 519.513815 183.277551 
L 523.465788 187.493445 
L 527.417761 192.44415 
L 531.369733 196.697812 
L 535.321706 186.876168 
L 539.273678 186.787993 
L 543.225651 190.638547 
L 547.177623 181.891875 
L 551.129596 189.36202 
L 555.081568 178.561988 
L 559.033541 195.946182 
L 562.985514 181.119221 
L 566.937486 185.704636 
L 570.889459 195.05597 
L 574.841431 181.303982 
L 578.793404 182.303368 
L 582.745376 179.246442 
L 586.697349 184.046 
L 590.649321 179.086885 
L 594.601294 175.656234 
L 598.553267 180.40118 
L 602.505239 181.123426 
L 606.457212 177.302281 
L 610.409184 176.479245 
L 614.361157 174.266329 
L 618.313129 182.992026 
L 622.265102 183.096996 
L 626.217074 173.334143 
L 630.169047 174.022802 
L 634.12102 173.090591 
L 638.072992 180.405385 
L 642.024965 177.365253 
L 645.976937 172.397754 
L 649.92891 177.453428 
L 653.880882 171.965237 
L 657.832855 174.472087 
L 661.784827 172.6581 
L 665.7368 175.35389 
L 669.688773 174.287327 
L 673.640745 172.93942 
L 677.592718 178.163085 
L 681.54469 172.527927 
L 685.496663 174.228536 
L 689.448635 176.836176 
L 693.400608 177.016731 
L 697.35258 173.275352 
L 701.304553 171.394162 
L 705.256526 172.637101 
L 709.208498 174.476292 
L 713.160471 175.152336 
L 717.112443 171.146431 
L 717.112443 171.49305 
L 717.112443 171.49305 
" clip-path="url(#p324861373c)" style="fill: none; stroke: #d62728; stroke-width: 1.5; stroke-linecap: square"/>
   </g>
   <g id="patch_3">
    <path d="M 57.330625 458.877187 
L 57.330625 26.877187 
" style="fill: none; stroke: #000000; stroke-width: 0.8; stroke-linejoin: miter; stroke-linecap: square"/>
   </g>
   <g id="patch_4">
    <path d="M 748.530625 458.877187 
L 748.530625 26.877187 
" style="fill: none; stroke: #000000; stroke-width: 0.8; stroke-linejoin: miter; stroke-linecap: square"/>
   </g>
   <g id="patch_5">
    <path d="M 57.330625 458.877187 
L 748.530625 458.877187 
" style="fill: none; stroke: #000000; stroke-width: 0.8; stroke-linejoin: miter; stroke-linecap: square"/>
   </g>
   <g id="patch_6">
    <path d="M 57.330625 26.877187 
L 748.530625 26.877187 
" style="fill: none; stroke: #000000; stroke-width: 0.8; stroke-linejoin: miter; stroke-linecap: square"/>
   </g>
   <g id="text_17">
    <!-- Validation Metrics over Epochs -->
    <g transform="translate(264.918437 20.877187) scale(0.18 -0.18)">
     <defs>
      <path id="DejaVuSans-56" d="M 1831 0 
L 50 4666 
L 709 4666 
L 2188 738 
L 3669 4666 
L 4325 4666 
L 2547 0 
L 1831 0 
z
" transform="scale(0.015625)"/>
      <path id="DejaVuSans-6c" d="M 603 4863 
L 1178 4863 
L 1178 0 
L 603 0 
L 603 4863 
z
" transform="scale(0.015625)"/>
      <path id="DejaVuSans-64" d="M 2906 2969 
L 2906 4863 
L 3481 4863 
L 3481 0 
L 2906 0 
L 2906 525 
Q 2725 213 2448 61 
Q 2172 -91 1784 -91 
Q 1150 -91 751 415 
Q 353 922 353 1747 
Q 353 2572 751 3078 
Q 1150 3584 1784 3584 
Q 2172 3584 2448 3432 
Q 2725 3281 2906 2969 
z
M 947 1747 
Q 947 1113 1208 752 
Q 1469 391 1925 391 
Q 2381 391 2643 752 
Q 2906 1113 2906 1747 
Q 2906 2381 2643 2742 
Q 2381 3103 1925 3103 
Q 1469 3103 1208 2742 
Q 947 2381 947 1747 
z
" transform="scale(0.015625)"/>
      <path id="DejaVuSans-74" d="M 1172 4494 
L 1172 3500 
L 2356 3500 
L 2356 3053 
L 1172 3053 
L 1172 1153 
Q 1172 725 1289 603 
Q 1406 481 1766 481 
L 2356 481 
L 2356 0 
L 1766 0 
Q 1100 0 847 248 
Q 594 497 594 1153 
L 594 3053 
L 172 3053 
L 172 3500 
L 594 3500 
L 594 4494 
L 1172 4494 
z
" transform="scale(0.015625)"/>
      <path id="DejaVuSans-4d" d="M 628 4666 
L 1569 4666 
L 2759 1491 
L 3956 4666 
L 4897 4666 
L 4897 0 
L 4281 0 
L 4281 4097 
L 3078 897 
L 2444 897 
L 1241 4097 
L 1241 0 
L 628 0 
L 628 4666 
z
" transform="scale(0.015625)"/>
     </defs>
     <use xlink:href="#DejaVuSans-56"/>
     <use xlink:href="#DejaVuSans-61" x="60.658203"/>
     <use xlink:href="#DejaVuSans-6c" x="121.9375"/>
     <use xlink:href="#DejaVuSans-69" x="149.720703"/>
     <use xlink:href="#DejaVuSans-64" x="177.503906"/>
     <use xlink:href="#DejaVuSans-61" x="240.980469"/>
     <use xlink:href="#DejaVuSans-74" x="302.259766"/>
     <use xlink:href="#DejaVuSans-69" x="341.46875"/>
     <use xlink:href="#DejaVuSans-6f" x="369.251953"/>
     <use xlink:href="#DejaVuSans-6e" x="430.433594"/>
     <use xlink:href="#DejaVuSans-20" x="493.8125"/>
     <use xlink:href="#DejaVuSans-4d" x="525.599609"/>
     <use xlink:href="#DejaVuSans-65" x="611.878906"/>
     <use xlink:href="#DejaVuSans-74" x="673.402344"/>
     <use xlink:href="#DejaVuSans-72" x="712.611328"/>
     <use xlink:href="#DejaVuSans-69" x="753.724609"/>
     <use xlink:href="#DejaVuSans-63" x="781.507812"/>
     <use xlink:href="#DejaVuSans-73" x="836.488281"/>
     <use xlink:href="#DejaVuSans-20" x="888.587891"/>
     <use xlink:href="#DejaVuSans-6f" x="920.375"/>
     <use xlink:href="#DejaVuSans-76" x="981.556641"/>
     <use xlink:href="#DejaVuSans-65" x="1040.736328"/>
     <use xlink:href="#DejaVuSans-72" x="1102.259766"/>
     <use xlink:href="#DejaVuSans-20" x="1143.373047"/>
     <use xlink:href="#DejaVuSans-45" x="1175.160156"/>
     <use xlink:href="#DejaVuSans-70" x="1238.34375"/>
     <use xlink:href="#DejaVuSans-6f" x="1301.820312"/>
     <use xlink:href="#DejaVuSans-63" x="1363.001953"/>
     <use xlink:href="#DejaVuSans-68" x="1417.982422"/>
     <use xlink:href="#DejaVuSans-73" x="1481.361328"/>
    </g>
   </g>
   <g id="legend_1">
    <g id="patch_7">
     <path d="M 776.354625 160.302187 
L 931.0265 160.302187 
Q 935.0265 160.302187 935.0265 156.302187 
L 935.0265 40.877187 
Q 935.0265 36.877187 931.0265 36.877187 
L 776.354625 36.877187 
Q 772.354625 36.877187 772.354625 40.877187 
L 772.354625 156.302187 
Q 772.354625 160.302187 776.354625 160.302187 
z
" style="fill: #ffffff; opacity: 0.8; stroke: #cccccc; stroke-linejoin: miter"/>
    </g>
    <g id="line2d_33">
     <path d="M 780.354625 53.074062 
L 800.354625 53.074062 
L 820.354625 53.074062 
" style="fill: none; stroke: #1f77b4; stroke-width: 1.5; stroke-linecap: square"/>
    </g>
    <g id="text_18">
     <!-- Precision -->
     <g transform="translate(836.354625 60.074062) scale(0.2 -0.2)">
      <use xlink:href="#DejaVuSans-50"/>
      <use xlink:href="#DejaVuSans-72" x="58.552734"/>
      <use xlink:href="#DejaVuSans-65" x="97.416016"/>
      <use xlink:href="#DejaVuSans-63" x="158.939453"/>
      <use xlink:href="#DejaVuSans-69" x="213.919922"/>
      <use xlink:href="#DejaVuSans-73" x="241.703125"/>
      <use xlink:href="#DejaVuSans-69" x="293.802734"/>
      <use xlink:href="#DejaVuSans-6f" x="321.585938"/>
      <use xlink:href="#DejaVuSans-6e" x="382.767578"/>
     </g>
    </g>
    <g id="line2d_34">
     <path d="M 780.354625 82.430312 
L 800.354625 82.430312 
L 820.354625 82.430312 
" style="fill: none; stroke: #ff7f0e; stroke-width: 1.5; stroke-linecap: square"/>
    </g>
    <g id="text_19">
     <!-- Recall -->
     <g transform="translate(836.354625 89.430312) scale(0.2 -0.2)">
      <defs>
       <path id="DejaVuSans-52" d="M 2841 2188 
Q 3044 2119 3236 1894 
Q 3428 1669 3622 1275 
L 4263 0 
L 3584 0 
L 2988 1197 
Q 2756 1666 2539 1819 
Q 2322 1972 1947 1972 
L 1259 1972 
L 1259 0 
L 628 0 
L 628 4666 
L 2053 4666 
Q 2853 4666 3247 4331 
Q 3641 3997 3641 3322 
Q 3641 2881 3436 2590 
Q 3231 2300 2841 2188 
z
M 1259 4147 
L 1259 2491 
L 2053 2491 
Q 2509 2491 2742 2702 
Q 2975 2913 2975 3322 
Q 2975 3731 2742 3939 
Q 2509 4147 2053 4147 
L 1259 4147 
z
" transform="scale(0.015625)"/>
      </defs>
      <use xlink:href="#DejaVuSans-52"/>
      <use xlink:href="#DejaVuSans-65" x="64.982422"/>
      <use xlink:href="#DejaVuSans-63" x="126.505859"/>
      <use xlink:href="#DejaVuSans-61" x="181.486328"/>
      <use xlink:href="#DejaVuSans-6c" x="242.765625"/>
      <use xlink:href="#DejaVuSans-6c" x="270.548828"/>
     </g>
    </g>
    <g id="line2d_35">
     <path d="M 780.354625 111.786562 
L 800.354625 111.786562 
L 820.354625 111.786562 
" style="fill: none; stroke: #2ca02c; stroke-width: 1.5; stroke-linecap: square"/>
    </g>
    <g id="text_20">
     <!-- mAP@50 -->
     <g transform="translate(836.354625 118.786562) scale(0.2 -0.2)">
      <defs>
       <path id="DejaVuSans-6d" d="M 3328 2828 
Q 3544 3216 3844 3400 
Q 4144 3584 4550 3584 
Q 5097 3584 5394 3201 
Q 5691 2819 5691 2113 
L 5691 0 
L 5113 0 
L 5113 2094 
Q 5113 2597 4934 2840 
Q 4756 3084 4391 3084 
Q 3944 3084 3684 2787 
Q 3425 2491 3425 1978 
L 3425 0 
L 2847 0 
L 2847 2094 
Q 2847 2600 2669 2842 
Q 2491 3084 2119 3084 
Q 1678 3084 1418 2786 
Q 1159 2488 1159 1978 
L 1159 0 
L 581 0 
L 581 3500 
L 1159 3500 
L 1159 2956 
Q 1356 3278 1631 3431 
Q 1906 3584 2284 3584 
Q 2666 3584 2933 3390 
Q 3200 3197 3328 2828 
z
" transform="scale(0.015625)"/>
       <path id="DejaVuSans-40" d="M 2381 1678 
Q 2381 1231 2603 976 
Q 2825 722 3213 722 
Q 3597 722 3817 978 
Q 4038 1234 4038 1678 
Q 4038 2116 3813 2373 
Q 3588 2631 3206 2631 
Q 2828 2631 2604 2375 
Q 2381 2119 2381 1678 
z
M 4084 744 
Q 3897 503 3655 389 
Q 3413 275 3091 275 
Q 2553 275 2217 664 
Q 1881 1053 1881 1678 
Q 1881 2303 2218 2693 
Q 2556 3084 3091 3084 
Q 3413 3084 3656 2967 
Q 3900 2850 4084 2613 
L 4084 3022 
L 4531 3022 
L 4531 722 
Q 4988 791 5245 1139 
Q 5503 1488 5503 2041 
Q 5503 2375 5404 2669 
Q 5306 2963 5106 3213 
Q 4781 3622 4314 3839 
Q 3847 4056 3297 4056 
Q 2913 4056 2559 3954 
Q 2206 3853 1906 3653 
Q 1416 3334 1139 2817 
Q 863 2300 863 1697 
Q 863 1200 1042 765 
Q 1222 331 1563 0 
Q 1891 -325 2322 -495 
Q 2753 -666 3244 -666 
Q 3647 -666 4036 -530 
Q 4425 -394 4750 -141 
L 5031 -488 
Q 4641 -791 4180 -952 
Q 3719 -1113 3244 -1113 
Q 2666 -1113 2153 -908 
Q 1641 -703 1241 -313 
Q 841 78 631 592 
Q 422 1106 422 1697 
Q 422 2266 634 2781 
Q 847 3297 1241 3688 
Q 1644 4084 2172 4295 
Q 2700 4506 3291 4506 
Q 3953 4506 4520 4234 
Q 5088 3963 5472 3463 
Q 5706 3156 5829 2797 
Q 5953 2438 5953 2053 
Q 5953 1231 5456 756 
Q 4959 281 4084 263 
L 4084 744 
z
" transform="scale(0.015625)"/>
       <path id="DejaVuSans-35" d="M 691 4666 
L 3169 4666 
L 3169 4134 
L 1269 4134 
L 1269 2991 
Q 1406 3038 1543 3061 
Q 1681 3084 1819 3084 
Q 2600 3084 3056 2656 
Q 3513 2228 3513 1497 
Q 3513 744 3044 326 
Q 2575 -91 1722 -91 
Q 1428 -91 1123 -41 
Q 819 9 494 109 
L 494 744 
Q 775 591 1075 516 
Q 1375 441 1709 441 
Q 2250 441 2565 725 
Q 2881 1009 2881 1497 
Q 2881 1984 2565 2268 
Q 2250 2553 1709 2553 
Q 1456 2553 1204 2497 
Q 953 2441 691 2322 
L 691 4666 
z
" transform="scale(0.015625)"/>
      </defs>
      <use xlink:href="#DejaVuSans-6d"/>
      <use xlink:href="#DejaVuSans-41" x="97.412109"/>
      <use xlink:href="#DejaVuSans-50" x="165.820312"/>
      <use xlink:href="#DejaVuSans-40" x="226.123047"/>
      <use xlink:href="#DejaVuSans-35" x="326.123047"/>
      <use xlink:href="#DejaVuSans-30" x="389.746094"/>
     </g>
    </g>
    <g id="line2d_36">
     <path d="M 780.354625 141.142812 
L 800.354625 141.142812 
L 820.354625 141.142812 
" style="fill: none; stroke: #d62728; stroke-width: 1.5; stroke-linecap: square"/>
    </g>
    <g id="text_21">
     <!-- mAP -->
     <g transform="translate(836.354625 148.142812) scale(0.2 -0.2)">
      <use xlink:href="#DejaVuSans-6d"/>
      <use xlink:href="#DejaVuSans-41" x="97.412109"/>
      <use xlink:href="#DejaVuSans-50" x="165.820312"/>
     </g>
    </g>
   </g>
  </g>
 </g>
 <defs>
  <clipPath id="p324861373c">
   <rect x="57.330625" y="26.877187" width="691.2" height="432"/>
  </clipPath>
 </defs>
</svg>
