<?xml version="1.0" encoding="utf-8" standalone="no"?>
<!DOCTYPE svg PUBLIC "-//W3C//DTD SVG 1.1//EN"
  "http://www.w3.org/Graphics/SVG/1.1/DTD/svg11.dtd">
<svg xmlns:xlink="http://www.w3.org/1999/xlink" width="959.845188pt" height="503.394375pt" viewBox="0 0 959.845188 503.394375" xmlns="http://www.w3.org/2000/svg" version="1.1">
 <metadata>
  <rdf:RDF xmlns:dc="http://purl.org/dc/elements/1.1/" xmlns:cc="http://creativecommons.org/ns#" xmlns:rdf="http://www.w3.org/1999/02/22-rdf-syntax-ns#">
   <cc:Work>
    <dc:type rdf:resource="http://purl.org/dc/dcmitype/StillImage"/>
    <dc:date>2025-04-11T17:13:52.359199</dc:date>
    <dc:format>image/svg+xml</dc:format>
    <dc:creator>
     <cc:Agent>
      <dc:title>Matplotlib v3.9.4, https://matplotlib.org/</dc:title>
     </cc:Agent>
    </dc:creator>
   </cc:Work>
  </rdf:RDF>
 </metadata>
 <defs>
  <style type="text/css">*{stroke-linejoin: round; stroke-linecap: butt}</style>
 </defs>
 <g id="figure_1">
  <g id="patch_1">
   <path d="M 0 503.394375 
L 959.845188 503.394375 
L 959.845188 0 
L 0 0 
z
" style="fill: #ffffff"/>
  </g>
  <g id="axes_1">
   <g id="patch_2">
    <path d="M 43.78125 465.838125 
L 850.18125 465.838125 
L 850.18125 22.318125 
L 43.78125 22.318125 
z
" style="fill: #ffffff"/>
   </g>
   <g id="matplotlib.axis_1">
    <g id="xtick_1">
     <g id="line2d_1">
      <path d="M 74.275368 465.838125 
L 74.275368 22.318125 
" clip-path="url(#p9c3d609453)" style="fill: none; stroke: #b0b0b0; stroke-width: 0.8; stroke-linecap: square"/>
     </g>
     <g id="line2d_2">
      <defs>
       <path id="me1058884f3" d="M 0 0 
L 0 3.5 
" style="stroke: #000000; stroke-width: 0.8"/>
      </defs>
      <g>
       <use xlink:href="#me1058884f3" x="74.275368" y="465.838125" style="stroke: #000000; stroke-width: 0.8"/>
      </g>
     </g>
     <g id="text_1">
      <!-- 0 -->
      <g transform="translate(71.094118 480.436562) scale(0.1 -0.1)">
       <defs>
        <path id="DejaVuSans-30" d="M 2034 4250 
Q 1547 4250 1301 3770 
Q 1056 3291 1056 2328 
Q 1056 1369 1301 889 
Q 1547 409 2034 409 
Q 2525 409 2770 889 
Q 3016 1369 3016 2328 
Q 3016 3291 2770 3770 
Q 2525 4250 2034 4250 
z
M 2034 4750 
Q 2819 4750 3233 4129 
Q 3647 3509 3647 2328 
Q 3647 1150 3233 529 
Q 2819 -91 2034 -91 
Q 1250 -91 836 529 
Q 422 1150 422 2328 
Q 422 3509 836 4129 
Q 1250 4750 2034 4750 
z
" transform="scale(0.015625)"/>
       </defs>
       <use xlink:href="#DejaVuSans-30"/>
      </g>
     </g>
    </g>
    <g id="xtick_2">
     <g id="line2d_3">
      <path d="M 197.483924 465.838125 
L 197.483924 22.318125 
" clip-path="url(#p9c3d609453)" style="fill: none; stroke: #b0b0b0; stroke-width: 0.8; stroke-linecap: square"/>
     </g>
     <g id="line2d_4">
      <g>
       <use xlink:href="#me1058884f3" x="197.483924" y="465.838125" style="stroke: #000000; stroke-width: 0.8"/>
      </g>
     </g>
     <g id="text_2">
      <!-- 20 -->
      <g transform="translate(191.121424 480.436562) scale(0.1 -0.1)">
       <defs>
        <path id="DejaVuSans-32" d="M 1228 531 
L 3431 531 
L 3431 0 
L 469 0 
L 469 531 
Q 828 903 1448 1529 
Q 2069 2156 2228 2338 
Q 2531 2678 2651 2914 
Q 2772 3150 2772 3378 
Q 2772 3750 2511 3984 
Q 2250 4219 1831 4219 
Q 1534 4219 1204 4116 
Q 875 4013 500 3803 
L 500 4441 
Q 881 4594 1212 4672 
Q 1544 4750 1819 4750 
Q 2544 4750 2975 4387 
Q 3406 4025 3406 3419 
Q 3406 3131 3298 2873 
Q 3191 2616 2906 2266 
Q 2828 2175 2409 1742 
Q 1991 1309 1228 531 
z
" transform="scale(0.015625)"/>
       </defs>
       <use xlink:href="#DejaVuSans-32"/>
       <use xlink:href="#DejaVuSans-30" x="63.623047"/>
      </g>
     </g>
    </g>
    <g id="xtick_3">
     <g id="line2d_5">
      <path d="M 320.69248 465.838125 
L 320.69248 22.318125 
" clip-path="url(#p9c3d609453)" style="fill: none; stroke: #b0b0b0; stroke-width: 0.8; stroke-linecap: square"/>
     </g>
     <g id="line2d_6">
      <g>
       <use xlink:href="#me1058884f3" x="320.69248" y="465.838125" style="stroke: #000000; stroke-width: 0.8"/>
      </g>
     </g>
     <g id="text_3">
      <!-- 40 -->
      <g transform="translate(314.32998 480.436562) scale(0.1 -0.1)">
       <defs>
        <path id="DejaVuSans-34" d="M 2419 4116 
L 825 1625 
L 2419 1625 
L 2419 4116 
z
M 2253 4666 
L 3047 4666 
L 3047 1625 
L 3713 1625 
L 3713 1100 
L 3047 1100 
L 3047 0 
L 2419 0 
L 2419 1100 
L 313 1100 
L 313 1709 
L 2253 4666 
z
" transform="scale(0.015625)"/>
       </defs>
       <use xlink:href="#DejaVuSans-34"/>
       <use xlink:href="#DejaVuSans-30" x="63.623047"/>
      </g>
     </g>
    </g>
    <g id="xtick_4">
     <g id="line2d_7">
      <path d="M 443.901036 465.838125 
L 443.901036 22.318125 
" clip-path="url(#p9c3d609453)" style="fill: none; stroke: #b0b0b0; stroke-width: 0.8; stroke-linecap: square"/>
     </g>
     <g id="line2d_8">
      <g>
       <use xlink:href="#me1058884f3" x="443.901036" y="465.838125" style="stroke: #000000; stroke-width: 0.8"/>
      </g>
     </g>
     <g id="text_4">
      <!-- 60 -->
      <g transform="translate(437.538536 480.436562) scale(0.1 -0.1)">
       <defs>
        <path id="DejaVuSans-36" d="M 2113 2584 
Q 1688 2584 1439 2293 
Q 1191 2003 1191 1497 
Q 1191 994 1439 701 
Q 1688 409 2113 409 
Q 2538 409 2786 701 
Q 3034 994 3034 1497 
Q 3034 2003 2786 2293 
Q 2538 2584 2113 2584 
z
M 3366 4563 
L 3366 3988 
Q 3128 4100 2886 4159 
Q 2644 4219 2406 4219 
Q 1781 4219 1451 3797 
Q 1122 3375 1075 2522 
Q 1259 2794 1537 2939 
Q 1816 3084 2150 3084 
Q 2853 3084 3261 2657 
Q 3669 2231 3669 1497 
Q 3669 778 3244 343 
Q 2819 -91 2113 -91 
Q 1303 -91 875 529 
Q 447 1150 447 2328 
Q 447 3434 972 4092 
Q 1497 4750 2381 4750 
Q 2619 4750 2861 4703 
Q 3103 4656 3366 4563 
z
" transform="scale(0.015625)"/>
       </defs>
       <use xlink:href="#DejaVuSans-36"/>
       <use xlink:href="#DejaVuSans-30" x="63.623047"/>
      </g>
     </g>
    </g>
    <g id="xtick_5">
     <g id="line2d_9">
      <path d="M 567.109592 465.838125 
L 567.109592 22.318125 
" clip-path="url(#p9c3d609453)" style="fill: none; stroke: #b0b0b0; stroke-width: 0.8; stroke-linecap: square"/>
     </g>
     <g id="line2d_10">
      <g>
       <use xlink:href="#me1058884f3" x="567.109592" y="465.838125" style="stroke: #000000; stroke-width: 0.8"/>
      </g>
     </g>
     <g id="text_5">
      <!-- 80 -->
      <g transform="translate(560.747092 480.436562) scale(0.1 -0.1)">
       <defs>
        <path id="DejaVuSans-38" d="M 2034 2216 
Q 1584 2216 1326 1975 
Q 1069 1734 1069 1313 
Q 1069 891 1326 650 
Q 1584 409 2034 409 
Q 2484 409 2743 651 
Q 3003 894 3003 1313 
Q 3003 1734 2745 1975 
Q 2488 2216 2034 2216 
z
M 1403 2484 
Q 997 2584 770 2862 
Q 544 3141 544 3541 
Q 544 4100 942 4425 
Q 1341 4750 2034 4750 
Q 2731 4750 3128 4425 
Q 3525 4100 3525 3541 
Q 3525 3141 3298 2862 
Q 3072 2584 2669 2484 
Q 3125 2378 3379 2068 
Q 3634 1759 3634 1313 
Q 3634 634 3220 271 
Q 2806 -91 2034 -91 
Q 1263 -91 848 271 
Q 434 634 434 1313 
Q 434 1759 690 2068 
Q 947 2378 1403 2484 
z
M 1172 3481 
Q 1172 3119 1398 2916 
Q 1625 2713 2034 2713 
Q 2441 2713 2670 2916 
Q 2900 3119 2900 3481 
Q 2900 3844 2670 4047 
Q 2441 4250 2034 4250 
Q 1625 4250 1398 4047 
Q 1172 3844 1172 3481 
z
" transform="scale(0.015625)"/>
       </defs>
       <use xlink:href="#DejaVuSans-38"/>
       <use xlink:href="#DejaVuSans-30" x="63.623047"/>
      </g>
     </g>
    </g>
    <g id="xtick_6">
     <g id="line2d_11">
      <path d="M 690.318148 465.838125 
L 690.318148 22.318125 
" clip-path="url(#p9c3d609453)" style="fill: none; stroke: #b0b0b0; stroke-width: 0.8; stroke-linecap: square"/>
     </g>
     <g id="line2d_12">
      <g>
       <use xlink:href="#me1058884f3" x="690.318148" y="465.838125" style="stroke: #000000; stroke-width: 0.8"/>
      </g>
     </g>
     <g id="text_6">
      <!-- 100 -->
      <g transform="translate(680.774398 480.436562) scale(0.1 -0.1)">
       <defs>
        <path id="DejaVuSans-31" d="M 794 531 
L 1825 531 
L 1825 4091 
L 703 3866 
L 703 4441 
L 1819 4666 
L 2450 4666 
L 2450 531 
L 3481 531 
L 3481 0 
L 794 0 
L 794 531 
z
" transform="scale(0.015625)"/>
       </defs>
       <use xlink:href="#DejaVuSans-31"/>
       <use xlink:href="#DejaVuSans-30" x="63.623047"/>
       <use xlink:href="#DejaVuSans-30" x="127.246094"/>
      </g>
     </g>
    </g>
    <g id="xtick_7">
     <g id="line2d_13">
      <path d="M 813.526705 465.838125 
L 813.526705 22.318125 
" clip-path="url(#p9c3d609453)" style="fill: none; stroke: #b0b0b0; stroke-width: 0.8; stroke-linecap: square"/>
     </g>
     <g id="line2d_14">
      <g>
       <use xlink:href="#me1058884f3" x="813.526705" y="465.838125" style="stroke: #000000; stroke-width: 0.8"/>
      </g>
     </g>
     <g id="text_7">
      <!-- 120 -->
      <g transform="translate(803.982955 480.436562) scale(0.1 -0.1)">
       <use xlink:href="#DejaVuSans-31"/>
       <use xlink:href="#DejaVuSans-32" x="63.623047"/>
       <use xlink:href="#DejaVuSans-30" x="127.246094"/>
      </g>
     </g>
    </g>
    <g id="text_8">
     <!-- Epochs -->
     <g transform="translate(429.065625 494.114687) scale(0.1 -0.1)">
      <defs>
       <path id="DejaVuSans-45" d="M 628 4666 
L 3578 4666 
L 3578 4134 
L 1259 4134 
L 1259 2753 
L 3481 2753 
L 3481 2222 
L 1259 2222 
L 1259 531 
L 3634 531 
L 3634 0 
L 628 0 
L 628 4666 
z
" transform="scale(0.015625)"/>
       <path id="DejaVuSans-70" d="M 1159 525 
L 1159 -1331 
L 581 -1331 
L 581 3500 
L 1159 3500 
L 1159 2969 
Q 1341 3281 1617 3432 
Q 1894 3584 2278 3584 
Q 2916 3584 3314 3078 
Q 3713 2572 3713 1747 
Q 3713 922 3314 415 
Q 2916 -91 2278 -91 
Q 1894 -91 1617 61 
Q 1341 213 1159 525 
z
M 3116 1747 
Q 3116 2381 2855 2742 
Q 2594 3103 2138 3103 
Q 1681 3103 1420 2742 
Q 1159 2381 1159 1747 
Q 1159 1113 1420 752 
Q 1681 391 2138 391 
Q 2594 391 2855 752 
Q 3116 1113 3116 1747 
z
" transform="scale(0.015625)"/>
       <path id="DejaVuSans-6f" d="M 1959 3097 
Q 1497 3097 1228 2736 
Q 959 2375 959 1747 
Q 959 1119 1226 758 
Q 1494 397 1959 397 
Q 2419 397 2687 759 
Q 2956 1122 2956 1747 
Q 2956 2369 2687 2733 
Q 2419 3097 1959 3097 
z
M 1959 3584 
Q 2709 3584 3137 3096 
Q 3566 2609 3566 1747 
Q 3566 888 3137 398 
Q 2709 -91 1959 -91 
Q 1206 -91 779 398 
Q 353 888 353 1747 
Q 353 2609 779 3096 
Q 1206 3584 1959 3584 
z
" transform="scale(0.015625)"/>
       <path id="DejaVuSans-63" d="M 3122 3366 
L 3122 2828 
Q 2878 2963 2633 3030 
Q 2388 3097 2138 3097 
Q 1578 3097 1268 2742 
Q 959 2388 959 1747 
Q 959 1106 1268 751 
Q 1578 397 2138 397 
Q 2388 397 2633 464 
Q 2878 531 3122 666 
L 3122 134 
Q 2881 22 2623 -34 
Q 2366 -91 2075 -91 
Q 1284 -91 818 406 
Q 353 903 353 1747 
Q 353 2603 823 3093 
Q 1294 3584 2113 3584 
Q 2378 3584 2631 3529 
Q 2884 3475 3122 3366 
z
" transform="scale(0.015625)"/>
       <path id="DejaVuSans-68" d="M 3513 2113 
L 3513 0 
L 2938 0 
L 2938 2094 
Q 2938 2591 2744 2837 
Q 2550 3084 2163 3084 
Q 1697 3084 1428 2787 
Q 1159 2491 1159 1978 
L 1159 0 
L 581 0 
L 581 4863 
L 1159 4863 
L 1159 2956 
Q 1366 3272 1645 3428 
Q 1925 3584 2291 3584 
Q 2894 3584 3203 3211 
Q 3513 2838 3513 2113 
z
" transform="scale(0.015625)"/>
       <path id="DejaVuSans-73" d="M 2834 3397 
L 2834 2853 
Q 2591 2978 2328 3040 
Q 2066 3103 1784 3103 
Q 1356 3103 1142 2972 
Q 928 2841 928 2578 
Q 928 2378 1081 2264 
Q 1234 2150 1697 2047 
L 1894 2003 
Q 2506 1872 2764 1633 
Q 3022 1394 3022 966 
Q 3022 478 2636 193 
Q 2250 -91 1575 -91 
Q 1294 -91 989 -36 
Q 684 19 347 128 
L 347 722 
Q 666 556 975 473 
Q 1284 391 1588 391 
Q 1994 391 2212 530 
Q 2431 669 2431 922 
Q 2431 1156 2273 1281 
Q 2116 1406 1581 1522 
L 1381 1569 
Q 847 1681 609 1914 
Q 372 2147 372 2553 
Q 372 3047 722 3315 
Q 1072 3584 1716 3584 
Q 2034 3584 2315 3537 
Q 2597 3491 2834 3397 
z
" transform="scale(0.015625)"/>
      </defs>
      <use xlink:href="#DejaVuSans-45"/>
      <use xlink:href="#DejaVuSans-70" x="63.183594"/>
      <use xlink:href="#DejaVuSans-6f" x="126.660156"/>
      <use xlink:href="#DejaVuSans-63" x="187.841797"/>
      <use xlink:href="#DejaVuSans-68" x="242.822266"/>
      <use xlink:href="#DejaVuSans-73" x="306.201172"/>
     </g>
    </g>
   </g>
   <g id="matplotlib.axis_2">
    <g id="ytick_1">
     <g id="line2d_15">
      <path d="M 43.78125 406.362311 
L 850.18125 406.362311 
" clip-path="url(#p9c3d609453)" style="fill: none; stroke: #b0b0b0; stroke-width: 0.8; stroke-linecap: square"/>
     </g>
     <g id="line2d_16">
      <defs>
       <path id="m162b165962" d="M 0 0 
L -3.5 0 
" style="stroke: #000000; stroke-width: 0.8"/>
      </defs>
      <g>
       <use xlink:href="#m162b165962" x="43.78125" y="406.362311" style="stroke: #000000; stroke-width: 0.8"/>
      </g>
     </g>
     <g id="text_9">
      <!-- 0.5 -->
      <g transform="translate(20.878125 410.161529) scale(0.1 -0.1)">
       <defs>
        <path id="DejaVuSans-2e" d="M 684 794 
L 1344 794 
L 1344 0 
L 684 0 
L 684 794 
z
" transform="scale(0.015625)"/>
        <path id="DejaVuSans-35" d="M 691 4666 
L 3169 4666 
L 3169 4134 
L 1269 4134 
L 1269 2991 
Q 1406 3038 1543 3061 
Q 1681 3084 1819 3084 
Q 2600 3084 3056 2656 
Q 3513 2228 3513 1497 
Q 3513 744 3044 326 
Q 2575 -91 1722 -91 
Q 1428 -91 1123 -41 
Q 819 9 494 109 
L 494 744 
Q 775 591 1075 516 
Q 1375 441 1709 441 
Q 2250 441 2565 725 
Q 2881 1009 2881 1497 
Q 2881 1984 2565 2268 
Q 2250 2553 1709 2553 
Q 1456 2553 1204 2497 
Q 953 2441 691 2322 
L 691 4666 
z
" transform="scale(0.015625)"/>
       </defs>
       <use xlink:href="#DejaVuSans-30"/>
       <use xlink:href="#DejaVuSans-2e" x="63.623047"/>
       <use xlink:href="#DejaVuSans-35" x="95.410156"/>
      </g>
     </g>
    </g>
    <g id="ytick_2">
     <g id="line2d_17">
      <path d="M 43.78125 324.454377 
L 850.18125 324.454377 
" clip-path="url(#p9c3d609453)" style="fill: none; stroke: #b0b0b0; stroke-width: 0.8; stroke-linecap: square"/>
     </g>
     <g id="line2d_18">
      <g>
       <use xlink:href="#m162b165962" x="43.78125" y="324.454377" style="stroke: #000000; stroke-width: 0.8"/>
      </g>
     </g>
     <g id="text_10">
      <!-- 0.6 -->
      <g transform="translate(20.878125 328.253596) scale(0.1 -0.1)">
       <use xlink:href="#DejaVuSans-30"/>
       <use xlink:href="#DejaVuSans-2e" x="63.623047"/>
       <use xlink:href="#DejaVuSans-36" x="95.410156"/>
      </g>
     </g>
    </g>
    <g id="ytick_3">
     <g id="line2d_19">
      <path d="M 43.78125 242.546444 
L 850.18125 242.546444 
" clip-path="url(#p9c3d609453)" style="fill: none; stroke: #b0b0b0; stroke-width: 0.8; stroke-linecap: square"/>
     </g>
     <g id="line2d_20">
      <g>
       <use xlink:href="#m162b165962" x="43.78125" y="242.546444" style="stroke: #000000; stroke-width: 0.8"/>
      </g>
     </g>
     <g id="text_11">
      <!-- 0.7 -->
      <g transform="translate(20.878125 246.345663) scale(0.1 -0.1)">
       <defs>
        <path id="DejaVuSans-37" d="M 525 4666 
L 3525 4666 
L 3525 4397 
L 1831 0 
L 1172 0 
L 2766 4134 
L 525 4134 
L 525 4666 
z
" transform="scale(0.015625)"/>
       </defs>
       <use xlink:href="#DejaVuSans-30"/>
       <use xlink:href="#DejaVuSans-2e" x="63.623047"/>
       <use xlink:href="#DejaVuSans-37" x="95.410156"/>
      </g>
     </g>
    </g>
    <g id="ytick_4">
     <g id="line2d_21">
      <path d="M 43.78125 160.638511 
L 850.18125 160.638511 
" clip-path="url(#p9c3d609453)" style="fill: none; stroke: #b0b0b0; stroke-width: 0.8; stroke-linecap: square"/>
     </g>
     <g id="line2d_22">
      <g>
       <use xlink:href="#m162b165962" x="43.78125" y="160.638511" style="stroke: #000000; stroke-width: 0.8"/>
      </g>
     </g>
     <g id="text_12">
      <!-- 0.8 -->
      <g transform="translate(20.878125 164.437729) scale(0.1 -0.1)">
       <use xlink:href="#DejaVuSans-30"/>
       <use xlink:href="#DejaVuSans-2e" x="63.623047"/>
       <use xlink:href="#DejaVuSans-38" x="95.410156"/>
      </g>
     </g>
    </g>
    <g id="ytick_5">
     <g id="line2d_23">
      <path d="M 43.78125 78.730577 
L 850.18125 78.730577 
" clip-path="url(#p9c3d609453)" style="fill: none; stroke: #b0b0b0; stroke-width: 0.8; stroke-linecap: square"/>
     </g>
     <g id="line2d_24">
      <g>
       <use xlink:href="#m162b165962" x="43.78125" y="78.730577" style="stroke: #000000; stroke-width: 0.8"/>
      </g>
     </g>
     <g id="text_13">
      <!-- 0.9 -->
      <g transform="translate(20.878125 82.529796) scale(0.1 -0.1)">
       <defs>
        <path id="DejaVuSans-39" d="M 703 97 
L 703 672 
Q 941 559 1184 500 
Q 1428 441 1663 441 
Q 2288 441 2617 861 
Q 2947 1281 2994 2138 
Q 2813 1869 2534 1725 
Q 2256 1581 1919 1581 
Q 1219 1581 811 2004 
Q 403 2428 403 3163 
Q 403 3881 828 4315 
Q 1253 4750 1959 4750 
Q 2769 4750 3195 4129 
Q 3622 3509 3622 2328 
Q 3622 1225 3098 567 
Q 2575 -91 1691 -91 
Q 1453 -91 1209 -44 
Q 966 3 703 97 
z
M 1959 2075 
Q 2384 2075 2632 2365 
Q 2881 2656 2881 3163 
Q 2881 3666 2632 3958 
Q 2384 4250 1959 4250 
Q 1534 4250 1286 3958 
Q 1038 3666 1038 3163 
Q 1038 2656 1286 2365 
Q 1534 2075 1959 2075 
z
" transform="scale(0.015625)"/>
       </defs>
       <use xlink:href="#DejaVuSans-30"/>
       <use xlink:href="#DejaVuSans-2e" x="63.623047"/>
       <use xlink:href="#DejaVuSans-39" x="95.410156"/>
      </g>
     </g>
    </g>
    <g id="text_14">
     <!-- Average Precision (AP) -->
     <g transform="translate(14.798438 300.432812) rotate(-90) scale(0.1 -0.1)">
      <defs>
       <path id="DejaVuSans-41" d="M 2188 4044 
L 1331 1722 
L 3047 1722 
L 2188 4044 
z
M 1831 4666 
L 2547 4666 
L 4325 0 
L 3669 0 
L 3244 1197 
L 1141 1197 
L 716 0 
L 50 0 
L 1831 4666 
z
" transform="scale(0.015625)"/>
       <path id="DejaVuSans-76" d="M 191 3500 
L 800 3500 
L 1894 563 
L 2988 3500 
L 3597 3500 
L 2284 0 
L 1503 0 
L 191 3500 
z
" transform="scale(0.015625)"/>
       <path id="DejaVuSans-65" d="M 3597 1894 
L 3597 1613 
L 953 1613 
Q 991 1019 1311 708 
Q 1631 397 2203 397 
Q 2534 397 2845 478 
Q 3156 559 3463 722 
L 3463 178 
Q 3153 47 2828 -22 
Q 2503 -91 2169 -91 
Q 1331 -91 842 396 
Q 353 884 353 1716 
Q 353 2575 817 3079 
Q 1281 3584 2069 3584 
Q 2775 3584 3186 3129 
Q 3597 2675 3597 1894 
z
M 3022 2063 
Q 3016 2534 2758 2815 
Q 2500 3097 2075 3097 
Q 1594 3097 1305 2825 
Q 1016 2553 972 2059 
L 3022 2063 
z
" transform="scale(0.015625)"/>
       <path id="DejaVuSans-72" d="M 2631 2963 
Q 2534 3019 2420 3045 
Q 2306 3072 2169 3072 
Q 1681 3072 1420 2755 
Q 1159 2438 1159 1844 
L 1159 0 
L 581 0 
L 581 3500 
L 1159 3500 
L 1159 2956 
Q 1341 3275 1631 3429 
Q 1922 3584 2338 3584 
Q 2397 3584 2469 3576 
Q 2541 3569 2628 3553 
L 2631 2963 
z
" transform="scale(0.015625)"/>
       <path id="DejaVuSans-61" d="M 2194 1759 
Q 1497 1759 1228 1600 
Q 959 1441 959 1056 
Q 959 750 1161 570 
Q 1363 391 1709 391 
Q 2188 391 2477 730 
Q 2766 1069 2766 1631 
L 2766 1759 
L 2194 1759 
z
M 3341 1997 
L 3341 0 
L 2766 0 
L 2766 531 
Q 2569 213 2275 61 
Q 1981 -91 1556 -91 
Q 1019 -91 701 211 
Q 384 513 384 1019 
Q 384 1609 779 1909 
Q 1175 2209 1959 2209 
L 2766 2209 
L 2766 2266 
Q 2766 2663 2505 2880 
Q 2244 3097 1772 3097 
Q 1472 3097 1187 3025 
Q 903 2953 641 2809 
L 641 3341 
Q 956 3463 1253 3523 
Q 1550 3584 1831 3584 
Q 2591 3584 2966 3190 
Q 3341 2797 3341 1997 
z
" transform="scale(0.015625)"/>
       <path id="DejaVuSans-67" d="M 2906 1791 
Q 2906 2416 2648 2759 
Q 2391 3103 1925 3103 
Q 1463 3103 1205 2759 
Q 947 2416 947 1791 
Q 947 1169 1205 825 
Q 1463 481 1925 481 
Q 2391 481 2648 825 
Q 2906 1169 2906 1791 
z
M 3481 434 
Q 3481 -459 3084 -895 
Q 2688 -1331 1869 -1331 
Q 1566 -1331 1297 -1286 
Q 1028 -1241 775 -1147 
L 775 -588 
Q 1028 -725 1275 -790 
Q 1522 -856 1778 -856 
Q 2344 -856 2625 -561 
Q 2906 -266 2906 331 
L 2906 616 
Q 2728 306 2450 153 
Q 2172 0 1784 0 
Q 1141 0 747 490 
Q 353 981 353 1791 
Q 353 2603 747 3093 
Q 1141 3584 1784 3584 
Q 2172 3584 2450 3431 
Q 2728 3278 2906 2969 
L 2906 3500 
L 3481 3500 
L 3481 434 
z
" transform="scale(0.015625)"/>
       <path id="DejaVuSans-20" transform="scale(0.015625)"/>
       <path id="DejaVuSans-50" d="M 1259 4147 
L 1259 2394 
L 2053 2394 
Q 2494 2394 2734 2622 
Q 2975 2850 2975 3272 
Q 2975 3691 2734 3919 
Q 2494 4147 2053 4147 
L 1259 4147 
z
M 628 4666 
L 2053 4666 
Q 2838 4666 3239 4311 
Q 3641 3956 3641 3272 
Q 3641 2581 3239 2228 
Q 2838 1875 2053 1875 
L 1259 1875 
L 1259 0 
L 628 0 
L 628 4666 
z
" transform="scale(0.015625)"/>
       <path id="DejaVuSans-69" d="M 603 3500 
L 1178 3500 
L 1178 0 
L 603 0 
L 603 3500 
z
M 603 4863 
L 1178 4863 
L 1178 4134 
L 603 4134 
L 603 4863 
z
" transform="scale(0.015625)"/>
       <path id="DejaVuSans-6e" d="M 3513 2113 
L 3513 0 
L 2938 0 
L 2938 2094 
Q 2938 2591 2744 2837 
Q 2550 3084 2163 3084 
Q 1697 3084 1428 2787 
Q 1159 2491 1159 1978 
L 1159 0 
L 581 0 
L 581 3500 
L 1159 3500 
L 1159 2956 
Q 1366 3272 1645 3428 
Q 1925 3584 2291 3584 
Q 2894 3584 3203 3211 
Q 3513 2838 3513 2113 
z
" transform="scale(0.015625)"/>
       <path id="DejaVuSans-28" d="M 1984 4856 
Q 1566 4138 1362 3434 
Q 1159 2731 1159 2009 
Q 1159 1288 1364 580 
Q 1569 -128 1984 -844 
L 1484 -844 
Q 1016 -109 783 600 
Q 550 1309 550 2009 
Q 550 2706 781 3412 
Q 1013 4119 1484 4856 
L 1984 4856 
z
" transform="scale(0.015625)"/>
       <path id="DejaVuSans-29" d="M 513 4856 
L 1013 4856 
Q 1481 4119 1714 3412 
Q 1947 2706 1947 2009 
Q 1947 1309 1714 600 
Q 1481 -109 1013 -844 
L 513 -844 
Q 928 -128 1133 580 
Q 1338 1288 1338 2009 
Q 1338 2731 1133 3434 
Q 928 4138 513 4856 
z
" transform="scale(0.015625)"/>
      </defs>
      <use xlink:href="#DejaVuSans-41"/>
      <use xlink:href="#DejaVuSans-76" x="62.533203"/>
      <use xlink:href="#DejaVuSans-65" x="121.712891"/>
      <use xlink:href="#DejaVuSans-72" x="183.236328"/>
      <use xlink:href="#DejaVuSans-61" x="224.349609"/>
      <use xlink:href="#DejaVuSans-67" x="285.628906"/>
      <use xlink:href="#DejaVuSans-65" x="349.105469"/>
      <use xlink:href="#DejaVuSans-20" x="410.628906"/>
      <use xlink:href="#DejaVuSans-50" x="442.416016"/>
      <use xlink:href="#DejaVuSans-72" x="500.96875"/>
      <use xlink:href="#DejaVuSans-65" x="539.832031"/>
      <use xlink:href="#DejaVuSans-63" x="601.355469"/>
      <use xlink:href="#DejaVuSans-69" x="656.335938"/>
      <use xlink:href="#DejaVuSans-73" x="684.119141"/>
      <use xlink:href="#DejaVuSans-69" x="736.21875"/>
      <use xlink:href="#DejaVuSans-6f" x="764.001953"/>
      <use xlink:href="#DejaVuSans-6e" x="825.183594"/>
      <use xlink:href="#DejaVuSans-20" x="888.5625"/>
      <use xlink:href="#DejaVuSans-28" x="920.349609"/>
      <use xlink:href="#DejaVuSans-41" x="959.363281"/>
      <use xlink:href="#DejaVuSans-50" x="1027.771484"/>
      <use xlink:href="#DejaVuSans-29" x="1088.074219"/>
     </g>
    </g>
   </g>
   <g id="line2d_25">
    <path d="M 80.435795 219.792433 
L 86.596223 245.429623 
L 92.756651 236.247723 
L 98.917079 181.410343 
L 105.077507 178.871215 
L 111.237934 192.79558 
L 117.398362 144.830283 
L 123.55879 133.027334 
L 129.719218 114.00831 
L 135.879646 268.159038 
L 142.040074 129.22682 
L 148.200501 89.329475 
L 154.360929 186.488648 
L 160.521357 182.090175 
L 166.681785 117.407516 
L 172.842213 97.176268 
L 179.00264 122.592299 
L 185.163068 143.577098 
L 191.323496 194.261721 
L 197.483924 88.240085 
L 203.644352 122.616856 
L 209.804779 143.929292 
L 215.965207 128.047355 
L 222.125635 151.86616 
L 228.286063 173.399756 
L 234.446491 163.751031 
L 240.606918 204.148009 
L 246.767346 187.373283 
L 252.927774 120.749358 
L 259.088202 154.60189 
L 265.24863 120.331597 
L 271.409057 141.848837 
L 277.569485 141.59492 
L 283.729913 113.713431 
L 289.890341 60.284926 
L 296.050769 84.791764 
L 302.211197 57.147839 
L 308.371624 60.309482 
L 314.532052 113.361237 
L 320.69248 103.524112 
L 326.852908 73.685051 
L 333.013336 109.740921 
L 339.173763 107.021595 
L 345.334191 52.601927 
L 351.494619 83.096262 
L 357.655047 95.325125 
L 363.815475 151.546725 
L 369.975902 102.836079 
L 376.13633 108.512293 
L 382.296758 104.433304 
L 388.457186 89.976547 
L 394.617614 127.400282 
L 400.778041 101.279814 
L 406.938469 92.753238 
L 413.098897 132.028067 
L 419.259325 95.013891 
L 425.419753 113.156482 
L 431.58018 111.7231 
L 437.740608 93.367503 
L 443.901036 61.112196 
L 450.061464 73.726012 
L 456.221892 83.014341 
L 462.38232 58.679498 
L 468.542747 113.983753 
L 474.703175 104.703577 
L 480.863603 107.177187 
L 487.024031 175.783291 
L 493.184459 69.360298 
L 499.344886 124.852952 
L 505.505314 68.58219 
L 511.665742 75.47883 
L 517.82617 72.882337 
L 523.986598 92.188038 
L 530.147025 124.20588 
L 536.307453 69.843576 
L 542.467881 89.526028 
L 548.628309 80.024742 
L 554.788737 130.004928 
L 560.949164 91.115052 
L 567.109592 42.478125 
L 573.27002 71.588192 
L 579.430448 88.723363 
L 585.590876 115.654649 
L 591.751303 59.760686 
L 597.911731 48.744096 
L 604.072159 75.757304 
L 610.232587 70.00737 
L 616.393015 102.909798 
L 622.553443 45.951002 
L 628.71387 47.359828 
L 634.874298 90.95941 
L 641.034726 68.983546 
L 647.195154 44.345623 
L 653.355582 58.589423 
L 659.516009 62.078704 
L 665.676437 114.507943 
L 671.836865 56.590841 
L 677.997293 58.327304 
L 684.157721 111.977017 
L 690.318148 119.52073 
L 696.478576 86.503622 
L 702.639004 68.647707 
L 708.799432 59.392137 
L 714.95986 59.187333 
L 721.120287 54.199152 
L 727.280715 67.066885 
L 733.441143 76.543614 
L 739.601571 70.220327 
L 745.761999 62.070502 
L 751.922426 79.238383 
L 758.082854 66.092175 
L 764.243282 73.177216 
L 770.40371 92.605799 
L 776.564138 74.471361 
L 782.724566 84.84908 
L 788.884993 72.808618 
L 795.045421 75.487032 
L 801.205849 66.337891 
L 807.366277 75.552549 
L 813.526705 74.217443 
L 813.526705 73.783913 
" clip-path="url(#p9c3d609453)" style="fill: none; stroke: #1f77b4; stroke-width: 1.5; stroke-linecap: square"/>
   </g>
   <g id="line2d_26">
    <path d="M 80.435795 336.027946 
L 86.596223 282.517518 
L 92.756651 299.578921 
L 98.917079 297.596742 
L 105.077507 239.376608 
L 111.237934 174.24343 
L 117.398362 247.460915 
L 123.55879 187.471559 
L 129.719218 245.49514 
L 135.879646 194.884237 
L 142.040074 234.224584 
L 148.200501 249.975486 
L 154.360929 167.150188 
L 160.521357 144.764765 
L 166.681785 193.344327 
L 172.842213 215.459477 
L 179.00264 162.088287 
L 185.163068 116.252608 
L 191.323496 145.116959 
L 197.483924 234.601384 
L 203.644352 174.702103 
L 209.804779 185.694136 
L 215.965207 222.061288 
L 222.125635 179.403607 
L 228.286063 127.588682 
L 234.446491 178.723776 
L 240.606918 135.394466 
L 246.767346 132.740658 
L 252.927774 156.837986 
L 259.088202 140.99701 
L 265.24863 169.075051 
L 271.409057 137.720686 
L 277.569485 142.790788 
L 283.729913 147.991926 
L 289.890341 221.356851 
L 296.050769 206.154745 
L 302.211197 208.259806 
L 308.371624 209.119835 
L 314.532052 172.392287 
L 320.69248 162.563364 
L 326.852908 203.337093 
L 333.013336 177.937466 
L 339.173763 180.157159 
L 345.334191 209.25087 
L 351.494619 191.173797 
L 357.655047 202.12487 
L 363.815475 146.84522 
L 369.975902 161.310179 
L 376.13633 175.095258 
L 382.296758 169.050445 
L 388.457186 195.023474 
L 394.617614 156.66599 
L 400.778041 164.49638 
L 406.938469 175.922528 
L 413.098897 129.980371 
L 419.259325 161.064415 
L 425.419753 157.280304 
L 431.58018 162.268485 
L 437.740608 162.759917 
L 443.901036 152.537839 
L 450.061464 164.774854 
L 456.221892 159.631032 
L 462.38232 181.443102 
L 468.542747 162.915558 
L 474.703175 160.122512 
L 480.863603 195.465743 
L 487.024031 114.532549 
L 493.184459 197.406961 
L 499.344886 137.139131 
L 505.505314 188.454423 
L 511.665742 170.041559 
L 517.82617 150.236225 
L 523.986598 149.187795 
L 530.147025 149.335234 
L 536.307453 185.89894 
L 542.467881 164.701135 
L 548.628309 155.822316 
L 554.788737 154.593688 
L 560.949164 157.86181 
L 567.109592 171.163659 
L 573.27002 191.976462 
L 579.430448 158.803761 
L 585.590876 171.900855 
L 591.751303 198.324355 
L 597.911731 177.970225 
L 604.072159 174.177912 
L 610.232587 181.688866 
L 616.393015 160.327267 
L 622.553443 186.775324 
L 628.71387 164.217905 
L 634.874298 176.266521 
L 641.034726 169.8204 
L 647.195154 193.999602 
L 653.355582 162.972874 
L 659.516009 157.812696 
L 665.676437 132.15095 
L 671.836865 191.206556 
L 677.997293 184.629351 
L 684.157721 148.262199 
L 690.318148 157.583336 
L 696.478576 169.4436 
L 702.639004 186.111897 
L 708.799432 181.893621 
L 714.95986 181.828104 
L 721.120287 179.190651 
L 727.280715 180.615831 
L 733.441143 171.1309 
L 739.601571 163.366029 
L 745.761999 184.514671 
L 751.922426 175.422895 
L 758.082854 182.810967 
L 764.243282 154.364376 
L 770.40371 147.32845 
L 776.564138 166.675112 
L 782.724566 149.957701 
L 788.884993 170.598508 
L 795.045421 162.383166 
L 801.205849 167.019153 
L 807.366277 157.779938 
L 813.526705 159.155956 
L 813.526705 159.28909 
" clip-path="url(#p9c3d609453)" style="fill: none; stroke: #ff7f0e; stroke-width: 1.5; stroke-linecap: square"/>
   </g>
   <g id="line2d_27">
    <path d="M 80.435795 268.011599 
L 86.596223 232.815758 
L 92.756651 247.436358 
L 98.917079 228.392777 
L 105.077507 183.458039 
L 111.237934 181.172829 
L 117.398362 157.026386 
L 123.55879 134.141281 
L 129.719218 171.212822 
L 135.879646 149.408954 
L 142.040074 161.449417 
L 148.200501 138.285837 
L 154.360929 149.286072 
L 160.521357 129.423373 
L 166.681785 130.029534 
L 172.842213 138.416872 
L 179.00264 120.077679 
L 185.163068 107.422903 
L 191.323496 140.554692 
L 197.483924 146.370144 
L 203.644352 128.17839 
L 209.804779 132.683342 
L 215.965207 131.094318 
L 222.125635 134.993158 
L 228.286063 130.086849 
L 234.446491 137.851721 
L 240.606918 150.506497 
L 246.767346 139.973137 
L 252.927774 126.482888 
L 259.088202 123.091933 
L 265.24863 132.953615 
L 271.409057 99.305837 
L 277.569485 120.028566 
L 283.729913 95.12037 
L 289.890341 125.835815 
L 296.050769 129.595418 
L 302.211197 111.116988 
L 308.371624 117.538551 
L 314.532052 114.057473 
L 320.69248 114.802822 
L 326.852908 118.767179 
L 333.013336 124.082998 
L 339.173763 112.943525 
L 345.334191 126.728604 
L 351.494619 116.547487 
L 357.655047 118.35762 
L 363.815475 120.880393 
L 369.975902 117.923505 
L 376.13633 118.488704 
L 382.296758 117.595867 
L 388.457186 130.275249 
L 394.617614 120.585515 
L 400.778041 103.540467 
L 406.938469 118.971934 
L 413.098897 116.006892 
L 419.259325 102.459328 
L 425.419753 107.22635 
L 431.58018 117.432073 
L 437.740608 102.664083 
L 443.901036 103.933671 
L 450.061464 115.916769 
L 456.221892 100.010274 
L 462.38232 110.797552 
L 468.542747 113.369439 
L 474.703175 115.818492 
L 480.863603 125.770298 
L 487.024031 117.04712 
L 493.184459 122.73969 
L 499.344886 98.920884 
L 505.505314 113.123723 
L 511.665742 113.320276 
L 517.82617 105.645528 
L 523.986598 110.37159 
L 530.147025 103.622389 
L 536.307453 115.826694 
L 542.467881 105.53905 
L 548.628309 107.627707 
L 554.788737 111.436423 
L 560.949164 102.80332 
L 567.109592 91.016775 
L 573.27002 101.820408 
L 579.430448 103.565073 
L 585.590876 112.312808 
L 591.751303 120.397164 
L 597.911731 97.209027 
L 604.072159 102.148045 
L 610.232587 115.392579 
L 616.393015 108.446776 
L 622.553443 109.871956 
L 628.71387 100.870304 
L 634.874298 100.378824 
L 641.034726 105.063973 
L 647.195154 113.688874 
L 653.355582 101.328977 
L 659.516009 104.425102 
L 665.676437 102.344647 
L 671.836865 111.616621 
L 677.997293 112.386527 
L 684.157721 112.517611 
L 690.318148 114.237671 
L 696.478576 108.119138 
L 702.639004 107.82426 
L 708.799432 105.981367 
L 714.95986 103.32751 
L 721.120287 109.061089 
L 727.280715 111.248023 
L 733.441143 114.417869 
L 739.601571 105.432571 
L 745.761999 107.701426 
L 751.922426 103.818991 
L 758.082854 99.698992 
L 764.243282 94.112901 
L 770.40371 99.625272 
L 776.564138 99.109284 
L 782.724566 100.14131 
L 788.884993 99.46968 
L 795.045421 97.659498 
L 801.205849 96.31619 
L 807.366277 96.308037 
L 813.526705 95.873921 
L 813.526705 95.686595 
" clip-path="url(#p9c3d609453)" style="fill: none; stroke: #2ca02c; stroke-width: 1.5; stroke-linecap: square"/>
   </g>
   <g id="line2d_28">
    <path d="M 80.435795 436.979504 
L 86.596223 417.82942 
L 92.756651 445.678125 
L 98.917079 416.510693 
L 105.077507 372.968451 
L 111.237934 358.716449 
L 117.398362 348.805604 
L 123.55879 338.468846 
L 129.719218 358.069376 
L 135.879646 337.780812 
L 142.040074 364.720301 
L 148.200501 328.32864 
L 154.360929 351.828011 
L 160.521357 342.326676 
L 166.681785 323.692654 
L 172.842213 329.97498 
L 179.00264 323.168414 
L 185.163068 308.015471 
L 191.323496 349.821275 
L 197.483924 336.052551 
L 203.644352 320.178767 
L 209.804779 322.824422 
L 215.965207 319.171298 
L 222.125635 325.764907 
L 228.286063 333.202141 
L 234.446491 341.818841 
L 240.606918 347.814539 
L 246.767346 328.508839 
L 252.927774 315.010388 
L 259.088202 317.025325 
L 265.24863 321.218994 
L 271.409057 308.277542 
L 277.569485 319.425216 
L 283.729913 304.665427 
L 289.890341 315.354429 
L 296.050769 317.320204 
L 302.211197 303.936433 
L 308.371624 321.964392 
L 314.532052 304.616265 
L 320.69248 312.479462 
L 326.852908 316.124335 
L 333.013336 306.8114 
L 339.173763 309.743732 
L 345.334191 314.789229 
L 351.494619 323.872852 
L 357.655047 318.352229 
L 363.815475 318.270308 
L 369.975902 309.342375 
L 376.13633 317.647841 
L 382.296758 316.435568 
L 388.457186 317.475845 
L 394.617614 302.961723 
L 400.778041 289.242162 
L 406.938469 284.982927 
L 413.098897 304.477027 
L 419.259325 297.269154 
L 425.419753 286.965105 
L 431.58018 316.869684 
L 437.740608 299.80008 
L 443.901036 298.497732 
L 450.061464 297.899822 
L 456.221892 283.410307 
L 462.38232 305.738414 
L 468.542747 295.819367 
L 474.703175 306.893322 
L 480.863603 309.014738 
L 487.024031 309.530775 
L 493.184459 293.247432 
L 499.344886 299.906558 
L 505.505314 296.499199 
L 511.665742 312.99545 
L 517.82617 302.863447 
L 523.986598 315.870417 
L 530.147025 294.115663 
L 536.307453 307.212757 
L 542.467881 300.037642 
L 548.628309 298.620615 
L 554.788737 297.342873 
L 560.949164 300.324319 
L 567.109592 292.911641 
L 573.27002 290.339706 
L 579.430448 286.399954 
L 585.590876 300.791193 
L 591.751303 293.697951 
L 597.911731 289.364996 
L 604.072159 286.285274 
L 610.232587 299.529807 
L 616.393015 288.70977 
L 622.553443 287.825135 
L 628.71387 291.986094 
L 634.874298 293.566916 
L 641.034726 289.987512 
L 647.195154 286.096874 
L 653.355582 285.105809 
L 659.516009 281.73941 
L 665.676437 288.177378 
L 671.836865 297.146271 
L 677.997293 292.600359 
L 684.157721 296.507401 
L 690.318148 301.896939 
L 696.478576 290.978625 
L 702.639004 293.517753 
L 708.799432 287.169909 
L 714.95986 285.842956 
L 721.120287 294.336822 
L 727.280715 298.325736 
L 733.441143 293.083637 
L 739.601571 290.683747 
L 745.761999 288.963688 
L 751.922426 285.466205 
L 758.082854 282.050644 
L 764.243282 283.00895 
L 770.40371 286.45727 
L 776.564138 282.787791 
L 782.724566 285.07305 
L 788.884993 285.056646 
L 795.045421 282.542075 
L 801.205849 275.932111 
L 807.366277 278.127247 
L 813.526705 272.623029 
L 813.526705 272.822462 
" clip-path="url(#p9c3d609453)" style="fill: none; stroke: #d62728; stroke-width: 1.5; stroke-linecap: square"/>
   </g>
   <g id="patch_3">
    <path d="M 43.78125 465.838125 
L 43.78125 22.318125 
" style="fill: none; stroke: #000000; stroke-width: 0.8; stroke-linejoin: miter; stroke-linecap: square"/>
   </g>
   <g id="patch_4">
    <path d="M 850.18125 465.838125 
L 850.18125 22.318125 
" style="fill: none; stroke: #000000; stroke-width: 0.8; stroke-linejoin: miter; stroke-linecap: square"/>
   </g>
   <g id="patch_5">
    <path d="M 43.78125 465.838125 
L 850.18125 465.838125 
" style="fill: none; stroke: #000000; stroke-width: 0.8; stroke-linejoin: miter; stroke-linecap: square"/>
   </g>
   <g id="patch_6">
    <path d="M 43.78125 22.318125 
L 850.18125 22.318125 
" style="fill: none; stroke: #000000; stroke-width: 0.8; stroke-linejoin: miter; stroke-linecap: square"/>
   </g>
   <g id="text_15">
    <!-- Validation Metrics and Per-Class AP over Epochs -->
    <g transform="translate(303.11625 16.318125) scale(0.12 -0.12)">
     <defs>
      <path id="DejaVuSans-56" d="M 1831 0 
L 50 4666 
L 709 4666 
L 2188 738 
L 3669 4666 
L 4325 4666 
L 2547 0 
L 1831 0 
z
" transform="scale(0.015625)"/>
      <path id="DejaVuSans-6c" d="M 603 4863 
L 1178 4863 
L 1178 0 
L 603 0 
L 603 4863 
z
" transform="scale(0.015625)"/>
      <path id="DejaVuSans-64" d="M 2906 2969 
L 2906 4863 
L 3481 4863 
L 3481 0 
L 2906 0 
L 2906 525 
Q 2725 213 2448 61 
Q 2172 -91 1784 -91 
Q 1150 -91 751 415 
Q 353 922 353 1747 
Q 353 2572 751 3078 
Q 1150 3584 1784 3584 
Q 2172 3584 2448 3432 
Q 2725 3281 2906 2969 
z
M 947 1747 
Q 947 1113 1208 752 
Q 1469 391 1925 391 
Q 2381 391 2643 752 
Q 2906 1113 2906 1747 
Q 2906 2381 2643 2742 
Q 2381 3103 1925 3103 
Q 1469 3103 1208 2742 
Q 947 2381 947 1747 
z
" transform="scale(0.015625)"/>
      <path id="DejaVuSans-74" d="M 1172 4494 
L 1172 3500 
L 2356 3500 
L 2356 3053 
L 1172 3053 
L 1172 1153 
Q 1172 725 1289 603 
Q 1406 481 1766 481 
L 2356 481 
L 2356 0 
L 1766 0 
Q 1100 0 847 248 
Q 594 497 594 1153 
L 594 3053 
L 172 3053 
L 172 3500 
L 594 3500 
L 594 4494 
L 1172 4494 
z
" transform="scale(0.015625)"/>
      <path id="DejaVuSans-4d" d="M 628 4666 
L 1569 4666 
L 2759 1491 
L 3956 4666 
L 4897 4666 
L 4897 0 
L 4281 0 
L 4281 4097 
L 3078 897 
L 2444 897 
L 1241 4097 
L 1241 0 
L 628 0 
L 628 4666 
z
" transform="scale(0.015625)"/>
      <path id="DejaVuSans-2d" d="M 313 2009 
L 1997 2009 
L 1997 1497 
L 313 1497 
L 313 2009 
z
" transform="scale(0.015625)"/>
      <path id="DejaVuSans-43" d="M 4122 4306 
L 4122 3641 
Q 3803 3938 3442 4084 
Q 3081 4231 2675 4231 
Q 1875 4231 1450 3742 
Q 1025 3253 1025 2328 
Q 1025 1406 1450 917 
Q 1875 428 2675 428 
Q 3081 428 3442 575 
Q 3803 722 4122 1019 
L 4122 359 
Q 3791 134 3420 21 
Q 3050 -91 2638 -91 
Q 1578 -91 968 557 
Q 359 1206 359 2328 
Q 359 3453 968 4101 
Q 1578 4750 2638 4750 
Q 3056 4750 3426 4639 
Q 3797 4528 4122 4306 
z
" transform="scale(0.015625)"/>
     </defs>
     <use xlink:href="#DejaVuSans-56"/>
     <use xlink:href="#DejaVuSans-61" x="60.658203"/>
     <use xlink:href="#DejaVuSans-6c" x="121.9375"/>
     <use xlink:href="#DejaVuSans-69" x="149.720703"/>
     <use xlink:href="#DejaVuSans-64" x="177.503906"/>
     <use xlink:href="#DejaVuSans-61" x="240.980469"/>
     <use xlink:href="#DejaVuSans-74" x="302.259766"/>
     <use xlink:href="#DejaVuSans-69" x="341.46875"/>
     <use xlink:href="#DejaVuSans-6f" x="369.251953"/>
     <use xlink:href="#DejaVuSans-6e" x="430.433594"/>
     <use xlink:href="#DejaVuSans-20" x="493.8125"/>
     <use xlink:href="#DejaVuSans-4d" x="525.599609"/>
     <use xlink:href="#DejaVuSans-65" x="611.878906"/>
     <use xlink:href="#DejaVuSans-74" x="673.402344"/>
     <use xlink:href="#DejaVuSans-72" x="712.611328"/>
     <use xlink:href="#DejaVuSans-69" x="753.724609"/>
     <use xlink:href="#DejaVuSans-63" x="781.507812"/>
     <use xlink:href="#DejaVuSans-73" x="836.488281"/>
     <use xlink:href="#DejaVuSans-20" x="888.587891"/>
     <use xlink:href="#DejaVuSans-61" x="920.375"/>
     <use xlink:href="#DejaVuSans-6e" x="981.654297"/>
     <use xlink:href="#DejaVuSans-64" x="1045.033203"/>
     <use xlink:href="#DejaVuSans-20" x="1108.509766"/>
     <use xlink:href="#DejaVuSans-50" x="1140.296875"/>
     <use xlink:href="#DejaVuSans-65" x="1196.974609"/>
     <use xlink:href="#DejaVuSans-72" x="1258.498047"/>
     <use xlink:href="#DejaVuSans-2d" x="1293.236328"/>
     <use xlink:href="#DejaVuSans-43" x="1329.320312"/>
     <use xlink:href="#DejaVuSans-6c" x="1399.144531"/>
     <use xlink:href="#DejaVuSans-61" x="1426.927734"/>
     <use xlink:href="#DejaVuSans-73" x="1488.207031"/>
     <use xlink:href="#DejaVuSans-73" x="1540.306641"/>
     <use xlink:href="#DejaVuSans-20" x="1592.40625"/>
     <use xlink:href="#DejaVuSans-41" x="1624.193359"/>
     <use xlink:href="#DejaVuSans-50" x="1692.601562"/>
     <use xlink:href="#DejaVuSans-20" x="1752.904297"/>
     <use xlink:href="#DejaVuSans-6f" x="1784.691406"/>
     <use xlink:href="#DejaVuSans-76" x="1845.873047"/>
     <use xlink:href="#DejaVuSans-65" x="1905.052734"/>
     <use xlink:href="#DejaVuSans-72" x="1966.576172"/>
     <use xlink:href="#DejaVuSans-20" x="2007.689453"/>
     <use xlink:href="#DejaVuSans-45" x="2039.476562"/>
     <use xlink:href="#DejaVuSans-70" x="2102.660156"/>
     <use xlink:href="#DejaVuSans-6f" x="2166.136719"/>
     <use xlink:href="#DejaVuSans-63" x="2227.318359"/>
     <use xlink:href="#DejaVuSans-68" x="2282.298828"/>
     <use xlink:href="#DejaVuSans-73" x="2345.677734"/>
    </g>
   </g>
   <g id="legend_1">
    <g id="patch_7">
     <path d="M 873.30925 89.030625 
L 950.645188 89.030625 
Q 952.645188 89.030625 952.645188 87.030625 
L 952.645188 29.318125 
Q 952.645188 27.318125 950.645188 27.318125 
L 873.30925 27.318125 
Q 871.30925 27.318125 871.30925 29.318125 
L 871.30925 87.030625 
Q 871.30925 89.030625 873.30925 89.030625 
z
" style="fill: #ffffff; opacity: 0.8; stroke: #cccccc; stroke-linejoin: miter"/>
    </g>
    <g id="line2d_29">
     <path d="M 875.30925 35.416562 
L 885.30925 35.416562 
L 895.30925 35.416562 
" style="fill: none; stroke: #1f77b4; stroke-width: 1.5; stroke-linecap: square"/>
    </g>
    <g id="text_16">
     <!-- Precision -->
     <g transform="translate(903.30925 38.916562) scale(0.1 -0.1)">
      <use xlink:href="#DejaVuSans-50"/>
      <use xlink:href="#DejaVuSans-72" x="58.552734"/>
      <use xlink:href="#DejaVuSans-65" x="97.416016"/>
      <use xlink:href="#DejaVuSans-63" x="158.939453"/>
      <use xlink:href="#DejaVuSans-69" x="213.919922"/>
      <use xlink:href="#DejaVuSans-73" x="241.703125"/>
      <use xlink:href="#DejaVuSans-69" x="293.802734"/>
      <use xlink:href="#DejaVuSans-6f" x="321.585938"/>
      <use xlink:href="#DejaVuSans-6e" x="382.767578"/>
     </g>
    </g>
    <g id="line2d_30">
     <path d="M 875.30925 50.094687 
L 885.30925 50.094687 
L 895.30925 50.094687 
" style="fill: none; stroke: #ff7f0e; stroke-width: 1.5; stroke-linecap: square"/>
    </g>
    <g id="text_17">
     <!-- Recall -->
     <g transform="translate(903.30925 53.594687) scale(0.1 -0.1)">
      <defs>
       <path id="DejaVuSans-52" d="M 2841 2188 
Q 3044 2119 3236 1894 
Q 3428 1669 3622 1275 
L 4263 0 
L 3584 0 
L 2988 1197 
Q 2756 1666 2539 1819 
Q 2322 1972 1947 1972 
L 1259 1972 
L 1259 0 
L 628 0 
L 628 4666 
L 2053 4666 
Q 2853 4666 3247 4331 
Q 3641 3997 3641 3322 
Q 3641 2881 3436 2590 
Q 3231 2300 2841 2188 
z
M 1259 4147 
L 1259 2491 
L 2053 2491 
Q 2509 2491 2742 2702 
Q 2975 2913 2975 3322 
Q 2975 3731 2742 3939 
Q 2509 4147 2053 4147 
L 1259 4147 
z
" transform="scale(0.015625)"/>
      </defs>
      <use xlink:href="#DejaVuSans-52"/>
      <use xlink:href="#DejaVuSans-65" x="64.982422"/>
      <use xlink:href="#DejaVuSans-63" x="126.505859"/>
      <use xlink:href="#DejaVuSans-61" x="181.486328"/>
      <use xlink:href="#DejaVuSans-6c" x="242.765625"/>
      <use xlink:href="#DejaVuSans-6c" x="270.548828"/>
     </g>
    </g>
    <g id="line2d_31">
     <path d="M 875.30925 64.772812 
L 885.30925 64.772812 
L 895.30925 64.772812 
" style="fill: none; stroke: #2ca02c; stroke-width: 1.5; stroke-linecap: square"/>
    </g>
    <g id="text_18">
     <!-- mAP@50 -->
     <g transform="translate(903.30925 68.272812) scale(0.1 -0.1)">
      <defs>
       <path id="DejaVuSans-6d" d="M 3328 2828 
Q 3544 3216 3844 3400 
Q 4144 3584 4550 3584 
Q 5097 3584 5394 3201 
Q 5691 2819 5691 2113 
L 5691 0 
L 5113 0 
L 5113 2094 
Q 5113 2597 4934 2840 
Q 4756 3084 4391 3084 
Q 3944 3084 3684 2787 
Q 3425 2491 3425 1978 
L 3425 0 
L 2847 0 
L 2847 2094 
Q 2847 2600 2669 2842 
Q 2491 3084 2119 3084 
Q 1678 3084 1418 2786 
Q 1159 2488 1159 1978 
L 1159 0 
L 581 0 
L 581 3500 
L 1159 3500 
L 1159 2956 
Q 1356 3278 1631 3431 
Q 1906 3584 2284 3584 
Q 2666 3584 2933 3390 
Q 3200 3197 3328 2828 
z
" transform="scale(0.015625)"/>
       <path id="DejaVuSans-40" d="M 2381 1678 
Q 2381 1231 2603 976 
Q 2825 722 3213 722 
Q 3597 722 3817 978 
Q 4038 1234 4038 1678 
Q 4038 2116 3813 2373 
Q 3588 2631 3206 2631 
Q 2828 2631 2604 2375 
Q 2381 2119 2381 1678 
z
M 4084 744 
Q 3897 503 3655 389 
Q 3413 275 3091 275 
Q 2553 275 2217 664 
Q 1881 1053 1881 1678 
Q 1881 2303 2218 2693 
Q 2556 3084 3091 3084 
Q 3413 3084 3656 2967 
Q 3900 2850 4084 2613 
L 4084 3022 
L 4531 3022 
L 4531 722 
Q 4988 791 5245 1139 
Q 5503 1488 5503 2041 
Q 5503 2375 5404 2669 
Q 5306 2963 5106 3213 
Q 4781 3622 4314 3839 
Q 3847 4056 3297 4056 
Q 2913 4056 2559 3954 
Q 2206 3853 1906 3653 
Q 1416 3334 1139 2817 
Q 863 2300 863 1697 
Q 863 1200 1042 765 
Q 1222 331 1563 0 
Q 1891 -325 2322 -495 
Q 2753 -666 3244 -666 
Q 3647 -666 4036 -530 
Q 4425 -394 4750 -141 
L 5031 -488 
Q 4641 -791 4180 -952 
Q 3719 -1113 3244 -1113 
Q 2666 -1113 2153 -908 
Q 1641 -703 1241 -313 
Q 841 78 631 592 
Q 422 1106 422 1697 
Q 422 2266 634 2781 
Q 847 3297 1241 3688 
Q 1644 4084 2172 4295 
Q 2700 4506 3291 4506 
Q 3953 4506 4520 4234 
Q 5088 3963 5472 3463 
Q 5706 3156 5829 2797 
Q 5953 2438 5953 2053 
Q 5953 1231 5456 756 
Q 4959 281 4084 263 
L 4084 744 
z
" transform="scale(0.015625)"/>
      </defs>
      <use xlink:href="#DejaVuSans-6d"/>
      <use xlink:href="#DejaVuSans-41" x="97.412109"/>
      <use xlink:href="#DejaVuSans-50" x="165.820312"/>
      <use xlink:href="#DejaVuSans-40" x="226.123047"/>
      <use xlink:href="#DejaVuSans-35" x="326.123047"/>
      <use xlink:href="#DejaVuSans-30" x="389.746094"/>
     </g>
    </g>
    <g id="line2d_32">
     <path d="M 875.30925 79.450937 
L 885.30925 79.450937 
L 895.30925 79.450937 
" style="fill: none; stroke: #d62728; stroke-width: 1.5; stroke-linecap: square"/>
    </g>
    <g id="text_19">
     <!-- mAP -->
     <g transform="translate(903.30925 82.950937) scale(0.1 -0.1)">
      <use xlink:href="#DejaVuSans-6d"/>
      <use xlink:href="#DejaVuSans-41" x="97.412109"/>
      <use xlink:href="#DejaVuSans-50" x="165.820312"/>
     </g>
    </g>
   </g>
  </g>
 </g>
 <defs>
  <clipPath id="p9c3d609453">
   <rect x="43.78125" y="22.318125" width="806.4" height="443.52"/>
  </clipPath>
 </defs>
</svg>
