<?xml version="1.0" encoding="utf-8" standalone="no"?>
<!DOCTYPE svg PUBLIC "-//W3C//DTD SVG 1.1//EN"
  "http://www.w3.org/Graphics/SVG/1.1/DTD/svg11.dtd">
<svg xmlns:xlink="http://www.w3.org/1999/xlink" width="1045.13425pt" height="503.394375pt" viewBox="0 0 1045.13425 503.394375" xmlns="http://www.w3.org/2000/svg" version="1.1">
 <metadata>
  <rdf:RDF xmlns:dc="http://purl.org/dc/elements/1.1/" xmlns:cc="http://creativecommons.org/ns#" xmlns:rdf="http://www.w3.org/1999/02/22-rdf-syntax-ns#">
   <cc:Work>
    <dc:type rdf:resource="http://purl.org/dc/dcmitype/StillImage"/>
    <dc:date>2025-04-11T17:14:35.135716</dc:date>
    <dc:format>image/svg+xml</dc:format>
    <dc:creator>
     <cc:Agent>
      <dc:title>Matplotlib v3.9.4, https://matplotlib.org/</dc:title>
     </cc:Agent>
    </dc:creator>
   </cc:Work>
  </rdf:RDF>
 </metadata>
 <defs>
  <style type="text/css">*{stroke-linejoin: round; stroke-linecap: butt}</style>
 </defs>
 <g id="figure_1">
  <g id="patch_1">
   <path d="M 0 503.394375 
L 1045.13425 503.394375 
L 1045.13425 0 
L 0 0 
z
" style="fill: #ffffff"/>
  </g>
  <g id="axes_1">
   <g id="patch_2">
    <path d="M 43.78125 465.838125 
L 850.18125 465.838125 
L 850.18125 22.318125 
L 43.78125 22.318125 
z
" style="fill: #ffffff"/>
   </g>
   <g id="matplotlib.axis_1">
    <g id="xtick_1">
     <g id="line2d_1">
      <path d="M 74.275368 465.838125 
L 74.275368 22.318125 
" clip-path="url(#p29b24e2ace)" style="fill: none; stroke: #b0b0b0; stroke-width: 0.8; stroke-linecap: square"/>
     </g>
     <g id="line2d_2">
      <defs>
       <path id="m8201331d81" d="M 0 0 
L 0 3.5 
" style="stroke: #000000; stroke-width: 0.8"/>
      </defs>
      <g>
       <use xlink:href="#m8201331d81" x="74.275368" y="465.838125" style="stroke: #000000; stroke-width: 0.8"/>
      </g>
     </g>
     <g id="text_1">
      <!-- 0 -->
      <g transform="translate(71.094118 480.436562) scale(0.1 -0.1)">
       <defs>
        <path id="DejaVuSans-30" d="M 2034 4250 
Q 1547 4250 1301 3770 
Q 1056 3291 1056 2328 
Q 1056 1369 1301 889 
Q 1547 409 2034 409 
Q 2525 409 2770 889 
Q 3016 1369 3016 2328 
Q 3016 3291 2770 3770 
Q 2525 4250 2034 4250 
z
M 2034 4750 
Q 2819 4750 3233 4129 
Q 3647 3509 3647 2328 
Q 3647 1150 3233 529 
Q 2819 -91 2034 -91 
Q 1250 -91 836 529 
Q 422 1150 422 2328 
Q 422 3509 836 4129 
Q 1250 4750 2034 4750 
z
" transform="scale(0.015625)"/>
       </defs>
       <use xlink:href="#DejaVuSans-30"/>
      </g>
     </g>
    </g>
    <g id="xtick_2">
     <g id="line2d_3">
      <path d="M 197.483924 465.838125 
L 197.483924 22.318125 
" clip-path="url(#p29b24e2ace)" style="fill: none; stroke: #b0b0b0; stroke-width: 0.8; stroke-linecap: square"/>
     </g>
     <g id="line2d_4">
      <g>
       <use xlink:href="#m8201331d81" x="197.483924" y="465.838125" style="stroke: #000000; stroke-width: 0.8"/>
      </g>
     </g>
     <g id="text_2">
      <!-- 20 -->
      <g transform="translate(191.121424 480.436562) scale(0.1 -0.1)">
       <defs>
        <path id="DejaVuSans-32" d="M 1228 531 
L 3431 531 
L 3431 0 
L 469 0 
L 469 531 
Q 828 903 1448 1529 
Q 2069 2156 2228 2338 
Q 2531 2678 2651 2914 
Q 2772 3150 2772 3378 
Q 2772 3750 2511 3984 
Q 2250 4219 1831 4219 
Q 1534 4219 1204 4116 
Q 875 4013 500 3803 
L 500 4441 
Q 881 4594 1212 4672 
Q 1544 4750 1819 4750 
Q 2544 4750 2975 4387 
Q 3406 4025 3406 3419 
Q 3406 3131 3298 2873 
Q 3191 2616 2906 2266 
Q 2828 2175 2409 1742 
Q 1991 1309 1228 531 
z
" transform="scale(0.015625)"/>
       </defs>
       <use xlink:href="#DejaVuSans-32"/>
       <use xlink:href="#DejaVuSans-30" x="63.623047"/>
      </g>
     </g>
    </g>
    <g id="xtick_3">
     <g id="line2d_5">
      <path d="M 320.69248 465.838125 
L 320.69248 22.318125 
" clip-path="url(#p29b24e2ace)" style="fill: none; stroke: #b0b0b0; stroke-width: 0.8; stroke-linecap: square"/>
     </g>
     <g id="line2d_6">
      <g>
       <use xlink:href="#m8201331d81" x="320.69248" y="465.838125" style="stroke: #000000; stroke-width: 0.8"/>
      </g>
     </g>
     <g id="text_3">
      <!-- 40 -->
      <g transform="translate(314.32998 480.436562) scale(0.1 -0.1)">
       <defs>
        <path id="DejaVuSans-34" d="M 2419 4116 
L 825 1625 
L 2419 1625 
L 2419 4116 
z
M 2253 4666 
L 3047 4666 
L 3047 1625 
L 3713 1625 
L 3713 1100 
L 3047 1100 
L 3047 0 
L 2419 0 
L 2419 1100 
L 313 1100 
L 313 1709 
L 2253 4666 
z
" transform="scale(0.015625)"/>
       </defs>
       <use xlink:href="#DejaVuSans-34"/>
       <use xlink:href="#DejaVuSans-30" x="63.623047"/>
      </g>
     </g>
    </g>
    <g id="xtick_4">
     <g id="line2d_7">
      <path d="M 443.901036 465.838125 
L 443.901036 22.318125 
" clip-path="url(#p29b24e2ace)" style="fill: none; stroke: #b0b0b0; stroke-width: 0.8; stroke-linecap: square"/>
     </g>
     <g id="line2d_8">
      <g>
       <use xlink:href="#m8201331d81" x="443.901036" y="465.838125" style="stroke: #000000; stroke-width: 0.8"/>
      </g>
     </g>
     <g id="text_4">
      <!-- 60 -->
      <g transform="translate(437.538536 480.436562) scale(0.1 -0.1)">
       <defs>
        <path id="DejaVuSans-36" d="M 2113 2584 
Q 1688 2584 1439 2293 
Q 1191 2003 1191 1497 
Q 1191 994 1439 701 
Q 1688 409 2113 409 
Q 2538 409 2786 701 
Q 3034 994 3034 1497 
Q 3034 2003 2786 2293 
Q 2538 2584 2113 2584 
z
M 3366 4563 
L 3366 3988 
Q 3128 4100 2886 4159 
Q 2644 4219 2406 4219 
Q 1781 4219 1451 3797 
Q 1122 3375 1075 2522 
Q 1259 2794 1537 2939 
Q 1816 3084 2150 3084 
Q 2853 3084 3261 2657 
Q 3669 2231 3669 1497 
Q 3669 778 3244 343 
Q 2819 -91 2113 -91 
Q 1303 -91 875 529 
Q 447 1150 447 2328 
Q 447 3434 972 4092 
Q 1497 4750 2381 4750 
Q 2619 4750 2861 4703 
Q 3103 4656 3366 4563 
z
" transform="scale(0.015625)"/>
       </defs>
       <use xlink:href="#DejaVuSans-36"/>
       <use xlink:href="#DejaVuSans-30" x="63.623047"/>
      </g>
     </g>
    </g>
    <g id="xtick_5">
     <g id="line2d_9">
      <path d="M 567.109592 465.838125 
L 567.109592 22.318125 
" clip-path="url(#p29b24e2ace)" style="fill: none; stroke: #b0b0b0; stroke-width: 0.8; stroke-linecap: square"/>
     </g>
     <g id="line2d_10">
      <g>
       <use xlink:href="#m8201331d81" x="567.109592" y="465.838125" style="stroke: #000000; stroke-width: 0.8"/>
      </g>
     </g>
     <g id="text_5">
      <!-- 80 -->
      <g transform="translate(560.747092 480.436562) scale(0.1 -0.1)">
       <defs>
        <path id="DejaVuSans-38" d="M 2034 2216 
Q 1584 2216 1326 1975 
Q 1069 1734 1069 1313 
Q 1069 891 1326 650 
Q 1584 409 2034 409 
Q 2484 409 2743 651 
Q 3003 894 3003 1313 
Q 3003 1734 2745 1975 
Q 2488 2216 2034 2216 
z
M 1403 2484 
Q 997 2584 770 2862 
Q 544 3141 544 3541 
Q 544 4100 942 4425 
Q 1341 4750 2034 4750 
Q 2731 4750 3128 4425 
Q 3525 4100 3525 3541 
Q 3525 3141 3298 2862 
Q 3072 2584 2669 2484 
Q 3125 2378 3379 2068 
Q 3634 1759 3634 1313 
Q 3634 634 3220 271 
Q 2806 -91 2034 -91 
Q 1263 -91 848 271 
Q 434 634 434 1313 
Q 434 1759 690 2068 
Q 947 2378 1403 2484 
z
M 1172 3481 
Q 1172 3119 1398 2916 
Q 1625 2713 2034 2713 
Q 2441 2713 2670 2916 
Q 2900 3119 2900 3481 
Q 2900 3844 2670 4047 
Q 2441 4250 2034 4250 
Q 1625 4250 1398 4047 
Q 1172 3844 1172 3481 
z
" transform="scale(0.015625)"/>
       </defs>
       <use xlink:href="#DejaVuSans-38"/>
       <use xlink:href="#DejaVuSans-30" x="63.623047"/>
      </g>
     </g>
    </g>
    <g id="xtick_6">
     <g id="line2d_11">
      <path d="M 690.318148 465.838125 
L 690.318148 22.318125 
" clip-path="url(#p29b24e2ace)" style="fill: none; stroke: #b0b0b0; stroke-width: 0.8; stroke-linecap: square"/>
     </g>
     <g id="line2d_12">
      <g>
       <use xlink:href="#m8201331d81" x="690.318148" y="465.838125" style="stroke: #000000; stroke-width: 0.8"/>
      </g>
     </g>
     <g id="text_6">
      <!-- 100 -->
      <g transform="translate(680.774398 480.436562) scale(0.1 -0.1)">
       <defs>
        <path id="DejaVuSans-31" d="M 794 531 
L 1825 531 
L 1825 4091 
L 703 3866 
L 703 4441 
L 1819 4666 
L 2450 4666 
L 2450 531 
L 3481 531 
L 3481 0 
L 794 0 
L 794 531 
z
" transform="scale(0.015625)"/>
       </defs>
       <use xlink:href="#DejaVuSans-31"/>
       <use xlink:href="#DejaVuSans-30" x="63.623047"/>
       <use xlink:href="#DejaVuSans-30" x="127.246094"/>
      </g>
     </g>
    </g>
    <g id="xtick_7">
     <g id="line2d_13">
      <path d="M 813.526705 465.838125 
L 813.526705 22.318125 
" clip-path="url(#p29b24e2ace)" style="fill: none; stroke: #b0b0b0; stroke-width: 0.8; stroke-linecap: square"/>
     </g>
     <g id="line2d_14">
      <g>
       <use xlink:href="#m8201331d81" x="813.526705" y="465.838125" style="stroke: #000000; stroke-width: 0.8"/>
      </g>
     </g>
     <g id="text_7">
      <!-- 120 -->
      <g transform="translate(803.982955 480.436562) scale(0.1 -0.1)">
       <use xlink:href="#DejaVuSans-31"/>
       <use xlink:href="#DejaVuSans-32" x="63.623047"/>
       <use xlink:href="#DejaVuSans-30" x="127.246094"/>
      </g>
     </g>
    </g>
    <g id="text_8">
     <!-- Epoch -->
     <g transform="translate(431.670312 494.114687) scale(0.1 -0.1)">
      <defs>
       <path id="DejaVuSans-45" d="M 628 4666 
L 3578 4666 
L 3578 4134 
L 1259 4134 
L 1259 2753 
L 3481 2753 
L 3481 2222 
L 1259 2222 
L 1259 531 
L 3634 531 
L 3634 0 
L 628 0 
L 628 4666 
z
" transform="scale(0.015625)"/>
       <path id="DejaVuSans-70" d="M 1159 525 
L 1159 -1331 
L 581 -1331 
L 581 3500 
L 1159 3500 
L 1159 2969 
Q 1341 3281 1617 3432 
Q 1894 3584 2278 3584 
Q 2916 3584 3314 3078 
Q 3713 2572 3713 1747 
Q 3713 922 3314 415 
Q 2916 -91 2278 -91 
Q 1894 -91 1617 61 
Q 1341 213 1159 525 
z
M 3116 1747 
Q 3116 2381 2855 2742 
Q 2594 3103 2138 3103 
Q 1681 3103 1420 2742 
Q 1159 2381 1159 1747 
Q 1159 1113 1420 752 
Q 1681 391 2138 391 
Q 2594 391 2855 752 
Q 3116 1113 3116 1747 
z
" transform="scale(0.015625)"/>
       <path id="DejaVuSans-6f" d="M 1959 3097 
Q 1497 3097 1228 2736 
Q 959 2375 959 1747 
Q 959 1119 1226 758 
Q 1494 397 1959 397 
Q 2419 397 2687 759 
Q 2956 1122 2956 1747 
Q 2956 2369 2687 2733 
Q 2419 3097 1959 3097 
z
M 1959 3584 
Q 2709 3584 3137 3096 
Q 3566 2609 3566 1747 
Q 3566 888 3137 398 
Q 2709 -91 1959 -91 
Q 1206 -91 779 398 
Q 353 888 353 1747 
Q 353 2609 779 3096 
Q 1206 3584 1959 3584 
z
" transform="scale(0.015625)"/>
       <path id="DejaVuSans-63" d="M 3122 3366 
L 3122 2828 
Q 2878 2963 2633 3030 
Q 2388 3097 2138 3097 
Q 1578 3097 1268 2742 
Q 959 2388 959 1747 
Q 959 1106 1268 751 
Q 1578 397 2138 397 
Q 2388 397 2633 464 
Q 2878 531 3122 666 
L 3122 134 
Q 2881 22 2623 -34 
Q 2366 -91 2075 -91 
Q 1284 -91 818 406 
Q 353 903 353 1747 
Q 353 2603 823 3093 
Q 1294 3584 2113 3584 
Q 2378 3584 2631 3529 
Q 2884 3475 3122 3366 
z
" transform="scale(0.015625)"/>
       <path id="DejaVuSans-68" d="M 3513 2113 
L 3513 0 
L 2938 0 
L 2938 2094 
Q 2938 2591 2744 2837 
Q 2550 3084 2163 3084 
Q 1697 3084 1428 2787 
Q 1159 2491 1159 1978 
L 1159 0 
L 581 0 
L 581 4863 
L 1159 4863 
L 1159 2956 
Q 1366 3272 1645 3428 
Q 1925 3584 2291 3584 
Q 2894 3584 3203 3211 
Q 3513 2838 3513 2113 
z
" transform="scale(0.015625)"/>
      </defs>
      <use xlink:href="#DejaVuSans-45"/>
      <use xlink:href="#DejaVuSans-70" x="63.183594"/>
      <use xlink:href="#DejaVuSans-6f" x="126.660156"/>
      <use xlink:href="#DejaVuSans-63" x="187.841797"/>
      <use xlink:href="#DejaVuSans-68" x="242.822266"/>
     </g>
    </g>
   </g>
   <g id="matplotlib.axis_2">
    <g id="ytick_1">
     <g id="line2d_15">
      <path d="M 43.78125 465.838125 
L 850.18125 465.838125 
" clip-path="url(#p29b24e2ace)" style="fill: none; stroke: #b0b0b0; stroke-width: 0.8; stroke-linecap: square"/>
     </g>
     <g id="line2d_16">
      <defs>
       <path id="mbcef8b06ae" d="M 0 0 
L -3.5 0 
" style="stroke: #000000; stroke-width: 0.8"/>
      </defs>
      <g>
       <use xlink:href="#mbcef8b06ae" x="43.78125" y="465.838125" style="stroke: #000000; stroke-width: 0.8"/>
      </g>
     </g>
     <g id="text_9">
      <!-- 0.0 -->
      <g transform="translate(20.878125 469.637344) scale(0.1 -0.1)">
       <defs>
        <path id="DejaVuSans-2e" d="M 684 794 
L 1344 794 
L 1344 0 
L 684 0 
L 684 794 
z
" transform="scale(0.015625)"/>
       </defs>
       <use xlink:href="#DejaVuSans-30"/>
       <use xlink:href="#DejaVuSans-2e" x="63.623047"/>
       <use xlink:href="#DejaVuSans-30" x="95.410156"/>
      </g>
     </g>
    </g>
    <g id="ytick_2">
     <g id="line2d_17">
      <path d="M 43.78125 377.134125 
L 850.18125 377.134125 
" clip-path="url(#p29b24e2ace)" style="fill: none; stroke: #b0b0b0; stroke-width: 0.8; stroke-linecap: square"/>
     </g>
     <g id="line2d_18">
      <g>
       <use xlink:href="#mbcef8b06ae" x="43.78125" y="377.134125" style="stroke: #000000; stroke-width: 0.8"/>
      </g>
     </g>
     <g id="text_10">
      <!-- 0.2 -->
      <g transform="translate(20.878125 380.933344) scale(0.1 -0.1)">
       <use xlink:href="#DejaVuSans-30"/>
       <use xlink:href="#DejaVuSans-2e" x="63.623047"/>
       <use xlink:href="#DejaVuSans-32" x="95.410156"/>
      </g>
     </g>
    </g>
    <g id="ytick_3">
     <g id="line2d_19">
      <path d="M 43.78125 288.430125 
L 850.18125 288.430125 
" clip-path="url(#p29b24e2ace)" style="fill: none; stroke: #b0b0b0; stroke-width: 0.8; stroke-linecap: square"/>
     </g>
     <g id="line2d_20">
      <g>
       <use xlink:href="#mbcef8b06ae" x="43.78125" y="288.430125" style="stroke: #000000; stroke-width: 0.8"/>
      </g>
     </g>
     <g id="text_11">
      <!-- 0.4 -->
      <g transform="translate(20.878125 292.229344) scale(0.1 -0.1)">
       <use xlink:href="#DejaVuSans-30"/>
       <use xlink:href="#DejaVuSans-2e" x="63.623047"/>
       <use xlink:href="#DejaVuSans-34" x="95.410156"/>
      </g>
     </g>
    </g>
    <g id="ytick_4">
     <g id="line2d_21">
      <path d="M 43.78125 199.726125 
L 850.18125 199.726125 
" clip-path="url(#p29b24e2ace)" style="fill: none; stroke: #b0b0b0; stroke-width: 0.8; stroke-linecap: square"/>
     </g>
     <g id="line2d_22">
      <g>
       <use xlink:href="#mbcef8b06ae" x="43.78125" y="199.726125" style="stroke: #000000; stroke-width: 0.8"/>
      </g>
     </g>
     <g id="text_12">
      <!-- 0.6 -->
      <g transform="translate(20.878125 203.525344) scale(0.1 -0.1)">
       <use xlink:href="#DejaVuSans-30"/>
       <use xlink:href="#DejaVuSans-2e" x="63.623047"/>
       <use xlink:href="#DejaVuSans-36" x="95.410156"/>
      </g>
     </g>
    </g>
    <g id="ytick_5">
     <g id="line2d_23">
      <path d="M 43.78125 111.022125 
L 850.18125 111.022125 
" clip-path="url(#p29b24e2ace)" style="fill: none; stroke: #b0b0b0; stroke-width: 0.8; stroke-linecap: square"/>
     </g>
     <g id="line2d_24">
      <g>
       <use xlink:href="#mbcef8b06ae" x="43.78125" y="111.022125" style="stroke: #000000; stroke-width: 0.8"/>
      </g>
     </g>
     <g id="text_13">
      <!-- 0.8 -->
      <g transform="translate(20.878125 114.821344) scale(0.1 -0.1)">
       <use xlink:href="#DejaVuSans-30"/>
       <use xlink:href="#DejaVuSans-2e" x="63.623047"/>
       <use xlink:href="#DejaVuSans-38" x="95.410156"/>
      </g>
     </g>
    </g>
    <g id="ytick_6">
     <g id="line2d_25">
      <path d="M 43.78125 22.318125 
L 850.18125 22.318125 
" clip-path="url(#p29b24e2ace)" style="fill: none; stroke: #b0b0b0; stroke-width: 0.8; stroke-linecap: square"/>
     </g>
     <g id="line2d_26">
      <g>
       <use xlink:href="#mbcef8b06ae" x="43.78125" y="22.318125" style="stroke: #000000; stroke-width: 0.8"/>
      </g>
     </g>
     <g id="text_14">
      <!-- 1.0 -->
      <g transform="translate(20.878125 26.117344) scale(0.1 -0.1)">
       <use xlink:href="#DejaVuSans-31"/>
       <use xlink:href="#DejaVuSans-2e" x="63.623047"/>
       <use xlink:href="#DejaVuSans-30" x="95.410156"/>
      </g>
     </g>
    </g>
    <g id="text_15">
     <!-- Loss -->
     <g transform="translate(14.798437 255.045312) rotate(-90) scale(0.1 -0.1)">
      <defs>
       <path id="DejaVuSans-4c" d="M 628 4666 
L 1259 4666 
L 1259 531 
L 3531 531 
L 3531 0 
L 628 0 
L 628 4666 
z
" transform="scale(0.015625)"/>
       <path id="DejaVuSans-73" d="M 2834 3397 
L 2834 2853 
Q 2591 2978 2328 3040 
Q 2066 3103 1784 3103 
Q 1356 3103 1142 2972 
Q 928 2841 928 2578 
Q 928 2378 1081 2264 
Q 1234 2150 1697 2047 
L 1894 2003 
Q 2506 1872 2764 1633 
Q 3022 1394 3022 966 
Q 3022 478 2636 193 
Q 2250 -91 1575 -91 
Q 1294 -91 989 -36 
Q 684 19 347 128 
L 347 722 
Q 666 556 975 473 
Q 1284 391 1588 391 
Q 1994 391 2212 530 
Q 2431 669 2431 922 
Q 2431 1156 2273 1281 
Q 2116 1406 1581 1522 
L 1381 1569 
Q 847 1681 609 1914 
Q 372 2147 372 2553 
Q 372 3047 722 3315 
Q 1072 3584 1716 3584 
Q 2034 3584 2315 3537 
Q 2597 3491 2834 3397 
z
" transform="scale(0.015625)"/>
      </defs>
      <use xlink:href="#DejaVuSans-4c"/>
      <use xlink:href="#DejaVuSans-6f" x="53.962891"/>
      <use xlink:href="#DejaVuSans-73" x="115.144531"/>
      <use xlink:href="#DejaVuSans-73" x="167.244141"/>
     </g>
    </g>
   </g>
   <g id="line2d_27">
    <path d="M 202.530063 -1 
L 203.644352 0.27073 
L 209.804779 3.654784 
L 211.676107 -1 
M 218.840973 -1 
L 222.125635 11.185776 
L 228.286063 2.639118 
L 234.446491 10.542645 
L 240.606918 24.690954 
L 246.767346 19.430801 
L 252.927774 28.908821 
L 259.088202 36.985344 
L 265.24863 26.567054 
L 271.409057 34.191153 
L 277.569485 29.480972 
L 283.729913 44.307837 
L 289.890341 41.491493 
L 296.050769 48.468073 
L 302.211197 52.850054 
L 308.371624 50.397388 
L 314.532052 49.749842 
L 320.69248 60.744698 
L 326.852908 57.11228 
L 333.013336 64.656543 
L 339.173763 63.960223 
L 345.334191 73.495899 
L 351.494619 75.141346 
L 357.655047 71.86375 
L 363.815475 70.883561 
L 369.975902 61.902297 
L 376.13633 74.688975 
L 382.296758 83.519449 
L 388.457186 95.867054 
L 394.617614 90.030335 
L 400.778041 84.508493 
L 406.938469 97.295171 
L 413.098897 85.861242 
L 419.259325 89.076767 
L 425.419753 92.624908 
L 431.58018 101.646116 
L 437.740608 98.510427 
L 443.901036 109.727054 
L 450.061464 100.275629 
L 456.221892 110.662883 
L 462.38232 113.936064 
L 468.542747 107.371963 
L 474.703175 120.739648 
L 480.863603 119.267171 
L 487.024031 117.231399 
L 493.184459 122.416157 
L 499.344886 117.111645 
L 505.505314 126.048575 
L 511.665742 124.110404 
L 517.82617 126.186068 
L 523.986598 127.937972 
L 530.147025 128.838324 
L 536.307453 142.463257 
L 542.467881 134.315806 
L 548.628309 142.884591 
L 554.788737 136.41365 
L 560.949164 141.092769 
L 567.109592 145.053415 
L 573.27002 130.341863 
L 579.430448 139.784406 
L 585.590876 146.592431 
L 591.751303 141.984265 
L 597.911731 147.510522 
L 604.072159 142.747098 
L 610.232587 150.539753 
L 616.393015 152.97468 
L 622.553443 154.926175 
L 628.71387 147.976216 
L 634.874298 160.328235 
L 641.034726 162.851881 
L 647.195154 161.774118 
L 653.355582 165.113812 
L 659.516009 164.408636 
L 665.676437 164.940842 
L 671.836865 162.377305 
L 677.997293 166.750403 
L 684.157721 157.494153 
L 690.318148 174.343467 
L 696.478576 172.041618 
L 702.639004 172.662543 
L 708.799432 176.241746 
L 714.95986 177.998091 
L 721.120287 167.012091 
L 727.280715 172.995185 
L 733.441143 177.248529 
L 739.601571 179.679015 
L 745.761999 182.805847 
L 751.922426 176.55665 
L 758.082854 175.226081 
L 764.243282 175.682918 
L 770.40371 180.632582 
L 776.564138 179.479424 
L 782.724566 184.056554 
L 788.884993 181.098276 
L 795.045421 188.057118 
L 801.205849 189.919894 
L 807.366277 187.813168 
L 813.526705 190.607358 
" clip-path="url(#p29b24e2ace)" style="fill: none; stroke: #1f77b4; stroke-width: 1.5; stroke-linecap: square"/>
   </g>
   <g id="line2d_28">
    <path d="M 104.586869 -1 
L 105.077507 1.933968 
L 111.237934 26.606972 
L 117.398362 49.208753 
L 123.55879 41.145554 
L 129.719218 54.934574 
L 135.879646 68.186972 
L 142.040074 77.021887 
L 148.200501 84.131518 
L 154.360929 99.12247 
L 160.521357 123.751141 
L 166.681785 105.034611 
L 172.842213 116.805623 
L 179.00264 129.503609 
L 185.163068 162.834143 
L 191.323496 143.376906 
L 197.483924 136.741851 
L 203.644352 147.883082 
L 209.804779 165.512993 
L 215.965207 156.380913 
L 222.125635 165.947652 
L 228.286063 152.810566 
L 234.446491 172.329901 
L 240.606918 184.94805 
L 246.767346 179.399614 
L 252.927774 181.391001 
L 259.088202 198.621757 
L 265.24863 183.125166 
L 271.409057 190.332372 
L 277.569485 167.952362 
L 283.729913 194.004709 
L 289.890341 200.555513 
L 296.050769 201.353849 
L 302.211197 209.128739 
L 308.371624 213.311155 
L 314.532052 199.921264 
L 320.69248 215.808154 
L 326.852908 205.137057 
L 333.013336 211.013721 
L 339.173763 210.029091 
L 345.334191 220.478417 
L 351.494619 211.439497 
L 357.655047 224.248354 
L 363.815475 232.395805 
L 369.975902 217.999157 
L 376.13633 229.27344 
L 382.296758 231.384581 
L 388.457186 237.558383 
L 394.617614 240.356988 
L 400.778041 227.357422 
L 406.938469 244.840984 
L 413.098897 235.189995 
L 419.259325 242.663305 
L 425.419753 238.330098 
L 431.58018 246.841253 
L 437.740608 247.147288 
L 443.901036 254.097247 
L 450.061464 254.035149 
L 456.221892 254.483105 
L 462.38232 264.023222 
L 468.542747 248.677421 
L 474.703175 253.476308 
L 480.863603 247.102928 
L 487.024031 254.864534 
L 493.184459 259.144499 
L 499.344886 259.344089 
L 505.505314 261.628213 
L 511.665742 263.84137 
L 517.82617 267.411717 
L 523.986598 267.079074 
L 530.147025 261.100421 
L 536.307453 276.605881 
L 542.467881 271.336859 
L 548.628309 277.435266 
L 554.788737 267.265354 
L 560.949164 277.058278 
L 567.109592 276.676848 
L 573.27002 270.343373 
L 579.430448 272.862578 
L 585.590876 275.33741 
L 591.751303 277.098183 
L 597.911731 280.278231 
L 604.072159 281.786198 
L 610.232587 283.143362 
L 616.393015 287.818066 
L 622.553443 287.126174 
L 628.71387 279.448846 
L 634.874298 289.042178 
L 641.034726 290.616685 
L 647.195154 275.501524 
L 653.355582 294.88778 
L 659.516009 290.838442 
L 665.676437 293.566093 
L 671.836865 286.270181 
L 677.997293 291.277528 
L 684.157721 292.466163 
L 690.318148 301.917562 
L 696.478576 301.132536 
L 702.639004 299.456027 
L 708.799432 301.225683 
L 714.95986 304.534341 
L 721.120287 287.853543 
L 727.280715 295.388951 
L 733.441143 303.461019 
L 739.601571 304.538769 
L 745.761999 306.578969 
L 751.922426 306.680972 
L 758.082854 311.333497 
L 764.243282 302.86226 
L 770.40371 310.158172 
L 776.564138 307.395044 
L 782.724566 312.823726 
L 788.884993 312.681805 
L 795.045421 318.185881 
L 801.205849 314.17202 
L 807.366277 318.846725 
L 813.526705 313.941394 
" clip-path="url(#p29b24e2ace)" style="fill: none; stroke: #ff7f0e; stroke-width: 1.5; stroke-linecap: square"/>
   </g>
   <g id="line2d_29">
    <path d="M 128.758116 -1 
L 129.719218 1.49931 
L 133.05077 -1 
M 150.837146 -1 
L 154.360929 4.426552 
L 160.521357 7.362623 
L 166.681785 5.761509 
L 172.842213 15.261709 
L 179.00264 17.612385 
L 185.163068 26.567054 
L 191.323496 19.075979 
L 197.483924 21.133905 
L 203.644352 27.307733 
L 209.804779 25.848554 
L 215.965207 23.409185 
L 222.125635 35.499543 
L 228.286063 28.722554 
L 234.446491 26.766618 
L 240.606918 32.745271 
L 246.767346 31.84936 
L 252.927774 38.768283 
L 259.088202 41.012502 
L 265.24863 35.277773 
L 271.409057 36.905507 
L 277.569485 41.083456 
L 283.729913 40.866127 
L 289.890341 43.065986 
L 296.050769 44.49413 
L 302.211197 49.763139 
L 308.371624 47.141945 
L 314.532052 42.178958 
L 320.69248 48.570063 
L 326.852908 48.13099 
L 333.013336 46.858077 
L 339.173763 51.860983 
L 345.334191 50.463901 
L 351.494619 55.701874 
L 357.655047 55.710757 
L 363.815475 53.79918 
L 369.975902 51.971881 
L 376.13633 54.646291 
L 382.296758 60.837831 
L 388.457186 59.693556 
L 394.617614 57.431598 
L 400.778041 61.019684 
L 406.938469 63.734011 
L 413.098897 61.143853 
L 419.259325 62.642951 
L 425.419753 61.986549 
L 431.58018 64.629922 
L 437.740608 61.751481 
L 443.901036 63.467908 
L 450.061464 65.051283 
L 456.221892 67.455148 
L 462.38232 66.470545 
L 468.542747 62.886901 
L 474.703175 70.040865 
L 480.863603 72.697563 
L 487.024031 64.758559 
L 493.184459 68.501876 
L 499.344886 66.993895 
L 505.505314 73.832983 
L 511.665742 68.87441 
L 517.82617 72.622168 
L 523.986598 74.280938 
L 530.147025 73.482602 
L 536.307453 77.789161 
L 542.467881 73.287452 
L 548.628309 79.399157 
L 554.788737 73.793064 
L 560.949164 75.819954 
L 567.109592 80.193052 
L 573.27002 73.739823 
L 579.430448 75.646958 
L 585.590876 79.190684 
L 591.751303 74.130122 
L 597.911731 75.673579 
L 604.072159 75.52723 
L 610.232587 80.268447 
L 616.393015 79.3415 
L 622.553443 79.159648 
L 628.71387 76.662623 
L 634.874298 83.089232 
L 641.034726 82.153403 
L 647.195154 83.572664 
L 653.355582 80.148693 
L 659.516009 79.931364 
L 665.676437 81.173241 
L 671.836865 78.787088 
L 677.997293 83.266643 
L 684.157721 79.913625 
L 690.318148 88.242928 
L 696.478576 85.200399 
L 702.639004 85.524159 
L 708.799432 87.582084 
L 714.95986 88.185271 
L 721.120287 86.451106 
L 727.280715 85.213696 
L 733.441143 87.657479 
L 739.601571 87.786116 
L 745.761999 87.444591 
L 751.922426 85.674949 
L 758.082854 84.850018 
L 764.243282 81.736509 
L 770.40371 84.792362 
L 776.564138 82.809805 
L 782.724566 84.402063 
L 788.884993 84.91209 
L 795.045421 89.719872 
L 801.205849 86.801486 
L 807.366277 88.832817 
L 813.526705 87.449033 
" clip-path="url(#p29b24e2ace)" style="fill: none; stroke: #2ca02c; stroke-width: 1.5; stroke-linecap: square"/>
   </g>
   <g id="line2d_30">
    <path d="M 80.435795 5.025271 
L 81.051391 -1 
M 104.467234 -1 
L 105.077507 5.796986 
L 111.237934 11.584958 
L 117.398362 3.574947 
L 119.159114 -1 
M 126.880632 -1 
L 129.719218 8.768588 
L 135.879646 15.758438 
L 138.288549 -1 
M 146.209725 -1 
L 148.200501 11.460762 
L 151.534052 -1 
M 164.112227 -1 
L 166.681785 22.154011 
L 172.842213 -0.106245 
L 179.00264 20.925484 
L 185.163068 28.633862 
L 190.893401 -1 
M 192.105022 -1 
L 197.483924 14.308168 
L 203.644352 26.691223 
L 209.804779 20.340036 
L 215.965207 18.911865 
L 222.125635 8.564556 
L 228.286063 16.565684 
L 234.446491 13.838032 
L 240.606918 4.816851 
L 246.767346 33.348458 
L 252.927774 28.598358 
L 259.088202 27.604872 
L 265.24863 22.131858 
L 271.409057 28.08389 
L 277.569485 8.023467 
L 283.729913 34.803223 
L 289.890341 33.627885 
L 296.050769 53.572969 
L 302.211197 31.587698 
L 308.371624 33.592408 
L 314.532052 29.999881 
L 320.69248 26.788798 
L 326.852908 26.810977 
L 333.013336 45.665027 
L 339.173763 50.725589 
L 345.334191 40.480269 
L 351.494619 14.614189 
L 357.655047 23.094282 
L 363.815475 28.345552 
L 369.975902 30.248273 
L 376.13633 34.355267 
L 382.296758 4.692655 
L 388.457186 39.469045 
L 394.617614 41.012502 
L 400.778041 43.97078 
L 406.938469 57.817456 
L 413.098897 26.873075 
L 419.259325 29.791435 
L 425.419753 35.996273 
L 431.58018 17.080178 
L 437.740608 33.929491 
L 443.901036 44.946527 
L 450.061464 38.333625 
L 456.221892 36.187007 
L 462.38232 14.498876 
L 468.542747 34.639109 
L 474.703175 26.017082 
L 480.863603 26.407381 
L 487.024031 42.653508 
L 493.184459 40.866127 
L 499.344886 31.441323 
L 505.505314 50.055863 
L 511.665742 34.333088 
L 517.82617 27.879858 
L 523.986598 47.514506 
L 530.147025 43.97078 
L 536.307453 25.573568 
L 542.467881 39.970216 
L 548.628309 39.12752 
L 554.788737 49.452677 
L 560.949164 42.547077 
L 567.109592 40.65768 
L 573.27002 42.001547 
L 579.430448 32.887205 
L 585.590876 35.091506 
L 591.751303 50.712266 
L 597.911731 46.955652 
L 604.072159 35.703549 
L 610.232587 38.351364 
L 616.393015 44.028436 
L 622.553443 46.933472 
L 628.71387 31.521159 
L 634.874298 41.220949 
L 641.034726 49.102296 
L 647.195154 59.609278 
L 653.355582 55.78171 
L 659.516009 50.397388 
L 665.676437 54.894682 
L 671.836865 44.055031 
L 677.997293 50.344146 
L 684.157721 45.154974 
L 690.318148 47.532244 
L 696.478576 45.358979 
L 702.639004 48.188646 
L 708.799432 35.721287 
L 714.95986 40.427054 
L 721.120287 42.44062 
L 727.280715 47.581018 
L 733.441143 38.125178 
L 739.601571 43.60266 
L 745.761999 46.5432 
L 751.922426 39.398091 
L 758.082854 43.270018 
L 764.243282 47.798347 
L 770.40371 39.265013 
L 776.564138 42.968412 
L 782.724566 37.446596 
L 788.884993 43.788927 
L 795.045421 45.722684 
L 801.205849 43.540563 
L 807.366277 43.199038 
L 813.526705 47.372572 
" clip-path="url(#p29b24e2ace)" style="fill: none; stroke: #d62728; stroke-width: 1.5; stroke-linecap: square"/>
   </g>
   <g id="line2d_31">
    <path d="M 83.502526 -1 
L 86.596223 59.564945 
L 92.756651 10.436214 
L 98.917079 75.376413 
L 105.077507 106.289759 
L 111.237934 104.09434 
L 117.398362 136.73741 
L 123.55879 132.448589 
L 129.719218 101.774726 
L 135.879646 116.725787 
L 142.040074 107.367522 
L 148.200501 134.985506 
L 154.360929 118.743821 
L 160.521357 126.407838 
L 166.681785 145.909408 
L 172.842213 144.636495 
L 179.00264 136.724113 
L 185.163068 155.409607 
L 191.323496 153.622226 
L 197.483924 122.943949 
L 203.644352 149.838992 
L 209.804779 151.098581 
L 215.965207 150.069618 
L 222.125635 145.904967 
L 228.286063 149.723678 
L 234.446491 129.898349 
L 240.606918 121.449292 
L 246.767346 157.392137 
L 252.927774 145.248564 
L 259.088202 145.080036 
L 265.24863 152.726315 
L 271.409057 149.941008 
L 277.569485 147.608096 
L 283.729913 161.122157 
L 289.890341 146.41502 
L 296.050769 170.014728 
L 302.211197 153.156532 
L 308.371624 155.360807 
L 314.532052 149.989782 
L 320.69248 148.982999 
L 326.852908 144.423607 
L 333.013336 136.289454 
L 339.173763 160.062132 
L 345.334191 141.46533 
L 351.494619 149.70594 
L 357.655047 158.336849 
L 363.815475 156.81113 
L 369.975902 163.366349 
L 376.13633 169.105493 
L 382.296758 148.016134 
L 388.457186 142.179415 
L 394.617614 143.088623 
L 400.778041 157.086116 
L 406.938469 146.313004 
L 413.098897 155.702331 
L 419.259325 144.419193 
L 425.419753 152.136426 
L 431.58018 155.254376 
L 437.740608 154.345168 
L 443.901036 145.559027 
L 450.061464 141.261324 
L 456.221892 177.629945 
L 462.38232 151.001006 
L 468.542747 163.246595 
L 474.703175 156.420831 
L 480.863603 138.356262 
L 487.024031 162.359566 
L 493.184459 142.356826 
L 499.344886 170.600177 
L 505.505314 153.69318 
L 511.665742 152.970239 
L 517.82617 151.630814 
L 523.986598 171.150122 
L 530.147025 174.822484 
L 536.307453 149.045097 
L 542.467881 147.124664 
L 548.628309 149.537411 
L 554.788737 160.585483 
L 560.949164 151.706209 
L 567.109592 156.820013 
L 573.27002 162.084581 
L 579.430448 136.187438 
L 585.590876 164.26226 
L 591.751303 135.828201 
L 597.911731 151.635255 
L 604.072159 153.706477 
L 610.232587 147.643573 
L 616.393015 151.533239 
L 622.553443 154.682225 
L 628.71387 156.802248 
L 634.874298 163.743351 
L 641.034726 157.409876 
L 647.195154 156.154728 
L 653.355582 177.683187 
L 659.516009 149.324523 
L 665.676437 169.792958 
L 671.836865 152.775089 
L 677.997293 150.136157 
L 684.157721 152.699694 
L 690.318148 153.688739 
L 696.478576 150.255911 
L 702.639004 151.054248 
L 708.799432 163.313134 
L 714.95986 162.927276 
L 721.120287 164.342097 
L 727.280715 161.481394 
L 733.441143 156.545027 
L 739.601571 160.536709 
L 745.761999 160.64758 
L 751.922426 170.923936 
L 758.082854 169.517972 
L 764.243282 176.476814 
L 770.40371 177.20417 
L 776.564138 179.350814 
L 782.724566 177.527956 
L 788.884993 173.066139 
L 795.045421 174.631776 
L 801.205849 182.504241 
L 807.366277 179.772148 
L 813.526705 177.097739 
" clip-path="url(#p29b24e2ace)" style="fill: none; stroke: #9467bd; stroke-width: 1.5; stroke-linecap: square"/>
   </g>
   <g id="line2d_32">
    <path d="M 80.435795 4.701485 
L 82.141802 -1 
M 91.494925 -1 
L 92.756651 2.834268 
L 94.201901 -1 
M 102.289638 -1 
L 105.077507 9.340712 
L 111.237934 14.72062 
L 117.398362 15.430264 
L 123.55879 5.229303 
L 129.719218 13.944463 
L 135.879646 22.043139 
L 142.040074 3.708025 
L 148.200501 11.944168 
L 154.360929 7.291669 
L 160.521357 6.803769 
L 166.681785 21.683876 
L 172.842213 15.084324 
L 179.00264 23.55112 
L 185.163068 28.691518 
L 191.323496 15.385904 
L 197.483924 12.219154 
L 203.644352 20.127122 
L 209.804779 18.969548 
L 215.965207 18.313146 
L 222.125635 4.02737 
L 228.286063 18.907477 
L 234.446491 18.441783 
L 240.606918 15.718573 
L 246.767346 21.967744 
L 252.927774 26.740024 
L 259.088202 27.786725 
L 265.24863 16.827346 
L 271.409057 16.814022 
L 277.569485 15.816121 
L 283.729913 27.383129 
L 289.890341 28.185906 
L 296.050769 36.382157 
L 302.211197 24.526867 
L 308.371624 33.94723 
L 314.532052 28.833426 
L 320.69248 25.679999 
L 326.852908 18.951784 
L 333.013336 35.011669 
L 339.173763 37.397796 
L 345.334191 37.105072 
L 351.494619 22.970112 
L 357.655047 20.925484 
L 363.815475 28.185906 
L 369.975902 17.652303 
L 376.13633 25.954984 
L 382.296758 8.103303 
L 388.457186 23.351529 
L 394.617614 24.056732 
L 400.778041 26.753321 
L 406.938469 35.637036 
L 413.098897 21.794748 
L 419.259325 23.364826 
L 425.419753 22.034257 
L 431.58018 8.781911 
L 437.740608 25.232043 
L 443.901036 29.214869 
L 450.061464 26.99283 
L 456.221892 20.650499 
L 462.38232 14.31705 
L 468.542747 25.697737 
L 474.703175 25.223187 
L 480.863603 23.26281 
L 487.024031 33.716577 
L 493.184459 31.476826 
L 499.344886 27.786725 
L 505.505314 30.26157 
L 511.665742 29.365659 
L 517.82617 25.693322 
L 523.986598 29.920045 
L 530.147025 29.911189 
L 536.307453 18.588132 
L 542.467881 22.570931 
L 548.628309 25.041335 
L 554.788737 33.179929 
L 560.949164 29.525331 
L 567.109592 26.034821 
L 573.27002 21.949979 
L 579.430448 13.070758 
L 585.590876 23.834961 
L 591.751303 31.521159 
L 597.911731 29.738219 
L 604.072159 28.261301 
L 610.232587 27.485144 
L 616.393015 30.607509 
L 622.553443 30.208354 
L 628.71387 22.916871 
L 634.874298 27.29441 
L 641.034726 28.562881 
L 647.195154 35.091506 
L 653.355582 31.179661 
L 659.516009 32.541266 
L 665.676437 32.479168 
L 671.836865 29.414433 
L 677.997293 33.814152 
L 684.157721 29.49871 
L 690.318148 31.703011 
L 696.478576 29.525331 
L 702.639004 25.001417 
L 708.799432 11.017221 
L 714.95986 17.758734 
L 721.120287 15.394787 
L 727.280715 19.186851 
L 733.441143 7.89483 
L 739.601571 16.601161 
L 745.761999 24.145424 
L 751.922426 10.65357 
L 758.082854 9.642345 
L 764.243282 12.480869 
L 770.40371 10.453979 
L 776.564138 11.00395 
L 782.724566 6.417912 
L 788.884993 13.199342 
L 795.045421 12.649371 
L 801.205849 5.9123 
L 807.366277 8.001313 
L 813.526705 10.090275 
" clip-path="url(#p29b24e2ace)" style="fill: none; stroke: #8c564b; stroke-width: 1.5; stroke-linecap: square"/>
   </g>
   <g id="patch_3">
    <path d="M 43.78125 465.838125 
L 43.78125 22.318125 
" style="fill: none; stroke: #000000; stroke-width: 0.8; stroke-linejoin: miter; stroke-linecap: square"/>
   </g>
   <g id="patch_4">
    <path d="M 850.18125 465.838125 
L 850.18125 22.318125 
" style="fill: none; stroke: #000000; stroke-width: 0.8; stroke-linejoin: miter; stroke-linecap: square"/>
   </g>
   <g id="patch_5">
    <path d="M 43.78125 465.838125 
L 850.18125 465.838125 
" style="fill: none; stroke: #000000; stroke-width: 0.8; stroke-linejoin: miter; stroke-linecap: square"/>
   </g>
   <g id="patch_6">
    <path d="M 43.78125 22.318125 
L 850.18125 22.318125 
" style="fill: none; stroke: #000000; stroke-width: 0.8; stroke-linejoin: miter; stroke-linecap: square"/>
   </g>
   <g id="text_16">
    <!-- Training Metrics over Epochs -->
    <g transform="translate(360.930938 16.318125) scale(0.12 -0.12)">
     <defs>
      <path id="DejaVuSans-54" d="M -19 4666 
L 3928 4666 
L 3928 4134 
L 2272 4134 
L 2272 0 
L 1638 0 
L 1638 4134 
L -19 4134 
L -19 4666 
z
" transform="scale(0.015625)"/>
      <path id="DejaVuSans-72" d="M 2631 2963 
Q 2534 3019 2420 3045 
Q 2306 3072 2169 3072 
Q 1681 3072 1420 2755 
Q 1159 2438 1159 1844 
L 1159 0 
L 581 0 
L 581 3500 
L 1159 3500 
L 1159 2956 
Q 1341 3275 1631 3429 
Q 1922 3584 2338 3584 
Q 2397 3584 2469 3576 
Q 2541 3569 2628 3553 
L 2631 2963 
z
" transform="scale(0.015625)"/>
      <path id="DejaVuSans-61" d="M 2194 1759 
Q 1497 1759 1228 1600 
Q 959 1441 959 1056 
Q 959 750 1161 570 
Q 1363 391 1709 391 
Q 2188 391 2477 730 
Q 2766 1069 2766 1631 
L 2766 1759 
L 2194 1759 
z
M 3341 1997 
L 3341 0 
L 2766 0 
L 2766 531 
Q 2569 213 2275 61 
Q 1981 -91 1556 -91 
Q 1019 -91 701 211 
Q 384 513 384 1019 
Q 384 1609 779 1909 
Q 1175 2209 1959 2209 
L 2766 2209 
L 2766 2266 
Q 2766 2663 2505 2880 
Q 2244 3097 1772 3097 
Q 1472 3097 1187 3025 
Q 903 2953 641 2809 
L 641 3341 
Q 956 3463 1253 3523 
Q 1550 3584 1831 3584 
Q 2591 3584 2966 3190 
Q 3341 2797 3341 1997 
z
" transform="scale(0.015625)"/>
      <path id="DejaVuSans-69" d="M 603 3500 
L 1178 3500 
L 1178 0 
L 603 0 
L 603 3500 
z
M 603 4863 
L 1178 4863 
L 1178 4134 
L 603 4134 
L 603 4863 
z
" transform="scale(0.015625)"/>
      <path id="DejaVuSans-6e" d="M 3513 2113 
L 3513 0 
L 2938 0 
L 2938 2094 
Q 2938 2591 2744 2837 
Q 2550 3084 2163 3084 
Q 1697 3084 1428 2787 
Q 1159 2491 1159 1978 
L 1159 0 
L 581 0 
L 581 3500 
L 1159 3500 
L 1159 2956 
Q 1366 3272 1645 3428 
Q 1925 3584 2291 3584 
Q 2894 3584 3203 3211 
Q 3513 2838 3513 2113 
z
" transform="scale(0.015625)"/>
      <path id="DejaVuSans-67" d="M 2906 1791 
Q 2906 2416 2648 2759 
Q 2391 3103 1925 3103 
Q 1463 3103 1205 2759 
Q 947 2416 947 1791 
Q 947 1169 1205 825 
Q 1463 481 1925 481 
Q 2391 481 2648 825 
Q 2906 1169 2906 1791 
z
M 3481 434 
Q 3481 -459 3084 -895 
Q 2688 -1331 1869 -1331 
Q 1566 -1331 1297 -1286 
Q 1028 -1241 775 -1147 
L 775 -588 
Q 1028 -725 1275 -790 
Q 1522 -856 1778 -856 
Q 2344 -856 2625 -561 
Q 2906 -266 2906 331 
L 2906 616 
Q 2728 306 2450 153 
Q 2172 0 1784 0 
Q 1141 0 747 490 
Q 353 981 353 1791 
Q 353 2603 747 3093 
Q 1141 3584 1784 3584 
Q 2172 3584 2450 3431 
Q 2728 3278 2906 2969 
L 2906 3500 
L 3481 3500 
L 3481 434 
z
" transform="scale(0.015625)"/>
      <path id="DejaVuSans-20" transform="scale(0.015625)"/>
      <path id="DejaVuSans-4d" d="M 628 4666 
L 1569 4666 
L 2759 1491 
L 3956 4666 
L 4897 4666 
L 4897 0 
L 4281 0 
L 4281 4097 
L 3078 897 
L 2444 897 
L 1241 4097 
L 1241 0 
L 628 0 
L 628 4666 
z
" transform="scale(0.015625)"/>
      <path id="DejaVuSans-65" d="M 3597 1894 
L 3597 1613 
L 953 1613 
Q 991 1019 1311 708 
Q 1631 397 2203 397 
Q 2534 397 2845 478 
Q 3156 559 3463 722 
L 3463 178 
Q 3153 47 2828 -22 
Q 2503 -91 2169 -91 
Q 1331 -91 842 396 
Q 353 884 353 1716 
Q 353 2575 817 3079 
Q 1281 3584 2069 3584 
Q 2775 3584 3186 3129 
Q 3597 2675 3597 1894 
z
M 3022 2063 
Q 3016 2534 2758 2815 
Q 2500 3097 2075 3097 
Q 1594 3097 1305 2825 
Q 1016 2553 972 2059 
L 3022 2063 
z
" transform="scale(0.015625)"/>
      <path id="DejaVuSans-74" d="M 1172 4494 
L 1172 3500 
L 2356 3500 
L 2356 3053 
L 1172 3053 
L 1172 1153 
Q 1172 725 1289 603 
Q 1406 481 1766 481 
L 2356 481 
L 2356 0 
L 1766 0 
Q 1100 0 847 248 
Q 594 497 594 1153 
L 594 3053 
L 172 3053 
L 172 3500 
L 594 3500 
L 594 4494 
L 1172 4494 
z
" transform="scale(0.015625)"/>
      <path id="DejaVuSans-76" d="M 191 3500 
L 800 3500 
L 1894 563 
L 2988 3500 
L 3597 3500 
L 2284 0 
L 1503 0 
L 191 3500 
z
" transform="scale(0.015625)"/>
     </defs>
     <use xlink:href="#DejaVuSans-54"/>
     <use xlink:href="#DejaVuSans-72" x="46.333984"/>
     <use xlink:href="#DejaVuSans-61" x="87.447266"/>
     <use xlink:href="#DejaVuSans-69" x="148.726562"/>
     <use xlink:href="#DejaVuSans-6e" x="176.509766"/>
     <use xlink:href="#DejaVuSans-69" x="239.888672"/>
     <use xlink:href="#DejaVuSans-6e" x="267.671875"/>
     <use xlink:href="#DejaVuSans-67" x="331.050781"/>
     <use xlink:href="#DejaVuSans-20" x="394.527344"/>
     <use xlink:href="#DejaVuSans-4d" x="426.314453"/>
     <use xlink:href="#DejaVuSans-65" x="512.59375"/>
     <use xlink:href="#DejaVuSans-74" x="574.117188"/>
     <use xlink:href="#DejaVuSans-72" x="613.326172"/>
     <use xlink:href="#DejaVuSans-69" x="654.439453"/>
     <use xlink:href="#DejaVuSans-63" x="682.222656"/>
     <use xlink:href="#DejaVuSans-73" x="737.203125"/>
     <use xlink:href="#DejaVuSans-20" x="789.302734"/>
     <use xlink:href="#DejaVuSans-6f" x="821.089844"/>
     <use xlink:href="#DejaVuSans-76" x="882.271484"/>
     <use xlink:href="#DejaVuSans-65" x="941.451172"/>
     <use xlink:href="#DejaVuSans-72" x="1002.974609"/>
     <use xlink:href="#DejaVuSans-20" x="1044.087891"/>
     <use xlink:href="#DejaVuSans-45" x="1075.875"/>
     <use xlink:href="#DejaVuSans-70" x="1139.058594"/>
     <use xlink:href="#DejaVuSans-6f" x="1202.535156"/>
     <use xlink:href="#DejaVuSans-63" x="1263.716797"/>
     <use xlink:href="#DejaVuSans-68" x="1318.697266"/>
     <use xlink:href="#DejaVuSans-73" x="1382.076172"/>
    </g>
   </g>
   <g id="legend_1">
    <g id="patch_7">
     <path d="M 873.30925 118.386875 
L 1035.93425 118.386875 
Q 1037.93425 118.386875 1037.93425 116.386875 
L 1037.93425 29.318125 
Q 1037.93425 27.318125 1035.93425 27.318125 
L 873.30925 27.318125 
Q 871.30925 27.318125 871.30925 29.318125 
L 871.30925 116.386875 
Q 871.30925 118.386875 873.30925 118.386875 
z
" style="fill: #ffffff; opacity: 0.8; stroke: #cccccc; stroke-linejoin: miter"/>
    </g>
    <g id="line2d_33">
     <path d="M 875.30925 35.416562 
L 885.30925 35.416562 
L 895.30925 35.416562 
" style="fill: none; stroke: #1f77b4; stroke-width: 1.5; stroke-linecap: square"/>
    </g>
    <g id="text_17">
     <!-- Train Box Regression Loss -->
     <g transform="translate(903.30925 38.916562) scale(0.1 -0.1)">
      <defs>
       <path id="DejaVuSans-42" d="M 1259 2228 
L 1259 519 
L 2272 519 
Q 2781 519 3026 730 
Q 3272 941 3272 1375 
Q 3272 1813 3026 2020 
Q 2781 2228 2272 2228 
L 1259 2228 
z
M 1259 4147 
L 1259 2741 
L 2194 2741 
Q 2656 2741 2882 2914 
Q 3109 3088 3109 3444 
Q 3109 3797 2882 3972 
Q 2656 4147 2194 4147 
L 1259 4147 
z
M 628 4666 
L 2241 4666 
Q 2963 4666 3353 4366 
Q 3744 4066 3744 3513 
Q 3744 3084 3544 2831 
Q 3344 2578 2956 2516 
Q 3422 2416 3680 2098 
Q 3938 1781 3938 1306 
Q 3938 681 3513 340 
Q 3088 0 2303 0 
L 628 0 
L 628 4666 
z
" transform="scale(0.015625)"/>
       <path id="DejaVuSans-78" d="M 3513 3500 
L 2247 1797 
L 3578 0 
L 2900 0 
L 1881 1375 
L 863 0 
L 184 0 
L 1544 1831 
L 300 3500 
L 978 3500 
L 1906 2253 
L 2834 3500 
L 3513 3500 
z
" transform="scale(0.015625)"/>
       <path id="DejaVuSans-52" d="M 2841 2188 
Q 3044 2119 3236 1894 
Q 3428 1669 3622 1275 
L 4263 0 
L 3584 0 
L 2988 1197 
Q 2756 1666 2539 1819 
Q 2322 1972 1947 1972 
L 1259 1972 
L 1259 0 
L 628 0 
L 628 4666 
L 2053 4666 
Q 2853 4666 3247 4331 
Q 3641 3997 3641 3322 
Q 3641 2881 3436 2590 
Q 3231 2300 2841 2188 
z
M 1259 4147 
L 1259 2491 
L 2053 2491 
Q 2509 2491 2742 2702 
Q 2975 2913 2975 3322 
Q 2975 3731 2742 3939 
Q 2509 4147 2053 4147 
L 1259 4147 
z
" transform="scale(0.015625)"/>
      </defs>
      <use xlink:href="#DejaVuSans-54"/>
      <use xlink:href="#DejaVuSans-72" x="46.333984"/>
      <use xlink:href="#DejaVuSans-61" x="87.447266"/>
      <use xlink:href="#DejaVuSans-69" x="148.726562"/>
      <use xlink:href="#DejaVuSans-6e" x="176.509766"/>
      <use xlink:href="#DejaVuSans-20" x="239.888672"/>
      <use xlink:href="#DejaVuSans-42" x="271.675781"/>
      <use xlink:href="#DejaVuSans-6f" x="340.279297"/>
      <use xlink:href="#DejaVuSans-78" x="398.335938"/>
      <use xlink:href="#DejaVuSans-20" x="457.515625"/>
      <use xlink:href="#DejaVuSans-52" x="489.302734"/>
      <use xlink:href="#DejaVuSans-65" x="554.285156"/>
      <use xlink:href="#DejaVuSans-67" x="615.808594"/>
      <use xlink:href="#DejaVuSans-72" x="679.285156"/>
      <use xlink:href="#DejaVuSans-65" x="718.148438"/>
      <use xlink:href="#DejaVuSans-73" x="779.671875"/>
      <use xlink:href="#DejaVuSans-73" x="831.771484"/>
      <use xlink:href="#DejaVuSans-69" x="883.871094"/>
      <use xlink:href="#DejaVuSans-6f" x="911.654297"/>
      <use xlink:href="#DejaVuSans-6e" x="972.835938"/>
      <use xlink:href="#DejaVuSans-20" x="1036.214844"/>
      <use xlink:href="#DejaVuSans-4c" x="1068.001953"/>
      <use xlink:href="#DejaVuSans-6f" x="1121.964844"/>
      <use xlink:href="#DejaVuSans-73" x="1183.146484"/>
      <use xlink:href="#DejaVuSans-73" x="1235.246094"/>
     </g>
    </g>
    <g id="line2d_34">
     <path d="M 875.30925 50.094688 
L 885.30925 50.094688 
L 895.30925 50.094688 
" style="fill: none; stroke: #ff7f0e; stroke-width: 1.5; stroke-linecap: square"/>
    </g>
    <g id="text_18">
     <!-- Train Classification Loss -->
     <g transform="translate(903.30925 53.594688) scale(0.1 -0.1)">
      <defs>
       <path id="DejaVuSans-43" d="M 4122 4306 
L 4122 3641 
Q 3803 3938 3442 4084 
Q 3081 4231 2675 4231 
Q 1875 4231 1450 3742 
Q 1025 3253 1025 2328 
Q 1025 1406 1450 917 
Q 1875 428 2675 428 
Q 3081 428 3442 575 
Q 3803 722 4122 1019 
L 4122 359 
Q 3791 134 3420 21 
Q 3050 -91 2638 -91 
Q 1578 -91 968 557 
Q 359 1206 359 2328 
Q 359 3453 968 4101 
Q 1578 4750 2638 4750 
Q 3056 4750 3426 4639 
Q 3797 4528 4122 4306 
z
" transform="scale(0.015625)"/>
       <path id="DejaVuSans-6c" d="M 603 4863 
L 1178 4863 
L 1178 0 
L 603 0 
L 603 4863 
z
" transform="scale(0.015625)"/>
       <path id="DejaVuSans-66" d="M 2375 4863 
L 2375 4384 
L 1825 4384 
Q 1516 4384 1395 4259 
Q 1275 4134 1275 3809 
L 1275 3500 
L 2222 3500 
L 2222 3053 
L 1275 3053 
L 1275 0 
L 697 0 
L 697 3053 
L 147 3053 
L 147 3500 
L 697 3500 
L 697 3744 
Q 697 4328 969 4595 
Q 1241 4863 1831 4863 
L 2375 4863 
z
" transform="scale(0.015625)"/>
      </defs>
      <use xlink:href="#DejaVuSans-54"/>
      <use xlink:href="#DejaVuSans-72" x="46.333984"/>
      <use xlink:href="#DejaVuSans-61" x="87.447266"/>
      <use xlink:href="#DejaVuSans-69" x="148.726562"/>
      <use xlink:href="#DejaVuSans-6e" x="176.509766"/>
      <use xlink:href="#DejaVuSans-20" x="239.888672"/>
      <use xlink:href="#DejaVuSans-43" x="271.675781"/>
      <use xlink:href="#DejaVuSans-6c" x="341.5"/>
      <use xlink:href="#DejaVuSans-61" x="369.283203"/>
      <use xlink:href="#DejaVuSans-73" x="430.5625"/>
      <use xlink:href="#DejaVuSans-73" x="482.662109"/>
      <use xlink:href="#DejaVuSans-69" x="534.761719"/>
      <use xlink:href="#DejaVuSans-66" x="562.544922"/>
      <use xlink:href="#DejaVuSans-69" x="597.75"/>
      <use xlink:href="#DejaVuSans-63" x="625.533203"/>
      <use xlink:href="#DejaVuSans-61" x="680.513672"/>
      <use xlink:href="#DejaVuSans-74" x="741.792969"/>
      <use xlink:href="#DejaVuSans-69" x="781.001953"/>
      <use xlink:href="#DejaVuSans-6f" x="808.785156"/>
      <use xlink:href="#DejaVuSans-6e" x="869.966797"/>
      <use xlink:href="#DejaVuSans-20" x="933.345703"/>
      <use xlink:href="#DejaVuSans-4c" x="965.132812"/>
      <use xlink:href="#DejaVuSans-6f" x="1019.095703"/>
      <use xlink:href="#DejaVuSans-73" x="1080.277344"/>
      <use xlink:href="#DejaVuSans-73" x="1132.376953"/>
     </g>
    </g>
    <g id="line2d_35">
     <path d="M 875.30925 64.772812 
L 885.30925 64.772812 
L 895.30925 64.772812 
" style="fill: none; stroke: #2ca02c; stroke-width: 1.5; stroke-linecap: square"/>
    </g>
    <g id="text_19">
     <!-- Train Distribute Focal Loss -->
     <g transform="translate(903.30925 68.272812) scale(0.1 -0.1)">
      <defs>
       <path id="DejaVuSans-44" d="M 1259 4147 
L 1259 519 
L 2022 519 
Q 2988 519 3436 956 
Q 3884 1394 3884 2338 
Q 3884 3275 3436 3711 
Q 2988 4147 2022 4147 
L 1259 4147 
z
M 628 4666 
L 1925 4666 
Q 3281 4666 3915 4102 
Q 4550 3538 4550 2338 
Q 4550 1131 3912 565 
Q 3275 0 1925 0 
L 628 0 
L 628 4666 
z
" transform="scale(0.015625)"/>
       <path id="DejaVuSans-62" d="M 3116 1747 
Q 3116 2381 2855 2742 
Q 2594 3103 2138 3103 
Q 1681 3103 1420 2742 
Q 1159 2381 1159 1747 
Q 1159 1113 1420 752 
Q 1681 391 2138 391 
Q 2594 391 2855 752 
Q 3116 1113 3116 1747 
z
M 1159 2969 
Q 1341 3281 1617 3432 
Q 1894 3584 2278 3584 
Q 2916 3584 3314 3078 
Q 3713 2572 3713 1747 
Q 3713 922 3314 415 
Q 2916 -91 2278 -91 
Q 1894 -91 1617 61 
Q 1341 213 1159 525 
L 1159 0 
L 581 0 
L 581 4863 
L 1159 4863 
L 1159 2969 
z
" transform="scale(0.015625)"/>
       <path id="DejaVuSans-75" d="M 544 1381 
L 544 3500 
L 1119 3500 
L 1119 1403 
Q 1119 906 1312 657 
Q 1506 409 1894 409 
Q 2359 409 2629 706 
Q 2900 1003 2900 1516 
L 2900 3500 
L 3475 3500 
L 3475 0 
L 2900 0 
L 2900 538 
Q 2691 219 2414 64 
Q 2138 -91 1772 -91 
Q 1169 -91 856 284 
Q 544 659 544 1381 
z
M 1991 3584 
L 1991 3584 
z
" transform="scale(0.015625)"/>
       <path id="DejaVuSans-46" d="M 628 4666 
L 3309 4666 
L 3309 4134 
L 1259 4134 
L 1259 2759 
L 3109 2759 
L 3109 2228 
L 1259 2228 
L 1259 0 
L 628 0 
L 628 4666 
z
" transform="scale(0.015625)"/>
      </defs>
      <use xlink:href="#DejaVuSans-54"/>
      <use xlink:href="#DejaVuSans-72" x="46.333984"/>
      <use xlink:href="#DejaVuSans-61" x="87.447266"/>
      <use xlink:href="#DejaVuSans-69" x="148.726562"/>
      <use xlink:href="#DejaVuSans-6e" x="176.509766"/>
      <use xlink:href="#DejaVuSans-20" x="239.888672"/>
      <use xlink:href="#DejaVuSans-44" x="271.675781"/>
      <use xlink:href="#DejaVuSans-69" x="348.677734"/>
      <use xlink:href="#DejaVuSans-73" x="376.460938"/>
      <use xlink:href="#DejaVuSans-74" x="428.560547"/>
      <use xlink:href="#DejaVuSans-72" x="467.769531"/>
      <use xlink:href="#DejaVuSans-69" x="508.882812"/>
      <use xlink:href="#DejaVuSans-62" x="536.666016"/>
      <use xlink:href="#DejaVuSans-75" x="600.142578"/>
      <use xlink:href="#DejaVuSans-74" x="663.521484"/>
      <use xlink:href="#DejaVuSans-65" x="702.730469"/>
      <use xlink:href="#DejaVuSans-20" x="764.253906"/>
      <use xlink:href="#DejaVuSans-46" x="796.041016"/>
      <use xlink:href="#DejaVuSans-6f" x="849.935547"/>
      <use xlink:href="#DejaVuSans-63" x="911.117188"/>
      <use xlink:href="#DejaVuSans-61" x="966.097656"/>
      <use xlink:href="#DejaVuSans-6c" x="1027.376953"/>
      <use xlink:href="#DejaVuSans-20" x="1055.160156"/>
      <use xlink:href="#DejaVuSans-4c" x="1086.947266"/>
      <use xlink:href="#DejaVuSans-6f" x="1140.910156"/>
      <use xlink:href="#DejaVuSans-73" x="1202.091797"/>
      <use xlink:href="#DejaVuSans-73" x="1254.191406"/>
     </g>
    </g>
    <g id="line2d_36">
     <path d="M 875.30925 79.450938 
L 885.30925 79.450938 
L 895.30925 79.450938 
" style="fill: none; stroke: #d62728; stroke-width: 1.5; stroke-linecap: square"/>
    </g>
    <g id="text_20">
     <!-- Val Box Regression Loss -->
     <g transform="translate(903.30925 82.950938) scale(0.1 -0.1)">
      <defs>
       <path id="DejaVuSans-56" d="M 1831 0 
L 50 4666 
L 709 4666 
L 2188 738 
L 3669 4666 
L 4325 4666 
L 2547 0 
L 1831 0 
z
" transform="scale(0.015625)"/>
      </defs>
      <use xlink:href="#DejaVuSans-56"/>
      <use xlink:href="#DejaVuSans-61" x="60.658203"/>
      <use xlink:href="#DejaVuSans-6c" x="121.9375"/>
      <use xlink:href="#DejaVuSans-20" x="149.720703"/>
      <use xlink:href="#DejaVuSans-42" x="181.507812"/>
      <use xlink:href="#DejaVuSans-6f" x="250.111328"/>
      <use xlink:href="#DejaVuSans-78" x="308.167969"/>
      <use xlink:href="#DejaVuSans-20" x="367.347656"/>
      <use xlink:href="#DejaVuSans-52" x="399.134766"/>
      <use xlink:href="#DejaVuSans-65" x="464.117188"/>
      <use xlink:href="#DejaVuSans-67" x="525.640625"/>
      <use xlink:href="#DejaVuSans-72" x="589.117188"/>
      <use xlink:href="#DejaVuSans-65" x="627.980469"/>
      <use xlink:href="#DejaVuSans-73" x="689.503906"/>
      <use xlink:href="#DejaVuSans-73" x="741.603516"/>
      <use xlink:href="#DejaVuSans-69" x="793.703125"/>
      <use xlink:href="#DejaVuSans-6f" x="821.486328"/>
      <use xlink:href="#DejaVuSans-6e" x="882.667969"/>
      <use xlink:href="#DejaVuSans-20" x="946.046875"/>
      <use xlink:href="#DejaVuSans-4c" x="977.833984"/>
      <use xlink:href="#DejaVuSans-6f" x="1031.796875"/>
      <use xlink:href="#DejaVuSans-73" x="1092.978516"/>
      <use xlink:href="#DejaVuSans-73" x="1145.078125"/>
     </g>
    </g>
    <g id="line2d_37">
     <path d="M 875.30925 94.129062 
L 885.30925 94.129062 
L 895.30925 94.129062 
" style="fill: none; stroke: #9467bd; stroke-width: 1.5; stroke-linecap: square"/>
    </g>
    <g id="text_21">
     <!-- Val Classification Loss -->
     <g transform="translate(903.30925 97.629062) scale(0.1 -0.1)">
      <use xlink:href="#DejaVuSans-56"/>
      <use xlink:href="#DejaVuSans-61" x="60.658203"/>
      <use xlink:href="#DejaVuSans-6c" x="121.9375"/>
      <use xlink:href="#DejaVuSans-20" x="149.720703"/>
      <use xlink:href="#DejaVuSans-43" x="181.507812"/>
      <use xlink:href="#DejaVuSans-6c" x="251.332031"/>
      <use xlink:href="#DejaVuSans-61" x="279.115234"/>
      <use xlink:href="#DejaVuSans-73" x="340.394531"/>
      <use xlink:href="#DejaVuSans-73" x="392.494141"/>
      <use xlink:href="#DejaVuSans-69" x="444.59375"/>
      <use xlink:href="#DejaVuSans-66" x="472.376953"/>
      <use xlink:href="#DejaVuSans-69" x="507.582031"/>
      <use xlink:href="#DejaVuSans-63" x="535.365234"/>
      <use xlink:href="#DejaVuSans-61" x="590.345703"/>
      <use xlink:href="#DejaVuSans-74" x="651.625"/>
      <use xlink:href="#DejaVuSans-69" x="690.833984"/>
      <use xlink:href="#DejaVuSans-6f" x="718.617188"/>
      <use xlink:href="#DejaVuSans-6e" x="779.798828"/>
      <use xlink:href="#DejaVuSans-20" x="843.177734"/>
      <use xlink:href="#DejaVuSans-4c" x="874.964844"/>
      <use xlink:href="#DejaVuSans-6f" x="928.927734"/>
      <use xlink:href="#DejaVuSans-73" x="990.109375"/>
      <use xlink:href="#DejaVuSans-73" x="1042.208984"/>
     </g>
    </g>
    <g id="line2d_38">
     <path d="M 875.30925 108.807187 
L 885.30925 108.807187 
L 895.30925 108.807187 
" style="fill: none; stroke: #8c564b; stroke-width: 1.5; stroke-linecap: square"/>
    </g>
    <g id="text_22">
     <!-- Val Distribute Focal Loss -->
     <g transform="translate(903.30925 112.307187) scale(0.1 -0.1)">
      <use xlink:href="#DejaVuSans-56"/>
      <use xlink:href="#DejaVuSans-61" x="60.658203"/>
      <use xlink:href="#DejaVuSans-6c" x="121.9375"/>
      <use xlink:href="#DejaVuSans-20" x="149.720703"/>
      <use xlink:href="#DejaVuSans-44" x="181.507812"/>
      <use xlink:href="#DejaVuSans-69" x="258.509766"/>
      <use xlink:href="#DejaVuSans-73" x="286.292969"/>
      <use xlink:href="#DejaVuSans-74" x="338.392578"/>
      <use xlink:href="#DejaVuSans-72" x="377.601562"/>
      <use xlink:href="#DejaVuSans-69" x="418.714844"/>
      <use xlink:href="#DejaVuSans-62" x="446.498047"/>
      <use xlink:href="#DejaVuSans-75" x="509.974609"/>
      <use xlink:href="#DejaVuSans-74" x="573.353516"/>
      <use xlink:href="#DejaVuSans-65" x="612.5625"/>
      <use xlink:href="#DejaVuSans-20" x="674.085938"/>
      <use xlink:href="#DejaVuSans-46" x="705.873047"/>
      <use xlink:href="#DejaVuSans-6f" x="759.767578"/>
      <use xlink:href="#DejaVuSans-63" x="820.949219"/>
      <use xlink:href="#DejaVuSans-61" x="875.929688"/>
      <use xlink:href="#DejaVuSans-6c" x="937.208984"/>
      <use xlink:href="#DejaVuSans-20" x="964.992188"/>
      <use xlink:href="#DejaVuSans-4c" x="996.779297"/>
      <use xlink:href="#DejaVuSans-6f" x="1050.742188"/>
      <use xlink:href="#DejaVuSans-73" x="1111.923828"/>
      <use xlink:href="#DejaVuSans-73" x="1164.023438"/>
     </g>
    </g>
   </g>
  </g>
 </g>
 <defs>
  <clipPath id="p29b24e2ace">
   <rect x="43.78125" y="22.318125" width="806.4" height="443.52"/>
  </clipPath>
 </defs>
</svg>
